<?xml version="1.0" standalone="no"?>
<!DOCTYPE svg PUBLIC "-//W3C//DTD SVG 1.1//EN" "http://www.w3.org/Graphics/SVG/1.1/DTD/svg11.dtd">
<svg xmlns="http://www.w3.org/2000/svg"><metadata>This SVG WebFont was generated by YouWorkForThem.
Copyright Â© 2019 by Akufadhl. All rights reserved.</metadata><defs><font horiz-adv-x="1228" id="ywftsvg"><font-face ascent="1638" bbox="-1012 -520 1284 2052" cap-height="1434" descent="-410" font-family="" font-stretch="normal" font-weight="400" panose-1="0 0 5 0 0 0 0 0 0 0" underline-position="0" underline-thickness="0" unicode-range="U+000D-25CA" units-per-em="2048" x-height="1024"/><missing-glyph/><glyph d="M1024 1024v-1024h-154v891h-450v-891h-154v891h-164v133h164v66q0 242 82 354t260 112q221 0 303 -190l-131 -74q-39 135 -172 135q-106 0 -147 -80.5t-41 -256.5v-66h604z" glyph-name="f_i.liga" unicode="fi"/><glyph d="M1024 1024v-1153q0 -303 -270 -303q-160 0 -244 133l115 92q45 -96 120 -96q125 0 125 174v1020h-450v-891h-154v891h-164v133h164v66q0 242 82 354t260 112q221 0 303 -190l-131 -74q-39 135 -172 135q-106 0 -147 -80.5t-41 -256.5v-66h604z" glyph-name="f_j.liga" unicode="fj"/><glyph glyph-name=".notdef"/><glyph glyph-name="glyph1" horiz-adv-x="0"/><glyph glyph-name="glyph2" horiz-adv-x="681"/><glyph glyph-name="space" unicode=" "/><glyph d="M537 430l-11 1004h174l-10 -1004h-153zM526 0v225h174v-225h-174z" glyph-name="exclam" unicode="!"/><glyph d="M352 1434h154l-10 -590h-134zM723 1434h154l-11 -590h-133z" glyph-name="quotedbl" unicode="&quot;"/><glyph d="M1210 930h-225l-106 -400h208v-133h-245l-107 -397h-164l107 397h-328l-106 -397h-164l106 397h-166v133h203l107 400h-187v133h222l100 371h164l-101 -371h328l100 371h164l-100 -371h190v-133zM715 530l106 400h-327l-107 -400h328z" glyph-name="numbersign" unicode="#"/><glyph d="M1094 367q0 -174 -104.5 -269.5t-291.5 -113.5v-189h-163v189q-334 29 -437 307l156 71q74 -211 281 -239v565l-62 23q-55 20 -96 42.5t-97.5 65.5t-87 112.5t-30.5 158.5q0 160 102.5 256t290.5 106v186h164v-192q272 -47 358 -279l-153 -71q-55 164 -205 204v-503 l43 -17q61 -23 106 -46t103.5 -70.5t90.5 -123t32 -173.5zM330 1094q0 -57 17.5 -97.5t57 -68t60 -36.5t70.5 -28l20 -8v457q-225 -22 -225 -219zM698 125q227 29 228 240q0 53 -17.5 96t-35 66.5t-59.5 47t-56.5 29.5t-59.5 23v-502z" glyph-name="dollar" unicode="$"/><glyph d="M334 778q-125 0 -209 84t-84 242q0 156 84 243t209 87q127 0 212 -87t85 -243q0 -158 -85 -242t-212 -84zM866 879l-102 69l266 486h174zM336 897q66 0 104.5 53.5t38.5 153.5q0 102 -39 156.5t-104.5 54.5t-104 -54.5t-38.5 -156.5q0 -207 143 -207zM877 0 q-125 0 -209 84t-84 242q0 156 84 242.5t209 86.5q127 0 212 -87t85 -242q0 -158 -85 -242t-212 -84zM25 0l337 555l103 -70l-266 -485h-174zM879 119q66 0 104.5 53t38.5 154q0 102 -39 156.5t-104.5 54.5t-104.5 -54.5t-39 -156.5q1 -207 144 -207z" glyph-name="percent" unicode="%"/><glyph d="M1214 0h-213l-94 111q-158 -131 -385 -131q-203 0 -321.5 102t-118.5 301q0 274 248 397q-121 156 -121 320q0 168 90 261t260 93q184 0 264 -101.5t80 -240.5q0 -283 -317 -367l-21 -6l348 -397q66 109 105 276l151 -65q-57 -197 -153 -328zM369 1100q0 -131 110 -262 q6 0 16.5 3t14.5 5q129 33 181 95.5t52 160.5q0 100 -47 156.5t-137 56.5q-88 0 -139 -53t-51 -162zM530 119q168 0 283 100l-403 467q-84 -39 -125 -102.5t-41 -173.5q-1 -291 286 -291z" glyph-name="ampersand" unicode="&amp;"/><glyph d="M537 1434h153l-10 -590h-133z" glyph-name="quotesingle" unicode="'"/><glyph d="M899 -303q-530 301 -530 911.5t530 911.5l74 -84q-432 -252 -432 -827.5t432 -827.5z" glyph-name="parenleft" unicode="("/><glyph d="M330 -303l-74 84q432 252 432 827.5t-432 827.5l74 84q530 -301 530 -911.5t-530 -911.5z" glyph-name="parenright" unicode=")"/><glyph d="M946 1163l-221 -86l168 -203l-129 -88l-150 234l-149 -234l-129 88l168 203l-221 86l63 142l207 -117l-16 246h155l-16 -246l207 117z" glyph-name="asterisk" unicode="*"/><glyph d="M1061 578v-134h-363v-381h-163v381h-367v134h364v378h164v-378h365z" glyph-name="plus" unicode="+"/><glyph d="M535 225h184v-184q0 -123 -51.5 -206t-180.5 -130l-41 76q172 55 189 186l-100 33v225z" glyph-name="comma" unicode=","/><glyph d="M326 442v133h577v-133h-577z" glyph-name="hyphen" unicode="-"/><glyph d="M522 0v225h185v-225h-185z" glyph-name="period" unicode="."/><glyph d="M127 -328l821 1864h154l-821 -1864h-154z" glyph-name="slash" unicode="/"/><glyph d="M614 -20q-242 0 -372.5 186t-130.5 550.5t131 551t372 186.5q240 0 372 -186.5t132 -551t-132 -550.5t-372 -186zM616 119q330 0 330 598q0 299 -85 448.5t-245 149.5q-334 0 -334 -598t334 -598z" glyph-name="zero" unicode="0"/><glyph d="M743 133h301v-133h-784v133h320v1131l-297 -140l-58 129l396 181h122v-1301z" glyph-name="one" unicode="1"/><glyph d="M377 133h739v-133h-966v106l493 488q137 135 172 186q74 104 74 236q0 150 -79 224.5t-214 74.5q-250 0 -315 -268l-152 73q98 334 467 334q209 0 337 -108.5t128 -317.5q0 -88 -20.5 -159.5t-74 -142.5t-93 -114t-125.5 -125z" glyph-name="two" unicode="2"/><glyph d="M889 774q221 -90 221 -371q0 -207 -134 -315t-355 -108q-193 0 -312 87t-170 275l152 72q37 -154 110.5 -224.5t219.5 -70.5q141 0 229 73.5t88 221.5q0 135 -67.5 207.5t-170.5 72.5h-211v133h154q96 0 158.5 60.5t62.5 187.5q0 115 -63.5 177.5t-184.5 62.5 q-123 0 -192.5 -63.5t-99.5 -204.5l-154 61q88 346 448 346q215 0 316.5 -107.5t101.5 -267.5q0 -217 -147 -305z" glyph-name="three" unicode="3"/><glyph d="M1139 489v-133h-195v-356h-164v356h-708v113l727 965h145v-945h195zM266 489h514v687z" glyph-name="four" unicode="4"/><glyph d="M641 956q244 0 360.5 -134t116.5 -353q0 -246 -136 -367.5t-380 -121.5q-385 0 -489 372l155 62q37 -152 116 -223.5t218 -71.5q164 0 255 85t91 265q0 170 -84 259t-235 89q-102 0 -186.5 -38t-129.5 -107l-129 73l56 689h823v-134h-672l-33 -417q119 73 283 73z" glyph-name="five" unicode="5"/><glyph d="M682 903q227 0 341 -130t114 -333q0 -229 -135.5 -344.5t-348.5 -115.5q-530 0 -530 741q0 733 539 733q348 0 471 -305l-154 -72q-45 117 -114.5 177.5t-202.5 60.5q-203 0 -288 -152.5t-85 -425.5v-43q119 209 393 209zM647 119q143 0 230.5 77.5t87.5 239.5 q0 158 -86 244t-232 86q-143 0 -234 -84t-100 -246q35 -168 118 -242.5t216 -74.5z" glyph-name="six" unicode="6"/><glyph d="M1087 1434v-113l-598 -1321h-172l592 1300h-753v134h931z" glyph-name="seven" unicode="7"/><glyph d="M887 758q233 -102 233 -365q0 -201 -138 -307t-367.5 -106t-366.5 106.5t-137 306.5q0 262 227 363q-172 84 -172 303q0 180 110.5 287.5t337.5 107.5q225 0 337 -111.5t112 -279.5q0 -217 -176 -305zM614 1315q-129 0 -202.5 -65.5t-73.5 -186.5q0 -125 77 -185.5 t199 -60.5q276 0 277 246q0 125 -73 188.5t-204 63.5zM614 119q152 0 243 72.5t91 216t-90 215t-243.5 71.5t-243.5 -71.5t-90 -215t91.5 -216t241.5 -72.5z" glyph-name="eight" unicode="8"/><glyph d="M586 1454q530 0 530 -741q0 -733 -538 -733q-348 0 -472 305l154 71q45 -117 114.5 -177t203.5 -60q203 0 287.5 152.5t84.5 424.5v43q-119 -209 -393 -209q-227 0 -341 130.5t-114 332.5q0 229 135.5 345t348.5 116zM592 668q143 0 234.5 84t99.5 245q-35 168 -118 243 t-216 75q-143 0 -230.5 -78t-87.5 -240q0 -158 86.5 -243.5t231.5 -85.5z" glyph-name="nine" unicode="9"/><glyph d="M522 676v225h185v-225h-185zM522 0v225h185v-225h-185z" glyph-name="colon" unicode=":"/><glyph d="M707 901v-225h-185v225h185zM535 225h184v-184q0 -123 -51.5 -206t-180.5 -130l-41 76q172 55 189 186l-100 33v225z" glyph-name="semicolon" unicode=";"/><glyph d="M1014 934l-678 -342l678 -344l-62 -123l-749 395v142l749 397z" glyph-name="less" unicode="&lt;"/><glyph d="M260 729v133h709v-133h-709zM260 319v134h709v-134h-709z" glyph-name="equal" unicode="="/><glyph d="M276 1059l750 -397v-142l-750 -395l-61 123l678 344l-678 342z" glyph-name="greater" unicode=">"/><glyph d="M592 1454q182 0 294.5 -97t112.5 -290q0 -106 -36.5 -185t-90 -126t-106.5 -91t-90 -105.5t-37 -143.5h-164q0 86 25.5 151.5t65.5 102.5t85 76.5t85 75.5t65.5 97.5t25.5 143.5q0 252 -235 252q-113 0 -183.5 -62.5t-99.5 -205.5l-155 55q90 352 438 352zM471 0v225h184 v-225h-184z" glyph-name="question" unicode="?"/><glyph d="M903 1397q266 -301 266 -856q0 -418 -141 -629t-416 -211q-553 0 -553 838q0 731 424 731q154 0 247 -107.5t93 -345.5v-598h-112l-13 105q-23 -55 -71.5 -90t-110.5 -35q-84 0 -132 71.5t-48 200.5q0 172 89 250t265 80v16q0 350 -213 350q-287 0 -287 -620 q0 -379 103.5 -561.5t318.5 -182.5q424 0 424 732q0 301 -57 483t-164 301zM555 311q84 0 135 146v237q-106 -6 -164.5 -53t-58.5 -170q0 -160 88 -160z" glyph-name="at" unicode="@"/><glyph d="M981 0l-127 418h-483l-125 -418h-174l450 1434h183l452 -1434h-176zM412 551h403l-203 666z" glyph-name="A" unicode="A"/><glyph d="M897 768q211 -80 211 -358q0 -410 -410 -410h-493v1434h434q408 0 408 -369q0 -213 -150 -297zM639 1300h-270v-473h268q113 0 175 46.5t62 185.5t-63 190t-172 51zM698 133q111 0 174.5 58.5t63.5 224.5q0 168 -71.5 223t-227.5 55h-268v-561h329z" glyph-name="B" unicode="B"/><glyph d="M655 -20q-242 0 -378 194.5t-136 542.5t136.5 542.5t377.5 194.5q162 0 285 -86t180 -250l-145 -84q-90 281 -316 281q-168 0 -257 -157t-89 -441.5t89.5 -441t256.5 -156.5q225 0 316 280l145 -84q-61 -162 -183 -248.5t-282 -86.5z" glyph-name="C" unicode="C"/><glyph d="M553 1434q264 0 413.5 -175.5t149.5 -531.5q0 -358 -150.5 -542.5t-412.5 -184.5h-358v1434h358zM553 139q184 0 289.5 146.5t105.5 441.5q0 291 -104.5 429t-290.5 138h-195v-1155h195z" glyph-name="D" unicode="D"/><glyph d="M1040 1300h-620v-483h559v-133h-559v-551h620v-133h-784v1434h784v-134z" glyph-name="E" unicode="E"/><glyph d="M1081 1300h-620v-503h559v-133h-559v-664h-164v1434h784v-134z" glyph-name="F" unicode="F"/><glyph d="M567 715h533v-715h-144l-14 121q-119 -141 -313 -141q-240 0 -378 195.5t-138 541.5t140 541.5t386 195.5q156 0 273.5 -81t179.5 -234l-146 -84q-90 260 -315 260q-168 0 -257 -157t-89 -441.5t91 -441t267 -156.5q98 0 176 49t117 141v273h-369v133z" glyph-name="G" unicode="G"/><glyph d="M870 1434h164v-1434h-164v672h-512v-672h-163v1434h163v-629h512v629z" glyph-name="H" unicode="H"/><glyph d="M1008 1300h-312v-1167h312v-133h-785v133h309v1167h-309v134h785v-134z" glyph-name="I" unicode="I"/><glyph d="M1044 1434v-912q0 -276 -106.5 -408t-347.5 -132q-180 0 -288.5 78.5t-160.5 265.5l156 69q49 -274 307 -274q147 0 212 96t65 305v778h-551v134h714z" glyph-name="J" unicode="J"/><glyph d="M991 0l-483 741l-129 -143v-598h-164v1434h164v-625l559 625h190l-516 -576l566 -858h-187z" glyph-name="K" unicode="K"/><glyph d="M451 133h702v-133h-866v1434h164v-1301z" glyph-name="L" unicode="L"/><glyph d="M1104 1434v-1434h-154v1120l-258 -915h-145l-268 952v-1157h-154v1434h215l281 -994l278 994h205z" glyph-name="M" unicode="M"/><glyph d="M870 1434h164v-1434h-164l-512 1130v-1130h-163v1434h184l491 -1086v1086z" glyph-name="N" unicode="N"/><glyph d="M612 -20q-240 0 -370.5 183t-130.5 553.5t131 554t370 183.5q242 0 374 -183.5t132 -554t-132 -553.5t-374 -183zM614.5 119q331.5 0 331.5 598t-331.5 598t-331.5 -598t331.5 -598z" glyph-name="O" unicode="O"/><glyph d="M731 1434q408 0 408 -418q0 -434 -410 -434h-340v-582h-164v1434h506zM729 715q111 0 174.5 61.5t63.5 239.5q0 168 -62.5 226t-173.5 58h-342v-585h340z" glyph-name="P" unicode="P"/><glyph d="M1139 -209l-129 -117l-265 322q-66 -16 -133 -16q-240 0 -370.5 183t-130.5 553.5t131 554t370 183.5q242 0 374 -183.5t132 -553.5q0 -487 -231 -658zM283 717q0 -598 331.5 -598t331.5 598t-331.5 598t-331.5 -598z" glyph-name="Q" unicode="Q"/><glyph d="M907 418l197 -418h-184l-177 399q-63 141 -92 172q-49 51 -168 52h-125v-623h-163v1434h464q211 0 308.5 -106.5t97.5 -291.5q0 -354 -330 -389q86 -51 172 -229zM358 756h299q238 0 238 272t-236 272h-301v-544z" glyph-name="R" unicode="R"/><glyph d="M612 -20q-399 0 -514 311l156 71q43 -123 127 -183t233 -60q311 0 312 246q0 53 -17.5 96t-35 66.5t-59.5 47t-56.5 29.5t-59.5 23l-225 84q-55 20 -96 42.5t-97.5 65.5t-87 112.5t-30.5 158.5q0 170 115.5 267t324.5 97q180 0 302 -74.5t173 -212.5l-153 -71 q-76 219 -322 219q-131 0 -201.5 -57.5t-70.5 -163.5q0 -57 17.5 -97.5t57 -68t60 -36.5t70.5 -28l227 -84q61 -23 106 -46t103.5 -70.5t90.5 -123t32 -173.5q0 -195 -128.5 -291t-353.5 -96z" glyph-name="S" unicode="S"/><glyph d="M1147 1434v-134h-451v-1300h-164v1300h-450v134h1065z" glyph-name="T" unicode="T"/><glyph d="M614.5 -20q-233.5 0 -342 130t-108.5 412v912h164v-912q0 -219 65.5 -311t221 -92t221 92t65.5 311v912h164v-912q0 -283 -108.5 -412.5t-342 -129.5z" glyph-name="U" unicode="U"/><glyph d="M985 1434h172l-459 -1434h-168l-458 1434h174l370 -1205z" glyph-name="V" unicode="V"/><glyph d="M1016 1434h162l-195 -1434h-147l-211 938l-211 -938h-148l-194 1434h161l132 -1063l184 858h158l180 -854z" glyph-name="W" unicode="W"/><glyph d="M1096 1434l-396 -691l396 -743h-176l-308 614l-301 -614h-176l397 737l-397 697h176l310 -574l299 574h176z" glyph-name="X" unicode="X"/><glyph d="M1159 1434l-461 -809v-625h-163v621l-465 813h184l362 -662l363 662h180z" glyph-name="Y" unicode="Y"/><glyph d="M338 133h762v-133h-965v113l744 1187h-713v134h917v-113z" glyph-name="Z" unicode="Z"/><glyph d="M938 1366h-334v-1516h334v-133h-498v1782h498v-133z" glyph-name="bracketleft" unicode="["/><glyph d="M999 -328h-153l-617 1864h154z" glyph-name="backslash" unicode="\"/><glyph d="M788 1499v-1782h-497v133h334v1516h-334v133h497z" glyph-name="bracketright" unicode="]"/><glyph d="M1065 940l-121 -78l-328 447l-331 -447l-121 78l393 494h117z" glyph-name="asciicircum" unicode="^"/><glyph d="M190 -133v133h848v-133h-848z" glyph-name="underscore" unicode="_"/><glyph d="M684 1171l-278 252l112 117l248 -299z" glyph-name="grave" unicode="`"/><glyph d="M602 1044q205 0 313.5 -99t108.5 -327v-618h-154v137q-68 -76 -148.5 -116.5t-207.5 -40.5q-156 0 -241 64.5t-85 186.5q0 180 184.5 264.5t497.5 86.5v36q0 168 -72.5 232.5t-197.5 64.5q-225 0 -297 -194l-145 67q122 256 444 256zM543 102q199 0 327 181v174 q-123 -2 -207.5 -10.5t-162.5 -30t-117 -62.5t-39 -102q0 -68 48.5 -109t150.5 -41z" glyph-name="a" unicode="a"/><glyph d="M653 1044q205 0 326 -137t121 -395t-121 -395t-326 -137q-186 0 -295 129v-109h-153v1536h153v-621q109 129 295 129zM627 109q152 0 232.5 116.5t80.5 286.5t-81 286.5t-232 116.5q-201 0 -269 -194v-418q68 -194 269 -194z" glyph-name="b" unicode="b"/><glyph d="M653 -20q-223 0 -348 136t-125 396t125 396t348 136q301 0 402 -256l-146 -67q-66 195 -260 194q-150 0 -229.5 -116.5t-79.5 -286.5t80 -286.5t229 -116.5q195 0 260 194l146 -67q-101 -256 -402 -256z" glyph-name="c" unicode="c"/><glyph d="M891 1536h153v-1536h-153v109q-109 -129 -295 -129q-205 0 -325.5 137t-120.5 395t120.5 395t325.5 137q186 0 295 -129v621zM623 109q201 0 268 194v418q-68 195 -268 194q-152 0 -233 -116.5t-81 -286.5t81 -286.5t233 -116.5z" glyph-name="d" unicode="d"/><glyph d="M1067 481h-741q8 -188 91 -280t220 -92q205 0 270 194l142 -67q-113 -256 -412 -256q-217 0 -340 138t-123 394q0 262 124 397t329 135q227 0 338.5 -154.5t101.5 -408.5zM625 915q-123 0 -200 -80.5t-93 -230.5h575q-32 311 -282 311z" glyph-name="e" unicode="e"/><glyph d="M809 1427q-139 0 -192.5 -80.5t-53.5 -256.5v-66h445v-133h-445v-891h-153v891h-246v133h246v66q0 242 96 354t305 112q143 0 236.5 -53t150.5 -178l-131 -74q-61 176 -258 176z" glyph-name="f" unicode="f"/><glyph d="M899 98q238 -51 238 -252q0 -276 -498 -276q-506 0 -506 280q0 184 232 285q-29 39 -29 94q0 113 104 156q-248 63 -247 320q0 166 106.5 252.5t292.5 86.5q109 0 190 -30q-25 55 -24 112q0 84 54 131.5t146 47.5q123 0 189 -76l-92 -107q-49 49 -111 49q-94 0 -94 -94 q0 -63 35 -123q106 -88 106 -249q0 -164 -105.5 -249t-285.5 -87q-59 -29 -88 -53.5t-29 -63.5q0 -66 113 -88zM346 704.5q0 -104.5 65.5 -156.5t180.5 -52t180.5 53t65.5 156q0 104 -66.5 158.5t-179.5 54.5q-115 0 -180.5 -54.5t-65.5 -159zM639 -301q344 0 344 156 q0 96 -139 125l-295 63q-70 16 -100 31q-162 -74 -162 -199q0 -176 352 -176z" glyph-name="g" unicode="g"/><glyph d="M717 1044q158 0 232.5 -92t74.5 -313v-639h-154v639q0 164 -50 223.5t-146 59.5q-100 0 -171 -46.5t-134 -140.5v-735h-154v1536h154v-653q143 161 348 161z" glyph-name="h" unicode="h"/><glyph d="M721 1475v-246h-162v246h162zM717 123h307v-123h-829v123h368v778h-348v123h502v-901z" glyph-name="i" unicode="i"/><glyph d="M825 1475v-246h-161v246h161zM883 1024v-1112q0 -344 -361 -344q-233 0 -358 174l115 92q47 -72 102 -104.5t139 -32.5q111 0 160 53t49 162v989h-422v123h576z" glyph-name="j" unicode="j"/><glyph d="M975 0l-359 537l-215 -215v-322h-153v1536h153v-1026l504 514h199l-379 -379l438 -645h-188z" glyph-name="k" unicode="k"/><glyph d="M956 209l82 -94q-129 -135 -315 -135q-289 0 -289 303v1130h-297v123h451v-1253q0 -174 162 -174q132 0 206 100z" glyph-name="l" unicode="l"/><glyph d="M893 1044q109 0 161 -77.5t52 -266.5v-700h-143v700q0 135 -27 178.5t-82 43.5t-99 -49.5t-69 -194.5v-678h-143v700q0 137 -25.5 179.5t-81.5 42.5q-57 0 -100 -49.5t-70 -194.5v-678h-143v1024h143v-117q70 137 209 137q150 0 193 -159q71 159 225 159z" glyph-name="m" unicode="m"/><glyph d="M717 1044q158 0 232.5 -92t74.5 -313v-639h-154v639q0 162 -49 222.5t-141 60.5q-176 0 -311 -191v-731h-154v1024h154v-141q143 161 348 161z" glyph-name="n" unicode="n"/><glyph d="M614 -20q-217 0 -344 136t-127 396t127 396t344 136t344 -136t127 -396t-127 -396t-344 -136zM614 109q145 0 228.5 102t83.5 301q0 197 -83 300t-229 103q-143 0 -227 -103t-84 -300t84 -300t227 -103z" glyph-name="o" unicode="o"/><glyph d="M649 1044q205 0 326 -137t121 -395t-121 -395t-326 -137q-186 0 -295 129v-519h-153v1434h153v-109q109 129 295 129zM623 109q152 0 232.5 116.5t80.5 286.5t-81 286.5t-232 116.5q-201 0 -269 -194v-418q68 -194 269 -194z" glyph-name="p" unicode="p"/><glyph d="M864 1024h154v-1434h-154v519q-109 -129 -295 -129q-205 0 -325.5 137t-120.5 395t121 395t325 137q186 0 295 -129v109zM596 109q201 0 268 194v418q-68 195 -268 194q-152 0 -232.5 -116.5t-80.5 -286.5t80.5 -286.5t232.5 -116.5z" glyph-name="q" unicode="q"/><glyph d="M762 1044q260 0 342 -266l-148 -73q-29 104 -83 155t-154 51q-217 0 -289 -264v-647h-154v1024h154v-182q109 202 332 202z" glyph-name="r" unicode="r"/><glyph d="M655 -20q-375 0 -477 256l139 67q39 -100 120 -147t218 -47q272 0 273 163q0 61 -42 95t-124 53l-299 69q-123 29 -180.5 92.5t-57.5 170.5q0 147 101.5 219.5t283.5 72.5q319 0 426 -225l-139 -67q-70 164 -289 163q-236 0 -235 -155q0 -61 38 -88t115 -45l279 -64 q139 -33 204.5 -99.5t65.5 -178.5q0 -154 -111.5 -229.5t-308.5 -75.5z" glyph-name="s" unicode="s"/><glyph d="M930 254l135 -61q-104 -213 -350 -213q-319 0 -320 303v618h-266v123h266l41 287h113v-287h444v-123h-444v-618q0 -88 42 -131t136 -43q78 0 122 31.5t81 113.5z" glyph-name="t" unicode="t"/><glyph d="M860 1024h154v-1024h-154v141q-143 -162 -348 -161q-158 0 -232.5 92t-74.5 313v639h153v-639q0 -172 51.5 -227.5t137.5 -55.5q102 0 175 47.5t138 141.5v733z" glyph-name="u" unicode="u"/><glyph d="M913 1024h177l-400 -1024h-153l-400 1024h176l301 -823z" glyph-name="v" unicode="v"/><glyph d="M952 1024h152l-195 -1024h-143l-158 752l-157 -752h-144l-194 1024h151l129 -758l150 758h131l149 -758z" glyph-name="w" unicode="w"/><glyph d="M1104 1024l-399 -496l399 -528h-184l-308 420l-303 -420h-184l397 530l-397 494h184l305 -387l306 387h184z" glyph-name="x" unicode="x"/><glyph d="M950 1024h168l-502 -1176q-70 -162 -146.5 -220t-184.5 -58q-137 0 -224 98l103 107q47 -76 133 -76q59 0 99 39t85 139l70 154l-430 993h176l330 -809z" glyph-name="y" unicode="y"/><glyph d="M1008 1024v-92l-611 -799h611v-133h-820v92l613 799h-582v133h789z" glyph-name="z" unicode="z"/><glyph d="M631 895q0 -221 -234 -287q233 -66 234 -286v-297q0 -94 26.5 -134.5t85.5 -40.5h187v-133h-187q-129 0 -202.5 78t-73.5 230v294q0 113 -51 168.5t-201 55.5v133q154 0 203 50t49 171v295q0 143 69.5 225t206.5 82h187v-133h-187q-59 0 -85.5 -40t-26.5 -134v-297z" glyph-name="braceleft" unicode="{"/><glyph d="M532 -410v2048h164v-2048h-164z" glyph-name="bar" unicode="|"/><glyph d="M760 897q0 -121 49 -171t203 -50v-133q-150 0 -201 -55.5t-51 -168.5v-294q0 -152 -74 -230t-203 -78h-186v133h186q59 0 86 40t27 135v297q0 221 233 286q-233 66 -233 287v297q0 94 -26.5 134t-86.5 40h-186v133h186q137 0 207 -82t70 -225v-295z" glyph-name="braceright" unicode="}"/><glyph d="M956 649l99 -43q-20 -59 -37 -95t-46.5 -75t-72.5 -57.5t-100 -18.5q-72 0 -129.5 30t-89 67t-74.5 66.5t-88 29.5q-18 0 -32.5 -3t-27 -13.5t-20.5 -17.5t-18.5 -26.5t-15.5 -27.5t-16.5 -33.5t-15.5 -34.5l-98 43q20 59 36.5 95t46.5 75t73 57.5t102 18.5 q72 0 129 -29.5t88 -66.5t74 -66.5t88 -29.5q14 0 25.5 2t22.5 8t18.5 11t16.5 17.5t14 17.5t13.5 22.5t11.5 23.5t12 26.5t11 26.5z" glyph-name="asciitilde" unicode="~"/><glyph glyph-name="uni00A0" unicode=" "/><glyph d="M700 1024v-225h-174v225h174zM690 594l10 -1004h-174l11 1004h153z" glyph-name="exclamdown" unicode="¡"/><glyph d="M719 322q137 33 190 186l146 -68q-92 -229 -336 -252v-188h-164v193q-178 29 -276.5 161.5t-98.5 362t98.5 362.5t276.5 162v193h164v-189q244 -23 336 -252l-146 -67q-53 154 -190 186v-790zM340 717q0 -137 55.5 -246t159.5 -143v778q-104 -35 -159.5 -143.5 t-55.5 -245.5z" glyph-name="cent" unicode="¢"/><glyph d="M586 412q0 -117 -48.5 -180.5t-134.5 -98.5h701v-133h-983v133h119q68 18 122 86t54 176q0 92 -56 207h-239v133h174q-55 129 -55 264q0 209 117.5 332t318.5 123q324 0 430 -309l-148 -90q-70 260 -282 260q-123 0 -193.5 -85t-70.5 -226q0 -121 73 -269h408v-133h-344 q37 -100 37 -190z" glyph-name="sterling" unicode="£"/><glyph d="M977 704.5q0 -114.5 -49 -192.5l233 -233l-117 -117l-243 244q-76 -37 -186.5 -37t-186.5 37l-244 -244l-116 117l237 237q-45 80 -45 189q0 113 47 190l-239 240l116 116l244 -243q78 37 186 36q111 0 187 -36l243 243l117 -116l-235 -236q51 -80 51 -194.5zM422 704.5 q0 -92.5 49 -144.5t143 -52q96 0 148.5 52t52.5 144.5t-52 146.5t-149 54q-94 0 -143 -54t-49 -146.5z" glyph-name="currency" unicode="¤"/><glyph d="M1159 1434l-407 -715h268v-133h-322v-195h322v-133h-322v-258h-163v258h-324v133h324v195h-324v133h268l-409 715h184l362 -662l363 662h180z" glyph-name="yen" unicode="¥"/><glyph d="M532 748v890h164v-890h-164zM532 -410v893h164v-893h-164z" glyph-name="brokenbar" unicode="¦"/><glyph d="M926 199q176 -96 176 -285q0 -180 -126 -262t-339 -82q-221 0 -352 90t-189 287l154 67q49 -164 135 -234.5t256 -70.5q293 0 293 205q0 92 -50 138t-141 79l-311 113q-137 49 -211 124.5t-74 213.5q0 211 177 282q-176 94 -177 264q0 141 103.5 233.5t316.5 92.5 q385 0 486 -342l-154 -68q-37 139 -114.5 205t-217.5 66q-121 0 -186.5 -48t-65.5 -139q0 -78 43 -116.5t131 -71.5l314 -115q152 -55 225.5 -131t73.5 -209q0 -216 -176 -286zM489 367l314 -115l2 -2h4q127 53 127 211q0 102 -50 156.5t-143 87.5l-301 108 q-129 -51 -129 -211q0 -100 45 -152t131 -83z" glyph-name="section" unicode="§"/><glyph d="M350 1229v184h182v-184h-182zM698 1229v184h183v-184h-183z" glyph-name="dieresis" unicode="¨"/><glyph d="M625 -35q-281 0 -433.5 212t-152.5 537.5t152.5 537.5t433.5 212q272 0 418.5 -212t146.5 -537.5t-146.5 -537.5t-418.5 -212zM625 68q219 0 333.5 181t114.5 465.5t-114.5 466t-333.5 181.5q-229 0 -349 -181.5t-120 -466t120 -465.5t349 -181zM643 254 q-164 0 -256 117.5t-92 343t92 343.5t256 118q213 0 285 -222l-125 -59q-43 168 -164 168q-100 0 -153.5 -101.5t-53.5 -247t53.5 -246.5t153.5 -101q121 0 164 168l125 -60q-72 -221 -285 -221z" glyph-name="copyright" unicode="©"/><glyph d="M367 1448q262 0 262 -246v-383h-117l-4 82q-84 -94 -217 -94q-90 0 -140.5 39t-50.5 112q0 207 406 207v37q0 143 -141 144q-121 0 -156 -111l-119 35q68 178 277 178zM330 905q109 0 176 96v82q-88 -2 -145.5 -9t-97.5 -30.5t-40 -64.5q1 -74 107 -74z" glyph-name="ordfeminine" horiz-adv-x="739" unicode="ª"/><glyph d="M643 756l-260 -262l260 -265l-98 -100l-361 363l2 2h-2l361 362zM1012 756l-260 -262l260 -265l-99 -100l-360 363l2 2h-2l360 362z" glyph-name="guillemotleft" unicode="«"/><glyph d="M1067 633v-633h-164v500h-811v133h975z" glyph-name="logicalnot" unicode="¬"/><glyph d="M326 442v133h577v-133h-577z" glyph-name="uni00AD" unicode="­"/><glyph d="M614.5 1454q202.5 0 324.5 -134t122 -333t-122 -333t-324.5 -134t-324.5 134t-122 333t122 333t324.5 134zM614.5 559q186.5 0 296 122t109.5 306t-109.5 306t-296 122t-296 -122t-109.5 -306t109.5 -306t296 -122zM723 932q18 -12 41 -58l78 -167h-113l-70 157 q-12 29 -26.5 39t-44.5 10h-66v-206h-98v573h190q205 0 205 -184q0 -123 -96 -164zM522 1196v-199h92q104 0 105 103q0 96 -105 96h-92z" glyph-name="registered" unicode="®"/><glyph d="M360 1249v133h510v-133h-510z" glyph-name="macron" unicode="¯"/><glyph d="M612 821q-131 0 -217 82t-86 234q0 150 87 233.5t216 83.5q131 0 219.5 -84t88.5 -233q0 -152 -87.5 -234t-220.5 -82zM614.5 930q77.5 0 122.5 52t45 154.5t-45 156t-122.5 53.5t-123 -53.5t-45.5 -155.5q0 -104 45.5 -155.5t123 -51.5z" glyph-name="degree" unicode="°"/><glyph d="M696 698h334v-133h-332v-256h-163v256h-336v133h333v258h164v-258zM209 0v133h811v-133h-811z" glyph-name="plusminus" unicode="±"/><glyph d="M502 1171l-82 70l248 299l112 -119z" glyph-name="acute" unicode="´"/><glyph d="M526 -410v1037q-174 0 -283.5 104.5t-109.5 299t109.5 299t283.5 104.5h144v-1844h-144zM834 -410v1844h143v-1844h-143z" glyph-name="paragraph" unicode="¶"/><glyph d="M616 629q-51 0 -85.5 34.5t-34.5 86.5q0 49 34.5 83.5t85.5 34.5q49 0 84 -34.5t35 -83.5q0 -51 -35 -86t-84 -35z" glyph-name="periodcentered" unicode="·"/><glyph d="M659 -80q182 -35 183 -170q0 -80 -59.5 -129t-184.5 -49q-123 0 -199 51l60 109q66 -57 139 -58q53 0 86 20.5t33 59.5q0 78 -180 96l28 175l109 -2z" glyph-name="cedilla" unicode="¸"/><glyph d="M369 807q-131 0 -208 82t-77 239q0 156 77 238t208 82q129 0 206.5 -82t77.5 -238q0 -158 -77.5 -239.5t-206.5 -81.5zM368.5 905q75.5 0 121 57.5t45.5 165.5q0 104 -45.5 162t-121 58t-120.5 -56.5t-45 -163.5q0 -109 45 -166t120.5 -57z" glyph-name="ordmasculine" horiz-adv-x="737" unicode="º"/><glyph d="M674 494v-2l-361 -363l-98 100l260 265l-260 262l98 100zM1042 494v-2l-360 -363l-98 100l260 265l-260 262l98 100z" glyph-name="guillemotright" unicode="»"/><glyph d="M276 1280l-165 -74l-52 115l252 113h101v-656h-136v502zM1130 1434l-337 -555l-103 69l266 486h174zM1176 262v-102h-115v-160h-133v160h-310v90l318 440h125v-428h115zM74 0l338 555l102 -70l-266 -485h-174zM760 262h168v238z" glyph-name="onequarter" unicode="¼"/><glyph d="M272 1280l-166 -74l-51 115l252 113h101v-656h-136v502zM1085 1434l-337 -555l-103 69l266 486h174zM842 113h346v-113h-557v94l258 217q4 4 20.5 17.5t20.5 17.5t17.5 15.5t16.5 16.5t13 15t12 16.5t8.5 17.5t8.5 19.5t4 19.5t2 23q0 104 -115 104.5t-141 -120.5 l-117 47q53 190 268 191q115 0 183.5 -54.5t68.5 -162.5q0 -29 -4 -52.5t-16.5 -46t-20.5 -37t-31.5 -37t-31.5 -30.5t-41 -34t-41 -34zM29 0l338 555l102 -70l-266 -485h-174z" glyph-name="onehalf" unicode="½"/><glyph d="M473 1116q119 -45 119 -166q0 -98 -75 -148t-208 -50q-221 0 -276 143l127 70q27 -96 149 -97q143 0 144 97q0 45 -35 67.5t-90 22.5h-80v112h49q55 0 91 20.5t36 61.5q0 80 -102 80q-117 0 -140 -110l-129 61q53 166 266 166q129 0 186.5 -52.5t57.5 -133.5 q0 -97 -90 -144zM1171 1434l-337 -555l-103 69l266 486h174zM1176 262v-102h-115v-160h-133v160h-310v90l318 440h125v-428h115zM94 0l338 555l103 -70l-267 -485h-174zM760 262h168v238z" glyph-name="threequarters" unicode="¾"/><glyph d="M758 1044v-225h-185v225h185zM637 -410q-182 0 -295 97.5t-113 289.5q0 106 37 185.5t90.5 126.5t106.5 91t90 105.5t37 143.5h164q0 -86 -26 -151.5t-65.5 -102.5t-85 -77t-85 -76t-65.5 -97.5t-26 -142.5q0 -252 236 -252q113 0 183.5 62.5t99.5 205.5l155 -55 q-90 -353 -438 -353z" glyph-name="questiondown" unicode="¿"/><glyph d="M760 1651l-82 -70l-279 252l113 117zM981 0l-127 418h-483l-125 -418h-174l450 1434h183l452 -1434h-176zM412 551h403l-203 666z" glyph-name="Agrave" unicode="À"/><glyph d="M829 1831l-278 -250l-82 70l248 299zM981 0l-127 418h-483l-125 -418h-174l450 1434h183l452 -1434h-176zM412 551h403l-203 666z" glyph-name="Aacute" unicode="Á"/><glyph d="M616 1794l-192 -258l-96 82l219 262h137l217 -262l-96 -82zM981 0l-127 418h-483l-125 -418h-174l450 1434h183l452 -1434h-176zM412 551h403l-203 666z" glyph-name="Acircumflex" unicode="Â"/><glyph d="M449 1724q-94 0 -132 -110l-100 39q39 100 97.5 147t150.5 47q94 0 177 -50t138 -50q92 0 131 117l101 -39q-39 -104 -96.5 -152.5t-151.5 -48.5q-96 0 -178 50t-137 50zM981 0l-127 418h-483l-125 -418h-174l450 1434h183l452 -1434h-176zM412 551h403l-203 666z" glyph-name="Atilde" unicode="Ã"/><glyph d="M530 1823v-185h-182v185h182zM879 1823v-185h-183v185h183zM981 0l-127 418h-483l-125 -418h-174l450 1434h183l452 -1434h-176zM412 551h403l-203 666z" glyph-name="Adieresis" unicode="Ä"/><glyph d="M614 1563q-86 0 -140 56t-54 136q0 82 54 137.5t140 55.5q84 0 138.5 -55.5t54.5 -137.5q0 -80 -54.5 -136t-138.5 -56zM614 1870q-49 0 -79.5 -34t-30.5 -81t30.5 -80t79.5 -33q47 0 78 33t31 80t-31 81t-78 34zM981 0l-127 418h-483l-125 -418h-174l450 1434h183 l452 -1434h-176zM412 551h403l-203 666z" glyph-name="Aring" unicode="Å"/><glyph d="M1126 1311h-374v-518h333v-123h-333v-547h374v-123h-528v397h-272l-121 -397h-164l455 1434h630v-123zM362 520h236v772z" glyph-name="AE" unicode="Æ"/><glyph d="M659 119q225 0 316 280l145 -84q-61 -162 -183 -248.5t-282 -86.5h-8l-8 -60q182 -35 182 -170q0 -80 -59.5 -129t-183.5 -49q-123 0 -199 51l59 109q66 -57 140 -58q53 0 85.5 20.5t32.5 59.5q0 78 -180 96l23 142q-188 45 -293 233.5t-105 491.5q0 348 136.5 542.5 t377.5 194.5q162 0 285 -86t180 -250l-145 -84q-90 281 -316 281q-168 0 -257 -157t-89 -441.5t89 -441t257 -156.5z" glyph-name="Ccedilla" unicode="Ç"/><glyph d="M846 1651l-82 -70l-279 252l113 117zM1040 1300h-620v-483h559v-133h-559v-551h620v-133h-784v1434h784v-134z" glyph-name="Egrave" unicode="È"/><glyph d="M915 1831l-278 -250l-82 70l248 299zM1040 1300h-620v-483h559v-133h-559v-551h620v-133h-784v1434h784v-134z" glyph-name="Eacute" unicode="É"/><glyph d="M702 1794l-192 -258l-96 82l219 262h137l217 -262l-96 -82zM1040 1300h-620v-483h559v-133h-559v-551h620v-133h-784v1434h784v-134z" glyph-name="Ecircumflex" unicode="Ê"/><glyph d="M616 1823v-185h-182v185h182zM965 1823v-185h-183v185h183zM1040 1300h-620v-483h559v-133h-559v-551h620v-133h-784v1434h784v-134z" glyph-name="Edieresis" unicode="Ë"/><glyph d="M760 1651l-82 -70l-279 252l113 117zM1008 1300h-312v-1167h312v-133h-785v133h309v1167h-309v134h785v-134z" glyph-name="Igrave" unicode="Ì"/><glyph d="M829 1831l-278 -250l-82 70l248 299zM1008 1300h-312v-1167h312v-133h-785v133h309v1167h-309v134h785v-134z" glyph-name="Iacute" unicode="Í"/><glyph d="M616 1794l-192 -258l-96 82l219 262h137l217 -262l-96 -82zM1008 1300h-312v-1167h312v-133h-785v133h309v1167h-309v134h785v-134z" glyph-name="Icircumflex" unicode="Î"/><glyph d="M530 1823v-185h-182v185h182zM879 1823v-185h-183v185h183zM1008 1300h-312v-1167h312v-133h-785v133h309v1167h-309v134h785v-134z" glyph-name="Idieresis" unicode="Ï"/><glyph d="M553 1434q264 0 413.5 -175.5t149.5 -531.5q0 -358 -150.5 -542.5t-412.5 -184.5h-358v668h-136v133h136v633h358zM553 139q184 0 289.5 146.5t105.5 441.5q0 291 -104.5 429t-290.5 138h-195v-493h279v-133h-279v-529h195z" glyph-name="Eth" unicode="Ð"/><glyph d="M449 1724q-94 0 -132 -110l-100 39q39 100 97.5 147t150.5 47q94 0 177 -50t138 -50q92 0 131 117l101 -39q-39 -104 -96.5 -152.5t-151.5 -48.5q-96 0 -178 50t-137 50zM870 1434h164v-1434h-164l-512 1130v-1130h-163v1434h184l491 -1086v1086z" glyph-name="Ntilde" unicode="Ñ"/><glyph d="M678 1581l-279 252l113 117l248 -299zM612 -20q-240 0 -370.5 183t-130.5 553.5t131 554t370 183.5q242 0 374 -183.5t132 -554t-132 -553.5t-374 -183zM614.5 119q331.5 0 331.5 598t-331.5 598t-331.5 -598t331.5 -598z" glyph-name="Ograve" unicode="Ò"/><glyph d="M551 1581l-82 70l248 299l112 -119zM612 -20q-240 0 -370.5 183t-130.5 553.5t131 554t370 183.5q242 0 374 -183.5t132 -554t-132 -553.5t-374 -183zM614.5 119q331.5 0 331.5 598t-331.5 598t-331.5 -598t331.5 -598z" glyph-name="Oacute" unicode="Ó"/><glyph d="M424 1536l-96 82l219 262h137l217 -262l-96 -82l-189 258zM612 -20q-240 0 -370.5 183t-130.5 553.5t131 554t370 183.5q242 0 374 -183.5t132 -554t-132 -553.5t-374 -183zM614.5 119q331.5 0 331.5 598t-331.5 598t-331.5 -598t331.5 -598z" glyph-name="Ocircumflex" unicode="Ô"/><glyph d="M317 1614l-100 39q39 100 97.5 147t150.5 47q94 0 177 -50t138 -50q92 0 131 117l101 -39q-39 -104 -96.5 -152.5t-151.5 -48.5q-96 0 -178 50t-137 50q-95 1 -132 -110zM612 -20q-240 0 -370.5 183t-130.5 553.5t131 554t370 183.5q242 0 374 -183.5t132 -554 t-132 -553.5t-374 -183zM614.5 119q331.5 0 331.5 598t-331.5 598t-331.5 -598t331.5 -598z" glyph-name="Otilde" unicode="Õ"/><glyph d="M348 1638v185h182v-185h-182zM696 1638v185h183v-185h-183zM612 -20q-240 0 -370.5 183t-130.5 553.5t131 554t370 183.5q242 0 374 -183.5t132 -554t-132 -553.5t-374 -183zM614.5 119q331.5 0 331.5 598t-331.5 598t-331.5 -598t331.5 -598z" glyph-name="Odieresis" unicode="Ö"/><glyph d="M1018 254l-103 -100l-303 303l-301 -301l-98 98l301 301l-303 303l100 100l305 -303l302 301l98 -98l-301 -301z" glyph-name="multiply" unicode="×"/><glyph d="M1004 1243q115 -188 114 -526q0 -371 -132 -554t-374 -183q-182 0 -297 100l-47 -80h-153l108 190q-113 184 -112 527q0 371 131 554t370 183q184 0 301 -102l48 82h153zM614 1315q-332 0 -331 -598q0 -223 47 -365l495 867q-78 96 -211 96zM614 119q332 0 332 598 q0 223 -47 364l-496 -868q80 -94 211 -94z" glyph-name="Oslash" unicode="Ø"/><glyph d="M678 1581l-279 252l113 117l248 -299zM614.5 -20q-233.5 0 -342 130t-108.5 412v912h164v-912q0 -219 65.5 -311t221 -92t221 92t65.5 311v912h164v-912q0 -283 -108.5 -412.5t-342 -129.5z" glyph-name="Ugrave" unicode="Ù"/><glyph d="M551 1581l-82 70l248 299l112 -119zM614.5 -20q-233.5 0 -342 130t-108.5 412v912h164v-912q0 -219 65.5 -311t221 -92t221 92t65.5 311v912h164v-912q0 -283 -108.5 -412.5t-342 -129.5z" glyph-name="Uacute" unicode="Ú"/><glyph d="M424 1536l-96 82l219 262h137l217 -262l-96 -82l-189 258zM614.5 -20q-233.5 0 -342 130t-108.5 412v912h164v-912q0 -219 65.5 -311t221 -92t221 92t65.5 311v912h164v-912q0 -283 -108.5 -412.5t-342 -129.5z" glyph-name="Ucircumflex" unicode="Û"/><glyph d="M348 1638v185h182v-185h-182zM696 1638v185h183v-185h-183zM614.5 -20q-233.5 0 -342 130t-108.5 412v912h164v-912q0 -219 65.5 -311t221 -92t221 92t65.5 311v912h164v-912q0 -283 -108.5 -412.5t-342 -129.5z" glyph-name="Udieresis" unicode="Ü"/><glyph d="M829 1831l-278 -250l-82 70l248 299zM1159 1434l-461 -809v-625h-163v621l-465 813h184l362 -662l363 662h180z" glyph-name="Yacute" unicode="Ý"/><glyph d="M741 1143q406 0 406 -405.5t-408 -405.5h-340v-332h-163v1434h163v-291h342zM739 465q111 0 174.5 55t63.5 217q0 160 -62.5 216.5t-173.5 56.5h-342v-545h340z" glyph-name="Thorn" unicode="Þ"/><glyph d="M225 0v1085q0 231 81 341t290 110q186 0 276.5 -82t90.5 -213q0 -86 -39 -150.5t-86 -96t-86 -74.5t-39 -89q0 -47 37.5 -79.5t93 -59t111 -61.5t93 -103.5t37.5 -169.5q0 -358 -458 -358h-99v133h99q299 0 299 229q0 76 -36 127.5t-86 79t-100.5 54t-85 76t-34.5 122.5 q0 72 34.5 129.5t75.5 88t75 84t34 118.5q0 162 -199 162q-141 0 -183 -75t-42 -243v-1085h-154z" glyph-name="germandbls" unicode="ß"/><glyph d="M791 1241l-82 -70l-279 252l113 117zM602 1044q205 0 313.5 -99t108.5 -327v-618h-154v137q-68 -76 -148.5 -116.5t-207.5 -40.5q-156 0 -241 64.5t-85 186.5q0 180 184.5 264.5t497.5 86.5v36q0 168 -72.5 232.5t-197.5 64.5q-225 0 -297 -194l-145 67q122 256 444 256z M543 102q199 0 327 181v174q-123 -2 -207.5 -10.5t-162.5 -30t-117 -62.5t-39 -102q0 -68 48.5 -109t150.5 -41z" glyph-name="agrave" unicode="à"/><glyph d="M860 1421l-278 -250l-82 70l248 299zM602 1044q205 0 313.5 -99t108.5 -327v-618h-154v137q-68 -76 -148.5 -116.5t-207.5 -40.5q-156 0 -241 64.5t-85 186.5q0 180 184.5 264.5t497.5 86.5v36q0 168 -72.5 232.5t-197.5 64.5q-225 0 -297 -194l-145 67q122 256 444 256z M543 102q199 0 327 181v174q-123 -2 -207.5 -10.5t-162.5 -30t-117 -62.5t-39 -102q0 -68 48.5 -109t150.5 -41z" glyph-name="aacute" unicode="á"/><glyph d="M647 1384l-192 -258l-97 82l220 262h137l217 -262l-96 -82zM602 1044q205 0 313.5 -99t108.5 -327v-618h-154v137q-68 -76 -148.5 -116.5t-207.5 -40.5q-156 0 -241 64.5t-85 186.5q0 180 184.5 264.5t497.5 86.5v36q0 168 -72.5 232.5t-197.5 64.5q-225 0 -297 -194 l-145 67q122 256 444 256zM543 102q199 0 327 181v174q-123 -2 -207.5 -10.5t-162.5 -30t-117 -62.5t-39 -102q0 -68 48.5 -109t150.5 -41z" glyph-name="acircumflex" unicode="â"/><glyph d="M479 1315q-94 0 -131 -111l-100 39q39 100 97 147.5t151 47.5q94 0 177 -50.5t138 -50.5q92 0 131 117l100 -39q-39 -104 -96 -152.5t-151 -48.5q-98 0 -180.5 50.5t-135.5 50.5zM602 1044q205 0 313.5 -99t108.5 -327v-618h-154v137q-68 -76 -148.5 -116.5t-207.5 -40.5 q-156 0 -241 64.5t-85 186.5q0 180 184.5 264.5t497.5 86.5v36q0 168 -72.5 232.5t-197.5 64.5q-225 0 -297 -194l-145 67q122 256 444 256zM543 102q199 0 327 181v174q-123 -2 -207.5 -10.5t-162.5 -30t-117 -62.5t-39 -102q0 -68 48.5 -109t150.5 -41z" glyph-name="atilde" unicode="ã"/><glyph d="M561 1413v-184h-182v184h182zM909 1413v-184h-182v184h182zM602 1044q205 0 313.5 -99t108.5 -327v-618h-154v137q-68 -76 -148.5 -116.5t-207.5 -40.5q-156 0 -241 64.5t-85 186.5q0 180 184.5 264.5t497.5 86.5v36q0 168 -72.5 232.5t-197.5 64.5q-225 0 -297 -194 l-145 67q122 256 444 256zM543 102q199 0 327 181v174q-123 -2 -207.5 -10.5t-162.5 -30t-117 -62.5t-39 -102q0 -68 48.5 -109t150.5 -41z" glyph-name="adieresis" unicode="ä"/><glyph d="M645 1153q-86 0 -140 56.5t-54 136.5q0 82 54 137t140 55q84 0 138.5 -55.5t54.5 -136.5q0 -80 -54.5 -136.5t-138.5 -56.5zM645 1460q-49 0 -79.5 -33.5t-30.5 -81t30.5 -80t79.5 -32.5q47 0 78 32.5t31 80t-31 81t-78 33.5zM602 1044q205 0 313.5 -99t108.5 -327v-618 h-154v137q-68 -76 -148.5 -116.5t-207.5 -40.5q-156 0 -241 64.5t-85 186.5q0 180 184.5 264.5t497.5 86.5v36q0 168 -72.5 232.5t-197.5 64.5q-225 0 -297 -194l-145 67q122 256 444 256zM543 102q199 0 327 181v174q-123 -2 -207.5 -10.5t-162.5 -30t-117 -62.5t-39 -102 q0 -68 48.5 -109t150.5 -41z" glyph-name="aring" unicode="å"/><glyph d="M1147 481h-512q4 -193 57 -288t137 -95q121 0 164 205l135 -67q-82 -256 -299 -256q-199 0 -284 198q-80 -199 -256 -198q-209 0 -209 249q0 178 111.5 259t293.5 83v68q0 166 -36.5 229.5t-106.5 63.5q-68 0 -98.5 -48t-59.5 -163l-133 67q39 133 109.5 194.5 t183.5 61.5q170 0 236 -133q86 129 241 129q168 0 251 -151.5t75 -407.5zM821 922q-78 0 -126 -85t-58 -243h358q-18 328 -174 328zM332 98q113 0 180 187q-16 70 -20 172q-129 -6 -198 -50.5t-69 -160.5q1 -148 107 -148z" glyph-name="ae" unicode="æ"/><glyph d="M649 109q195 0 260 194l146 -67q-92 -238 -359 -254l-8 -62q182 -35 182 -170q0 -80 -59 -129t-184 -49q-123 0 -199 51l59 109q66 -57 140 -58q53 0 85.5 20.5t32.5 59.5q0 78 -180 96l23 134q-193 18 -300.5 153t-107.5 375q0 260 125 396t348 136q301 0 402 -256 l-146 -67q-66 195 -260 194q-150 0 -229.5 -116.5t-79.5 -286.5t79.5 -286.5t229.5 -116.5z" glyph-name="ccedilla" unicode="ç"/><glyph d="M766 1241l-82 -70l-278 252l112 117zM1067 481h-741q8 -188 91 -280t220 -92q205 0 270 194l142 -67q-113 -256 -412 -256q-217 0 -340 138t-123 394q0 262 124 397t329 135q227 0 338.5 -154.5t101.5 -408.5zM625 915q-123 0 -200 -80.5t-93 -230.5h575 q-32 311 -282 311z" glyph-name="egrave" unicode="è"/><glyph d="M836 1421l-279 -250l-82 70l248 299zM1067 481h-741q8 -188 91 -280t220 -92q205 0 270 194l142 -67q-113 -256 -412 -256q-217 0 -340 138t-123 394q0 262 124 397t329 135q227 0 338.5 -154.5t101.5 -408.5zM625 915q-123 0 -200 -80.5t-93 -230.5h575 q-32 311 -282 311z" glyph-name="eacute" unicode="é"/><glyph d="M623 1384l-193 -258l-96 82l219 262h137l217 -262l-96 -82zM1067 481h-741q8 -188 91 -280t220 -92q205 0 270 194l142 -67q-113 -256 -412 -256q-217 0 -340 138t-123 394q0 262 124 397t329 135q227 0 338.5 -154.5t101.5 -408.5zM625 915q-123 0 -200 -80.5 t-93 -230.5h575q-32 311 -282 311z" glyph-name="ecircumflex" unicode="ê"/><glyph d="M537 1413v-184h-183v184h183zM885 1413v-184h-183v184h183zM1067 481h-741q8 -188 91 -280t220 -92q205 0 270 194l142 -67q-113 -256 -412 -256q-217 0 -340 138t-123 394q0 262 124 397t329 135q227 0 338.5 -154.5t101.5 -408.5zM625 915q-123 0 -200 -80.5 t-93 -230.5h575q-32 311 -282 311z" glyph-name="edieresis" unicode="ë"/><glyph d="M760 1241l-82 -70l-279 252l113 117zM717 123h307v-123h-829v123h368v778h-348v123h502v-901z" glyph-name="igrave" unicode="ì"/><glyph d="M829 1421l-278 -250l-82 70l248 299zM717 123h307v-123h-829v123h368v778h-348v123h502v-901z" glyph-name="iacute" unicode="í"/><glyph d="M616 1384l-192 -258l-96 82l219 262h137l217 -262l-96 -82zM717 123h307v-123h-829v123h368v778h-348v123h502v-901z" glyph-name="icircumflex" unicode="î"/><glyph d="M530 1413v-184h-182v184h182zM879 1413v-184h-183v184h183zM717 123h307v-123h-829v123h368v778h-348v123h502v-901z" glyph-name="idieresis" unicode="ï"/><glyph d="M825 1380q242 -203 242 -678q0 -377 -120 -549.5t-351 -172.5q-211 0 -336 137t-125 401q0 236 106.5 382.5t331.5 146.5q236 0 340 -173q-31 295 -213 426l-217 -137l-45 70l180 115q-127 61 -315 84l39 124q250 -25 410 -122l231 145l45 -72zM596 119q135 0 214 89 t101 302q0 213 -86 306t-223 93q-295 0 -295 -391q0 -201 76 -300t213 -99z" glyph-name="eth" unicode="ð"/><glyph d="M449 1315q-94 0 -132 -111l-100 39q39 100 97.5 147.5t150.5 47.5q94 0 177 -50.5t138 -50.5q92 0 131 117l101 -39q-39 -104 -96.5 -152.5t-151.5 -48.5q-96 0 -178 50.5t-137 50.5zM717 1044q158 0 232.5 -92t74.5 -313v-639h-154v639q0 162 -49 222.5t-141 60.5 q-176 0 -311 -191v-731h-154v1024h154v-141q143 161 348 161z" glyph-name="ntilde" unicode="ñ"/><glyph d="M678 1171l-279 252l113 117l248 -299zM614 -20q-217 0 -344 136t-127 396t127 396t344 136t344 -136t127 -396t-127 -396t-344 -136zM614 109q145 0 228.5 102t83.5 301q0 197 -83 300t-229 103q-143 0 -227 -103t-84 -300t84 -300t227 -103z" glyph-name="ograve" unicode="ò"/><glyph d="M551 1171l-82 70l248 299l112 -119zM614 -20q-217 0 -344 136t-127 396t127 396t344 136t344 -136t127 -396t-127 -396t-344 -136zM614 109q145 0 228.5 102t83.5 301q0 197 -83 300t-229 103q-143 0 -227 -103t-84 -300t84 -300t227 -103z" glyph-name="oacute" unicode="ó"/><glyph d="M424 1126l-96 82l219 262h137l217 -262l-96 -82l-189 258zM614 -20q-217 0 -344 136t-127 396t127 396t344 136t344 -136t127 -396t-127 -396t-344 -136zM614 109q145 0 228.5 102t83.5 301q0 197 -83 300t-229 103q-143 0 -227 -103t-84 -300t84 -300t227 -103z" glyph-name="ocircumflex" unicode="ô"/><glyph d="M317 1204l-100 39q39 100 97.5 147.5t150.5 47.5q94 0 177 -50.5t138 -50.5q92 0 131 117l101 -39q-39 -104 -96.5 -152.5t-151.5 -48.5q-96 0 -178 50.5t-137 50.5q-95 0 -132 -111zM614 -20q-217 0 -344 136t-127 396t127 396t344 136t344 -136t127 -396t-127 -396 t-344 -136zM614 109q145 0 228.5 102t83.5 301q0 197 -83 300t-229 103q-143 0 -227 -103t-84 -300t84 -300t227 -103z" glyph-name="otilde" unicode="õ"/><glyph d="M348 1229v184h182v-184h-182zM696 1229v184h183v-184h-183zM614 -20q-217 0 -344 136t-127 396t127 396t344 136t344 -136t127 -396t-127 -396t-344 -136zM614 109q145 0 228.5 102t83.5 301q0 197 -83 300t-229 103q-143 0 -227 -103t-84 -300t84 -300t227 -103z" glyph-name="odieresis" unicode="ö"/><glyph d="M614.5 780q-51.5 0 -86 35t-34.5 86t34.5 86t86 35t86 -35t34.5 -86t-34.5 -86t-86 -35zM219 524v133h791v-133h-791zM614.5 160q-51.5 0 -86 34.5t-34.5 86t34.5 86t86 34.5t86 -34.5t34.5 -86t-34.5 -86t-86 -34.5z" glyph-name="divide" unicode="÷"/><glyph d="M1133 1024l-138 -162q90 -135 90 -350q0 -260 -127 -396t-344 -136q-186 0 -301 96l-63 -76h-154l137 162q-90 135 -90 350q0 260 127 396t344 136q182 0 301 -96l64 76h154zM614 915q-143 0 -227 -103t-84 -300q0 -137 41 -229l471 559q-78 73 -201 73zM614 109 q145 0 228.5 102t83.5 301q0 137 -41 229l-471 -559q75 -73 200 -73z" glyph-name="oslash" unicode="ø"/><glyph d="M760 1241l-82 -70l-279 252l113 117zM860 1024h154v-1024h-154v141q-143 -162 -348 -161q-158 0 -232.5 92t-74.5 313v639h153v-639q0 -172 51.5 -227.5t137.5 -55.5q102 0 175 47.5t138 141.5v733z" glyph-name="ugrave" unicode="ù"/><glyph d="M829 1421l-278 -250l-82 70l248 299zM860 1024h154v-1024h-154v141q-143 -162 -348 -161q-158 0 -232.5 92t-74.5 313v639h153v-639q0 -172 51.5 -227.5t137.5 -55.5q102 0 175 47.5t138 141.5v733z" glyph-name="uacute" unicode="ú"/><glyph d="M616 1384l-192 -258l-96 82l219 262h137l217 -262l-96 -82zM860 1024h154v-1024h-154v141q-143 -162 -348 -161q-158 0 -232.5 92t-74.5 313v639h153v-639q0 -172 51.5 -227.5t137.5 -55.5q102 0 175 47.5t138 141.5v733z" glyph-name="ucircumflex" unicode="û"/><glyph d="M530 1413v-184h-182v184h182zM879 1413v-184h-183v184h183zM860 1024h154v-1024h-154v141q-143 -162 -348 -161q-158 0 -232.5 92t-74.5 313v639h153v-639q0 -172 51.5 -227.5t137.5 -55.5q102 0 175 47.5t138 141.5v733z" glyph-name="udieresis" unicode="ü"/><glyph d="M846 1421l-279 -250l-82 70l248 299zM950 1024h168l-502 -1176q-70 -162 -146.5 -220t-184.5 -58q-137 0 -224 98l103 107q47 -76 133 -76q59 0 99 39t85 139l70 154l-430 993h176l330 -809z" glyph-name="yacute" unicode="ý"/><glyph d="M649 1044q205 0 326 -137t121 -395t-121 -395t-326 -137q-186 0 -295 129v-519h-153v1946h153v-621q109 129 295 129zM623 109q152 0 232.5 116.5t80.5 286.5t-81 286.5t-232 116.5q-201 0 -269 -194v-418q68 -194 269 -194z" glyph-name="thorn" unicode="þ"/><glyph d="M547 1413v-184h-182v184h182zM895 1413v-184h-182v184h182zM950 1024h168l-502 -1176q-70 -162 -146.5 -220t-184.5 -58q-137 0 -224 98l103 107q47 -76 133 -76q59 0 99 39t85 139l70 154l-430 993h176l330 -809z" glyph-name="ydieresis" unicode="ÿ"/><glyph d="M868 1792v-133h-510v133h510zM981 0l-127 418h-483l-125 -418h-174l450 1434h183l452 -1434h-176zM412 551h403l-203 666z" glyph-name="Amacron" unicode="Ā"/><glyph d="M899 1382v-133h-510v133h510zM602 1044q205 0 313.5 -99t108.5 -327v-618h-154v137q-68 -76 -148.5 -116.5t-207.5 -40.5q-156 0 -241 64.5t-85 186.5q0 180 184.5 264.5t497.5 86.5v36q0 168 -72.5 232.5t-197.5 64.5q-225 0 -297 -194l-145 67q122 256 444 256z M543 102q199 0 327 181v174q-123 -2 -207.5 -10.5t-162.5 -30t-117 -62.5t-39 -102q0 -68 48.5 -109t150.5 -41z" glyph-name="amacron" unicode="ā"/><glyph d="M614 1608q-125 0 -191.5 66.5t-66.5 223.5h99q0 -96 40 -132.5t119.5 -36.5t119.5 36.5t40 132.5h98q0 -158 -66.5 -224t-191.5 -66zM981 0l-127 418h-483l-125 -418h-174l450 1434h183l452 -1434h-176zM412 551h403l-203 666z" glyph-name="Abreve" unicode="Ă"/><glyph d="M645 1198q-125 0 -191.5 66.5t-66.5 224.5h98q0 -96 40 -133t120 -37t120 37t40 133h98q0 -158 -66.5 -224.5t-191.5 -66.5zM602 1044q205 0 313.5 -99t108.5 -327v-618h-154v137q-68 -76 -148.5 -116.5t-207.5 -40.5q-156 0 -241 64.5t-85 186.5q0 180 184.5 264.5 t497.5 86.5v36q0 168 -72.5 232.5t-197.5 64.5q-225 0 -297 -194l-145 67q122 256 444 256zM543 102q199 0 327 181v174q-123 -2 -207.5 -10.5t-162.5 -30t-117 -62.5t-39 -102q0 -68 48.5 -109t150.5 -41z" glyph-name="abreve" unicode="ă"/><glyph d="M975 -328q74 0 115 52l65 -89q-74 -66 -188 -65q-195 0 -195 160q0 80 51 139t158 131l-127 418h-483l-125 -418h-174l450 1434h183l452 -1434h-72q-111 -76 -153.5 -129t-42.5 -113q0 -86 86 -86zM412 551h403l-203 666z" glyph-name="Aogonek" unicode="Ą"/><glyph d="M981 -276l66 -89q-74 -66 -189 -65q-195 0 -194 160q0 80 51 139t157 131h-2v137q-68 -76 -148.5 -116.5t-207.5 -40.5q-156 0 -241 64.5t-85 186.5q0 180 184.5 264.5t497.5 86.5v36q0 168 -72.5 232.5t-197.5 64.5q-225 0 -297 -194l-145 67q123 256 444 256 q205 0 313.5 -99t108.5 -327v-618h-47q-111 -76 -154 -129t-43 -113q0 -86 86 -86q74 1 115 52zM543 102q199 0 327 181v174q-123 -2 -207.5 -10.5t-162.5 -30t-117 -62.5t-39 -102q0 -68 48.5 -109t150.5 -41z" glyph-name="aogonek" unicode="ą"/><glyph d="M551 1581l-82 70l248 299l112 -119zM655 -20q-242 0 -378 194.5t-136 542.5t136.5 542.5t377.5 194.5q162 0 285 -86t180 -250l-145 -84q-90 281 -316 281q-168 0 -257 -157t-89 -441.5t89.5 -441t256.5 -156.5q225 0 316 280l145 -84q-61 -162 -183 -248.5t-282 -86.5z " glyph-name="Cacute" unicode="Ć"/><glyph d="M573 1171l-81 70l247 299l113 -119zM653 -20q-223 0 -348 136t-125 396t125 396t348 136q301 0 402 -256l-146 -67q-66 195 -260 194q-150 0 -229.5 -116.5t-79.5 -286.5t80 -286.5t229 -116.5q195 0 260 194l146 -67q-101 -256 -402 -256z" glyph-name="cacute" unicode="ć"/><glyph d="M614.5 1612q-51.5 0 -86 34.5t-34.5 86t34.5 86t86 34.5t86 -34.5t34.5 -86t-34.5 -86t-86 -34.5zM655 -20q-242 0 -378 194.5t-136 542.5t136.5 542.5t377.5 194.5q162 0 285 -86t180 -250l-145 -84q-90 281 -316 281q-168 0 -257 -157t-89 -441.5t89.5 -441 t256.5 -156.5q225 0 316 280l145 -84q-61 -162 -183 -248.5t-282 -86.5z" glyph-name="Cdotaccent" unicode="Ċ"/><glyph d="M637 1202q-51 0 -86 35t-35 86t35 86t86 35t86 -35t35 -86t-35 -86t-86 -35zM653 -20q-223 0 -348 136t-125 396t125 396t348 136q301 0 402 -256l-146 -67q-66 195 -260 194q-150 0 -229.5 -116.5t-79.5 -286.5t80 -286.5t229 -116.5q195 0 260 194l146 -67 q-101 -256 -402 -256z" glyph-name="cdotaccent" unicode="ċ"/><glyph d="M547 1577l-219 262l96 82l192 -258l189 258l96 -82l-217 -262h-137zM655 -20q-242 0 -378 194.5t-136 542.5t136.5 542.5t377.5 194.5q162 0 285 -86t180 -250l-145 -84q-90 281 -316 281q-168 0 -257 -157t-89 -441.5t89.5 -441t256.5 -156.5q225 0 316 280l145 -84 q-61 -162 -183 -248.5t-282 -86.5z" glyph-name="Ccaron" unicode="Č"/><glyph d="M569 1167l-219 263l96 81l193 -258l188 258l97 -81l-217 -263h-138zM653 -20q-223 0 -348 136t-125 396t125 396t348 136q301 0 402 -256l-146 -67q-66 195 -260 194q-150 0 -229.5 -116.5t-79.5 -286.5t80 -286.5t229 -116.5q195 0 260 194l146 -67q-101 -256 -402 -256 z" glyph-name="ccaron" unicode="č"/><glyph d="M684 1577h-137l-219 262l96 82l192 -258l189 258l96 -82zM553 1434q264 0 413.5 -175.5t149.5 -531.5q0 -358 -150.5 -542.5t-412.5 -184.5h-358v1434h358zM553 139q184 0 289.5 146.5t105.5 441.5q0 291 -104.5 429t-290.5 138h-195v-1155h195z" glyph-name="Dcaron" unicode="Ď"/><glyph d="M678 942v594h143v-1536h-143v82q-82 -102 -215 -102q-164 0 -258 136t-94 396t94 396t258 136q133 0 215 -102zM987 1536h184v-164q0 -199 -190 -274l-41 76q135 49 150 145l-103 33v184zM485 98q143 0 193 205v418q-49 205 -193 205q-109 0 -167 -120t-58 -294t58 -294 t167 -120z" glyph-name="dcaron" unicode="ď"/><glyph d="M553 1434q264 0 413.5 -175.5t149.5 -531.5q0 -358 -150.5 -542.5t-412.5 -184.5h-358v668h-136v133h136v633h358zM553 139q184 0 289.5 146.5t105.5 441.5q0 291 -104.5 429t-290.5 138h-195v-493h279v-133h-279v-529h195z" glyph-name="Dcroat" unicode="Đ"/><glyph d="M1188 1329v-133h-144v-1196h-153v109q-109 -129 -295 -129q-205 0 -325.5 137t-120.5 395t120.5 395t325.5 137q186 0 295 -129v281h-281v133h281v207h153v-207h144zM623 109q201 0 268 194v418q-68 195 -268 194q-152 0 -233 -116.5t-81 -286.5t81 -286.5t233 -116.5z " glyph-name="dcroat" unicode="đ"/><glyph d="M954 1792v-133h-510v133h510zM1040 1300h-620v-483h559v-133h-559v-551h620v-133h-784v1434h784v-134z" glyph-name="Emacron" unicode="Ē"/><glyph d="M874 1382v-133h-509v133h509zM1067 481h-741q8 -188 91 -280t220 -92q205 0 270 194l142 -67q-113 -256 -412 -256q-217 0 -340 138t-123 394q0 262 124 397t329 135q227 0 338.5 -154.5t101.5 -408.5zM625 915q-123 0 -200 -80.5t-93 -230.5h575q-32 311 -282 311z" glyph-name="emacron" unicode="ē"/><glyph d="M700.5 1612q-51.5 0 -86 34.5t-34.5 86t34.5 86t86 34.5t86 -34.5t34.5 -86t-34.5 -86t-86 -34.5zM1040 1300h-620v-483h559v-133h-559v-551h620v-133h-784v1434h784v-134z" glyph-name="Edotaccent" unicode="Ė"/><glyph d="M620.5 1202q-51.5 0 -86 35t-34.5 86t34.5 86t86 35t86 -35t34.5 -86t-34.5 -86t-86 -35zM1067 481h-741q8 -188 91 -280t220 -92q205 0 270 194l142 -67q-113 -256 -412 -256q-217 0 -340 138t-123 394q0 262 124 397t329 135q227 0 338.5 -154.5t101.5 -408.5zM625 915 q-123 0 -200 -80.5t-93 -230.5h575q-32 311 -282 311z" glyph-name="edotaccent" unicode="ė"/><glyph d="M1044 -276l66 -89q-74 -66 -188 -65q-195 0 -195 160q0 80 51 139t158 131h-680v1434h784v-134h-620v-483h559v-133h-559v-551h620v-133q-111 -76 -153.5 -129t-42.5 -113q0 -86 86 -86q73 1 114 52z" glyph-name="Eogonek" unicode="Ę"/><glyph d="M1067 481h-741q8 -188 91 -280t220 -92q205 0 270 194l142 -67q-84 -193 -273 -240q-106 -74 -148 -126t-42 -112q0 -86 86 -86q74 0 114 52l66 -89q-74 -66 -188 -65q-195 0 -195 160q0 74 44 130t134 120h-10q-217 0 -340 138t-123 394q0 262 124 397t329 135 q227 0 338.5 -154.5t101.5 -408.5zM625 915q-123 0 -200 -80.5t-93 -230.5h575q-32 311 -282 311z" glyph-name="eogonek" unicode="ę"/><glyph d="M770 1577h-137l-219 262l96 82l192 -258l189 258l96 -82zM1040 1300h-620v-483h559v-133h-559v-551h620v-133h-784v1434h784v-134z" glyph-name="Ecaron" unicode="Ě"/><glyph d="M690 1167h-137l-219 263l96 81l193 -258l188 258l96 -81zM1067 481h-741q8 -188 91 -280t220 -92q205 0 270 194l142 -67q-113 -256 -412 -256q-217 0 -340 138t-123 394q0 262 124 397t329 135q227 0 338.5 -154.5t101.5 -408.5zM625 915q-123 0 -200 -80.5t-93 -230.5 h575q-32 311 -282 311z" glyph-name="ecaron" unicode="ě"/><glyph d="M614 1608q-125 0 -191.5 66.5t-66.5 223.5h99q0 -96 40 -132.5t119.5 -36.5t119.5 36.5t40 132.5h98q0 -158 -66.5 -224t-191.5 -66zM567 715h533v-715h-144l-14 121q-119 -141 -313 -141q-240 0 -378 195.5t-138 541.5t140 541.5t386 195.5q156 0 273.5 -81t179.5 -234 l-146 -84q-90 260 -315 260q-168 0 -257 -157t-89 -441.5t91 -441t267 -156.5q98 0 176 49t117 141v273h-369v133z" glyph-name="Gbreve" unicode="Ğ"/><glyph d="M506 1198q-117 0 -178.5 66.5t-61.5 224.5h99q0 -96 35.5 -133t105.5 -37q68 0 102.5 37t34.5 133h98q0 -158 -61 -224.5t-174 -66.5zM899 98q238 -51 238 -252q0 -276 -498 -276q-506 0 -506 280q0 184 232 285q-29 39 -29 94q0 113 104 156q-248 63 -247 320 q0 166 106.5 252.5t292.5 86.5q109 0 190 -30q-25 55 -24 112q0 84 54 131.5t146 47.5q123 0 189 -76l-92 -107q-49 49 -111 49q-94 0 -94 -94q0 -63 35 -123q106 -88 106 -249q0 -164 -105.5 -249t-285.5 -87q-59 -29 -88 -53.5t-29 -63.5q0 -66 113 -88zM346 704.5 q0 -104.5 65.5 -156.5t180.5 -52t180.5 53t65.5 156q0 104 -66.5 158.5t-179.5 54.5q-115 0 -180.5 -54.5t-65.5 -159zM639 -301q344 0 344 156q0 96 -139 125l-295 63q-70 16 -100 31q-162 -74 -162 -199q0 -176 352 -176z" glyph-name="gbreve" unicode="ğ"/><glyph d="M614.5 1612q-51.5 0 -86 34.5t-34.5 86t34.5 86t86 34.5t86 -34.5t34.5 -86t-34.5 -86t-86 -34.5zM567 715h533v-715h-144l-14 121q-119 -141 -313 -141q-240 0 -378 195.5t-138 541.5t140 541.5t386 195.5q156 0 273.5 -81t179.5 -234l-146 -84q-90 260 -315 260 q-168 0 -257 -157t-89 -441.5t91 -441t267 -156.5q98 0 176 49t117 141v273h-369v133z" glyph-name="Gdotaccent" unicode="Ġ"/><glyph d="M551 1202q-51 0 -86 35t-35 86t35 86t86 35t86 -35t35 -86t-35 -86t-86 -35zM899 98q238 -51 238 -252q0 -276 -498 -276q-506 0 -506 280q0 184 232 285q-29 39 -29 94q0 113 104 156q-248 63 -247 320q0 166 106.5 252.5t292.5 86.5q109 0 190 -30q-25 55 -24 112 q0 84 54 131.5t146 47.5q123 0 189 -76l-92 -107q-49 49 -111 49q-94 0 -94 -94q0 -63 35 -123q106 -88 106 -249q0 -164 -105.5 -249t-285.5 -87q-59 -29 -88 -53.5t-29 -63.5q0 -66 113 -88zM346 704.5q0 -104.5 65.5 -156.5t180.5 -52t180.5 53t65.5 156 q0 104 -66.5 158.5t-179.5 54.5q-115 0 -180.5 -54.5t-65.5 -159zM639 -301q344 0 344 156q0 96 -139 125l-295 63q-70 16 -100 31q-162 -74 -162 -199q0 -176 352 -176z" glyph-name="gdotaccent" unicode="ġ"/><glyph d="M567 715h533v-715h-144l-14 121q-119 -141 -313 -141q-240 0 -378 195.5t-138 541.5t140 541.5t386 195.5q156 0 273.5 -81t179.5 -234l-146 -84q-90 260 -315 260q-168 0 -257 -157t-89 -441.5t91 -441t267 -156.5q98 0 176 49t117 141v273h-369v133zM522 -303v180h185 v-184q0 -158 -170 -213l-41 76q113 31 125 110z" glyph-name="Gcommaaccent" unicode="Ģ"/><glyph d="M635 1362v-180h-184v184q0 158 170 213l41 -76q-113 -31 -125 -110zM899 98q238 -51 238 -252q0 -276 -498 -276q-506 0 -506 280q0 184 232 285q-29 39 -29 94q0 113 104 156q-248 63 -247 320q0 166 106.5 252.5t292.5 86.5q109 0 190 -30q-25 55 -24 112 q0 84 54 131.5t146 47.5q123 0 189 -76l-92 -107q-49 49 -111 49q-94 0 -94 -94q0 -63 35 -123q106 -88 106 -249q0 -164 -105.5 -249t-285.5 -87q-59 -29 -88 -53.5t-29 -63.5q0 -66 113 -88zM346 704.5q0 -104.5 65.5 -156.5t180.5 -52t180.5 53t65.5 156 q0 104 -66.5 158.5t-179.5 54.5q-115 0 -180.5 -54.5t-65.5 -159zM639 -301q344 0 344 156q0 96 -139 125l-295 63q-70 16 -100 31q-162 -74 -162 -199q0 -176 352 -176z" glyph-name="gcommaaccent" unicode="ģ"/><glyph d="M870 1434h164v-1434h-164v406h-512v-406h-163v1434h163v-363h512v363zM358 539h512v399h-512v-399z" glyph-name="Hbar" unicode="Ħ"/><glyph d="M717 1044q158 0 232.5 -92t74.5 -313v-639h-154v639q0 164 -50 223.5t-146 59.5q-100 0 -171 -46.5t-134 -140.5v-735h-154v1196h-166v133h166v207h154v-207h258v-133h-258v-313q143 161 348 161z" glyph-name="hbar" unicode="ħ"/><glyph d="M868 1792v-133h-510v133h510zM1008 1300h-312v-1167h312v-133h-785v133h309v1167h-309v134h785v-134z" glyph-name="Imacron" unicode="Ī"/><glyph d="M868 1382v-133h-510v133h510zM717 123h307v-123h-829v123h368v778h-348v123h502v-901z" glyph-name="imacron" unicode="ī"/><glyph d="M1012 -276l65 -89q-74 -66 -188 -65q-195 0 -195 160q0 80 51.5 139t157.5 131h-680v133h309v1167h-309v134h785v-134h-312v-1167h312v-133q-111 -76 -154 -129t-43 -113q0 -86 86 -86q74 1 115 52z" glyph-name="Iogonek" unicode="Į"/><glyph d="M614.5 1202q-51.5 0 -86 35t-34.5 86t34.5 86t86 35t86 -35t34.5 -86t-34.5 -86t-86 -35zM1028 -276l66 -89q-74 -66 -189 -65q-195 0 -194 160q0 80 51 139t158 131h-725v123h368v778h-348v123h502v-901h307v-123q-111 -76 -154 -129t-43 -113q0 -86 86 -86q74 1 115 52 z" glyph-name="iogonek" unicode="į"/><glyph d="M614.5 1612q-51.5 0 -86 34.5t-34.5 86t34.5 86t86 34.5t86 -34.5t34.5 -86t-34.5 -86t-86 -34.5zM1008 1300h-312v-1167h312v-133h-785v133h309v1167h-309v134h785v-134z" glyph-name="Idotaccent" unicode="İ"/><glyph d="M717 123h307v-123h-829v123h368v778h-348v123h502v-901z" glyph-name="dotlessi" unicode="ı"/><glyph d="M612 858l566 -858h-187l-483 741l-129 -143v-598h-164v1434h164v-625l559 625h190zM508 -303v180h184v-184q0 -158 -170 -213l-41 76q113 31 125 110z" glyph-name="Kcommaaccent" unicode="Ķ"/><glyph d="M725 645l438 -645h-188l-359 537l-215 -215v-322h-153v1536h153v-1026l504 514h199zM465 -303v180h184v-184q0 -158 -170 -213l-41 76q113 31 125 110z" glyph-name="kcommaaccent" unicode="ķ"/><glyph d="M930 1831l-279 -250l-82 70l248 299zM451 133h702v-133h-866v1434h164v-1301z" glyph-name="Lacute" unicode="Ĺ"/><glyph d="M924 1933l-279 -250l-82 70l248 299zM956 209l82 -94q-129 -135 -315 -135q-289 0 -289 303v1130h-297v123h451v-1253q0 -174 162 -174q132 0 206 100z" glyph-name="lacute" unicode="ĺ"/><glyph d="M451 133h702v-133h-866v1434h164v-1301zM623 -303v180h184v-184q0 -158 -170 -213l-41 76q113 31 125 110z" glyph-name="Lcommaaccent" unicode="Ļ"/><glyph d="M956 209l82 -94q-129 -135 -315 -135q-289 0 -289 303v1130h-297v123h451v-1253q0 -174 162 -174q132 0 206 100zM631 -303v180h184v-184q0 -158 -170 -213l-41 76q113 31 125 110z" glyph-name="lcommaaccent" unicode="ļ"/><glyph d="M451 133h702v-133h-866v1434h164v-1301zM858 1071q166 47 186 146l-98 32v185h184v-164q0 -199 -231 -275z" glyph-name="Lcaron" unicode="Ľ"/><glyph d="M750 109q133 0 206 100l82 -94q-129 -135 -315 -135q-289 0 -289 303v1130h-297v123h451v-1253q0 -174 162 -174zM946 1536h184v-164q0 -199 -231 -274l-41 76q166 47 186 145l-98 33v184z" glyph-name="lcaron" unicode="ľ"/><glyph d="M451 133h702v-133h-866v633l-189 -53v122l189 54v678h164v-631l370 104v-123l-370 -104v-547z" glyph-name="Lslash" unicode="Ł"/><glyph d="M956 209l82 -94q-129 -135 -315 -135q-289 0 -289 303v280l-233 -65v123l233 65v727h-297v123h451v-805l336 94v-123l-336 -94v-325q0 -174 162 -174q132 0 206 100z" glyph-name="lslash" unicode="ł"/><glyph d="M829 1831l-278 -250l-82 70l248 299zM870 1434h164v-1434h-164l-512 1130v-1130h-163v1434h184l491 -1086v1086z" glyph-name="Nacute" unicode="Ń"/><glyph d="M829 1421l-278 -250l-82 70l248 299zM717 1044q158 0 232.5 -92t74.5 -313v-639h-154v639q0 162 -49 222.5t-141 60.5q-176 0 -311 -191v-731h-154v1024h154v-141q143 161 348 161z" glyph-name="nacute" unicode="ń"/><glyph d="M870 1434h164v-1434h-164l-512 1130v-1130h-163v1434h184l491 -1086v1086zM522 -303v180h185v-184q0 -158 -170 -213l-41 76q113 31 125 110z" glyph-name="Ncommaaccent" unicode="Ņ"/><glyph d="M717 1044q158 0 232.5 -92t74.5 -313v-639h-154v639q0 162 -49 222.5t-141 60.5q-176 0 -311 -191v-731h-154v1024h154v-141q143 161 348 161zM528 -303v180h185v-184q0 -158 -170 -213l-41 76q113 31 125 110z" glyph-name="ncommaaccent" unicode="ņ"/><glyph d="M684 1577h-137l-219 262l96 82l192 -258l189 258l96 -82zM870 1434h164v-1434h-164l-512 1130v-1130h-163v1434h184l491 -1086v1086z" glyph-name="Ncaron" unicode="Ň"/><glyph d="M684 1167h-137l-219 263l96 81l192 -258l189 258l96 -81zM717 1044q158 0 232.5 -92t74.5 -313v-639h-154v639q0 162 -49 222.5t-141 60.5q-176 0 -311 -191v-731h-154v1024h154v-141q143 161 348 161z" glyph-name="ncaron" unicode="ň"/><glyph d="M870 1434h164v-1434q0 -219 -83 -324.5t-257 -105.5q-135 0 -217 63l78 121q57 -61 147 -61q92 0 130 75.5t38 231.5v43l-512 1096v-1139h-163v1434h184l491 -1069v1069z" glyph-name="Eng" unicode="Ŋ"/><glyph d="M717 1044q158 0 232.5 -92t74.5 -313v-639q0 -219 -83 -324.5t-257 -105.5q-135 0 -217 63l78 121q57 -61 147 -61q98 0 138 75.5t40 231.5v639q0 170 -50 226.5t-134 56.5q-102 0 -175 -48.5t-142 -142.5v-731h-154v1024h154v-141q143 161 348 161z" glyph-name="eng" unicode="ŋ"/><glyph d="M358 1659v133h510v-133h-510zM612 -20q-240 0 -370.5 183t-130.5 553.5t131 554t370 183.5q242 0 374 -183.5t132 -554t-132 -553.5t-374 -183zM614.5 119q331.5 0 331.5 598t-331.5 598t-331.5 -598t331.5 -598z" glyph-name="Omacron" unicode="Ō"/><glyph d="M358 1249v133h510v-133h-510zM614 -20q-217 0 -344 136t-127 396t127 396t344 136t344 -136t127 -396t-127 -396t-344 -136zM614 109q145 0 228.5 102t83.5 301q0 197 -83 300t-229 103q-143 0 -227 -103t-84 -300t84 -300t227 -103z" glyph-name="omacron" unicode="ō"/><glyph d="M471 1575l-90 37l90 313l152 -61zM758 1554l-90 37l90 314l151 -62zM612 -20q-240 0 -370.5 183t-130.5 553.5t131 554t370 183.5q242 0 374 -183.5t132 -554t-132 -553.5t-374 -183zM614.5 119q331.5 0 331.5 598t-331.5 598t-331.5 -598t331.5 -598z" glyph-name="Ohungarumlaut" unicode="Ő"/><glyph d="M471 1165l-90 37l90 314l152 -62zM758 1145l-90 37l90 313l151 -61zM614 -20q-217 0 -344 136t-127 396t127 396t344 136t344 -136t127 -396t-127 -396t-344 -136zM614 109q145 0 228.5 102t83.5 301q0 197 -83 300t-229 103q-143 0 -227 -103t-84 -300t84 -300t227 -103 z" glyph-name="ohungarumlaut" unicode="ő"/><glyph d="M1178 1311h-375v-518h334v-123h-334v-547h375v-123h-529v74q-72 -94 -196 -94q-352 0 -352.5 737t352.5 737q125 0 196 -94v74h529v-123zM453 109q197 0 196.5 608t-196.5 608q-98 0 -149.5 -138t-51.5 -470t51.5 -470t149.5 -138z" glyph-name="OE" unicode="Œ"/><glyph d="M1176 481h-492q4 -193 53 -288t129 -95q115 0 156 205l135 -67q-41 -133 -110.5 -194.5t-180.5 -61.5q-178 0 -258 170q-74 -170 -239 -170q-152 0 -234 134t-82 398t82 398t234 134q166 0 239 -172q78 168 250 168q168 0 247 -149.5t71 -409.5zM369 98q80 0 125 105.5 t45 308.5q0 201 -46.5 305.5t-124 104.5t-121.5 -104.5t-44 -305.5q0 -203 44 -308.5t122 -105.5zM858 922q-74 0 -119 -85t-53 -243h338q-8 164 -52 246t-114 82z" glyph-name="oe" unicode="œ"/><glyph d="M840 1831l-279 -250l-82 70l248 299zM907 418l197 -418h-184l-177 399q-63 141 -92 172q-49 51 -168 52h-125v-623h-163v1434h464q211 0 308.5 -106.5t97.5 -291.5q0 -354 -330 -389q86 -51 172 -229zM358 756h299q238 0 238 272t-236 272h-301v-544z" glyph-name="Racute" unicode="Ŕ"/><glyph d="M907 1421l-278 -250l-82 70l248 299zM762 1044q260 0 342 -266l-148 -73q-29 104 -83 155t-154 51q-217 0 -289 -264v-647h-154v1024h154v-182q109 202 332 202z" glyph-name="racute" unicode="ŕ"/><glyph d="M907 418l197 -418h-184l-177 399q-63 141 -92 172q-49 51 -168 52h-125v-623h-163v1434h464q211 0 308.5 -106.5t97.5 -291.5q0 -354 -330 -389q86 -51 172 -229zM358 756h299q238 0 238 272t-236 272h-301v-544zM532 -303v180h185v-184q0 -158 -170 -213l-41 76 q113 31 125 110z" glyph-name="Rcommaaccent" unicode="Ŗ"/><glyph d="M762 1044q260 0 342 -266l-148 -73q-29 104 -83 155t-154 51q-217 0 -289 -264v-647h-154v1024h154v-182q109 202 332 202zM580 -303v180h184v-184q0 -158 -170 -213l-41 76q113 31 125 110z" glyph-name="rcommaaccent" unicode="ŗ"/><glyph d="M694 1577h-137l-219 262l96 82l193 -258l188 258l96 -82zM907 418l197 -418h-184l-177 399q-63 141 -92 172q-49 51 -168 52h-125v-623h-163v1434h464q211 0 308.5 -106.5t97.5 -291.5q0 -354 -330 -389q86 -51 172 -229zM358 756h299q238 0 238 272t-236 272h-301v-544z " glyph-name="Rcaron" unicode="Ř"/><glyph d="M762 1167h-137l-219 263l96 81l192 -258l189 258l96 -81zM762 1044q260 0 342 -266l-148 -73q-29 104 -83 155t-154 51q-217 0 -289 -264v-647h-154v1024h154v-182q109 202 332 202z" glyph-name="rcaron" unicode="ř"/><glyph d="M551 1581l-82 70l248 299l112 -119zM612 -20q-399 0 -514 311l156 71q43 -123 127 -183t233 -60q311 0 312 246q0 53 -17.5 96t-35 66.5t-59.5 47t-56.5 29.5t-59.5 23l-225 84q-55 20 -96 42.5t-97.5 65.5t-87 112.5t-30.5 158.5q0 170 115.5 267t324.5 97 q180 0 302 -74.5t173 -212.5l-153 -71q-76 219 -322 219q-131 0 -201.5 -57.5t-70.5 -163.5q0 -57 17.5 -97.5t57 -68t60 -36.5t70.5 -28l227 -84q61 -23 106 -46t103.5 -70.5t90.5 -123t32 -173.5q0 -195 -128.5 -291t-353.5 -96z" glyph-name="Sacute" unicode="Ś"/><glyph d="M565 1171l-82 70l248 299l113 -119zM655 -20q-375 0 -477 256l139 67q39 -100 120 -147t218 -47q272 0 273 163q0 61 -42 95t-124 53l-299 69q-123 29 -180.5 92.5t-57.5 170.5q0 147 101.5 219.5t283.5 72.5q319 0 426 -225l-139 -67q-70 164 -289 163q-236 0 -235 -155 q0 -61 38 -88t115 -45l279 -64q139 -33 204.5 -99.5t65.5 -178.5q0 -154 -111.5 -229.5t-308.5 -75.5z" glyph-name="sacute" unicode="ś"/><glyph d="M1094 367q0 -182 -115 -278.5t-320 -106.5l-8 -62q182 -35 183 -170q0 -80 -59.5 -129t-184.5 -49q-123 0 -199 51l60 109q66 -57 139 -58q53 0 86 20.5t33 59.5q0 78 -181 96l23 132q-346 23 -453 309l156 71q43 -123 127 -183t233 -60q311 0 312 246q0 53 -17.5 96 t-35 66.5t-59.5 47t-56.5 29.5t-59.5 23l-225 84q-55 20 -96 42.5t-97.5 65.5t-87 112.5t-30.5 158.5q0 170 115.5 267t324.5 97q180 0 302 -74.5t173 -212.5l-153 -71q-76 219 -322 219q-131 0 -201.5 -57.5t-70.5 -163.5q0 -57 17.5 -97.5t57 -68t60 -36.5t70.5 -28 l227 -84q61 -23 106 -46t103.5 -70.5t90.5 -123t32 -173.5z" glyph-name="Scedilla" unicode="Ş"/><glyph d="M1075 285q0 -143 -98 -219t-272 -84l-9 -62q182 -35 183 -170q0 -80 -59.5 -129t-184.5 -49q-123 0 -199 51l60 109q66 -57 139 -58q53 0 86 20.5t33 59.5q0 78 -181 96l23 132q-324 20 -418 254l139 67q39 -100 120 -147t218 -47q272 0 273 163q0 61 -42 95t-124 53 l-299 69q-123 29 -180.5 92.5t-57.5 170.5q0 147 101.5 219.5t283.5 72.5q319 0 426 -225l-139 -67q-70 164 -289 163q-236 0 -235 -155q0 -61 38 -88t115 -45l279 -64q139 -33 204.5 -99t65.5 -179z" glyph-name="scedilla" unicode="ş"/><glyph d="M547 1577l-219 262l96 82l192 -258l189 258l96 -82l-217 -262h-137zM612 -20q-399 0 -514 311l156 71q43 -123 127 -183t233 -60q311 0 312 246q0 53 -17.5 96t-35 66.5t-59.5 47t-56.5 29.5t-59.5 23l-225 84q-55 20 -96 42.5t-97.5 65.5t-87 112.5t-30.5 158.5 q0 170 115.5 267t324.5 97q180 0 302 -74.5t173 -212.5l-153 -71q-76 219 -322 219q-131 0 -201.5 -57.5t-70.5 -163.5q0 -57 17.5 -97.5t57 -68t60 -36.5t70.5 -28l227 -84q61 -23 106 -46t103.5 -70.5t90.5 -123t32 -173.5q0 -195 -128.5 -291t-353.5 -96z" glyph-name="Scaron" unicode="Š"/><glyph d="M561 1167l-219 263l96 81l193 -258l188 258l96 -81l-217 -263h-137zM655 -20q-375 0 -477 256l139 67q39 -100 120 -147t218 -47q272 0 273 163q0 61 -42 95t-124 53l-299 69q-123 29 -180.5 92.5t-57.5 170.5q0 147 101.5 219.5t283.5 72.5q319 0 426 -225l-139 -67 q-70 164 -289 163q-236 0 -235 -155q0 -61 38 -88t115 -45l279 -64q139 -33 204.5 -99.5t65.5 -178.5q0 -154 -111.5 -229.5t-308.5 -75.5z" glyph-name="scaron" unicode="š"/><glyph d="M696 0h-32l-13 -80q182 -35 183 -170q0 -80 -59.5 -129t-184.5 -49q-123 0 -199 51l60 109q66 -57 139 -58q53 0 86 20.5t33 59.5q0 78 -181 96l25 150h-21v1300h-450v134h1065v-134h-451v-1300z" glyph-name="Tcommaaccent" unicode="Ţ"/><glyph d="M715 -20h-29l-8 -60q182 -35 182 -170q0 -80 -59.5 -129t-184.5 -49q-123 0 -198 51l59 109q66 -57 139 -58q53 0 86 20.5t33 59.5q0 78 -180 96l25 148q-184 57 -185 285v618h-266v123h266l41 287h113v-287h444v-123h-444v-618q0 -88 42 -131t136 -43q78 0 122 31.5 t81 113.5l135 -61q-104 -213 -350 -213z" glyph-name="tcommaaccent" unicode="ţ"/><glyph d="M684 1577h-137l-219 262l96 82l192 -258l189 258l96 -82zM1147 1434v-134h-451v-1300h-164v1300h-450v134h1065z" glyph-name="Tcaron" unicode="Ť"/><glyph d="M1008 1536h184v-164q0 -199 -231 -274l-41 76q166 47 186 145l-98 33v184zM727 109q78 0 122 31.5t81 113.5l135 -61q-104 -213 -350 -213q-319 0 -320 303v618h-266v123h266l41 287h113v-287h444v-123h-444v-618q0 -88 42 -131t136 -43z" glyph-name="tcaron" unicode="ť"/><glyph d="M1147 1300h-451v-481h369v-133h-369v-686h-164v686h-368v133h368v481h-450v134h1065v-134z" glyph-name="Tbar" unicode="Ŧ"/><glyph d="M930 254l135 -61q-104 -213 -350 -213q-319 0 -320 303v229h-266v123h266v266h-266v123h266l41 287h113v-287h444v-123h-444v-266h444v-123h-444v-229q0 -88 42 -131t136 -43q78 0 122 31.5t81 113.5z" glyph-name="tbar" unicode="ŧ"/><glyph d="M358 1659v133h510v-133h-510zM614.5 -20q-233.5 0 -342 130t-108.5 412v912h164v-912q0 -219 65.5 -311t221 -92t221 92t65.5 311v912h164v-912q0 -283 -108.5 -412.5t-342 -129.5z" glyph-name="Umacron" unicode="Ū"/><glyph d="M868 1382v-133h-510v133h510zM860 1024h154v-1024h-154v141q-143 -162 -348 -161q-158 0 -232.5 92t-74.5 313v639h153v-639q0 -172 51.5 -227.5t137.5 -55.5q102 0 175 47.5t138 141.5v733z" glyph-name="umacron" unicode="ū"/><glyph d="M614 1563q-86 0 -140 56t-54 136q0 82 54 137.5t140 55.5q84 0 138.5 -55.5t54.5 -137.5q0 -80 -54.5 -136t-138.5 -56zM614 1642q47 0 78 33t31 80t-30.5 81t-78.5 34q-49 0 -79.5 -34t-30.5 -81t30.5 -80t79.5 -33zM614.5 -20q-233.5 0 -342 130t-108.5 412v912h164 v-912q0 -219 65.5 -311t221 -92t221 92t65.5 311v912h164v-912q0 -283 -108.5 -412.5t-342 -129.5z" glyph-name="Uring" unicode="Ů"/><glyph d="M614 1153q-86 0 -140 56.5t-54 136.5q0 82 54 137t140 55q84 0 138.5 -55.5t54.5 -136.5q0 -80 -54.5 -136.5t-138.5 -56.5zM614 1460q-49 0 -79.5 -33.5t-30.5 -81t30.5 -80t79.5 -32.5q47 0 78 32.5t31 80t-31 81t-78 33.5zM860 1024h154v-1024h-154v141 q-143 -162 -348 -161q-158 0 -232.5 92t-74.5 313v639h153v-639q0 -172 51.5 -227.5t137.5 -55.5q102 0 175 47.5t138 141.5v733z" glyph-name="uring" unicode="ů"/><glyph d="M471 1575l-90 37l90 313l152 -61zM758 1554l-90 37l90 314l151 -62zM614.5 -20q-233.5 0 -342 130t-108.5 412v912h164v-912q0 -219 65.5 -311t221 -92t221 92t65.5 311v912h164v-912q0 -283 -108.5 -412.5t-342 -129.5z" glyph-name="Uhungarumlaut" unicode="Ű"/><glyph d="M623 1454l-152 -289l-90 37l90 314zM909 1434l-151 -289l-90 37l90 313zM860 1024h154v-1024h-154v141q-143 -162 -348 -161q-158 0 -232.5 92t-74.5 313v639h153v-639q0 -172 51.5 -227.5t137.5 -55.5q102 0 175 47.5t138 141.5v733z" glyph-name="uhungarumlaut" unicode="ű"/><glyph d="M901 1434h164v-912q0 -231 -71.5 -359t-223.5 -167q-109 -74 -150.5 -126t-41.5 -112q0 -86 86 -86q74 0 114 52l66 -89q-74 -66 -189 -65q-195 0 -194 160q0 74 44 130t134 120h-25q-233 0 -341.5 130t-108.5 412v912h164v-912q0 -219 65.5 -311t221 -92t221 92 t65.5 311v912z" glyph-name="Uogonek" unicode="Ų"/><glyph d="M969 -276l65 -89q-74 -66 -188 -65q-195 0 -195 160q0 80 51.5 139t157.5 131v141q-143 -162 -348 -161q-158 0 -232.5 92t-74.5 313v639h153v-639q0 -172 51.5 -227.5t137.5 -55.5q102 0 175 47.5t138 141.5v733h154v-1024h-49q-111 -76 -154 -129t-43 -113 q0 -86 86 -86q74 1 115 52z" glyph-name="uogonek" unicode="ų"/><glyph d="M616 1794l-192 -258l-96 82l219 262h137l217 -262l-96 -82zM1016 1434h162l-195 -1434h-147l-211 938l-211 -938h-148l-194 1434h161l132 -1063l184 858h158l180 -854z" glyph-name="Wcircumflex" unicode="Ŵ"/><glyph d="M616 1384l-192 -258l-96 82l219 262h137l217 -262l-96 -82zM952 1024h152l-195 -1024h-143l-158 752l-157 -752h-144l-194 1024h151l129 -758l150 758h131l149 -758z" glyph-name="wcircumflex" unicode="ŵ"/><glyph d="M616 1794l-192 -258l-96 82l219 262h137l217 -262l-96 -82zM1159 1434l-461 -809v-625h-163v621l-465 813h184l362 -662l363 662h180z" glyph-name="Ycircumflex" unicode="Ŷ"/><glyph d="M633 1384l-193 -258l-96 82l219 262h137l218 -262l-97 -82zM950 1024h168l-502 -1176q-70 -162 -146.5 -220t-184.5 -58q-137 0 -224 98l103 107q47 -76 133 -76q59 0 99 39t85 139l70 154l-430 993h176l330 -809z" glyph-name="ycircumflex" unicode="ŷ"/><glyph d="M530 1823v-185h-182v185h182zM879 1823v-185h-183v185h183zM1159 1434l-461 -809v-625h-163v621l-465 813h184l362 -662l363 662h180z" glyph-name="Ydieresis" unicode="Ÿ"/><glyph d="M852 1831l-279 -250l-81 70l247 299zM338 133h762v-133h-965v113l744 1187h-713v134h917v-113z" glyph-name="Zacute" unicode="Ź"/><glyph d="M793 1421l-279 -250l-82 70l248 299zM1008 1024v-92l-611 -799h611v-133h-820v92l613 799h-582v133h789z" glyph-name="zacute" unicode="ź"/><glyph d="M637 1612q-51 0 -86 34.5t-35 86t35 86t86 34.5t86 -34.5t35 -86t-35 -86t-86 -34.5zM338 133h762v-133h-965v113l744 1187h-713v134h917v-113z" glyph-name="Zdotaccent" unicode="Ż"/><glyph d="M577.5 1202q-51.5 0 -86 35t-34.5 86t34.5 86t86 35t86 -35t34.5 -86t-34.5 -86t-86 -35zM1008 1024v-92l-611 -799h611v-133h-820v92l613 799h-582v133h789z" glyph-name="zdotaccent" unicode="ż"/><glyph d="M707 1577h-138l-219 262l96 82l193 -258l188 258l97 -82zM338 133h762v-133h-965v113l744 1187h-713v134h917v-113z" glyph-name="Zcaron" unicode="Ž"/><glyph d="M647 1167h-137l-219 263l96 81l193 -258l188 258l96 -81zM1008 1024v-92l-611 -799h611v-133h-820v92l613 799h-582v133h789z" glyph-name="zcaron" unicode="ž"/><glyph d="M1028 1407q-147 0 -225 -77t-113 -240l-14 -66h432v-133h-461l-188 -891q-53 -252 -169 -359.5t-323 -107.5v129q150 0 224.5 76t113.5 262l189 891h-230v133h258l15 66q49 229 168.5 337.5t322.5 108.5h203v-129h-203z" glyph-name="florin" unicode="ƒ"/><glyph d="M762 780q61 -23 106 -46t103.5 -70.5t90.5 -123t32 -173.5q0 -195 -128 -291t-354 -96q-399 0 -514 311l156 71q43 -123 127 -183t233 -60q311 0 312 246q0 53 -17.5 96t-35 66.5t-59.5 47t-56.5 29.5t-59.5 23l-225 84q-55 20 -96 42.5t-97.5 65.5t-87 112.5 t-30.5 158.5q0 170 115.5 267t324.5 97q180 0 302 -74.5t173 -212.5l-153 -71q-76 219 -322 219q-131 0 -201.5 -57.5t-70.5 -163.5q0 -57 17.5 -97.5t57 -68t60 -36.5t70.5 -28zM522 -303v180h185v-184q0 -158 -170 -213l-41 76q113 31 125 110z" glyph-name="Scommaaccent" unicode="Ș"/><glyph d="M805 563q139 -33 204.5 -99.5t65.5 -178.5q0 -154 -111.5 -229.5t-308.5 -75.5q-375 0 -477 256l139 67q39 -100 120 -147t218 -47q272 0 273 163q0 61 -42 95t-124 53l-299 69q-123 29 -180.5 92.5t-57.5 170.5q0 147 101.5 219.5t283.5 72.5q319 0 426 -225l-139 -67 q-70 164 -289 163q-236 0 -235 -155q0 -61 38 -88t115 -45zM537 -303v180h184v-184q0 -158 -170 -213l-41 76q113 31 125 110z" glyph-name="scommaaccent" unicode="ș"/><glyph d="M1147 1434v-134h-451v-1300h-164v1300h-450v134h1065zM522 -303v180h185v-184q0 -158 -170 -213l-41 76q113 31 125 110z" glyph-name="uni021A" unicode="Ț"/><glyph d="M930 254l135 -61q-104 -213 -350 -213q-319 0 -320 303v618h-266v123h266l41 287h113v-287h444v-123h-444v-618q0 -88 42 -131t136 -43q78 0 122 31.5t81 113.5zM580 -303v180h184v-184q0 -158 -170 -213l-41 76q113 31 125 110z" glyph-name="uni021B" unicode="ț"/><glyph d="M424 1167l-96 82l219 262h137l217 -262l-96 -82l-189 258z" glyph-name="circumflex" unicode="ˆ"/><glyph d="M547 1167l-219 263l96 81l192 -258l189 258l96 -81l-217 -263h-137z" glyph-name="caron" unicode="ˇ"/><glyph d="M614.5 1194q-53.5 0 -91.5 38t-38 91t38 91t91.5 38t91 -38t37.5 -91t-37.5 -91t-91 -38z" glyph-name="dotaccent" unicode="˙"/><glyph d="M614 1153q-86 0 -140 56.5t-54 136.5q0 82 54 137t140 55q84 0 138.5 -55.5t54.5 -136.5q0 -80 -54.5 -136.5t-138.5 -56.5zM614 1233q47 0 78 32.5t31 80t-30.5 81t-78.5 33.5q-49 0 -79.5 -33.5t-30.5 -81t30.5 -80t79.5 -32.5z" glyph-name="ring" unicode="˚"/><glyph d="M614 -430q-195 0 -194 160q0 86 58.5 148.5t189.5 148.5l65 -27q-111 -76 -153.5 -129t-42.5 -113q0 -86 86 -86q74 0 114 52l66 -89q-74 -65 -189 -65z" glyph-name="ogonek" unicode="˛"/><glyph d="M416 1204l-97 39q31 100 77 147.5t116 47.5q63 0 120.5 -50.5t92.5 -50.5q61 0 88 117l96 -39q-33 -102 -77 -151.5t-115 -49.5q-51 0 -88 26t-65.5 50.5t-59.5 24.5q-61 0 -88 -111z" glyph-name="tilde" unicode="˜"/><glyph d="M428 1165l-90 37l90 314l152 -62zM715 1145l-90 37l90 313l151 -61z" glyph-name="hungarumlaut" unicode="˝"/><glyph d="M-524 1171l-279 252l113 117l248 -299z" glyph-name="gravecomb" horiz-adv-x="0" unicode="̀"/><glyph d="M-748 1171l-81 70l247 299l113 -119z" glyph-name="acutecomb" horiz-adv-x="0" unicode="́"/><glyph d="M-805 1126l-96 82l219 262h137l217 -262l-96 -82l-188 258z" glyph-name="uni0302" horiz-adv-x="0" unicode="̂"/><glyph d="M-911 1204l-101 39q39 100 97.5 147.5t150.5 47.5q94 0 177 -50.5t138 -50.5q92 0 132 117l100 -39q-39 -104 -96.5 -152.5t-151.5 -48.5q-96 0 -178 50.5t-137 50.5q-94 0 -131 -111z" glyph-name="tildecomb" horiz-adv-x="0" unicode="̃"/><glyph d="M-868 1249v133h510v-133h-510z" glyph-name="uni0304" horiz-adv-x="0" unicode="̄"/><glyph d="M-455 1489h99q0 -158 -66.5 -224.5t-191.5 -66.5t-191.5 66.5t-66.5 224.5h98q0 -96 40 -133t119.5 -37t119.5 37t40 133z" glyph-name="uni0306" horiz-adv-x="0" unicode="̆"/><glyph d="M-614.5 1202q-51.5 0 -86 35t-34.5 86t34.5 86t86 35t86 -35t34.5 -86t-34.5 -86t-86 -35z" glyph-name="uni0307" horiz-adv-x="0" unicode="̇"/><glyph d="M-879 1229v184h183v-184h-183zM-530 1229v184h182v-184h-182z" glyph-name="uni0308" horiz-adv-x="0" unicode="̈"/><glyph d="M-614 1153q-86 0 -140.5 56.5t-54.5 136.5q0 82 54.5 137t140.5 55q84 0 138 -55.5t54 -136.5q0 -80 -54 -136.5t-138 -56.5zM-614 1233q47 0 77.5 32.5t30.5 80t-30.5 81t-77.5 33.5q-49 0 -80 -33.5t-31 -81t31 -80t80 -32.5z" glyph-name="uni030A" horiz-adv-x="0" unicode="̊"/><glyph d="M-760 1165l-90 37l90 314l152 -62zM-473 1145l-90 37l90 313l151 -61z" glyph-name="uni030B" horiz-adv-x="0" unicode="̋"/><glyph d="M-682 1167l-219 263l96 81l193 -258l188 258l96 -81l-217 -263h-137z" glyph-name="uni030C" horiz-adv-x="0" unicode="̌"/><glyph d="M-502 1503q-113 -31 -125 -110l99 -31v-180h-185v184q0 158 170 213z" glyph-name="uni0312" horiz-adv-x="0" unicode="̒"/><glyph d="M-721 -123h184v-184q0 -158 -170 -213l-41 76q113 31 125 110l-98 31v180z" glyph-name="uni0326" horiz-adv-x="0" unicode="̦"/><glyph d="M-590 -80q182 -35 182 -170q0 -80 -59 -129t-184 -49q-123 0 -199 51l59 109q66 -57 140 -58q53 0 86 20.5t33 59.5q0 78 -181 96l29 175l109 -2z" glyph-name="uni0327" horiz-adv-x="0" unicode="̧"/><glyph d="M-635 -430q-195 0 -194 160q0 86 58 148.5t189 148.5l66 -27q-111 -76 -154 -129t-43 -113q0 -86 86 -86q74 0 115 52l66 -89q-74 -65 -189 -65z" glyph-name="uni0328" horiz-adv-x="0" unicode="̨"/><glyph d="M846 1651l-82 -70l-279 252l113 117zM1040 1300h-620v-483h559v-133h-559v-551h620v-133h-784v1434h784v-134z" glyph-name="uni0400" unicode="Ѐ"/><glyph d="M616 1823v-185h-182v185h182zM965 1823v-185h-183v185h183zM1040 1300h-620v-483h559v-133h-559v-551h620v-133h-784v1434h784v-134z" glyph-name="afii10023" unicode="Ё"/><glyph d="M782 1651l-82 -70l-278 252l113 117zM1034 1434v-1434h-164v1096l-512 -1096h-163v1434h163v-1096l512 1096h164z" glyph-name="uni040D" unicode="Ѝ"/><glyph d="M981 0l-127 418h-483l-125 -418h-174l450 1434h183l452 -1434h-176zM412 551h403l-203 666z" glyph-name="afii10017" unicode="А"/><glyph d="M637 827q258 0 364.5 -105.5t106.5 -305.5q0 -416 -410 -416h-503v1434h845v-134h-682v-473h279zM698 133q111 0 174.5 58.5t63.5 224.5q0 168 -71.5 223t-227.5 55h-279v-561h340z" glyph-name="afii10018" unicode="Б"/><glyph d="M897 768q211 -80 211 -358q0 -410 -410 -410h-493v1434h434q408 0 408 -369q0 -213 -150 -297zM639 1300h-270v-473h268q113 0 175 46.5t62 185.5t-63 190t-172 51zM698 133q111 0 174.5 58.5t63.5 224.5q0 168 -71.5 223t-227.5 55h-268v-561h329z" glyph-name="afii10019" unicode="В"/><glyph d="M1122 1434v-134h-682v-1300h-164v1434h846z" glyph-name="afii10020" unicode="Г"/><glyph d="M1051 133h143v-399h-164v266h-831v-266h-164v399h84q158 57 176 266l84 1035h672v-1301zM369 133h518v1167h-355l-75 -901q-14 -184 -88 -266z" glyph-name="afii10021" unicode="Д"/><glyph d="M1040 1300h-620v-483h559v-133h-559v-551h620v-133h-784v1434h784v-134z" glyph-name="afii10022" unicode="Е"/><glyph d="M1034 0l-256 668l-86 -133v-535h-153v532l-88 136l-256 -668h-154l319 809l-116 180l-168 445h162l127 -398l174 -284v682h153v-678l172 280l127 398h162l-168 -445l-117 -180l320 -809h-154z" glyph-name="afii10024" unicode="Ж"/><glyph d="M889 774q221 -90 221 -371q0 -207 -134 -315t-355 -108q-193 0 -312 87t-170 275l152 72q37 -154 110.5 -224.5t219.5 -70.5q141 0 229 73.5t88 221.5q0 135 -67.5 207.5t-170.5 72.5h-211v133h154q96 0 158.5 60.5t62.5 187.5q0 115 -63.5 177.5t-184.5 62.5 q-123 0 -192.5 -63.5t-99.5 -204.5l-154 61q88 346 448 346q215 0 316.5 -107.5t101.5 -267.5q0 -217 -147 -305z" glyph-name="afii10025" unicode="З"/><glyph d="M1034 1434v-1434h-164v1096l-512 -1096h-163v1434h163v-1096l512 1096h164z" glyph-name="afii10026" unicode="И"/><glyph d="M637 1608q-125 0 -191.5 66.5t-66.5 223.5h98q0 -96 40 -132.5t120 -36.5t120 36.5t40 132.5h98q0 -158 -66.5 -224t-191.5 -66zM1034 1434v-1434h-164v1096l-512 -1096h-163v1434h163v-1096l512 1096h164z" glyph-name="afii10027" unicode="Й"/><glyph d="M991 0l-483 741l-129 -143v-598h-164v1434h164v-625l559 625h190l-516 -576l566 -858h-187z" glyph-name="afii10028" unicode="К"/><glyph d="M1069 1434v-1434h-164v1300h-395l-80 -962q-14 -164 -69.5 -251t-196.5 -87q-100 0 -164 47l53 113q33 -27 78 -27q121 0 135 205l90 1096h713z" glyph-name="afii10029" unicode="Л"/><glyph d="M1104 1434v-1434h-154v1120l-258 -915h-145l-268 952v-1157h-154v1434h215l281 -994l278 994h205z" glyph-name="afii10030" unicode="М"/><glyph d="M870 1434h164v-1434h-164v672h-512v-672h-163v1434h163v-629h512v629z" glyph-name="afii10031" unicode="Н"/><glyph d="M612 -20q-240 0 -370.5 183t-130.5 553.5t131 554t370 183.5q242 0 374 -183.5t132 -554t-132 -553.5t-374 -183zM614.5 119q331.5 0 331.5 598t-331.5 598t-331.5 -598t331.5 -598z" glyph-name="afii10032" unicode="О"/><glyph d="M1034 1434v-1434h-164v1300h-512v-1300h-163v1434h839z" glyph-name="afii10033" unicode="П"/><glyph d="M731 1434q408 0 408 -418q0 -434 -410 -434h-340v-582h-164v1434h506zM729 715q111 0 174.5 61.5t63.5 239.5q0 168 -62.5 226t-173.5 58h-342v-585h340z" glyph-name="afii10034" unicode="Р"/><glyph d="M655 -20q-242 0 -378 194.5t-136 542.5t136.5 542.5t377.5 194.5q162 0 285 -86t180 -250l-145 -84q-90 281 -316 281q-168 0 -257 -157t-89 -441.5t89.5 -441t256.5 -156.5q225 0 316 280l145 -84q-61 -162 -183 -248.5t-282 -86.5z" glyph-name="afii10035" unicode="С"/><glyph d="M1147 1434v-134h-451v-1300h-164v1300h-450v134h1065z" glyph-name="afii10036" unicode="Т"/><glyph d="M1020 1432h170l-424 -1045q-96 -236 -168 -321.5t-203 -85.5q-240 0 -295 241l152 58q23 -160 145 -160q63 0 110.5 60.5t108.5 215.5l-458 1037h174l360 -844z" glyph-name="afii10037" unicode="У"/><glyph d="M1159 717q0 -201 -125 -324t-338 -143v-250h-164v250q-213 20 -337.5 143t-124.5 324t124.5 323.5t337.5 143.5v250h164v-250q213 -20 338 -143t125 -324zM696 391q135 20 213 105.5t78 220.5q0 133 -79 219t-212 106v-651zM242 717q0 -135 77.5 -220t212.5 -106v651 q-135 -23 -212.5 -107.5t-77.5 -217.5z" glyph-name="afii10038" unicode="Ф"/><glyph d="M1096 1434l-396 -691l396 -743h-176l-308 614l-301 -614h-176l397 737l-397 697h176l310 -574l299 574h176z" glyph-name="afii10039" unicode="Х"/><glyph d="M995 133h205v-399h-164v266h-872v1434h164v-1301h503v1301h164v-1301z" glyph-name="afii10040" unicode="Ц"/><glyph d="M899 1434h164v-1434h-164v782q-150 -168 -397 -168q-199 0 -288 112t-89 376v332h164v-332q0 -188 58.5 -268t205.5 -80q221 0 346 180v500z" glyph-name="afii10041" unicode="Ч"/><glyph d="M991 1434h154v-1434h-1059v1434h154v-1311h299v1311h153v-1311h299v1311z" glyph-name="afii10042" unicode="Ш"/><glyph d="M1079 123h205v-389h-154v266h-1007v1434h153v-1311h248v1311h154v-1311h248v1311h153v-1311z" glyph-name="afii10043" unicode="Щ"/><glyph d="M684 827q258 0 364.5 -105.5t106.5 -305.5q0 -416 -410 -416h-462v1300h-242v134h405v-607h238zM745 133q111 0 174.5 58.5t63.5 224.5q0 168 -71.5 223t-227.5 55h-238v-561h299z" glyph-name="afii10044" unicode="Ъ"/><glyph d="M340 827q236 0 333 -104.5t97 -301t-93 -309t-317 -112.5h-258v1434h164v-607h74zM963 1434h163v-1434h-163v1434zM360 133q111 0 174.5 59.5t63.5 229.5q0 164 -61.5 218t-196.5 54h-74v-561h94z" glyph-name="afii10045" unicode="Ы"/><glyph d="M678 827q258 0 364.5 -105.5t106.5 -305.5q0 -416 -410 -416h-503v1434h163v-607h279zM739 133q111 0 174.5 58.5t63.5 224.5q0 168 -71.5 223t-227.5 55h-279v-561h340z" glyph-name="afii10046" unicode="Ь"/><glyph d="M580 1454q242 0 378 -194.5t136 -542.5t-136.5 -542.5t-377.5 -194.5q-160 0 -282 87t-183 248l145 84q90 -281 315 -280q160 0 248 142t99 403h-519v133h517q-12 248 -100.5 383t-244.5 135q-225 0 -315 -281l-145 84q57 164 180 250t285 86z" glyph-name="afii10047" unicode="Э"/><glyph d="M805 1454q176 0 266 -176t90 -561t-90 -561t-266 -176q-170 0 -258 163.5t-94 520.5h-181v-664h-153v1434h153v-637h181q8 342 97 499.5t255 157.5zM807 109q100 0 149.5 142t49.5 465.5t-49.5 466t-149.5 142.5t-149.5 -142.5t-49.5 -466t49.5 -465.5t149.5 -142z" glyph-name="afii10048" unicode="Ю"/><glyph d="M1034 1434v-1434h-164v623h-125q-113 0 -154.5 -38t-96.5 -165q-4 -14 -9 -21l-176 -399h-184l197 418q86 178 172 229q-330 35 -330 389q0 184 97 291t308 107h465zM571 756h299v544h-301q-236 0 -236 -272t238 -272z" glyph-name="afii10049" unicode="Я"/><glyph d="M602 1044q205 0 313.5 -99t108.5 -327v-618h-154v137q-68 -76 -148.5 -116.5t-207.5 -40.5q-156 0 -241 64.5t-85 186.5q0 180 184.5 264.5t497.5 86.5v36q0 168 -72.5 232.5t-197.5 64.5q-225 0 -297 -194l-145 67q122 256 444 256zM543 102q199 0 327 181v174 q-123 -2 -207.5 -10.5t-162.5 -30t-117 -62.5t-39 -102q0 -68 48.5 -109t150.5 -41z" glyph-name="afii10065" unicode="а"/><glyph d="M668 1006q221 0 326.5 -137.5t105.5 -362.5q0 -256 -128 -391t-339 -135q-479 0 -479 714q0 326 115.5 519.5t385.5 226.5l121 14q94 12 128 31.5t65 70.5l123 -83q-33 -66 -92.5 -98t-196.5 -48l-144 -16q-178 -20 -255.5 -145.5t-92.5 -340.5q109 181 357 181zM633 119 q147 0 227 97t80 290q0 362 -299 362q-309 0 -324 -366q25 -209 105 -296t211 -87z" glyph-name="afii10066" unicode="б"/><glyph d="M879 537q195 -57 194 -256q0 -137 -91 -209t-247 -72h-530v1024h530q135 0 216 -66.5t81 -191.5q1 -172 -153 -229zM735 901h-377v-305h377q63 0 100 38t37 111q0 76 -37 116t-100 40zM735 123q82 0 130 45t48 131t-48 130t-130 44h-377v-350h377z" glyph-name="afii10067" unicode="в"/><glyph d="M1051 1024v-133h-600v-891h-154v1024h754z" glyph-name="afii10068" unicode="г"/><glyph d="M993 133h164v-399h-153v266h-795v-266h-154v399h64q61 0 102 42t49 112l82 737h641v-891zM365 133h475v758h-353l-67 -604q-10 -88 -55 -154z" glyph-name="afii10069" unicode="д"/><glyph d="M1067 481h-741q8 -188 91 -280t220 -92q205 0 270 194l142 -67q-113 -256 -412 -256q-217 0 -340 138t-123 394q0 262 124 397t329 135q227 0 338.5 -154.5t101.5 -408.5zM625 915q-123 0 -200 -80.5t-93 -230.5h575q-32 311 -282 311z" glyph-name="afii10070" unicode="е"/><glyph d="M1044 0l-256 483l-100 -143v-340h-145v340l-99 141l-256 -481h-165l331 608l-293 416h162l320 -471v471h145v-471l320 471h161l-292 -416l331 -608h-164z" glyph-name="afii10072" unicode="ж"/><glyph d="M864 555q207 -63 207 -262q0 -154 -125 -233.5t-342 -79.5q-373 0 -469 276l141 70q35 -111 113 -164t219.5 -53t223 50t81.5 148q0 88 -67.5 131t-171.5 43h-209v123h158q92 0 154.5 42t62.5 122q0 147 -238 147q-240 0 -293 -174l-143 62q86 242 436 241 q211 0 304 -74.5t93 -191.5q0 -153 -135 -223z" glyph-name="afii10073" unicode="з"/><glyph d="M1020 1024v-1024h-154v831l-501 -831h-154v1024h154v-760l460 760h195z" glyph-name="afii10074" unicode="и"/><glyph d="M616.5 1198q-124.5 0 -191.5 66.5t-67 224.5h99q0 -96 40 -133t119.5 -37t119.5 37t40 133h98q0 -158 -66.5 -224.5t-191 -66.5zM1020 1024v-1024h-154v831l-501 -831h-154v1024h154v-760l460 760h195z" glyph-name="afii10075" unicode="й"/><glyph d="M963 0l-394 516l-159 -156v-360h-154v1024h154v-481l489 481h193l-418 -406l477 -618h-188z" glyph-name="afii10076" unicode="к"/><glyph d="M1038 1024v-1024h-153v891h-393l-68 -604q-18 -160 -76.5 -228.5t-161.5 -68.5q-70 0 -118 33l53 112q16 -16 47 -16q49 0 70.5 40t31.5 128l82 737h686z" glyph-name="afii10077" unicode="л"/><glyph d="M1102 1024v-1024h-133v862l-285 -862h-139l-285 848v-848h-133v1024h209l278 -821l273 821h215z" glyph-name="afii10078" unicode="м"/><glyph d="M881 1024h153v-1024h-153v467h-533v-467h-153v1024h153v-424h533v424z" glyph-name="afii10079" unicode="н"/><glyph d="M614 -20q-217 0 -344 136t-127 396t127 396t344 136t344 -136t127 -396t-127 -396t-344 -136zM614 109q145 0 228.5 102t83.5 301q0 197 -83 300t-229 103q-143 0 -227 -103t-84 -300t84 -300t227 -103z" glyph-name="afii10080" unicode="о"/><glyph d="M1018 1024v-1024h-154v891h-499v-891h-154v1024h807z" glyph-name="afii10081" unicode="п"/><glyph d="M649 1044q205 0 326 -137t121 -395t-121 -395t-326 -137q-186 0 -295 129v-519h-153v1434h153v-109q109 129 295 129zM623 109q152 0 232.5 116.5t80.5 286.5t-81 286.5t-232 116.5q-201 0 -269 -194v-418q68 -194 269 -194z" glyph-name="afii10082" unicode="р"/><glyph d="M653 -20q-223 0 -348 136t-125 396t125 396t348 136q301 0 402 -256l-146 -67q-66 195 -260 194q-150 0 -229.5 -116.5t-79.5 -286.5t80 -286.5t229 -116.5q195 0 260 194l146 -67q-101 -256 -402 -256z" glyph-name="afii10083" unicode="с"/><glyph d="M1079 1024v-133h-387v-891h-153v891h-389v133h929z" glyph-name="afii10084" unicode="т"/><glyph d="M950 1024h168l-502 -1176q-70 -162 -146.5 -220t-184.5 -58q-137 0 -224 98l103 107q47 -76 133 -76q59 0 99 39t85 139l70 154l-430 993h176l330 -809z" glyph-name="afii10085" unicode="у"/><glyph d="M879 1044q139 0 214.5 -135t75.5 -397t-75.5 -397t-214.5 -135q-121 0 -193 102v-492h-143v492q-72 -102 -195 -102q-139 0 -214 135t-75 397t75 397t214 135q123 0 195 -102v594h143v-594q72 102 193 102zM379 98q123 0 164 205v418q-41 205 -164 205q-170 0 -170 -414 t170 -414zM850 98q170 0 170 414t-170 414q-123 0 -164 -205v-418q41 -205 164 -205z" glyph-name="afii10086" unicode="ф"/><glyph d="M1104 1024l-399 -496l399 -528h-184l-308 420l-303 -420h-184l397 530l-397 494h184l305 -387l306 387h184z" glyph-name="afii10087" unicode="х"/><glyph d="M997 133h164v-399h-153v266h-820v1024h154v-891h502v891h153v-891z" glyph-name="afii10088" unicode="ц"/><glyph d="M834 1024h153v-1024h-153v573q-147 -164 -359 -163q-168 0 -253 93t-85 312v209h154v-209q0 -170 60.5 -226.5t158.5 -56.5q109 0 181.5 46.5t142.5 144.5v301z" glyph-name="afii10089" unicode="ч"/><glyph d="M963 1024h143v-1024h-983v1024h143v-901h277v901h143v-901h277v901z" glyph-name="afii10090" unicode="ш"/><glyph d="M1085 123h154v-389h-143v266h-994v1024h144v-901h276v901h144v-901h276v901h143v-901z" glyph-name="afii10091" unicode="щ"/><glyph d="M788 678q156 0 247 -86t91 -252q0 -164 -91 -252t-247 -88h-469v891h-227v133h381v-346h315zM788 133q82 0 130.5 53.5t48.5 153.5t-48.5 152.5t-130.5 52.5h-315v-412h315z" glyph-name="afii10092" unicode="ъ"/><glyph d="M434 678q156 0 247 -86t91 -252q0 -164 -91 -252t-247 -88h-305v1024h154v-346h151zM946 1024h154v-1024h-154v1024zM434 133q82 0 130 53.5t48 153.5t-48 152.5t-130 52.5h-151v-412h151z" glyph-name="afii10093" unicode="ы"/><glyph d="M760 678q156 0 247 -86t91 -252q0 -164 -91.5 -252t-246.5 -88h-531v1024h154v-346h377zM760 133q82 0 130 53.5t48 153.5t-48 152.5t-130 52.5h-377v-412h377z" glyph-name="afii10094" unicode="ь"/><glyph d="M586 1044q221 0 342 -136t121 -396t-121 -396t-342 -136q-311 0 -412 256l145 67q66 -195 271 -194q270 0 297 337h-391v134h391q-12 160 -87 247.5t-210 87.5q-205 0 -271 -194l-145 67q101 256 412 256z" glyph-name="afii10095" unicode="э"/><glyph d="M809 1044q141 0 218 -135t77 -397t-77 -397t-218 -135q-272 0 -291 466h-201v-446h-143v1024h143v-444h201q19 464 291 464zM809 109q145 0 145 403t-145 403q-150 0 -150 -403t150 -403z" glyph-name="afii10096" unicode="ю"/><glyph d="M1006 1024v-1024h-154v428h-154q-43 0 -71.5 -3t-54 -18.5t-38 -23.5t-33 -46t-28.5 -54.5t-35 -77.5l-90 -205h-164l111 223q51 104 85 154.5t79 79.5q-113 20 -176.5 87.5t-63.5 178.5q0 147 91 224t247 77h449zM557 561h295v330h-295q-82 0 -130 -42t-48 -124 q0 -80 48 -122t130 -42z" glyph-name="afii10097" unicode="я"/><glyph d="M766 1241l-82 -70l-278 252l112 117zM1067 481h-741q8 -188 91 -280t220 -92q205 0 270 194l142 -67q-113 -256 -412 -256q-217 0 -340 138t-123 394q0 262 124 397t329 135q227 0 338.5 -154.5t101.5 -408.5zM625 915q-123 0 -200 -80.5t-93 -230.5h575 q-32 311 -282 311z" glyph-name="uni0450" unicode="ѐ"/><glyph d="M537 1413v-184h-183v184h183zM885 1413v-184h-183v184h183zM1067 481h-741q8 -188 91 -280t220 -92q205 0 270 194l142 -67q-113 -256 -412 -256q-217 0 -340 138t-123 394q0 262 124 397t329 135q227 0 338.5 -154.5t101.5 -408.5zM625 915q-123 0 -200 -80.5 t-93 -230.5h575q-32 311 -282 311z" glyph-name="afii10071" unicode="ё"/><glyph d="M760 1651l-82 -70l-279 252l113 117zM1016 1434h162l-195 -1434h-147l-211 938l-211 -938h-148l-194 1434h161l132 -1063l184 858h158l180 -854z" glyph-name="Wgrave" unicode="Ẁ"/><glyph d="M760 1241l-82 -70l-279 252l113 117zM952 1024h152l-195 -1024h-143l-158 752l-157 -752h-144l-194 1024h151l129 -758l150 758h131l149 -758z" glyph-name="wgrave" unicode="ẁ"/><glyph d="M829 1831l-278 -250l-82 70l248 299zM1016 1434h162l-195 -1434h-147l-211 938l-211 -938h-148l-194 1434h161l132 -1063l184 858h158l180 -854z" glyph-name="Wacute" unicode="Ẃ"/><glyph d="M829 1421l-278 -250l-82 70l248 299zM952 1024h152l-195 -1024h-143l-158 752l-157 -752h-144l-194 1024h151l129 -758l150 758h131l149 -758z" glyph-name="wacute" unicode="ẃ"/><glyph d="M530 1823v-185h-182v185h182zM879 1823v-185h-183v185h183zM1016 1434h162l-195 -1434h-147l-211 938l-211 -938h-148l-194 1434h161l132 -1063l184 858h158l180 -854z" glyph-name="Wdieresis" unicode="Ẅ"/><glyph d="M530 1413v-184h-182v184h182zM879 1413v-184h-183v184h183zM952 1024h152l-195 -1024h-143l-158 752l-157 -752h-144l-194 1024h151l129 -758l150 758h131l149 -758z" glyph-name="wdieresis" unicode="ẅ"/><glyph d="M772 854q186 -25 266 -126t80 -290q0 -211 -109.5 -324.5t-361.5 -113.5h-98v133h98q299 0 299 305q0 291 -317 297l-47 94l241 471h-235q-127 0 -173 -66.5t-46 -205.5v-1028h-164v1028q0 406 383 406h430v-113z" glyph-name="uni1E9E" unicode="ẞ"/><glyph d="M760 1651l-82 -70l-279 252l113 117zM1159 1434l-461 -809v-625h-163v621l-465 813h184l362 -662l363 662h180z" glyph-name="Ygrave" unicode="Ỳ"/><glyph d="M776 1241l-82 -70l-278 252l112 117zM950 1024h168l-502 -1176q-70 -162 -146.5 -220t-184.5 -58q-137 0 -224 98l103 107q47 -76 133 -76q59 0 99 39t85 139l70 154l-430 993h176l330 -809z" glyph-name="ygrave" unicode="ỳ"/><glyph d="M190 442v133h848v-133h-848z" glyph-name="endash" unicode="–"/><glyph d="M0 442v133h1229v-133h-1229z" glyph-name="emdash" unicode="—"/><glyph d="M772 1440q-174 -57 -188 -197l100 -33v-225h-184v184q0 127 51 212t180 135z" glyph-name="quoteleft" unicode="‘"/><glyph d="M545 1434h184v-185q0 -127 -51 -212t-180 -134l-41 76q174 57 188 197l-100 32v226z" glyph-name="quoteright" unicode="’"/><glyph d="M535 225h184v-184q0 -127 -51.5 -212t-180.5 -134l-41 76q174 57 189 196l-100 33v225z" glyph-name="quotesinglbase" unicode="‚"/><glyph d="M653 1440q-174 -57 -188 -197l100 -33v-225h-184v184q0 127 51 212t180 135zM940 1440q-174 -57 -188 -197l100 -33v-225h-184v184q0 127 51 212t180 135z" glyph-name="quotedblleft" unicode="“"/><glyph d="M399 1208v226h185v-185q0 -127 -51.5 -212t-180.5 -134l-41 76q174 57 189 197zM686 1434h184v-185q0 -127 -51 -212t-180 -134l-41 76q174 57 188 197l-100 32v226z" glyph-name="quotedblright" unicode="”"/><glyph d="M377 0v225h184v-184q0 -127 -51 -212t-180 -134l-41 76q174 57 188 196zM664 225h184v-184q0 -127 -51.5 -212t-180.5 -134l-41 76q174 57 189 196l-100 33v225z" glyph-name="quotedblbase" unicode="„"/><glyph d="M1106 1024v-133h-309q-27 0 -52.5 5t-36 9t-32 15.5t-23.5 11.5q2 -2 12.5 -22.5t14.5 -32t9 -36t5 -53.5v-716q0 -156 -67 -277h-29q-68 127 -68 277v716q0 29 5.5 53.5t9.5 36t14 32t12 22.5q-2 -2 -22.5 -12.5t-31.5 -14.5t-35.5 -9t-53.5 -5h-307v133h307 q29 0 53.5 -5t35.5 -9t31.5 -14.5t22.5 -12.5q0 2 -11 23.5t-15 32t-9.5 36t-5.5 51.5v308h164v-308q0 -27 -5 -52t-9 -35.5t-15.5 -32t-11.5 -23.5q2 0 23.5 11.5t32 15.5t36 9t52.5 5h309z" glyph-name="dagger" unicode="†"/><glyph d="M532 -205v307q0 27 5.5 52.5t9.5 36t15 32t11 23.5q-2 -2 -22.5 -12.5t-31.5 -14.5t-35.5 -9t-53.5 -5h-307v133h307q29 0 53.5 -5t35.5 -9.5t31.5 -14.5t22.5 -12q-2 2 -12 22.5t-14 31.5t-9.5 36t-5.5 53v348q0 29 5.5 53.5t9.5 36t14 32t12 22.5q-2 -2 -22.5 -12.5 t-31.5 -14.5t-35.5 -9t-53.5 -5h-307v133h307q29 0 53.5 -5t35.5 -9t31.5 -14.5t22.5 -12.5q0 2 -11 23.5t-15 32t-9.5 36t-5.5 51.5v308h164v-308q0 -27 -5 -52t-9 -35.5t-15.5 -32t-11.5 -23.5q2 0 23.5 11.5t32 15.5t36 9t52.5 5h309v-133h-309q-27 0 -52.5 5t-36 9 t-32 15.5t-23.5 11.5q2 -2 12.5 -22.5t14.5 -32t9 -36t5 -53.5v-348q0 -29 -5 -53.5t-9 -35.5t-14.5 -31.5t-12.5 -22.5q2 0 23.5 11t32 15.5t36 9.5t52.5 5h309v-133h-309q-27 0 -52.5 5t-36 9t-32 15.5t-23.5 11.5q0 -2 11.5 -23.5t15.5 -32t9 -36t5 -52.5v-307h-164z" glyph-name="daggerdbl" unicode="‡"/><glyph d="M614 541q-78 0 -132 55t-54 131t55.5 130t131 54t130 -54t54.5 -130t-54.5 -131t-130.5 -55z" glyph-name="bullet" unicode="•"/><glyph d="M133 0v225h184v-225h-184zM522 0v225h185v-225h-185zM911 0v225h185v-225h-185z" glyph-name="ellipsis" unicode="…"/><glyph d="M334 778q-117 0 -195 84t-78 242q0 156 78 243t195 87q119 0 197.5 -87t78.5 -243q0 -158 -78.5 -242t-197.5 -84zM791 766l-105 61l344 607h174zM336 897q61 0 97 53.5t36 153.5q0 102 -36 156.5t-97.5 54.5t-97 -54.5t-35.5 -156.5q0 -207 133 -207zM323.5 0 q-108.5 0 -180 84t-71.5 242q0 156 72.5 242.5t179.5 86.5q109 0 182.5 -87t73.5 -242q0 -158 -74 -242t-182.5 -84zM938 0q-109 0 -180.5 84t-71.5 242q0 156 72.5 242.5t179.5 86.5q109 0 182.5 -87t73.5 -242q0 -158 -73.5 -242t-182.5 -84zM326 119q51 0 81.5 53 t30.5 154q0 102 -30.5 156.5t-82 54.5t-82 -54.5t-30.5 -156.5q0 -207 113 -207zM940 119q51 0 82 53t31 154q0 102 -31 156.5t-82 54.5t-82 -54.5t-31 -156.5q0 -207 113 -207z" glyph-name="perthousand" unicode="‰"/><glyph d="M797 756l-260 -262l260 -265l-99 -100l-360 363l2 2h-2l360 362z" glyph-name="guilsinglleft" unicode="‹"/><glyph d="M891 494v-2l-361 -363l-98 100l260 265l-260 262l98 100z" glyph-name="guilsinglright" unicode="›"/><glyph d="M37 0l901 1434h168l-901 -1434h-168z" glyph-name="fraction" unicode="⁄"/><glyph d="M1081 1300h-620v-503h559v-133h-559v-230h334v-133h-334v-301h-164v301h-221v133h221v1000h784v-134z" glyph-name="franc" unicode="₣"/><glyph d="M1251 1090v-134h-108q-29 -375 -408 -374h-340v-582h-164v956h-190v134h190v344h506q369 0 404 -344h110zM395 1300v-210h574q-14 123 -74.5 166.5t-157.5 43.5h-342zM735 715q102 0 164 50t72 191h-576v-241h340z" glyph-name="peseta" unicode="₧"/><glyph d="M483 1321h-260v-1321h-143v1434h403q358 0 359 -406v-516h-144v516q0 293 -215 293zM1008 1434h143v-1434h-383q-379 0 -379 406v516h143v-516q0 -293 236 -293h240v1321z" glyph-name="afii57636" unicode="₪"/><glyph d="M659 119q225 0 316 280l145 -84q-61 -162 -183 -248.5t-282 -86.5q-197 0 -325.5 132t-169.5 373h-146v133h129q-2 31 -2 99q0 66 2 96h-129v133h146q41 244 169 376t326 132q162 0 285 -86t180 -250l-145 -84q-90 281 -316 281q-131 0 -214 -95.5t-113 -273.5h422v-133 h-439q-2 -31 -2 -96q0 -68 2 -99h439v-133h-422q31 -178 113.5 -272t213.5 -94z" glyph-name="Euro" unicode="€"/><glyph d="M1098 1300h-236q61 -78 74 -208h162v-134h-164q-27 -285 -301 -327q76 -59 147 -213l197 -418h-184l-177 399q-63 141 -92 172q-49 51 -168 52h-243v133h417q205 0 234 202h-651v134h651q-27 209 -232 208h-419v134h985v-134z" glyph-name="uni20B9" unicode="₹"/><glyph d="M729 582h-258v-154h436v-133h-436v-295h-164v295h-201v133h201v154h-201v133h201v719h424q408 0 408 -418q0 -434 -410 -434zM471 1300v-585h258q111 0 174.5 61.5t63.5 239.5q0 168 -62.5 226t-173.5 58h-260z" glyph-name="uni20BD" unicode="₽"/><glyph d="M477 1434v-82h-153v-635h-101v635h-157v82h411zM1102 1434v-717h-92v571l-146 -571h-86l-143 577v-577h-92v717h145l133 -557l140 557h141z" glyph-name="trademark" unicode="™"/><glyph d="M1153 805v-162l-797 4l549 -543l-114 -116l-740 739l721 721l117 -115l-533 -524z" glyph-name="arrowleft" unicode="←"/><glyph d="M1204 879l-114 -113l-394 397l4 -1175h-161l-4 1175l-394 -397l-114 117l589 585l111 -110z" glyph-name="arrowup" unicode="↑"/><glyph d="M1178 727l-740 -739l-114 116l548 543l-796 -4v162l796 4l-532 524l117 115z" glyph-name="arrowright" unicode="→"/><glyph d="M1204 543l-477 -480l-111 -110l-589 586l114 116l394 -397l4 1176h161l-4 -1176l394 397z" glyph-name="arrowdown" unicode="↓"/><glyph d="M821 1448l301 -721l-301 -721l-121 57l246 584l-657 -4l243 -580l-120 -57l-301 721l301 721l120 -57l-245 -586l659 4l-246 582z" glyph-name="arrowboth" unicode="↔"/><glyph d="M696 264l334 348l111 -104l-520 -531l-531 521l109 110l344 -344v907l-342 -340l-109 109l531 518l518 -530l-105 -109l-340 352v-907z" glyph-name="arrowupdn" unicode="↕"/><glyph d="M1133 1167v-163l-748 4l748 -752l-113 -115l-748 752l4 -770h-163v1044h1020z" glyph-name="uni2196" unicode="↖"/><glyph d="M1116 1167v-1044h-164l4 770l-747 -752l-113 115l748 752l-748 -4v163h1020z" glyph-name="uni2197" unicode="↗"/><glyph d="M926 1290h164v-1044h-1020v164l747 -4l-747 751l112 115l748 -752z" glyph-name="uni2198" unicode="↘"/><glyph d="M1163 1178l-747 -752l747 4v-164h-1020v1045h164l-4 -770l748 751z" glyph-name="uni2199" unicode="↙"/><glyph d="M440 1454q631 -70 631 -704q0 -154 -30.5 -288t-93 -243.5t-170 -174t-247.5 -64.5q-184 0 -297.5 106.5t-113.5 312.5q0 236 144.5 391.5t383.5 155.5q147 0 250 -61q-27 186 -147.5 297.5t-368.5 146.5zM530 119q102 0 178 54t117 148.5t59.5 195.5t20.5 216 q-104 78 -260 74q-176 0 -265 -116t-89 -290q-1 -282 239 -282z" glyph-name="partialdiff" unicode="∂"/><glyph d="M1182 1120l-174 -205q131 -154 131 -391q0 -233 -141.5 -388.5t-383.5 -155.5q-188 0 -321 100l-166 -197l-80 68l170 201q-127 150 -127 372q0 242 141.5 404t382.5 162q188 0 318 -103l170 199zM207 524q0 -170 84 -288l573 671q-98 86 -250 86q-190 0 -298.5 -134 t-108.5 -335zM1022 524q0 180 -86 307l-574 -671q102 -84 252 -84q190 0 299 127.5t109 320.5z" glyph-name="emptyset" unicode="∅"/><glyph d="M1206 1434v-134h-194v-1710h-164v1710h-467v-1710h-164v1710h-194v134h1183z" glyph-name="product" unicode="∏"/><glyph d="M1040 1434v-134h-686l459 -788l-459 -788h686v-134h-876v113l471 809l-471 809v113h876z" glyph-name="summation" unicode="∑"/><glyph d="M260 463v133h709v-133h-709z" glyph-name="minus" unicode="−"/><glyph d="M942 1638h164l-451 -1781h-157l-348 962h178l241 -737z" glyph-name="radical" unicode="√"/><glyph d="M858 952q131 0 211 -98t80 -283q0 -180 -81 -278t-202 -98q-84 0 -143 53t-88 147q-86 -201 -262 -200q-133 0 -213 98t-80 282q0 180 81 278.5t201 98.5q172 0 232 -202q84 202 264 202zM369 313q45 0 79.5 44t49 84t41.5 137q4 14 6 20l-2 -2q-41 238 -168 238 q-68 0 -112 -66t-44 -193q0 -125 43.5 -193.5t106.5 -68.5zM854 313q68 0 112 65.5t44 192.5q0 125 -43 194t-105 69q-35 0 -61.5 -19.5t-46 -61.5t-31.5 -79t-31 -101q-4 -14 -6 -22q41 -238 168 -238z" glyph-name="infinity" unicode="∞"/><glyph d="M125 -430v129h82q82 0 117.5 43t62.5 158l301 1224q45 184 117 257t217 73h82v-129h-82q-82 0 -118 -43t-62 -158l-301 -1224q-45 -184 -117 -257t-217 -73h-82z" glyph-name="integral" unicode="∫"/><glyph d="M444 758q-16 0 -30.5 -3t-26.5 -14.5t-19.5 -17.5t-17.5 -26.5t-14 -26.5t-15.5 -34t-13.5 -34l-94 43q18 57 33.5 94t43 76t67.5 57.5t94 18.5q66 0 114.5 -30t75.5 -66.5t64.5 -66.5t80.5 -30q74 0 127 138l9 18l94 -43q-18 -57 -33.5 -94t-43.5 -76t-66.5 -57.5 t-92.5 -18.5q-63 0 -113.5 30t-77 66.5t-64.5 66.5t-81 30zM786 289q74 0 127 137l9 18l94 -43q-18 -57 -33.5 -94t-43.5 -75.5t-66.5 -57t-92.5 -18.5q-63 0 -113.5 29.5t-77 66.5t-64.5 66.5t-81 29.5q-16 0 -30.5 -3t-26.5 -14.5t-19.5 -17.5t-17.5 -26.5t-14 -26.5 t-15.5 -33.5t-13.5 -33.5l-94 43q18 57 33.5 94t43 75.5t67.5 57t94 18.5q66 0 114.5 -29.5t75.5 -66.5t64.5 -66.5t80.5 -29.5z" glyph-name="approxequal" unicode="≈"/><glyph d="M969 729h-250l-66 -276h316v-134h-348l-58 -241h-143l57 241h-217v134h250l65 276h-315v133h348l58 242h143l-57 -242h217v-133z" glyph-name="notequal" unicode="≠"/><glyph d="M1024 934l-659 -287l659 -246l-61 -122l-750 292v142l750 346zM233 0v133h791v-133h-791z" glyph-name="lessequal" unicode="≤"/><glyph d="M266 1059l750 -346v-142l-750 -292l-61 122l659 246l-659 287zM205 0v133h790v-133h-790z" glyph-name="greaterequal" unicode="≥"/><glyph d="M670 1454l407 -735v-4l-407 -735h-101l-417 735v4l417 735h101zM618 172l291 545l-291 543l-299 -543z" glyph-name="lozenge" unicode="◊"/><glyph d="M614.5 1202q-51.5 0 -86 35t-34.5 86t34.5 86t86 35t86 -35t34.5 -86t-34.5 -86t-86 -35zM717 123h307v-123h-829v123h368v778h-348v123h502v-901z" glyph-name="i.aalt"/><glyph d="M885 1024h153v-1024h-153v109q-109 -129 -295 -129q-205 0 -326 137t-121 395t121 395t326 137q186 0 295 -129v109zM616 109q201 0 269 194v418q-68 195 -269 194q-152 0 -232.5 -116.5t-80.5 -286.5t80.5 -286.5t232.5 -116.5z" glyph-name="a.salt"/><glyph d="M846 1421l-279 -250l-82 70l248 299zM885 1024h153v-1024h-153v109q-109 -129 -295 -129q-205 0 -326 137t-121 395t121 395t326 137q186 0 295 -129v109zM616 109q201 0 269 194v418q-68 195 -269 194q-152 0 -232.5 -116.5t-80.5 -286.5t80.5 -286.5t232.5 -116.5z" glyph-name="aacute.aalt"/><glyph d="M631 1198q-125 0 -191.5 66.5t-66.5 224.5h98q0 -96 40 -133t120 -37t120 37t40 133h98q0 -158 -66.5 -224.5t-191.5 -66.5zM885 1024h153v-1024h-153v109q-109 -129 -295 -129q-205 0 -326 137t-121 395t121 395t326 137q186 0 295 -129v109zM616 109q201 0 269 194v418 q-68 195 -269 194q-152 0 -232.5 -116.5t-80.5 -286.5t80.5 -286.5t232.5 -116.5z" glyph-name="abreve.aalt"/><glyph d="M633 1384l-193 -258l-96 82l219 262h137l218 -262l-97 -82zM885 1024h153v-1024h-153v109q-109 -129 -295 -129q-205 0 -326 137t-121 395t121 395t326 137q186 0 295 -129v109zM616 109q201 0 269 194v418q-68 195 -269 194q-152 0 -232.5 -116.5t-80.5 -286.5 t80.5 -286.5t232.5 -116.5z" glyph-name="acircumflex.aalt"/><glyph d="M547 1413v-184h-182v184h182zM895 1413v-184h-182v184h182zM885 1024h153v-1024h-153v109q-109 -129 -295 -129q-205 0 -326 137t-121 395t121 395t326 137q186 0 295 -129v109zM616 109q201 0 269 194v418q-68 195 -269 194q-152 0 -232.5 -116.5t-80.5 -286.5 t80.5 -286.5t232.5 -116.5z" glyph-name="adieresis.aalt"/><glyph d="M776 1241l-82 -70l-278 252l112 117zM885 1024h153v-1024h-153v109q-109 -129 -295 -129q-205 0 -326 137t-121 395t121 395t326 137q186 0 295 -129v109zM616 109q201 0 269 194v418q-68 195 -269 194q-152 0 -232.5 -116.5t-80.5 -286.5t80.5 -286.5t232.5 -116.5z" glyph-name="agrave.aalt"/><glyph d="M885 1382v-133h-510v133h510zM885 1024h153v-1024h-153v109q-109 -129 -295 -129q-205 0 -326 137t-121 395t121 395t326 137q186 0 295 -129v109zM616 109q201 0 269 194v418q-68 195 -269 194q-152 0 -232.5 -116.5t-80.5 -286.5t80.5 -286.5t232.5 -116.5z" glyph-name="amacron.aalt"/><glyph d="M989 -276l66 -89q-74 -66 -189 -65q-195 0 -194 160q0 80 51 140t162 134v105q-109 -129 -295 -129q-205 0 -326 137t-121 395t121 395t326 137q186 0 295 -129v109h153v-1024h-53q-111 -76 -154 -129t-43 -113q0 -86 86 -86q74 1 115 52zM616 109q201 0 269 194v418 q-68 195 -269 194q-152 0 -232.5 -116.5t-80.5 -286.5t80.5 -286.5t232.5 -116.5z" glyph-name="aogonek.aalt"/><glyph d="M631 1153q-86 0 -140.5 56.5t-54.5 136.5q0 82 54.5 137t140.5 55q84 0 138 -55.5t54 -136.5q0 -80 -54 -136.5t-138 -56.5zM631 1460q-49 0 -80 -33.5t-31 -81t31 -80t80 -32.5q47 0 77.5 32.5t30.5 80t-30.5 81t-77.5 33.5zM885 1024h153v-1024h-153v109 q-109 -129 -295 -129q-205 0 -326 137t-121 395t121 395t326 137q186 0 295 -129v109zM616 109q201 0 269 194v418q-68 195 -269 194q-152 0 -232.5 -116.5t-80.5 -286.5t80.5 -286.5t232.5 -116.5z" glyph-name="aring.aalt"/><glyph d="M465 1315q-94 0 -131 -111l-101 39q39 100 97.5 147.5t150.5 47.5q94 0 177 -50.5t139 -50.5q92 0 131 117l100 -39q-39 -104 -96.5 -152.5t-151.5 -48.5q-96 0 -178 50.5t-137 50.5zM885 1024h153v-1024h-153v109q-109 -129 -295 -129q-205 0 -326 137t-121 395t121 395 t326 137q186 0 295 -129v109zM616 109q201 0 269 194v418q-68 195 -269 194q-152 0 -232.5 -116.5t-80.5 -286.5t80.5 -286.5t232.5 -116.5z" glyph-name="atilde.aalt"/><glyph d="M891 1024h153v-1024q0 -205 -102 -317.5t-346 -112.5q-319 0 -436 203l141 110q45 -92 111.5 -138t189.5 -46q158 0 223.5 79t65.5 222v170q-109 -129 -297 -129q-203 0 -323.5 131t-120.5 371q0 244 119.5 372.5t322.5 128.5q190 0 299 -129v109zM618 170q205 0 273 195 v356q-68 195 -273 194q-150 0 -229.5 -108.5t-79.5 -264t79.5 -264t229.5 -108.5z" glyph-name="g.aalt"/><glyph d="M643 1198q-125 0 -191.5 66.5t-66.5 224.5h98q0 -96 40 -133t120 -37t120 37t40 133h98q0 -158 -66.5 -224.5t-191.5 -66.5zM891 1024h153v-1024q0 -205 -102 -317.5t-346 -112.5q-319 0 -436 203l141 110q45 -92 111.5 -138t189.5 -46q158 0 223.5 79t65.5 222v170 q-109 -129 -297 -129q-203 0 -323.5 131t-120.5 371q0 244 119.5 372.5t322.5 128.5q190 0 299 -129v109zM618 170q205 0 273 195v356q-68 195 -273 194q-150 0 -229.5 -108.5t-79.5 -264t79.5 -264t229.5 -108.5z" glyph-name="gbreve.aalt"/><glyph d="M727 1362v-180h-184v184q0 158 170 213l41 -76q-113 -31 -125 -110zM891 1024h153v-1024q0 -205 -102 -317.5t-346 -112.5q-319 0 -436 203l141 110q45 -92 111.5 -138t189.5 -46q158 0 223.5 79t65.5 222v170q-109 -129 -297 -129q-203 0 -323.5 131t-120.5 371 q0 244 119.5 372.5t322.5 128.5q190 0 299 -129v109zM618 170q205 0 273 195v356q-68 195 -273 194q-150 0 -229.5 -108.5t-79.5 -264t79.5 -264t229.5 -108.5z" glyph-name="gcommaaccent.aalt"/><glyph d="M643 1202q-51 0 -86 35t-35 86t35 86t86 35t86 -35t35 -86t-35 -86t-86 -35zM891 1024h153v-1024q0 -205 -102 -317.5t-346 -112.5q-319 0 -436 203l141 110q45 -92 111.5 -138t189.5 -46q158 0 223.5 79t65.5 222v170q-109 -129 -297 -129q-203 0 -323.5 131t-120.5 371 q0 244 119.5 372.5t322.5 128.5q190 0 299 -129v109zM618 170q205 0 273 195v356q-68 195 -273 194q-150 0 -229.5 -108.5t-79.5 -264t79.5 -264t229.5 -108.5z" glyph-name="gdotaccent.aalt"/><glyph d="M977 1044q92 0 136 -63t44 -217v-764h-143v764q0 98 -21.5 133t-64.5 35q-80 0 -140 -111v-821h-143v170q-96 -190 -266 -190q-150 0 -229.5 140t-79.5 410q0 250 67.5 382t186.5 132q166 0 221 -256l-125 -53q-25 190 -101 191q-47 0 -73.5 -115t-26.5 -281 q0 -188 46 -310t145 -122q74 0 136 77t99 231v1130h143v-578q76 86 189 86z" glyph-name="c_h.dlig"/><glyph d="M1071 0l-194 502l-89 -156v-346h-143v170q-96 -190 -266 -190q-150 0 -229.5 140t-79.5 410q0 250 67.5 382t186.5 132q166 0 221 -256l-125 -53q-25 190 -101 191q-47 0 -73.5 -115t-26.5 -281q0 -188 46 -310t145 -122q74 0 136 77t99 231v1130h143v-928l216 416h165 l-206 -369l266 -655h-158z" glyph-name="c_k.dlig"/><glyph d="M877 98q238 -51 237 -252q0 -276 -498 -276q-506 0 -505 280q0 176 219 281q-76 76 -76 229v664h154v-143q104 164 297 163q156 0 251 -96t95 -284q0 -293 -234 -463l-86 88q160 133 160 358q0 270 -213 271q-188 0 -270 -213v-345q0 -104 37.5 -140t127.5 -56zM616 -301 q344 0 345 156q0 96 -140 125l-295 63q-70 16 -102 29q-160 -72 -160 -197q0 -176 352 -176z" glyph-name="n_g.dlig"/><glyph d="M612 -20q-213 0 -345 137t-132 397q0 256 133 393t344 137q213 0 347.5 -137t134.5 -393q0 -258 -134.5 -396t-347.5 -138zM614.5 119q133.5 0 220.5 101.5t87 293.5q0 190 -87 290.5t-220.5 100.5t-220.5 -100t-87 -291q0 -193 87 -294t220.5 -101z" glyph-name="zero.oldstyle"/><glyph d="M737 123h305v-123h-827v123h358v739l-309 -145l-55 123l405 184h123v-901z" glyph-name="one.oldstyle"/><glyph d="M455 133h645v-133h-924v106l475 328q80 55 114 82t67.5 80t33.5 115q0 195 -256 194q-123 0 -194.5 -60.5t-108.5 -207.5l-153 74q53 172 162.5 252.5t293.5 80.5q186 0 301 -78.5t115 -248.5q0 -125 -64.5 -207t-207.5 -178z" glyph-name="two.oldstyle"/><glyph d="M877 365q221 -90 221 -371q0 -207 -134.5 -315.5t-355.5 -108.5q-193 0 -311.5 87t-169.5 275l152 72q37 -154 110.5 -224.5t218.5 -70.5q141 0 229.5 74t88.5 221q0 135 -67.5 208t-170.5 73h-211v133h154q96 0 158.5 60.5t62.5 187.5q0 115 -63.5 177t-184.5 62 q-123 0 -192.5 -63.5t-100.5 -204.5l-153 61q88 346 448 346q215 0 316.5 -107.5t101.5 -266.5q0 -217 -147 -305z" glyph-name="three.oldstyle"/><glyph d="M1139 133v-133h-195v-410h-164v410h-708v113l727 911h145v-891h195zM270 133h510v631z" glyph-name="four.oldstyle"/><glyph d="M641 547q244 0 360.5 -134t116.5 -354q0 -246 -136 -367.5t-380 -121.5q-385 0 -489 373l155 61q37 -152 116 -223.5t218 -71.5q164 0 255 85t91 265q0 170 -84 259.5t-235 89.5q-102 0 -186.5 -38t-129.5 -108l-129 74l56 688h823v-133h-672l-33 -418q119 74 283 74z " glyph-name="five.oldstyle"/><glyph d="M682 903q227 0 341 -130t114 -333q0 -229 -135.5 -344.5t-348.5 -115.5q-530 0 -530 741q0 733 539 733q348 0 471 -305l-154 -72q-45 117 -114.5 177.5t-202.5 60.5q-203 0 -288 -152.5t-85 -425.5v-43q119 209 393 209zM647 119q143 0 230.5 77.5t87.5 239.5 q0 158 -86 244t-232 86q-143 0 -234 -84t-100 -246q35 -168 118 -242.5t216 -74.5z" glyph-name="six.oldstyle"/><glyph d="M1087 1024v-113l-598 -1321h-172l592 1301h-753v133h931z" glyph-name="seven.oldstyle"/><glyph d="M887 758q233 -102 233 -365q0 -201 -138 -307t-367.5 -106t-366.5 106.5t-137 306.5q0 262 227 363q-172 84 -172 303q0 180 110.5 287.5t337.5 107.5q225 0 337 -111.5t112 -279.5q0 -217 -176 -305zM614 1315q-129 0 -202.5 -65.5t-73.5 -186.5q0 -125 77 -185.5 t199 -60.5q276 0 277 246q0 125 -73 188.5t-204 63.5zM614 119q152 0 243 72.5t91 216t-90 215t-243.5 71.5t-243.5 -71.5t-90 -215t91.5 -216t241.5 -72.5z" glyph-name="eight.oldstyle"/><glyph d="M586 1044q530 0 530 -741q0 -733 -538 -733q-348 0 -472 305l154 72q45 -117 114.5 -177.5t203.5 -60.5q203 0 287.5 152.5t84.5 425.5v43q-119 -209 -393 -209q-227 0 -341 130t-114 333q0 229 135.5 344.5t348.5 115.5zM592 258q143 0 234.5 84t99.5 246 q-35 168 -118 242.5t-216 74.5q-143 0 -230.5 -77.5t-87.5 -239.5q0 -158 86.5 -244t231.5 -86z" glyph-name="nine.oldstyle"/><glyph d="M612 -20q-213 0 -345 137t-132 397q0 256 133 393t344 137q213 0 347.5 -137t134.5 -393q0 -258 -134.5 -396t-347.5 -138zM614.5 119q133.5 0 220.5 101.5t87 293.5q0 190 -87 290.5t-220.5 100.5t-220.5 -100t-87 -291q0 -193 87 -294t220.5 -101zM614.5 395 q-47.5 0 -82 35t-34.5 82t34.5 82t82 35t82 -35t34.5 -82t-34.5 -82t-82 -35z" glyph-name="zero.oldstyle.ss02"/><glyph d="M612 -20q-231 0 -365 188t-134 548.5t134 549t365 188.5q233 0 368.5 -188.5t135.5 -549t-135.5 -548.5t-368.5 -188zM614.5 119q153.5 0 241.5 150.5t88 447.5q0 295 -89 446.5t-240.5 151.5t-240.5 -151.5t-89 -446.5q0 -297 88 -447.5t241.5 -150.5zM614.5 582 q-55.5 0 -95.5 40t-40 95t40 95t95.5 40t95.5 -40t40 -95t-40 -95t-95.5 -40z" glyph-name="zero.ss02"/><glyph d="M612 -176q-170 0 -268 112.5t-98 329.5t98 330t268 113q172 0 271.5 -113t99.5 -330t-99.5 -329.5t-271.5 -112.5zM614.5 -59q106.5 0 168 81.5t61.5 243.5t-61.5 244t-168 82t-167 -83t-60.5 -243q0 -162 60.5 -243.5t167 -81.5z" glyph-name="zero.inferior"/><glyph d="M745 -45h293v-119h-784v119h356v602l-309 -88l-31 111l375 116h100v-741z" glyph-name="one.inferior"/><glyph d="M487 -51h465v-113h-682v94l348 287q82 66 118 112t36 113q0 76 -48 113t-128 37q-160 0 -197 -164l-139 68q70 213 334 213q147 0 236.5 -64.5t89.5 -193.5q0 -68 -30 -125.5t-63.5 -90t-99.5 -88.5q-14 -12 -22 -18z" glyph-name="two.inferior"/><glyph d="M829 295q162 -55 162 -217q0 -125 -97 -189.5t-265 -64.5q-293 0 -369 217l137 70q23 -88 80.5 -129t159.5 -41q213 0 213 151q0 68 -47 102.5t-121 34.5h-158v113h125q63 0 105.5 33t42.5 96q0 121 -166 121q-172 0 -209 -152l-139 62q68 207 346 207q164 0 235.5 -64.5 t71.5 -163.5q-1 -131 -107 -186z" glyph-name="three.inferior"/><glyph d="M967 150v-113h-156v-201h-135v201h-410v100l420 559h125v-546h156zM416 150h260v348z" glyph-name="four.inferior"/><glyph d="M662 422q162 0 240.5 -82t78.5 -215q0 -150 -94 -225.5t-264 -75.5q-281 0 -355 217l144 53q49 -154 217 -153q213 0 213 184q0 90 -54.5 135t-148.5 45q-139 0 -197 -90l-110 55l41 426h573v-112h-442l-19 -203q73 41 177 41z" glyph-name="five.inferior"/><glyph d="M664 379q143 0 216.5 -78t73.5 -199q0 -137 -90 -207.5t-233 -70.5q-358 0 -359 444q0 440 365 441q231 0 315 -183l-135 -69q-25 68 -66.5 101.5t-117.5 33.5q-223 0 -223 -316v-36q74 139 254 139zM627 -59q84 0 136 38.5t52 118.5q0 78 -52 121t-138 43 q-82 0 -135.5 -41t-61.5 -117q41 -163 199 -163z" glyph-name="six.inferior"/><glyph d="M920 696v-96l-338 -764h-140l334 748h-459v112h603z" glyph-name="seven.inferior"/><glyph d="M803 291q150 -61 149 -219q0 -121 -91 -184.5t-246.5 -63.5t-247 63.5t-91.5 184.5q0 156 146 219q-109 51 -109 180q0 109 74 173.5t227.5 64.5t227 -67t73.5 -167q1 -129 -112 -184zM614 592q-78 0 -123 -32t-45 -91q0 -63 47.5 -94t120.5 -31q166 0 166 125 q0 123 -166 123zM614.5 -59q92.5 0 147.5 36.5t55 110.5t-55 111t-147.5 37t-148.5 -38t-56 -110q0 -74 56 -110.5t148.5 -36.5z" glyph-name="eight.inferior"/><glyph d="M575 709q356 0 357 -445q0 -440 -363 -440q-233 0 -317 182l139 70q25 -68 65 -101.5t115 -33.5q223 0 224 325v27q-70 -139 -254 -139q-143 0 -217 77.5t-74 198.5q0 137 90 208t235 71zM582 270q82 0 135 41t61 119q-43 162 -203 162q-82 0 -133 -39t-51 -119 q0 -78 51.5 -121t139.5 -43z" glyph-name="nine.inferior"/><glyph d="M612 -12q-170 0 -268 112.5t-98 329.5t98 329.5t268 112.5q172 0 271.5 -112.5t99.5 -329.5t-99.5 -329.5t-271.5 -112.5zM614.5 104q106.5 0 168 82t61.5 244t-61.5 244t-168 82t-167 -83t-60.5 -243q0 -162 60.5 -244t167 -82z" glyph-name="zero.dnom"/><glyph d="M745 119h293v-119h-784v119h356v602l-309 -88l-31 110l375 117h100v-741z" glyph-name="one.dnom"/><glyph d="M487 113h465v-113h-682v94l348 287q82 66 118 112t36 113q0 76 -48 113t-128 37q-160 0 -197 -164l-139 67q70 213 334 213q147 0 236.5 -64.5t89.5 -193.5q0 -68 -30 -125t-63.5 -89.5t-99.5 -88.5q-14 -12 -22 -18z" glyph-name="two.dnom"/><glyph d="M829 459q162 -55 162 -217q0 -125 -97 -189.5t-265 -64.5q-293 0 -369 217l137 69q23 -88 80.5 -129t159.5 -41q213 0 213 152q0 68 -47 102.5t-121 34.5h-158v113h125q63 0 105.5 32.5t42.5 96.5q0 121 -166 121q-172 0 -209 -152l-139 62q68 207 346 206 q164 0 235.5 -64.5t71.5 -162.5q-1 -131 -107 -186z" glyph-name="three.dnom"/><glyph d="M967 313v-112h-156v-201h-135v201h-410v100l420 559h125v-547h156zM416 313h260v349z" glyph-name="four.dnom"/><glyph d="M662 586q162 0 240.5 -82t78.5 -215q0 -150 -94 -225.5t-264 -75.5q-281 0 -355 217l144 53q49 -154 217 -154q213 0 213 185q0 90 -54.5 135t-148.5 45q-139 0 -197 -90l-110 55l41 426h573v-112h-442l-19 -203q73 41 177 41z" glyph-name="five.dnom"/><glyph d="M664 543q143 0 216.5 -78t73.5 -199q0 -137 -90 -207.5t-233 -70.5q-358 0 -359 444q0 440 365 440q231 0 315 -182l-135 -69q-25 68 -66.5 101.5t-117.5 33.5q-223 0 -223 -316v-37q74 140 254 140zM627 104q84 0 136 39t52 119q0 78 -52 121t-138 43q-82 0 -135.5 -41 t-61.5 -117q41 -164 199 -164z" glyph-name="six.dnom"/><glyph d="M920 860v-96l-338 -764h-140l334 748h-459v112h603z" glyph-name="seven.dnom"/><glyph d="M803 455q150 -61 149 -219q0 -121 -91 -184.5t-246.5 -63.5t-247 63.5t-91.5 184.5q0 156 146 219q-109 51 -109 180q0 109 74 173t227.5 64t227 -66.5t73.5 -166.5q1 -129 -112 -184zM614 756q-78 0 -123 -32t-45 -91q0 -63 47.5 -94t120.5 -31q166 0 166 125 q0 123 -166 123zM614.5 104q92.5 0 147.5 37t55 111t-55 110.5t-147.5 36.5t-148.5 -37.5t-56 -109.5q0 -74 56 -111t148.5 -37z" glyph-name="eight.dnom"/><glyph d="M575 872q356 0 357 -444q0 -440 -363 -440q-233 0 -317 182l139 70q25 -68 65 -102t115 -34q223 0 224 326v27q-70 -139 -254 -140q-143 0 -217 78t-74 199q0 137 90 207.5t235 70.5zM582 434q82 0 135 41t61 119q-43 162 -203 162q-82 0 -133 -39t-51 -119 q0 -78 51.5 -121t139.5 -43z" glyph-name="nine.dnom"/><glyph d="M612 561q-170 0 -268 112.5t-98 330t98 330t268 112.5q172 0 271.5 -112.5t99.5 -330t-99.5 -330t-271.5 -112.5zM614.5 678q106.5 0 168 82t61.5 243.5t-61.5 243.5t-168 82t-167 -83t-60.5 -242q0 -162 60.5 -244t167 -82z" glyph-name="zero.numr"/><glyph d="M745 692h293v-119h-784v119h356v602l-309 -88l-31 111l375 117h100v-742z" glyph-name="one.numr"/><glyph d="M487 686h465v-113h-682v95l348 286q82 66 118 112t36 114q0 76 -48 112.5t-128 36.5q-160 0 -197 -164l-139 68q70 213 334 213q147 0 236.5 -64.5t89.5 -193.5q0 -68 -30 -125t-63.5 -90t-99.5 -88q-14 -12 -22 -19z" glyph-name="two.numr"/><glyph d="M829 1032q162 -55 162 -217q0 -125 -97 -189.5t-265 -64.5q-293 0 -369 217l137 70q23 -88 80.5 -129t159.5 -41q213 0 213 151q0 68 -47 103t-121 35h-158v112h125q63 0 105.5 33t42.5 96q0 121 -166 121q-172 0 -209 -151l-139 61q68 207 346 207q164 0 235.5 -64.5 t71.5 -162.5q-1 -132 -107 -187z" glyph-name="three.numr"/><glyph d="M967 887v-113h-156v-201h-135v201h-410v100l420 560h125v-547h156zM416 887h260v348z" glyph-name="four.numr"/><glyph d="M662 1159q162 0 240.5 -82t78.5 -215q0 -150 -94 -225.5t-264 -75.5q-281 0 -355 217l144 53q49 -154 217 -153q213 0 213 184q0 90 -54.5 135t-148.5 45q-139 0 -197 -90l-110 56l41 426h573v-113h-442l-19 -203q73 41 177 41z" glyph-name="five.numr"/><glyph d="M664 1116q143 0 216.5 -77.5t73.5 -198.5q0 -137 -90 -208t-233 -71q-358 0 -359 445q0 440 365 440q231 0 315 -182l-135 -70q-25 68 -66.5 101.5t-117.5 33.5q-223 0 -223 -315v-37q74 139 254 139zM627 678q84 0 136 39t52 119q0 78 -52 120.5t-138 42.5 q-82 0 -135.5 -40.5t-61.5 -116.5q41 -164 199 -164z" glyph-name="six.numr"/><glyph d="M920 1434v-97l-338 -764h-140l334 748h-459v113h603z" glyph-name="seven.numr"/><glyph d="M803 1028q150 -61 149 -219q0 -121 -91 -184.5t-246.5 -63.5t-247 63.5t-91.5 184.5q0 156 146 219q-109 51 -109 180q0 109 74 173.5t227.5 64.5t227 -66.5t73.5 -167.5q1 -129 -112 -184zM614 1329q-78 0 -123 -31.5t-45 -91.5q0 -63 47.5 -94t120.5 -31q166 0 166 125 q0 123 -166 123zM614.5 678q92.5 0 147.5 37t55 110.5t-55 110.5t-147.5 37t-148.5 -38t-56 -110q0 -74 56 -110.5t148.5 -36.5z" glyph-name="eight.numr"/><glyph d="M575 1446q356 0 357 -445q0 -440 -363 -440q-233 0 -317 182l139 70q25 -68 65 -101.5t115 -33.5q223 0 224 326v26q-70 -139 -254 -139q-143 0 -217 78t-74 198q0 137 90 208t235 71zM582 1008q82 0 135 41t61 118q-43 162 -203 162q-82 0 -133 -39t-51 -119 q0 -78 51.5 -120.5t139.5 -42.5z" glyph-name="nine.numr"/><glyph d="M612 725q-170 0 -268 112.5t-98 329.5t98 330t268 113q172 0 271.5 -113t99.5 -330t-99.5 -329.5t-271.5 -112.5zM614.5 842q106.5 0 168 82t61.5 243.5t-61.5 243.5t-168 82t-167 -83t-60.5 -243q0 -162 60.5 -243.5t167 -81.5z" glyph-name="zero.superior"/><glyph d="M745 856h293v-119h-784v119h356v602l-309 -88l-31 111l375 116h100v-741z" glyph-name="one.superior"/><glyph d="M487 850h465v-113h-682v94l348 287q82 66 118 112t36 113q0 76 -48 113t-128 37q-160 0 -197 -164l-139 68q70 213 334 213q147 0 236.5 -64.5t89.5 -193.5q0 -68 -30 -125.5t-63.5 -90t-99.5 -87.5q-14 -12 -22 -19z" glyph-name="two.superior"/><glyph d="M829 1196q162 -55 162 -217q0 -125 -97 -189.5t-265 -64.5q-293 0 -369 217l137 70q23 -88 80.5 -129t159.5 -41q213 0 213 151q0 68 -47 102.5t-121 34.5h-158v113h125q63 0 105.5 33t42.5 96q0 121 -166 121q-172 0 -209 -152l-139 62q68 207 346 207 q164 0 235.5 -64.5t71.5 -163.5q-1 -131 -107 -186z" glyph-name="three.superior"/><glyph d="M967 1051v-113h-156v-201h-135v201h-410v100l420 559h125v-546h156zM416 1051h260v348z" glyph-name="four.superior"/><glyph d="M662 1323q162 0 240.5 -82t78.5 -215q0 -150 -94 -225.5t-264 -75.5q-281 0 -355 217l144 53q49 -154 217 -153q213 0 213 184q0 90 -54.5 135t-148.5 45q-139 0 -197 -90l-110 55l41 426h573v-112h-442l-19 -203q73 41 177 41z" glyph-name="five.superior"/><glyph d="M664 1280q143 0 216.5 -78t73.5 -198q0 -137 -90 -208t-233 -71q-358 0 -359 444q0 440 365 441q231 0 315 -183l-135 -69q-25 68 -66.5 101.5t-117.5 33.5q-223 0 -223 -315v-37q74 139 254 139zM627 842q84 0 136 39t52 118q0 78 -52 121t-138 43q-82 0 -135.5 -41 t-61.5 -116q41 -164 199 -164z" glyph-name="six.superior"/><glyph d="M920 1597v-96l-338 -764h-140l334 748h-459v112h603z" glyph-name="seven.superior"/><glyph d="M803 1192q150 -61 149 -219q0 -121 -91 -184.5t-246.5 -63.5t-247 63.5t-91.5 184.5q0 156 146 219q-109 51 -109 180q0 109 74 173.5t227.5 64.5t227 -66.5t73.5 -167.5q1 -129 -112 -184zM614 1493q-78 0 -123 -31.5t-45 -91.5q0 -63 47.5 -94t120.5 -31q166 0 166 125 q0 123 -166 123zM614.5 842q92.5 0 147.5 36.5t55 110.5t-55 111t-147.5 37t-148.5 -38t-56 -110q0 -74 56 -110.5t148.5 -36.5z" glyph-name="eight.superior"/><glyph d="M575 1610q356 0 357 -445q0 -440 -363 -440q-233 0 -317 182l139 70q25 -68 65 -101.5t115 -33.5q223 0 224 325v27q-70 -139 -254 -139q-143 0 -217 77.5t-74 198.5q0 137 90 208t235 71zM582 1171q82 0 135 41t61 119q-43 162 -203 162q-82 0 -133 -39t-51 -119 q0 -78 51.5 -121t139.5 -43z" glyph-name="nine.superior"/><glyph d="M1149 147l51 -112q-63 -45 -158 -45q-180 0 -221 172q-98 -182 -329 -182q-182 0 -292 105t-110 304q0 285 221 381q-147 92 -147 313q0 158 90 264.5t285 106.5q299 0 372 -285l-159 -71q-23 115 -75 166t-140 51q-207 0 -207 -232q0 -129 59.5 -192.5t140.5 -63.5h578 v-133h-172v-411q0 -82 25.5 -123t93.5 -41q59 -1 94 28zM508 119q215 0 276 229v346h-274q-104 0 -179 -77.5t-75 -227.5q0 -133 65.5 -201.5t186.5 -68.5z" glyph-name="ampersand.aalt"/><glyph d="M-473 1489h98q0 -158 -66.5 -224.5t-191.5 -66.5t-191.5 66.5t-66.5 224.5h98q0 -96 40 -133t120 -37t120 37t40 133z" glyph-name="glyph514" horiz-adv-x="0"/></font>
</defs>
</svg>
