<?xml version="1.0" encoding="UTF-8"?>
<svg id="Layer_1" data-name="Layer 1" xmlns="http://www.w3.org/2000/svg" viewBox="0 0 1800 1184.21">
  <defs>
    <style>
      .cls-1 {
        fill: #fff;
      }

      .cls-1, .cls-2 {
        stroke: #000;
        stroke-miterlimit: 10;
        stroke-width: 5px;
      }
    </style>
  </defs>
  <rect width="1800" height="1184.21"/>
  <g>
    <rect class="cls-2" x="500" y="192.11" width="800" height="800"/>
    <path class="cls-1" d="M1035.87,653.25h-53.26c41.31-26.63,66.85-72.28,66.85-122.29,0-19.57-3.8-39.13-11.41-57.07-7.61-18.48-18.48-34.78-32.61-48.37-14.13-14.13-30.44-25-48.37-32.61-36.41-15.22-77.72-15.22-114.13,0-18.48,7.61-34.78,18.48-48.37,32.61-14.13,14.13-25,30.44-32.61,48.37-7.61,18.48-11.41,37.5-11.41,57.07v16.3c0,7.61,5.98,13.59,13.59,13.59h108.7c7.61,0,13.59-5.98,13.59-13.59v-16.3c0-1.63.54-3.8,1.09-5.43.54-1.63,1.63-3.26,2.72-4.35,1.09-1.09,2.72-2.17,4.35-2.72,3.26-1.63,7.07-1.63,10.33,0,1.63.54,3.26,1.63,4.35,2.72,1.09,1.09,2.17,2.72,2.72,4.35.54,1.63,1.09,3.26,1.09,5.43,0,11.41-6.52,21.74-16.85,27.17l-65.76,33.15c-48.91,24.46-79.89,73.91-79.89,129.89v65.22h0v2.72c0,7.61,5.98,13.59,13.59,13.59h271.75c7.61,0,13.59-5.98,13.59-13.59v-122.29c0-7.61-5.98-13.59-13.59-13.59ZM804.89,530.96v2.72h-27.17v-2.72c0-16.3,3.26-32.07,9.24-46.74,5.98-14.67,15.22-28.26,26.63-39.67,11.41-11.41,25-20.11,39.67-26.63,29.89-12.5,63.59-12.5,93.48,0,14.67,5.98,28.26,15.22,39.67,26.63,11.41,11.41,20.11,25,26.63,39.67,5.98,14.67,9.24,30.44,9.24,46.74,0,45.11-25,85.87-65.22,105.98l-33.15,16.3h-34.78c-4.35,0-8.15,0-12.5.54l59.24-28.81c35.87-17.39,59.24-54.35,59.24-94.02,0-12.5-2.17-25-7.07-36.41-4.89-11.41-11.96-21.74-20.65-30.98-8.7-8.7-19.02-15.76-30.98-20.65-23.37-9.78-49.46-9.78-72.83,0-11.41,4.89-21.74,11.96-30.98,20.65-8.7,8.7-15.76,19.02-20.65,30.98-4.89,11.41-7.07,23.37-7.07,36.41ZM842.93,615.2l65.76-33.15c19.57-9.78,32.07-29.35,32.07-51.63,0-5.43-1.09-10.87-3.26-15.76-2.17-4.89-4.89-9.24-8.7-13.04-3.8-3.8-8.15-6.52-13.04-8.7-9.78-4.35-21.2-4.35-30.98,0-4.89,2.17-9.24,4.89-13.04,8.7-3.8,3.8-6.52,8.15-8.7,13.04-2.17,4.89-3.26,10.33-3.26,15.76v2.72h-27.17v-2.72c0-8.7,1.63-17.94,5.43-26.09,3.26-8.15,8.15-15.76,14.67-22.28,6.52-6.52,13.59-11.41,22.28-14.67,16.85-7.07,35.33-7.07,52.18,0,8.15,3.26,15.76,8.15,22.28,14.67,6.52,6.52,11.41,13.59,14.67,22.28,3.26,8.15,5.43,16.85,5.43,26.09,0,29.35-17.39,57.07-43.48,69.57l-62.5,30.44c-19.57,9.24-34.78,25-44.57,43.48-9.24,5.98-17.94,12.5-25.54,20.65-4.89,4.89-12.5,15.22-12.5,15.22,1.09-40.76,25-76.09,61.96-94.57ZM1022.29,761.95h-122.29c-5.43,0-10.87,1.09-15.76,3.26-4.89,2.17-9.24,4.89-13.04,8.7-.54.54-1.09,1.09-1.63,1.63h-32.07c3.26-7.61,8.15-14.67,14.13-20.65,6.52-6.52,13.59-11.41,22.28-14.67,8.15-3.26,16.85-5.43,26.09-5.43h122.29s0,27.17,0,27.17ZM899.71,707.62h-2.72c-2.72,0-5.43,0-8.15.54-8.7,1.09-17.39,3.26-25.54,6.52-2.99,1.67-1.91,1.04-3.8,2.17-9.78,4.89-19.02,10.87-26.63,18.48-8.7,8.7-15.76,19.02-20.65,30.98-1.09,3.26-2.17,5.98-3.26,9.24h-30.44c1.09-8.15,3.8-15.22,7.61-25,4.35-11.41,10.87-21.74,18.48-30.98,1.63-2.17,3.8-4.35,5.43-5.98,8.15-8.15,17.39-15.22,27.17-20.11,2.72-1.63,5.98-3.26,8.7-4.35h0c9.24-3.8,19.02-6.52,28.81-7.61,4.35-.54,9.24-1.09,13.59-1.09h133.16v27.17h-121.74Z"/>
  </g>
</svg>