<?xml version="1.0" encoding="utf-8"?>
<!-- Generator: Adobe Illustrator 26.2.1, SVG Export Plug-In . SVG Version: 6.00 Build 0)  -->
<svg version="1.1" id="Layer_1" xmlns="http://www.w3.org/2000/svg" xmlns:xlink="http://www.w3.org/1999/xlink" x="0px" y="0px"
	 viewBox="0 0 324 63" style="enable-background:new 0 0 324 63;" xml:space="preserve">
<style type="text/css">
	.st0{fill:#FFFFFF;}
</style>
<g>
	<g>
		<path d="M19.441,26.571c-3.049,0-4.574,2.269-4.574,5.764c0,3.756,1.785,5.615,4.5,5.615c3.012,0,4.723-2.045,4.723-4.945v-1.413
			C24.09,28.356,22.156,26.571,19.441,26.571z"/>
		<path d="M44.727,26.571c-2.789,0-4.686,2.12-4.686,5.058v1.301c0,2.976,1.822,5.021,4.611,5.021c3.086,0,4.648-2.343,4.648-5.764
			C49.3,28.504,47.479,26.571,44.727,26.571z"/>
		<path d="M31.856,0.765c-17.172,0-31.091,13.76-31.091,30.735c0,16.976,13.919,30.735,31.091,30.735
			c17.172,0,31.091-13.76,31.091-30.735C62.947,14.524,49.028,0.765,31.856,0.765z M29.779,42.226h-4.946l-0.744-3.57h-0.298
			c-1.115,2.566-3.718,3.942-6.582,3.942c-5.02,0-8.144-3.942-8.144-10.227c0-6.544,3.272-10.449,8.144-10.449
			c3.421,0,5.615,1.785,6.582,4.202h0.298V14.56h5.689V42.226z M46.883,42.598c-3.235,0-5.578-1.6-6.507-3.979h-0.335v9.817h-5.652
			V22.294h4.945l0.707,3.645h0.335c1.041-2.491,3.57-4.017,6.507-4.017c5.095,0,8.181,4.017,8.181,10.338
			C55.065,38.768,51.792,42.598,46.883,42.598z"/>
	</g>
	<g>
		<path d="M87.043,41.781l-0.744-3.57h-0.298c-1.115,2.566-3.718,3.942-6.582,3.942c-5.02,0-8.144-3.942-8.144-10.227
			c0-6.544,3.272-10.449,8.144-10.449c3.421,0,5.615,1.785,6.582,4.202h0.298V14.115h5.689v27.666H87.043z M86.299,31.146
			c0-3.235-1.934-5.021-4.648-5.021c-3.049,0-4.574,2.269-4.574,5.764c0,3.756,1.785,5.615,4.5,5.615
			c3.012,0,4.723-2.045,4.723-4.945V31.146z"/>
		<path d="M103.217,29.807h4.574v-1.153c0-1.934-1.227-2.826-3.012-2.826c-1.896,0-3.124,0.968-3.198,2.455H96.04
			c0.372-4.276,3.942-6.806,8.925-6.806c5.689,0,8.478,2.938,8.478,7.363v7.771c0,0.744,0.223,1.265,0.967,1.265
			c0.26,0,0.483-0.037,0.632-0.074v3.941c-0.967,0.223-1.971,0.335-2.789,0.335c-2.64,0-4.016-1.228-4.165-3.31h-0.297
			c-0.707,2.119-3.124,3.384-6.099,3.384c-3.941,0-6.47-2.269-6.47-5.838C95.222,32.187,98.42,29.807,103.217,29.807z
			 M103.701,37.876c2.565,0,4.09-1.637,4.09-3.979v-0.669h-3.645c-2.342,0-3.198,1.078-3.198,2.38
			C100.949,37.095,102.065,37.876,103.701,37.876z"/>
		<path d="M118.239,21.849h4.983l0.669,3.682h0.335c1.227-2.641,3.57-4.054,6.544-4.054c4.686,0,6.842,3.422,6.842,8.367v11.937
			h-5.689V30.439c0-2.9-1.301-4.276-3.644-4.276c-2.789,0-4.388,2.083-4.388,5.095v10.523h-5.652V21.849z"/>
		<path d="M141.999,21.849h4.983l0.669,3.682h0.335c1.227-2.641,3.57-4.054,6.544-4.054c4.686,0,6.842,3.422,6.842,8.367v11.937
			h-5.689V30.439c0-2.9-1.301-4.276-3.644-4.276c-2.789,0-4.388,2.083-4.388,5.095v10.523h-5.652V21.849z"/>
	</g>
	<g>
		<path d="M168.44,21.849l2.343,7.623l1.636,5.652h0.261l1.562-5.652l2.231-7.623h5.912l-7.065,20.304
			c-1.487,4.276-4.351,6.21-9.147,6.21c-0.744,0-1.785-0.074-2.528-0.224v-4.573c0.967,0.148,1.673,0.148,2.045,0.148
			c2.641,0,3.459-1.302,3.756-2.306l0.298-0.893l-7.401-18.667H168.44z"/>
		<path d="M197.369,21.849l0.707,3.645h0.334c1.042-2.491,3.57-4.017,6.508-4.017c5.095,0,8.181,4.017,8.181,10.338
			c0,6.508-3.272,10.338-8.181,10.338c-3.235,0-5.578-1.6-6.508-3.979h-0.334v9.817h-5.652V21.849H197.369z M198.076,32.484
			c0,2.976,1.822,5.021,4.61,5.021c3.087,0,4.648-2.343,4.648-5.764c0-3.682-1.822-5.615-4.573-5.615
			c-2.789,0-4.686,2.12-4.686,5.058V32.484z"/>
		<path d="M223.1,29.807h4.573v-1.153c0-1.934-1.227-2.826-3.012-2.826c-1.896,0-3.124,0.968-3.198,2.455h-5.54
			c0.371-4.276,3.941-6.806,8.924-6.806c5.689,0,8.479,2.938,8.479,7.363v7.771c0,0.744,0.224,1.265,0.967,1.265
			c0.261,0,0.483-0.037,0.633-0.074v3.941c-0.967,0.223-1.972,0.335-2.789,0.335c-2.641,0-4.017-1.228-4.165-3.31h-0.298
			c-0.706,2.119-3.123,3.384-6.098,3.384c-3.942,0-6.471-2.269-6.471-5.838C215.105,32.187,218.303,29.807,223.1,29.807z
			 M223.584,37.876c2.565,0,4.09-1.637,4.09-3.979v-0.669h-3.644c-2.343,0-3.198,1.078-3.198,2.38
			C220.832,37.095,221.947,37.876,223.584,37.876z"/>
		<path d="M239.461,40.368V40.07c-1.376-0.483-2.231-1.636-2.231-2.975c0-1.748,1.152-3.049,2.938-3.645v-0.297
			c-1.934-1.078-3.012-2.938-3.012-5.169c0-3.941,3.31-6.508,8.106-6.508c1.078,0,2.306,0.149,3.16,0.483
			c0.781-2.491,3.422-4.164,6.694-4.164v4.313c-1.6,0-3.013,0.521-3.496,1.338c1.524,1.19,2.194,2.901,2.194,4.723
			c0,3.868-3.161,6.434-7.995,6.434c-0.967,0-1.748-0.111-2.417-0.261c-0.669,0.224-1.041,0.744-1.041,1.302
			c0,1.19,1.301,1.339,2.417,1.339h4.462c4.351,0,6.656,2.231,6.656,5.615c0,4.462-4.239,6.284-10.635,6.284
			c-6.062,0-8.851-1.896-8.851-4.76C236.411,42.264,237.638,40.814,239.461,40.368z M245.558,44.905c3.198,0,4.723-0.67,4.723-2.083
			c0-1.45-1.45-1.45-1.934-1.45h-4.462c-1.487,0-2.231,0.558-2.231,1.637C241.654,44.272,242.844,44.905,245.558,44.905z
			 M245.521,30.737c1.748,0,2.826-1.078,2.826-2.715c0-1.673-1.152-2.678-2.826-2.678c-1.747,0-2.826,1.079-2.826,2.678
			C242.695,29.696,243.848,30.737,245.521,30.737z"/>
		<path d="M265.564,29.807h4.573v-1.153c0-1.934-1.227-2.826-3.012-2.826c-1.896,0-3.124,0.968-3.198,2.455h-5.54
			c0.371-4.276,3.941-6.806,8.924-6.806c5.689,0,8.479,2.938,8.479,7.363v7.771c0,0.744,0.224,1.265,0.967,1.265
			c0.261,0,0.483-0.037,0.633-0.074v3.941c-0.967,0.223-1.972,0.335-2.789,0.335c-2.641,0-4.017-1.228-4.165-3.31h-0.298
			c-0.706,2.119-3.123,3.384-6.098,3.384c-3.942,0-6.471-2.269-6.471-5.838C257.569,32.187,260.767,29.807,265.564,29.807z
			 M266.047,37.876c2.565,0,4.09-1.637,4.09-3.979v-0.669h-3.644c-2.343,0-3.198,1.078-3.198,2.38
			C263.296,37.095,264.411,37.876,266.047,37.876z"/>
		<path d="M280.586,21.849h4.982l0.67,3.682h0.334c1.228-2.641,3.57-4.054,6.545-4.054c4.686,0,6.843,3.422,6.843,8.367v11.937
			h-5.689V30.439c0-2.9-1.302-4.276-3.645-4.276c-2.789,0-4.388,2.083-4.388,5.095v10.523h-5.652V21.849z"/>
	</g>
	<g>
		<path d="M313.269,21.477c5.987,0,9.966,4.239,9.966,10.375c0,6.062-3.979,10.264-9.966,10.264
			c-6.023,0-10.003-4.202-10.003-10.301S307.246,21.477,313.269,21.477z M313.232,37.467c2.678,0,4.202-2.269,4.202-5.689
			s-1.562-5.615-4.239-5.615c-2.64,0-4.165,2.306-4.165,5.652C309.03,35.347,310.667,37.467,313.232,37.467z"/>
	</g>
</g>
</svg>
