<?xml version="1.0" standalone="no"?>
<!DOCTYPE svg PUBLIC "-//W3C//DTD SVG 1.1//EN" "http://www.w3.org/Graphics/SVG/1.1/DTD/svg11.dtd">
<svg xmlns="http://www.w3.org/2000/svg"><metadata>This SVG WebFont was generated by YouWorkForThem.
Copyright Â© 2017 by Deni Anggara. All rights reserved.</metadata><defs><font horiz-adv-x="0" id="ywftsvg"><font-face ascent="1638" bbox="-891 -455 4327 1931" cap-height="1493" descent="-410" font-family="" font-stretch="normal" font-weight="300" panose-1="0 0 4 0 0 0 0 0 0 0" underline-position="0" underline-thickness="0" unicode-range="U+000D-FB02" units-per-em="2048" x-height="1059"/><missing-glyph d="M0 0v1493h1319v-1493h-1319zM129 127h1061v1237h-1061v-1237zM258 256v979h803v-979h-803zM387 387h545v719h-545v-719zM516 516v461h287v-461h-287z" horiz-adv-x="1318"/><glyph d="M971 1059v-1059h-127v948h-496v-948h-127v948h-188v111h188v166q0 141 74 209.5t207 68.5q68 0 108 -12v-111q-45 10 -98 11q-90 0 -127 -45.5t-37 -139.5v-147h623zM842 1470h129v-208h-129v208z" glyph-name="uniFB01" horiz-adv-x="1167" unicode="fi"/><glyph d="M877 1493h127v-1493h-127v948h-531v-948h-127v948h-186v111h186v166q0 139 75 208.5t208 69.5q68 0 108 -12v-111q-45 10 -98 11q-90 0 -128 -45.5t-38 -139.5v-147h531v434z" glyph-name="uniFB02" horiz-adv-x="1200" unicode="fl"/><glyph d="M1147 1391q-90 0 -128 -45.5t-38 -139.5v-147h264v-111h-264v-948h-129v948h-504v-948h-129v948h-186v111h186v166q0 139 75 208.5t208 69.5q68 0 110 -12v-111q-45 10 -98 11q-92 0 -129 -46.5t-37 -138.5v-147h504v166q0 139 74.5 208.5t208.5 69.5q68 0 110 -12v-111 q-47 11 -98 11z" glyph-name="f_f.liga" horiz-adv-x="1277" unicode="ff"/><glyph d="M1577 1059v-1059h-127l-2 948h-487v-948h-130v948h-483v-948h-129v948h-186v111h186v166q0 139 75 208.5t208 69.5q68 0 110 -12v-111q-45 10 -98 11q-92 0 -129 -46.5t-37 -138.5v-147h483v166q0 139 75 208.5t208 69.5q70 0 109 -12v-111q-45 10 -99 11 q-90 0 -126.5 -45.5t-36.5 -139.5v-147h616zM1448 1470h129v-208h-129v208z" glyph-name="f_f_i.liga" horiz-adv-x="1773" unicode="ffi"/><glyph d="M868 1470h129v-208h-129v208zM997 1059v-1059h-127l-2 948h-522v-663q0 -27 1 -42.5t8 -46t21.5 -48t44.5 -32t73 -14.5q59 0 92 13v-115q-45 -14 -103 -14q-266 0 -266 284v678h-186v111h186v342l129 49v-391h651z" glyph-name="t_i.liga" horiz-adv-x="1193" unicode="ti"/><glyph d="M1241 948h-242v-663q0 -33 3.5 -54.5t15.5 -56.5t45 -53.5t86 -18.5q59 0 92 13v-115q-49 -14 -102 -14q-268 0 -269 284v678h-524v-663q0 -27 1 -42.5t8 -46t21.5 -48t44.5 -32t73 -14.5q59 0 92 13v-115q-45 -14 -103 -14q-266 0 -266 284v678h-186v111h186v342l129 49 v-391h524v342l129 49v-391h242v-111z" glyph-name="t_t.liga" horiz-adv-x="1310" unicode="tt"/><glyph d="M1477 1470h129v-208h-129v208zM1606 1059v-1059h-127l-2 948h-523v-663q0 -27 1 -42.5t8.5 -46t21.5 -48t44 -32t73 -14.5q57 0 92 13v-115q-45 -14 -102 -14q-266 0 -267 284v678h-479v-663q0 -27 1 -42.5t8 -46t21.5 -48t44.5 -32t73 -14.5q59 0 92 13v-115 q-45 -14 -103 -14q-266 0 -266 284v678h-186v111h186v342l129 49v-391h479v342l129 49v-391h652z" glyph-name="t_t_i.liga" horiz-adv-x="1802" unicode="tti"/><glyph d="M199 477v103h1278l-347 479h121l396 -531l-396 -528h-121l347 477h-1278z" glyph-name="hyphen_hyphen_greater.liga" horiz-adv-x="1734" unicode="-->"/><glyph d="M1536 477h-1278l346 -477h-121l-395 528l395 531h121l-346 -479h1278v-103z" glyph-name="less_hyphen_hyphen.liga" horiz-adv-x="1734" unicode="&lt;--"/><glyph d="M0 0v1493h1319v-1493h-1319zM129 127h1061v1237h-1061v-1237zM258 256v979h803v-979h-803zM387 387h545v719h-545v-719zM516 516v461h287v-461h-287z" glyph-name=".notdef" horiz-adv-x="1318"/><glyph glyph-name="glyph1"/><glyph glyph-name="glyph2" horiz-adv-x="681"/><glyph glyph-name="space" horiz-adv-x="491" unicode=" "/><glyph d="M250 440l-35 633v420h129v-420l-35 -633h-59zM201 0v145h155v-145h-155z" glyph-name="exclam" horiz-adv-x="557" unicode="!"/><glyph d="M190 934h-53l-37 311v248h127v-248zM481 934h-53l-37 311v248h127v-248z" glyph-name="quotedbl" horiz-adv-x="616" unicode="&quot;"/><glyph d="M1350 991h-240v-438h240v-109h-240v-444h-113v444h-505v-444h-115v444h-240v109h240v438h-240v107h240v438h115v-438h505v438h113v-438h240v-107zM997 553v438h-505v-438h505z" glyph-name="numbersign" horiz-adv-x="1484" unicode="#"/><glyph d="M993 461q0 -150 -103.5 -245t-283.5 -107v-201h-114v201q-184 16 -286 120.5t-102 270.5h129q0 -141 84 -216t238 -75q145 0 226 65.5t81 180.5q0 166 -219 225l-188 47q-311 78 -312 324q0 137 93.5 228t255.5 105v201h114v-201q160 -18 257.5 -110t99.5 -250h-127 q-4 117 -82 188.5t-215 71.5q-125 0 -196 -62.5t-71 -164.5q0 -90 58.5 -141.5t177.5 -79.5l186 -50q299 -77 299 -325z" glyph-name="dollar" horiz-adv-x="1120" unicode="$"/><glyph d="M127 1141q0 166 98.5 267t257.5 101q162 0 260.5 -101t98.5 -267q0 -168 -98.5 -270.5t-260.5 -102.5q-160 0 -258 102.5t-98 270.5zM391 0l944 1493h146l-944 -1493h-146zM252 1141q0 -119 64.5 -193t166.5 -74q104 0 169 74t65 193q0 117 -64.5 190.5t-169.5 73.5 q-102 0 -166.5 -73.5t-64.5 -190.5zM995 352q0 166 99.5 268.5t259 102.5t257 -102.5t97.5 -268.5q0 -168 -97.5 -270t-256.5 -102q-162 0 -260.5 102t-98.5 270zM1120 352q0 -119 65.5 -192.5t168 -73.5t167 73.5t64.5 192.5q0 117 -64.5 191.5t-166.5 74.5 q-104 0 -169 -74.5t-65 -191.5z" glyph-name="percent" horiz-adv-x="1839" unicode="%"/><glyph d="M1235 702q-39 -242 -141 -421l258 -281h-164l-164 180q-170 -201 -477 -200q-203 0 -328 104t-125 276q0 131 80 238t254 209v14q-125 123 -170 199t-45 170q0 143 95 231t253 88q152 0 244 -85t92 -226q0 -102 -62.5 -192.5t-213.5 -194.5v-18l391 -428q78 180 102 364z M336 1190q0 -74 40 -144.5t146 -168.5h21q231 164 231 321q0 90 -59.5 145.5t-157.5 55.5t-159.5 -57.5t-61.5 -151.5zM221 367q0 -129 89 -202t241 -73q125 0 230.5 46t166.5 122l-436 479q-291 -153 -291 -372z" glyph-name="ampersand" horiz-adv-x="1382" unicode="&amp;"/><glyph d="M190 934h-53l-37 311v248h127v-248z" glyph-name="quotesingle" horiz-adv-x="325" unicode="'"/><glyph d="M184 651q0 274 128 528.5t339 393.5h111q-207 -135 -334 -389t-127 -533q0 -276 127 -530t334 -391h-111q-211 137 -339 391t-128 530z" glyph-name="parenleft" horiz-adv-x="843" unicode="("/><glyph d="M662 651q0 -279 -128 -531.5t-339 -389.5h-111q207 137 333 391t126 530q0 281 -126 534t-333 388h111q211 -139 339 -393.5t128 -528.5z" glyph-name="parenright" horiz-adv-x="843" unicode=")"/><glyph d="M84 1094l221 106l-221 107l47 79l199 -143l-23 250h88l-20 -252l200 145l46 -79l-222 -107l222 -106l-46 -76l-200 143l20 -252h-88l23 252l-199 -143z" glyph-name="asterisk" horiz-adv-x="704" unicode="*"/><glyph d="M731 600v-455h-123v455h-413v115h413v428h123v-428h414v-115h-414z" glyph-name="plus" horiz-adv-x="1341" unicode="+"/><glyph d="M88 -274v77q80 0 104.5 39t24.5 99v59h-115v223h203v-293q0 -94 -59.5 -149t-157.5 -55z" glyph-name="comma" horiz-adv-x="395" unicode=","/><glyph d="M129 565v101h678v-101h-678z" glyph-name="hyphen" horiz-adv-x="935" unicode="-"/><glyph d="M139 0v229h205v-229h-205z" glyph-name="period" horiz-adv-x="483" unicode="."/><glyph d="M76 0l608 1493h115l-606 -1493h-117z" glyph-name="slash" horiz-adv-x="874" unicode="/"/><glyph d="M641 -12q-219 0 -356.5 187t-137.5 568q0 377 136.5 564.5t355.5 187.5q217 0 353 -187.5t136 -564t-135 -566t-352 -189.5zM637 106q174 0 264 165t90 472q0 303 -89 468t-265 165q-174 0 -263 -162.5t-89 -470.5q0 -303 88 -470t264 -167z" glyph-name="zero" horiz-adv-x="1275" unicode="0"/><glyph d="M117 1124v99h41q152 0 244 66.5t110 187.5h119v-1477h-127v1124h-387z" glyph-name="one" horiz-adv-x="937" unicode="1"/><glyph d="M553 119h506v-119h-920v51q0 57 13.5 112.5t30 96.5t54 88t61.5 75t78 72t78.5 62t88 63.5t82.5 57.5q135 98 205.5 188t70.5 217q0 137 -82 214t-219 77q-154 0 -235.5 -87t-73.5 -230h-131q-8 195 117.5 316.5t328.5 121.5q195 0 313.5 -113.5t118.5 -291.5 q0 -158 -85 -270.5t-244 -231.5q-23 -16 -85.5 -61.5t-88 -65t-75.5 -59.5t-72.5 -67.5t-52.5 -66.5t-42 -77.5t-14 -79.5q155 8 274 8z" glyph-name="two" horiz-adv-x="1171" unicode="2"/><glyph d="M592 -20q-213 0 -335 128t-112 338h142q-8 -174 77 -261t228 -87q147 0 237.5 83t90.5 220q0 139 -93.5 221.5t-255.5 82.5h-82v120h86q156 0 239 81t83 204q0 127 -84 195.5t-213 68.5q-145 0 -225 -89t-80 -253h-137q-8 207 117.5 335t324.5 128q182 0 309 -102.5 t127 -282.5q0 -233 -229 -336v-12q129 -47 191.5 -143.5t62.5 -212.5q0 -190 -131 -308t-338 -118z" glyph-name="three" horiz-adv-x="1202" unicode="3"/><glyph d="M948 446h189v-114h-189v-332h-129v332h-741v125l657 1020h213v-1031zM217 446h602v947z" glyph-name="four" horiz-adv-x="1234" unicode="4"/><glyph d="M618 969q201 0 333 -138.5t132 -353.5q0 -219 -137 -358t-348 -139q-201 0 -330 129t-125 337h133q-4 -150 85.5 -249t238.5 -99q154 0 248 101.5t94 271.5q0 168 -94 274.5t-250 106.5q-100 0 -185 -45t-118 -115h-121l29 785h819v-117h-705l-24 -516l6 -2q47 57 136 92 t183 35z" glyph-name="five" horiz-adv-x="1230" unicode="5"/><glyph d="M645 -20q-489 0 -489 757.5t503 757.5q188 0 304 -98.5t131 -268.5h-138q-14 127 -96 187.5t-201 60.5q-391 0 -360 -661h8q100 231 367 231q195 0 317.5 -132t122.5 -349t-127 -351t-342 -134zM655 98q143 0 229.5 100.5t86.5 270.5t-87 265t-229 95 q-156 0 -240.5 -108.5t-84.5 -259.5q0 -162 90 -262.5t235 -100.5z" glyph-name="six" horiz-adv-x="1243" unicode="6"/><glyph d="M90 1079v398h936v-91q-209 -295 -369.5 -671.5t-226.5 -714.5h-141q59 319 216 688t359 672h-657v-281h-117z" glyph-name="seven" horiz-adv-x="1110" unicode="7"/><glyph d="M129 375q0 115 57.5 209t161.5 145v16q-100 45 -159.5 142.5t-59.5 210.5q0 172 130 283.5t335 111.5q207 0 337 -110.5t130 -284.5q0 -113 -58.5 -209t-158.5 -144v-16q102 -51 159.5 -146.5t57.5 -207.5q0 -174 -129 -284.5t-338 -110.5q-207 0 -336 110.5t-129 284.5z M266 1083q0 -135 91.5 -213.5t236.5 -78.5q154 0 242 80.5t88 211.5q0 135 -90.5 213t-239.5 78q-154 0 -241 -80t-87 -211zM266 391q0 -137 91.5 -215t236.5 -78q156 0 243 81t87 212q0 133 -90.5 212t-239.5 79q-154 0 -241 -81t-87 -210z" glyph-name="eight" horiz-adv-x="1191" unicode="8"/><glyph d="M594 -20q-178 0 -296 100t-132 264h135q12 -117 92 -181.5t205 -64.5q393 0 354 662h-8q-109 -229 -371 -230q-193 0 -314.5 132.5t-121.5 347.5q0 217 127 351t340 134q492 0 492 -772q0 -401 -126 -572t-376 -171zM594 647q156 0 242 107.5t86 261.5q0 160 -90.5 260 t-237.5 100q-145 0 -230 -100t-85 -270t87 -264.5t228 -94.5z" glyph-name="nine" horiz-adv-x="1243" unicode="9"/><glyph d="M184 856v203h205v-203h-205zM184 0v201h205v-201h-205z" glyph-name="colon" horiz-adv-x="552" unicode=":"/><glyph d="M106 856v203h203v-203h-203zM92 -246v70q78 0 103.5 35t25.5 88v53h-115v201h203v-264q0 -84 -59.5 -133.5t-157.5 -49.5z" glyph-name="semicolon" horiz-adv-x="483" unicode=";"/><glyph d="M963 86l-777 461v106l777 424v-162l-299 -145l-334 -166v-14l334 -180l299 -168v-156z" glyph-name="less" horiz-adv-x="1157" unicode="&lt;"/><glyph d="M190 748v133h752v-133h-752zM190 336v131h752v-131h-752z" glyph-name="equal" horiz-adv-x="1130" unicode="="/><glyph d="M195 86v156l299 168l335 180v14l-634 311v162l776 -424v-106z" glyph-name="greater" horiz-adv-x="1157" unicode=">"/><glyph d="M408 391v408q86 -12 137 -13q168 0 264 81t96 225q0 141 -91 220t-242.5 79t-237.5 -76t-92 -207h-129q6 184 132 292.5t330 108.5q211 0 337 -114.5t126 -302.5q0 -201 -138 -315.5t-368 -106.5v-279h-124zM367 0v197h202v-197h-202z" glyph-name="question" horiz-adv-x="1177" unicode="?"/><glyph d="M100 639q0 391 235.5 631.5t616.5 240.5q350 0 570.5 -209.5t220.5 -549.5q0 -238 -106.5 -387.5t-280.5 -149.5q-188 0 -221 172h-13q-78 -170 -260 -170q-127 0 -218 98.5t-91 288.5q0 199 98.5 326t245.5 127q162 0 231 -139h11l18 114h107l-37 -530 q-6 -100 32.5 -140t96.5 -40q115 0 186.5 117.5t71.5 303.5q0 295 -182.5 474.5t-487.5 179.5q-328 0 -518 -206t-190 -546q0 -326 181 -532.5t521 -206.5q270 0 492 108v-118q-207 -102 -492 -103q-379 0 -608.5 231.5t-229.5 614.5zM680 608q0 -135 51 -207.5t148 -72.5 q115 0 179 94t64 240q0 129 -54 207.5t-153 78.5q-113 0 -174 -95t-61 -245z" glyph-name="at" horiz-adv-x="1875" unicode="@"/><glyph d="M1171 0l-147 385h-723l-147 -385h-142l576 1493h151l576 -1493h-144zM346 502h633l-109 286l-202 574h-9l-204 -574z" glyph-name="A" horiz-adv-x="1329" unicode="A"/><glyph d="M225 0v1493h633q205 0 319.5 -104.5t114.5 -274.5q0 -117 -56 -206t-159 -132v-16q121 -39 186.5 -134.5t65.5 -219.5q0 -186 -128 -296t-347 -110h-629zM358 825h496q145 0 223 73t78 196q0 127 -82 199.5t-219 72.5h-496v-541zM358 129h502q170 0 249 79t79 208 q0 137 -86 210.5t-242 73.5h-502v-571z" glyph-name="B" horiz-adv-x="1449" unicode="B"/><glyph d="M1421 481q-33 -229 -205 -365t-430 -136q-307 0 -496.5 211.5t-189.5 556.5q0 340 189.5 551.5t496.5 211.5q252 0 424 -134t211 -361h-137q-39 172 -173 271t-325 99q-248 0 -396 -175t-148 -463q0 -291 148.5 -467.5t395.5 -176.5q205 0 333 100.5t165 276.5h137z" glyph-name="C" horiz-adv-x="1536" unicode="C"/><glyph d="M225 0v1493h547q307 0 480 -204t173 -544q0 -338 -174 -541.5t-479 -203.5h-547zM358 129h416q240 0 375 170t135 446q0 289 -138 454t-372 165h-416v-1235z" glyph-name="D" horiz-adv-x="1525" unicode="D"/><glyph d="M225 0v1493h969v-129h-836v-535h740v-122h-740v-578h836v-129h-969z" glyph-name="E" horiz-adv-x="1323" unicode="E"/><glyph d="M225 0v1493h946v-129h-813v-629h732v-125h-732v-610h-133z" glyph-name="F" horiz-adv-x="1247" unicode="F"/><glyph d="M727 778h737v-778h-110l-21 283h-14q-74 -143 -220.5 -223t-328.5 -80q-293 0 -481.5 201.5t-188.5 551.5q0 352 191.5 565t507.5 213q238 0 406.5 -127t201.5 -329h-137q-37 158 -167 244.5t-312 86.5q-258 0 -403.5 -177t-145.5 -482q0 -307 144 -466t384 -159 q246 0 395.5 156t155.5 397h-594v123z" glyph-name="G" horiz-adv-x="1646" unicode="G"/><glyph d="M225 0v1493h133v-666h922v666h133v-1493h-133v705h-922v-705h-133z" glyph-name="H" horiz-adv-x="1638" unicode="H"/><glyph d="M358 0h-133v1493h133v-1493z" glyph-name="I" horiz-adv-x="583" unicode="I"/><glyph d="M571 385q0 -217 -106.5 -309t-269.5 -92q-111 0 -162 16v129q51 -12 166 -12q240 0 239 268v1108h133v-1108z" glyph-name="J" horiz-adv-x="786" unicode="J"/><glyph d="M1171 0l-495 737l-318 -381v-356h-133v1493h133v-958l795 958h154l-545 -651l565 -842h-156z" glyph-name="K" horiz-adv-x="1335" unicode="K"/><glyph d="M225 0v1493h133v-1364h736v-129h-869z" glyph-name="L" horiz-adv-x="1165" unicode="L"/><glyph d="M225 0v1493h191l508 -1167h10l512 1167h188v-1493h-133v872l17 449h-13l-575 -1292l-576 1292h-12l16 -449v-872h-133z" glyph-name="M" horiz-adv-x="1859" unicode="M"/><glyph d="M225 0v1493h176l863 -1341h8l-12 460v881h133v-1493h-179l-858 1346h-8l10 -445v-901h-133z" glyph-name="N" horiz-adv-x="1617" unicode="N"/><glyph d="M100 745.5q0 339.5 189.5 552.5t496.5 213q309 0 499 -210.5t190 -552.5q0 -344 -189.5 -556t-499 -212t-498 213t-188.5 552.5zM242 747.5q0 -290.5 148.5 -464.5t395.5 -174q250 0 398.5 174t148.5 462.5t-149.5 464.5t-397 176t-396 -174t-148.5 -464.5z" glyph-name="O" horiz-adv-x="1574" unicode="O"/><glyph d="M805 1493q238 0 371 -127t133 -336q0 -213 -138.5 -339t-365.5 -124l-447 2v-569h-133v1493h580zM791 690q184 0 280 90t96 252q0 78 -22.5 139.5t-62.5 95t-78.5 55t-89 30t-74 10.5t-49.5 2h-433v-674h433z" glyph-name="P" horiz-adv-x="1374" unicode="P"/><glyph d="M934 -6q47 -109 153.5 -172.5t260.5 -63.5q55 0 84 4v-122q-27 -2 -74 -2q-217 0 -351.5 92t-187.5 250h-33q-309 0 -497.5 213t-188.5 552.5t189.5 552.5t496.5 213q309 0 499 -210.5t190 -552.5q0 -299 -146.5 -502t-394.5 -252zM242 747.5q0 -290.5 148.5 -464.5 t395.5 -174q250 0 398.5 174t148.5 462.5t-149.5 464.5t-397 176t-396 -174t-148.5 -464.5z" glyph-name="Q" horiz-adv-x="1574" unicode="Q"/><glyph d="M225 0v1493h627q231 0 348 -111.5t117 -302.5q0 -268 -250 -377v-14q219 -43 219 -282v-248q0 -106 21 -158h-136q-20 43 -20 178v195q0 127 -53.5 184t-190.5 57h-549v-614h-133zM358 739h445q170 0 272.5 89.5t102.5 236.5q0 303 -336 303h-484v-629z" glyph-name="R" horiz-adv-x="1449" unicode="R"/><glyph d="M250 459q16 -367 432 -367q195 0 304.5 85t109.5 226q0 211 -254 269l-287 63q-55 10 -94 21.5t-103.5 41t-104.5 66.5t-71.5 103.5t-31.5 148.5q0 180 141 288.5t373 108.5q248 0 382 -114.5t138 -313.5h-135q-10 158 -114 237t-284 79q-172 0 -267 -73t-95 -198 q0 -68 27.5 -117.5t78.5 -78.5t88 -42t92 -26l283 -59q379 -80 379 -399q0 -203 -148.5 -315.5t-400.5 -112.5q-283 0 -427 131t-148 348h137z" glyph-name="S" horiz-adv-x="1376" unicode="S"/><glyph d="M1112 1493v-129h-481v-1364h-133v1364h-488v129h1102z" glyph-name="T" horiz-adv-x="1122" unicode="T"/><glyph d="M213 547v946h133v-932q0 -213 122 -332.5t329 -119.5t328.5 119.5t121.5 332.5v932h133v-946q0 -258 -156.5 -412.5t-427 -154.5t-427 154.5t-156.5 412.5z" glyph-name="U" horiz-adv-x="1593" unicode="U"/><glyph d="M557 0l-541 1493h144l268 -748l211 -630h12l213 628l273 750h139l-541 -1493h-178z" glyph-name="V" horiz-adv-x="1292" unicode="V"/><glyph d="M27 1493h139l190 -938l72 -405h12l389 1343h195l389 -1343h12l72 405l191 938h139l-305 -1493h-191l-399 1374h-10l-400 -1374h-190z" glyph-name="W" horiz-adv-x="1853" unicode="W"/><glyph d="M27 0l493 760l-465 733h146l207 -324l196 -325h12l218 344l196 305h146l-484 -743l477 -750h-145l-195 299l-219 350h-12l-238 -370l-186 -279h-147z" glyph-name="X" horiz-adv-x="1202" unicode="X"/><glyph d="M14 1493h166l258 -414l199 -329h14l201 333l252 410h164l-561 -877v-616h-134v616z" glyph-name="Y" horiz-adv-x="1282" unicode="Y"/><glyph d="M1133 1493v-107l-918 -1255h909v-131h-1087v106l919 1258h-919v129h1096z" glyph-name="Z" horiz-adv-x="1169" unicode="Z"/><glyph d="M248 -428v2021h350v-104h-236v-1817h236v-100h-350z" glyph-name="bracketleft" horiz-adv-x="649" unicode="["/><glyph d="M799 0h-117l-606 1493h114z" glyph-name="backslash" horiz-adv-x="882" unicode="\"/><glyph d="M51 -428v100h236v1817h-236v104h350v-2021h-350z" glyph-name="bracketright" horiz-adv-x="649" unicode="]"/><glyph d="M547 973l-199 391l-196 -391h-125l270 520h106l269 -520h-125z" glyph-name="asciicircum" horiz-adv-x="698" unicode="^"/><glyph d="M-4 -133v133h694v-133h-694z" glyph-name="underscore" horiz-adv-x="686" unicode="_"/><glyph d="M592 1487l-359 207l66 114l338 -254z" glyph-name="grave" horiz-adv-x="903" unicode="`"/><glyph d="M102 291q0 166 113 252t309 86h297v86q0 258 -274 258q-123 0 -197 -57.5t-80 -151.5h-123q10 141 123 228t283 87q193 0 294 -100t101 -279v-510q0 -29 2 -43t19.5 -29.5t50.5 -15.5q23 0 39 4v-106q-27 -10 -68 -10q-164 0 -162 190h-12q-37 -90 -136 -145t-224 -55 q-158 0 -256.5 86t-98.5 225zM236 303q0 -100 62 -154.5t171 -54.5q158 0 255 101.5t97 261.5v63h-295q-145 0 -217.5 -56.5t-72.5 -160.5z" glyph-name="a" horiz-adv-x="1142" unicode="a"/><glyph d="M197 0v1493h129v-641h12q41 102 144.5 164.5t232.5 62.5q199 0 326.5 -152.5t127.5 -398.5q0 -244 -129 -396t-340 -152q-127 0 -225 55t-137 149h-12l-7 -184h-122zM326 444q0 -147 104.5 -245.5t254 -98.5t250.5 105.5t101 322.5t-100 322.5t-250 105.5 q-154 0 -257 -99t-103 -255v-158z" glyph-name="b" horiz-adv-x="1271" unicode="b"/><glyph d="M1055 350q-18 -168 -143.5 -269t-313.5 -101q-225 0 -360.5 148t-135.5 398t136.5 401.5t367.5 151.5q180 0 301 -97t140 -255h-134q-25 115 -110.5 172t-202.5 57q-174 0 -269 -117.5t-95 -314.5q0 -201 98 -312.5t264 -111.5q131 0 219 69t103 181h135z" glyph-name="c" horiz-adv-x="1148" unicode="c"/><glyph d="M1075 0h-121l-8 184h-10q-41 -92 -141.5 -148t-231.5 -56q-209 0 -335 147t-126 393q0 252 128 405.5t337 153.5q131 0 228.5 -63.5t140.5 -165.5h10v643h129v-1493zM946 444v158q0 156 -103.5 255t-256.5 99q-168 0 -259 -117.5t-91 -320.5q0 -201 93 -309.5t253 -108.5 q156 0 260 99.5t104 244.5z" glyph-name="d" horiz-adv-x="1271" unicode="d"/><glyph d="M592 -20q-219 0 -354.5 149.5t-135.5 396.5q0 252 134.5 402.5t355.5 150.5q217 0 338 -129t121 -346q0 -55 -7 -100h-808q-2 -195 96 -303.5t266 -108.5q131 0 218 61.5t110 159.5h131q-27 -150 -153 -241.5t-312 -91.5zM236 610h686q0 172 -86 264.5t-244 92.5 q-156 0 -253 -97.5t-103 -259.5z" glyph-name="e" horiz-adv-x="1159" unicode="e"/><glyph d="M610 948h-260v-948h-129v948h-188v111h188v166q0 141 74 209.5t207 68.5q68 0 108 -12v-111q-45 10 -98 11q-88 0 -125 -45.5t-37 -139.5v-147h260v-111z" glyph-name="f" horiz-adv-x="643" unicode="f"/><glyph d="M92 -102q0 76 43 132t115 79v12q-45 16 -72.5 54t-27.5 85q0 61 36.5 106.5t94.5 61.5v12q-147 96 -148 287q0 158 107.5 255t277.5 97q137 0 213 -51q31 78 106.5 125t176.5 47v-115q-78 0 -133.5 -32.5t-69.5 -83.5q92 -98 92 -246q0 -156 -105.5 -252t-275.5 -96 q-82 0 -149 18q-104 -16 -105 -108q0 -98 148 -99h297q143 0 223 -66.5t80 -182.5q0 -147 -129 -223t-359 -76q-221 0 -328.5 69.5t-107.5 190.5zM262 725q0 -119 69.5 -185.5t186.5 -66.5q121 0 188.5 68.5t67.5 183.5q0 119 -69.5 186.5t-186.5 67.5q-121 0 -188.5 -69.5 t-67.5 -184.5zM207 -84q0 -176 325 -176q356 0 357 190q0 49 -22.5 82t-60.5 44.5t-58.5 14.5t-40.5 3h-306q-96 0 -145 -43t-49 -115z" glyph-name="g" horiz-adv-x="1081" unicode="g"/><glyph d="M197 0v1493h129v-629h12q49 100 145.5 157.5t214.5 57.5q168 0 268.5 -112.5t100.5 -307.5v-659h-129v647q0 309 -270 309q-154 0 -248 -109.5t-94 -287.5v-559h-129z" glyph-name="h" horiz-adv-x="1247" unicode="h"/><glyph d="M197 1262v208h127v-208h-127zM197 0v1059h127v-1059h-127z" glyph-name="i" horiz-adv-x="520" unicode="i"/><glyph d="M211 1262v208h127v-208h-127zM74 -352q-43 0 -92 8v119q20 -8 63 -8q82 0 124 44t42 121v1127h127v-1135q0 -129 -71.5 -202.5t-192.5 -73.5z" glyph-name="j" horiz-adv-x="534" unicode="j"/><glyph d="M901 0l-375 555l-200 -201v-354h-129v1493h129v-977l534 543h170l-414 -414l435 -645h-150z" glyph-name="k" horiz-adv-x="1105" unicode="k"/><glyph d="M197 0v1493h127v-1493h-127z" glyph-name="l" horiz-adv-x="520" unicode="l"/><glyph d="M197 0v1059h110l19 -199h14q49 109 138 164t198 55q111 0 193.5 -66.5t117.5 -168.5h14q45 113 141.5 174t213.5 61q164 0 259 -111.5t95 -310.5v-657h-129v645q0 311 -258 311q-152 0 -227.5 -109.5t-75.5 -295.5v-551h-129v643q0 313 -252 313q-143 0 -228 -112.5 t-85 -292.5v-551h-129z" glyph-name="m" horiz-adv-x="1890" unicode="m"/><glyph d="M197 0v1059h112l19 -199h12q49 102 145.5 160.5t214.5 58.5q170 0 269.5 -113.5t99.5 -308.5v-657h-129v645q0 311 -270 311q-154 0 -249 -111.5t-95 -291.5v-553h-129z" glyph-name="n" horiz-adv-x="1249" unicode="n"/><glyph d="M102 524q0 246 138.5 400.5t363.5 154.5q223 0 360.5 -153.5t137.5 -399.5q0 -244 -137.5 -395t-360.5 -151q-225 0 -363.5 150t-138.5 394zM236 528q0 -193 96 -309.5t270 -116.5q168 0 267.5 113t99.5 315q0 195 -95.5 310.5t-269.5 115.5q-168 0 -268 -113.5 t-100 -314.5z" glyph-name="o" horiz-adv-x="1204" unicode="o"/><glyph d="M197 1059h122l7 -189h12q39 92 138 150.5t233 58.5q211 0 336.5 -147.5t125.5 -394.5q0 -254 -129 -405.5t-340 -151.5q-127 0 -225 59t-139 160h-12v-541h-129v1401zM326 608v-159q0 -154 103 -251.5t257 -97.5q166 0 259 118t93 319q0 203 -94 311t-254 108 q-156 0 -260 -100.5t-104 -247.5z" glyph-name="p" horiz-adv-x="1273" unicode="p"/><glyph d="M1075 1059v-1401h-129v541h-10q-43 -98 -145.5 -158.5t-229.5 -60.5q-205 0 -332 151.5t-127 397t129 398t338 152.5q131 0 228.5 -56t138.5 -153h10l8 189h121zM946 608q0 147 -104.5 247.5t-255.5 100.5q-150 0 -250 -105.5t-100 -322.5t100 -322.5t250 -105.5 q154 0 257 97.5t103 251.5v159z" glyph-name="q" horiz-adv-x="1271" unicode="q"/><glyph d="M197 0v1059h114l17 -219h10q47 117 139 175t211 58v-119q-362 -12 -362 -450v-504h-129z" glyph-name="r" horiz-adv-x="718" unicode="r"/><glyph d="M225 317q0 -104 79 -166.5t216 -62.5q125 0 198 54.5t73 148.5q0 137 -154 164l-240 47q-272 53 -272 270q0 143 104.5 225t280.5 82q182 0 285.5 -87t105.5 -232h-123q-8 213 -266 213q-123 0 -189.5 -50.5t-66.5 -136.5q0 -137 182 -170l219 -41q270 -51 271 -290 q0 -137 -111.5 -221t-294.5 -84q-195 0 -307.5 92t-112.5 245h123z" glyph-name="s" horiz-adv-x="1030" unicode="s"/><glyph d="M31 1059h186v342l129 49v-391h240v-111h-240v-669q0 -35 3 -57.5t16.5 -54.5t48.5 -48.5t88 -16.5q55 0 84 13v-115q-45 -14 -109 -14q-260 0 -260 284v678h-186v111z" glyph-name="t" horiz-adv-x="655" unicode="t"/><glyph d="M1038 1059v-1059h-106l-21 197h-14q-43 -96 -142.5 -156.5t-224.5 -60.5q-160 0 -255 103t-95 296v680h129v-666q0 -293 254 -293q158 0 252 112t94 294v553h129z" glyph-name="u" horiz-adv-x="1218" unicode="u"/><glyph d="M4 1059h143l211 -608l107 -299h12l101 299l210 608h142l-385 -1059h-148z" glyph-name="v" horiz-adv-x="933" unicode="v"/><glyph d="M1319 1059h145l-305 -1059h-178l-154 580l-77 325h-13l-73 -325l-146 -580h-184l-311 1059h151l168 -608l74 -324h10l236 932h167l248 -926h8l72 311z" glyph-name="w" horiz-adv-x="1486" unicode="w"/><glyph d="M8 0l375 535l-354 524h149l281 -428h12l274 428h148l-346 -518l366 -541h-149l-295 442h-12l-305 -442h-144z" glyph-name="x" horiz-adv-x="921" unicode="x"/><glyph d="M4 1059h143l205 -553l115 -336h12l109 336l186 553h141l-380 -1073q-18 -51 -30.5 -83t-45.5 -88.5t-70 -90t-97.5 -60t-133.5 -26.5q-39 0 -78 8v116q37 -6 67 -6q162 0 236 193l27 65z" glyph-name="y" horiz-adv-x="919" unicode="y"/><glyph d="M233 111h631v-111h-782v100l625 848h-625v111h776v-107z" glyph-name="z" horiz-adv-x="946" unicode="z"/><glyph d="M47 535v118q131 0 131 150v661q0 129 125 129h223v-104h-231v-682q0 -94 -43 -149.5t-102 -59.5v-6q59 -6 102 -63.5t43 -147.5v-709h231v-100h-223q-125 0 -125 127v686q0 78 -37 114t-94 36z" glyph-name="braceleft" horiz-adv-x="575" unicode="{"/><glyph d="M252 -55v1597h127v-1597h-127z" glyph-name="bar" horiz-adv-x="630" unicode="|"/><glyph d="M530 535q-57 0 -95 -36t-38 -114v-686q0 -127 -125 -127h-221v100h230v709q0 90 43 147.5t104 63.5v6q-59 4 -103 59.5t-44 149.5v682h-230v104h221q125 0 125 -129v-661q0 -150 133 -150v-118z" glyph-name="braceright" horiz-adv-x="575" unicode="}"/><glyph d="M37 592q-10 127 38 177t115 50q57 0 160 -46t146 -46q88 0 88 123h88q10 -131 -44.5 -185.5t-131.5 -54.5q-63 0 -166 46t-137 46q-74 0 -68 -110h-88z" glyph-name="asciitilde" horiz-adv-x="712" unicode="~"/><glyph glyph-name="uni00A0" horiz-adv-x="491" unicode=" "/><glyph d="M201 1493h155v-147h-155v147zM250 1053h59l35 -633v-420h-129v420z" glyph-name="exclamdown" horiz-adv-x="557" unicode="¡"/><glyph d="M983 573q-31 -154 -138.5 -245.5t-260.5 -108.5v-158h-115v160q-188 20 -298 160.5t-110 359.5q0 221 111 363.5t297 165.5v162h115v-160q158 -14 264 -104.5t127 -231.5h-127q-27 106 -111 164.5t-205 58.5q-162 0 -252 -114.5t-90 -307t90.5 -299t247.5 -106.5 q125 0 212 65.5t114 175.5h129z" glyph-name="cent" horiz-adv-x="1060" unicode="¢"/><glyph d="M1051 492h123v-492h-1049v125h151v555h-151v115h151v292q0 193 112 308.5t304 115.5q172 0 282.5 -89t129.5 -234h-125q-14 92 -97 149.5t-192 57.5q-131 0 -210 -83t-79 -225v-292h482v-115h-482v-555h650v367z" glyph-name="sterling" horiz-adv-x="1304" unicode="£"/><glyph d="M219 293l148 129q-90 119 -89 268.5t89 265.5l-146 125l94 95l121 -144q115 88 266.5 85t260.5 -89l122 150l95 -97l-142 -125q90 -117 91 -267t-89 -265l144 -129l-99 -92l-120 145q-115 -92 -260.5 -94t-266.5 92l-119 -143zM395 692.5q-2 -145.5 86 -235.5t221 -88 q129 2 216.5 92t87.5 229q0 137 -87.5 224t-220.5 87q-127 0 -214 -81.5t-89 -227z" glyph-name="currency" horiz-adv-x="1404" unicode="¤"/><glyph d="M1169 1493l-444 -793h246v-116h-312v-144h312v-116h-312v-324h-133v324h-313v116h313v144h-313v116h248l-447 793h146l243 -438l185 -348h12l184 348l242 438h143z" glyph-name="yen" horiz-adv-x="1183" unicode="¥"/><glyph d="M252 956v586h127v-586h-127zM252 -53v585h127v-585h-127z" glyph-name="brokenbar" horiz-adv-x="630" unicode="¦"/><glyph d="M104 776q0 137 115 207v21q-90 78 -90 198q0 129 101.5 209t269.5 80q172 0 279.5 -84t115.5 -217h-131q-10 84 -87 132t-196 48q-217 0 -217 -166q0 -45 17.5 -81t55.5 -61.5t58.5 -35.5t65.5 -31l233 -96q209 -82 209 -260q0 -139 -115 -205v-20q90 -74 91 -189 q0 -139 -99.5 -215t-269.5 -76q-174 0 -282.5 80t-118.5 222h131q10 -84 85.5 -134.5t196.5 -50.5q217 0 217 168q0 78 -44 118t-138 79l-219 90q-43 18 -70.5 33.5t-71.5 48.5t-68 81t-24 107zM229 815q0 -121 158 -190l250 -105q12 -6 28.5 -13t29 -13.5t28.5 -16.5 q49 47 49 123q0 45 -13.5 79t-40 55.5t-44 30.5t-45.5 21l-248 111q-12 6 -27.5 11t-66.5 32q-58 -47 -58 -125z" glyph-name="section" horiz-adv-x="997" unicode="§"/><glyph d="M131 1520v225h135v-225h-135zM508 1520v225h135v-225h-135z" glyph-name="dieresis" horiz-adv-x="776" unicode="¨"/><glyph d="M954 -100q-352 0 -593.5 232.5t-241.5 598.5q0 365 242.5 598.5t594.5 233.5q350 0 592 -232.5t242 -595.5q0 -244 -113.5 -436.5t-303.5 -295.5t-419 -103zM952.5 -45q323.5 0 550 219t226.5 561q0 340 -225.5 557t-547.5 217q-326 0 -552 -219t-226 -559 q0 -342 225.5 -559t549 -217zM963 291q-190 0 -314.5 119.5t-124.5 320.5q0 199 124 322t319 123q166 0 282.5 -93.5t136.5 -246.5h-131q-14 104 -96 167.5t-196 63.5q-143 0 -224.5 -91t-81.5 -241q0 -158 84 -246t222 -88q117 0 196.5 64.5t95.5 165.5h131 q-18 -145 -135.5 -242.5t-287.5 -97.5z" glyph-name="copyright" horiz-adv-x="1908" unicode="©"/><glyph d="M94 958q0 111 78 170.5t209 59.5h215v37q0 172 -190 172q-160 0 -191 -117h-106q14 100 99 156.5t206 56.5q143 0 217 -73.5t74 -211.5v-321q0 -59 51 -60q4 0 13 1t11 1v-88q-31 -10 -61 -10q-57 0 -89 37t-30 96l10 10h-20q-61 -147 -246 -147q-111 0 -180.5 63.5 t-69.5 167.5zM207 958q0 -66 43 -100.5t115 -34.5q104 0 167.5 66.5t63.5 167.5v45h-205q-184 -1 -184 -144z" glyph-name="ordfeminine" horiz-adv-x="864" unicode="ª"/><glyph d="M195 561l249 418h119l-225 -418l225 -422h-119zM549 561l250 418h121l-228 -418l228 -422h-121z" glyph-name="guillemotleft" horiz-adv-x="1048" unicode="«"/><glyph d="M1030 319v367h-835v131h972v-498h-137z" glyph-name="logicalnot" horiz-adv-x="1349" unicode="¬"/><glyph d="M631 436q-231 0 -384 151.5t-153 387t152.5 386t384.5 150.5q233 0 386.5 -151.5t153.5 -384.5q0 -236 -153.5 -387.5t-386.5 -151.5zM635 492q205 0 341 136t136 345q0 211 -137 349t-342 138t-341 -138t-136 -351q0 -209 137 -344t342 -135zM434 707v540h244 q80 0 124 -42t44 -111q0 -100 -86 -140v-2q78 -18 78 -104v-82q0 -41 6 -59h-76q-8 14 -8 63v61q0 41 -17.5 61.5t-64.5 20.5h-168v-206h-76zM510 977h141q117 0 117 106q0 96 -109 97h-149v-203z" glyph-name="registered" horiz-adv-x="1263" unicode="®"/><glyph d="M57 1511v93h598v-93h-598z" glyph-name="macron" horiz-adv-x="720" unicode="¯"/><glyph d="M713 1214q0 -125 -85 -204.5t-212 -79.5q-121 0 -202 80t-81 204q0 127 81 208t202 81q127 0 212 -80t85 -209zM608 1214q0 84 -55 139.5t-133 55.5q-76 0 -130 -55.5t-54 -139.5q0 -80 54 -135t130 -55q78 0 133 55t55 135z" glyph-name="degree" horiz-adv-x="843" unicode="°"/><glyph d="M778 702v-370h-153v370h-430v138h430v370h153v-370h432v-138h-432zM195 0v147h1015v-147h-1015z" glyph-name="plusminus" horiz-adv-x="1406" unicode="±"/><glyph d="M463 731h352v-117h-700v39q0 100 41 185.5t101 140.5t131 112.5t131.5 104.5t101.5 114.5t41 143.5q0 98 -57.5 153.5t-155.5 55.5q-111 0 -171.5 -61.5t-58.5 -171.5h-129q-2 156 98.5 253t264.5 97q156 0 251 -90.5t95 -231.5q0 -88 -38 -166t-95.5 -131t-126 -108.5 t-128 -101.5t-103.5 -105.5t-52 -122.5z" glyph-name="uni00B2" horiz-adv-x="917" unicode="²"/><glyph d="M465 598q-170 0 -268.5 100.5t-92.5 264.5h138q-6 -123 56 -185.5t167 -62.5q106 0 171.5 60.5t65.5 158.5q0 102 -67.5 160.5t-183.5 58.5h-76v113h74q115 0 175 58t60 149q0 92 -61.5 141t-153.5 49q-106 0 -165.5 -63.5t-57.5 -180.5h-133q-6 160 93 260.5t263 100.5 q150 0 251 -81t101 -220q0 -180 -176 -260v-9q98 -37 146.5 -111.5t48.5 -166.5q0 -147 -104.5 -240.5t-270.5 -93.5z" glyph-name="uni00B3" horiz-adv-x="942" unicode="³"/><glyph d="M311 1487l-45 67l338 254l66 -114z" glyph-name="acute" horiz-adv-x="907" unicode="´"/><glyph d="M528 1493h605v-113h-154v-1380q0 -270 -258 -270h-514v102h321v944q-184 0 -287.5 97.5t-103.5 263.5q0 168 106.5 262t284.5 94zM719 -168q76 0 106.5 41t30.5 129v1378h-199v-1548h62z" glyph-name="paragraph" horiz-adv-x="1380" unicode="¶"/><glyph d="M137 577.5q0 57.5 39 98.5t92 41q55 0 95 -41t40 -98q0 -55 -39.5 -95.5t-95.5 -40.5q-53 0 -92 39t-39 96.5z" glyph-name="periodcentered" horiz-adv-x="538" unicode="·"/><glyph d="M526 -88q70 4 119 -36t49 -112q0 -84 -56 -125.5t-126 -36.5t-113 44v82q37 -53 124 -46t87 80q0 49 -43 73t-135 -1v41l105 184h45v-61z" glyph-name="cedilla" horiz-adv-x="1095" unicode="¸"/><glyph d="M92 1468v101h45q111 0 180.5 54t71.5 142h119v-1151h-127v854h-289z" glyph-name="uni00B9" horiz-adv-x="731" unicode="¹"/><glyph d="M88 1108q0 170 99.5 277.5t256.5 107.5q156 0 255.5 -107.5t99.5 -277.5q0 -168 -99.5 -274.5t-255.5 -106.5q-158 0 -257 105.5t-99 275.5zM201 1110q0 -127 64.5 -206t178.5 -79q109 0 175.5 78t66.5 209q0 125 -63.5 204t-178.5 79q-109 0 -176 -77t-67 -208z" glyph-name="ordmasculine" horiz-adv-x="888" unicode="º"/><glyph d="M502 561l-246 -422h-121l227 422l-227 418h121zM858 561l-248 -422h-121l228 422l-228 418h121z" glyph-name="guillemotright" horiz-adv-x="1046" unicode="»"/><glyph d="M1188 1573h117l-834 -1667h-117zM449 524h-132v697h-251v106h92q166 0 166 158v8h125v-969zM1610 317h114v-120h-114v-197h-133v197h-445v114l359 672h219v-666zM1178 317h299v555z" glyph-name="onequarter" horiz-adv-x="1804" unicode="¼"/><glyph d="M1188 1573h117l-834 -1667h-117zM449 524h-132v697h-251v106h92q166 0 166 158v8h125v-969zM1276 117l164 8h280v-125h-592v33q0 102 47.5 186t114 138.5t133 104.5t113.5 113.5t47 137t-45 120t-123 46.5q-82 0 -130 -54.5t-46 -136.5l-131 10q2 133 89 215t226 82 q135 0 216 -78.5t81 -201.5q0 -86 -41 -159t-101 -125t-122.5 -99t-114 -102.5t-65.5 -112.5z" glyph-name="onehalf" horiz-adv-x="1802" unicode="½"/><glyph d="M1343 1573h117l-833 -1667h-117zM707 791q0 -125 -89.5 -204t-228.5 -79q-141 0 -227 84t-82 221h135q-2 -90 47 -139t127 -49t129 47t51 119q0 82 -54 126t-140 44h-68v122h62q86 0 133 44t47 114q0 72 -45 110t-113 38q-82 0 -128 -51.5t-44 -137.5h-135q-4 131 77 218 t226 87q131 0 217 -70.5t86 -191.5q0 -145 -141 -211v-10q158 -59 158 -231zM1765 317h115v-120h-115v-197h-133v197h-444v114l358 672h219v-666zM1333 317h299v555z" glyph-name="threequarters" horiz-adv-x="1959" unicode="¾"/><glyph d="M811 1493v-197h-203v197h203zM770 1102v-408q-86 12 -137 13q-168 0 -264.5 -81t-96.5 -225q0 -141 91.5 -220t243 -79t237.5 76t92 207h129q-6 -184 -132 -292.5t-331 -108.5q-211 0 -337 114.5t-126 302.5q0 201 138.5 315.5t367.5 106.5v279h125z" glyph-name="questiondown" horiz-adv-x="1177" unicode="¿"/><glyph d="M711 1673l-45 -67l-359 206l66 115zM1171 0l-147 385h-723l-147 -385h-142l576 1493h151l576 -1493h-144zM346 502h633l-109 286l-202 574h-9l-204 -574z" glyph-name="Agrave" horiz-adv-x="1329" unicode="À"/><glyph d="M1020 1812l-358 -206l-46 67l338 254zM1171 0l-147 385h-723l-147 -385h-142l576 1493h151l576 -1493h-144zM346 502h633l-109 286l-202 574h-9l-204 -574z" glyph-name="Aacute" horiz-adv-x="1329" unicode="Á"/><glyph d="M666 1823l-209 -217l-66 61l227 244h99l225 -242l-70 -63zM1171 0l-147 385h-723l-147 -385h-142l576 1493h151l576 -1493h-144zM346 502h633l-109 286l-202 574h-9l-204 -574z" glyph-name="Acircumflex" horiz-adv-x="1329" unicode="Â"/><glyph d="M522 1690q-55 -2 -98 -64l-62 45q41 63 78 94t92 35q43 4 133.5 -38t131.5 -40q59 4 106 68l62 -49q-74 -123 -166 -127q-72 -4 -157 37t-120 39zM1171 0l-147 385h-723l-147 -385h-142l576 1493h151l576 -1493h-144zM346 502h633l-109 286l-202 574h-9l-204 -574z" glyph-name="Atilde" horiz-adv-x="1329" unicode="Ã"/><glyph d="M543 1872v-225h-135v225h135zM920 1872v-225h-136v225h136zM1171 0l-147 385h-723l-147 -385h-142l576 1493h151l576 -1493h-144zM346 502h633l-109 286l-202 574h-9l-204 -574z" glyph-name="Adieresis" horiz-adv-x="1329" unicode="Ä"/><glyph d="M1171 0l-147 385h-723l-147 -385h-142l555 1438q-117 53 -116 192q0 94 58 152.5t154.5 58.5t155 -58.5t58.5 -152.5q0 -139 -117 -192l555 -1438h-144zM666 1763q-55 0 -90 -36.5t-35 -96t34.5 -96.5t90.5 -37q53 0 86.5 37t33.5 96.5t-33.5 96t-86.5 36.5zM346 502h633 l-109 286l-202 574h-9l-204 -574z" glyph-name="Aring" horiz-adv-x="1329" unicode="Å"/><glyph d="M1802 1364h-860v-555h739v-121h-739v-559h860v-129h-993v440h-508l-147 -440h-142l523 1493h1267v-129zM809 557v807h-197l-272 -807h469z" glyph-name="AE" horiz-adv-x="1931" unicode="Æ"/><glyph d="M786 104q205 0 333 100.5t165 276.5h137q-31 -217 -188.5 -351t-394.5 -148l-37 -58q70 4 119 -36t49 -111q0 -84 -56.5 -126t-126 -37t-112.5 44v82q37 -53 124 -46t87 81q0 49 -43 72.5t-135 -1.5v41l53 93q-297 10 -478.5 221t-181.5 547q0 340 189.5 551.5 t496.5 211.5q252 0 424 -134t211 -361h-137q-39 172 -173 271t-325 99q-248 0 -396 -175t-148 -463q0 -291 148 -467.5t396 -176.5z" glyph-name="Ccedilla" horiz-adv-x="1536" unicode="Ç"/><glyph d="M676 1606l-359 206l66 115l338 -254zM225 0v1493h969v-129h-836v-535h740v-122h-740v-578h836v-129h-969z" glyph-name="Egrave" horiz-adv-x="1323" unicode="È"/><glyph d="M672 1606l-45 67l338 254l65 -115zM225 0v1493h969v-129h-836v-535h740v-122h-740v-578h836v-129h-969z" glyph-name="Eacute" horiz-adv-x="1323" unicode="É"/><glyph d="M401 1667l228 244h98l225 -242l-69 -63l-207 217l-209 -217zM225 0v1493h969v-129h-836v-535h740v-122h-740v-578h836v-129h-969z" glyph-name="Ecircumflex" horiz-adv-x="1323" unicode="Ê"/><glyph d="M418 1647v225h135v-225h-135zM795 1647v225h135v-225h-135zM225 0v1493h969v-129h-836v-535h740v-122h-740v-578h836v-129h-969z" glyph-name="Edieresis" horiz-adv-x="1323" unicode="Ë"/><glyph d="M295 1606l-358 206l65 115l338 -254zM358 0h-133v1493h133v-1493z" glyph-name="Igrave" horiz-adv-x="583" unicode="Ì"/><glyph d="M291 1606l-45 67l338 254l65 -115zM358 0h-133v1493h133v-1493z" glyph-name="Iacute" horiz-adv-x="583" unicode="Í"/><glyph d="M20 1667l228 244h98l225 -242l-69 -63l-207 217l-209 -217zM358 0h-133v1493h133v-1493z" glyph-name="Icircumflex" horiz-adv-x="583" unicode="Î"/><glyph d="M37 1647v225h135v-225h-135zM414 1647v225h135v-225h-135zM358 0h-133v1493h133v-1493z" glyph-name="Idieresis" horiz-adv-x="583" unicode="Ï"/><glyph d="M772 1493q307 0 480 -204t173 -544q0 -338 -174 -541.5t-479 -203.5h-547v709h-172v116h172v668h547zM774 129q240 0 375 170t135 446q0 289 -138 454t-372 165h-416v-539h293v-116h-293v-580h416z" glyph-name="Eth" horiz-adv-x="1525" unicode="Ð"/><glyph d="M1016 1614q-72 -4 -157 37t-120 39q-55 -2 -98 -64l-61 45q41 63 77.5 94t92.5 35q43 4 133 -38t131 -40q59 4 106 68l62 -49q-74 -123 -166 -127zM225 0v1493h176l863 -1341h8l-12 460v881h133v-1493h-179l-858 1346h-8l10 -445v-901h-133z" glyph-name="Ntilde" horiz-adv-x="1617" unicode="Ñ"/><glyph d="M788 1606l-358 206l66 115l338 -254zM100 745.5q0 339.5 189.5 552.5t496.5 213q309 0 499 -210.5t190 -552.5q0 -344 -189.5 -556t-499 -212t-498 213t-188.5 552.5zM242 747.5q0 -290.5 148.5 -464.5t395.5 -174q250 0 398.5 174t148.5 462.5t-149.5 464.5t-397 176 t-396 -174t-148.5 -464.5z" glyph-name="Ograve" horiz-adv-x="1574" unicode="Ò"/><glyph d="M784 1606l-45 67l338 254l66 -115zM100 745.5q0 339.5 189.5 552.5t496.5 213q309 0 499 -210.5t190 -552.5q0 -344 -189.5 -556t-499 -212t-498 213t-188.5 552.5zM242 747.5q0 -290.5 148.5 -464.5t395.5 -174q250 0 398.5 174t148.5 462.5t-149.5 464.5t-397 176 t-396 -174t-148.5 -464.5z" glyph-name="Oacute" horiz-adv-x="1574" unicode="Ó"/><glyph d="M514 1667l227 244h99l225 -242l-70 -63l-207 217l-208 -217zM100 745.5q0 339.5 189.5 552.5t496.5 213q309 0 499 -210.5t190 -552.5q0 -344 -189.5 -556t-499 -212t-498 213t-188.5 552.5zM242 747.5q0 -290.5 148.5 -464.5t395.5 -174q250 0 398.5 174t148.5 462.5 t-149.5 464.5t-397 176t-396 -174t-148.5 -464.5z" glyph-name="Ocircumflex" horiz-adv-x="1574" unicode="Ô"/><glyph d="M922 1614q-72 -4 -157 37t-120 39q-55 -2 -98 -64l-62 45q41 63 78 94t92 35q43 4 133.5 -38t131.5 -40q59 4 106 68l61 -49q-73 -123 -165 -127zM100 745.5q0 339.5 189.5 552.5t496.5 213q309 0 499 -210.5t190 -552.5q0 -344 -189.5 -556t-499 -212t-498 213 t-188.5 552.5zM242 747.5q0 -290.5 148.5 -464.5t395.5 -174q250 0 398.5 174t148.5 462.5t-149.5 464.5t-397 176t-396 -174t-148.5 -464.5z" glyph-name="Otilde" horiz-adv-x="1574" unicode="Õ"/><glyph d="M530 1647v225h136v-225h-136zM907 1647v225h135v-225h-135zM100 745.5q0 339.5 189.5 552.5t496.5 213q309 0 499 -210.5t190 -552.5q0 -344 -189.5 -556t-499 -212t-498 213t-188.5 552.5zM242 747.5q0 -290.5 148.5 -464.5t395.5 -174q250 0 398.5 174t148.5 462.5 t-149.5 464.5t-397 176t-396 -174t-148.5 -464.5z" glyph-name="Odieresis" horiz-adv-x="1574" unicode="Ö"/><glyph d="M227 147l453 467l-453 469l88 91l445 -461h16l445 461l88 -91l-453 -469l453 -467l-88 -94l-445 463h-16l-445 -463z" glyph-name="multiply" horiz-adv-x="1533" unicode="×"/><glyph d="M1661 1239l-178 -131q68 -164 67 -360q0 -344 -189.5 -556t-498.5 -212q-354 0 -545 272l-127 -94l-67 94l135 100q-82 174 -82 393q0 340 189.5 553t496.5 213q182 0 327.5 -77.5t235.5 -219.5l164 121zM317 748q0 -176 56 -312l942 697q-150 254 -453 253 q-248 0 -396.5 -173.5t-148.5 -464.5zM1409 745q0 154 -43 277l-938 -690q150 -223 434 -223q250 0 398.5 173.5t148.5 462.5z" glyph-name="Oslash" horiz-adv-x="1806" unicode="Ø"/><glyph d="M799 1606l-359 206l66 115l338 -254zM213 547v946h133v-932q0 -213 122 -332.5t329 -119.5t328.5 119.5t121.5 332.5v932h133v-946q0 -258 -156.5 -412.5t-427 -154.5t-427 154.5t-156.5 412.5z" glyph-name="Ugrave" horiz-adv-x="1593" unicode="Ù"/><glyph d="M795 1606l-45 67l337 254l66 -115zM213 547v946h133v-932q0 -213 122 -332.5t329 -119.5t328.5 119.5t121.5 332.5v932h133v-946q0 -258 -156.5 -412.5t-427 -154.5t-427 154.5t-156.5 412.5z" glyph-name="Uacute" horiz-adv-x="1593" unicode="Ú"/><glyph d="M524 1667l228 244h98l225 -242l-69 -63l-207 217l-209 -217zM213 547v946h133v-932q0 -213 122 -332.5t329 -119.5t328.5 119.5t121.5 332.5v932h133v-946q0 -258 -156.5 -412.5t-427 -154.5t-427 154.5t-156.5 412.5z" glyph-name="Ucircumflex" horiz-adv-x="1593" unicode="Û"/><glyph d="M541 1647v225h135v-225h-135zM918 1647v225h135v-225h-135zM213 547v946h133v-932q0 -213 122 -332.5t329 -119.5t328.5 119.5t121.5 332.5v932h133v-946q0 -258 -156.5 -412.5t-427 -154.5t-427 154.5t-156.5 412.5z" glyph-name="Udieresis" horiz-adv-x="1593" unicode="Ü"/><glyph d="M641 1606l-45 67l338 254l65 -115zM14 1493h166l258 -414l199 -329h14l201 333l252 410h164l-561 -877v-616h-134v616z" glyph-name="Yacute" horiz-adv-x="1282" unicode="Ý"/><glyph d="M782 1229q236 0 366 -128t130 -343q0 -217 -139.5 -335t-376.5 -118h-383v-305h-129v1536h129v-307h403zM784 428q172 0 268.5 91t96.5 245q0 160 -98.5 249t-266.5 89h-405v-674h405z" glyph-name="Thorn" horiz-adv-x="1382" unicode="Þ"/><glyph d="M778 813q152 -39 230.5 -148.5t78.5 -246.5q0 -180 -131 -299t-344 -119h-135v113h121q164 0 260 88t96 229q0 145 -99 230t-253 85h-33v121h35q119 0 184.5 74t65.5 188q0 119 -74.5 188.5t-195.5 69.5q-131 0 -200 -78.5t-69 -213.5v-1094h-127v901h-157v117h157v86 q0 193 110 301t288 108q176 0 287.5 -101t111.5 -263q0 -113 -52 -198t-155 -124v-14z" glyph-name="germandbls" horiz-adv-x="1189" unicode="ß"/><glyph d="M555 1204l-358 207l65 115l338 -254zM102 291q0 166 113 252t309 86h297v86q0 258 -274 258q-123 0 -197 -57.5t-80 -151.5h-123q10 141 123 228t283 87q193 0 294 -100t101 -279v-510q0 -29 2 -43t19.5 -29.5t50.5 -15.5q23 0 39 4v-106q-27 -10 -68 -10 q-164 0 -162 190h-12q-37 -90 -136 -145t-224 -55q-158 0 -256.5 86t-98.5 225zM236 303q0 -100 62 -154.5t171 -54.5q158 0 255 101.5t97 261.5v63h-295q-145 0 -217.5 -56.5t-72.5 -160.5z" glyph-name="agrave" horiz-adv-x="1142" unicode="à"/><glyph d="M551 1204l-45 68l338 254l65 -115zM102 291q0 166 113 252t309 86h297v86q0 258 -274 258q-123 0 -197 -57.5t-80 -151.5h-123q10 141 123 228t283 87q193 0 294 -100t101 -279v-510q0 -29 2 -43t19.5 -29.5t50.5 -15.5q23 0 39 4v-106q-27 -10 -68 -10q-164 0 -162 190 h-12q-37 -90 -136 -145t-224 -55q-158 0 -256.5 86t-98.5 225zM236 303q0 -100 62 -154.5t171 -54.5q158 0 255 101.5t97 261.5v63h-295q-145 0 -217.5 -56.5t-72.5 -160.5z" glyph-name="aacute" horiz-adv-x="1142" unicode="á"/><glyph d="M281 1266l227 243h98l225 -241l-69 -64l-207 217l-209 -217zM102 291q0 166 113 252t309 86h297v86q0 258 -274 258q-123 0 -197 -57.5t-80 -151.5h-123q10 141 123 228t283 87q193 0 294 -100t101 -279v-510q0 -29 2 -43t19.5 -29.5t50.5 -15.5q23 0 39 4v-106 q-27 -10 -68 -10q-164 0 -162 190h-12q-37 -90 -136 -145t-224 -55q-158 0 -256.5 86t-98.5 225zM236 303q0 -100 62 -154.5t171 -54.5q158 0 255 101.5t97 261.5v63h-295q-145 0 -217.5 -56.5t-72.5 -160.5z" glyph-name="acircumflex" horiz-adv-x="1142" unicode="â"/><glyph d="M688 1212q-72 -4 -157 37t-119 39q-55 -2 -99 -63l-61 45q41 63 78 94t92 35q43 4 133 -38t131 -40q59 4 107 68l61 -50q-74 -123 -166 -127zM102 291q0 166 113 252t309 86h297v86q0 258 -274 258q-123 0 -197 -57.5t-80 -151.5h-123q10 141 123 228t283 87 q193 0 294 -100t101 -279v-510q0 -29 2 -43t19.5 -29.5t50.5 -15.5q23 0 39 4v-106q-27 -10 -68 -10q-164 0 -162 190h-12q-37 -90 -136 -145t-224 -55q-158 0 -256.5 86t-98.5 225zM236 303q0 -100 62 -154.5t171 -54.5q158 0 255 101.5t97 261.5v63h-295 q-145 0 -217.5 -56.5t-72.5 -160.5z" glyph-name="atilde" horiz-adv-x="1142" unicode="ã"/><glyph d="M297 1245v225h135v-225h-135zM674 1245v225h135v-225h-135zM102 291q0 166 113 252t309 86h297v86q0 258 -274 258q-123 0 -197 -57.5t-80 -151.5h-123q10 141 123 228t283 87q193 0 294 -100t101 -279v-510q0 -29 2 -43t19.5 -29.5t50.5 -15.5q23 0 39 4v-106 q-27 -10 -68 -10q-164 0 -162 190h-12q-37 -90 -136 -145t-224 -55q-158 0 -256.5 86t-98.5 225zM236 303q0 -100 62 -154.5t171 -54.5q158 0 255 101.5t97 261.5v63h-295q-145 0 -217.5 -56.5t-72.5 -160.5z" glyph-name="adieresis" horiz-adv-x="1142" unicode="ä"/><glyph d="M1020 102q23 0 39 4v-106q-27 -10 -68 -10q-164 0 -162 190h-12q-37 -90 -136 -145t-224 -55q-158 0 -256.5 86t-98.5 225q0 166 113 252t309 86h297v86q0 258 -274 258q-123 0 -197 -57.5t-80 -151.5h-123q8 109 80 188.5t187 110.5q-74 57 -74 166q0 94 58.5 152.5 t154.5 58.5t154.5 -58.5t58.5 -152.5q0 -109 -74 -166q127 -33 191.5 -127t64.5 -236v-510q0 -29 2 -43t19.5 -29.5t50.5 -15.5zM555 1362q-55 0 -90 -37t-35 -96.5t35 -96t90 -36.5q53 0 87 36.5t34 96t-34 96.5t-87 37zM821 457v63h-295q-145 0 -217.5 -56t-72.5 -161 q0 -100 62 -154.5t171 -54.5q158 0 255 101.5t97 261.5z" glyph-name="aring" horiz-adv-x="1142" unicode="å"/><glyph d="M1690 297h129q-35 -150 -159 -233.5t-298 -83.5q-330 0 -453 284q-45 -129 -162.5 -206.5t-271.5 -77.5q-158 0 -257 88t-99 231q0 158 108.5 251t307.5 93h313v45q0 137 -79 208t-218 71q-123 0 -203 -52.5t-92 -144.5h-125q18 139 133 224t289 85q291 0 389 -217 q131 217 401 217q203 0 334 -131t131 -338q0 -43 -6 -110h-807q-4 -178 90.5 -289t278.5 -111q125 0 211 53.5t115 143.5zM1343 958q-152 0 -248 -93t-100 -244h684q0 154 -94.5 245.5t-241.5 91.5zM848 485v45h-316q-283 0 -282 -213q0 -106 66.5 -161.5t181.5 -55.5 q160 0 255 105.5t95 279.5z" glyph-name="ae" horiz-adv-x="1921" unicode="æ"/><glyph d="M1055 350q-16 -156 -127 -255t-279 -113l-45 -70q70 4 119 -36t49 -112q0 -84 -56.5 -125.5t-126 -36.5t-112.5 44v82q37 -53 124 -46t87 80q0 49 -43 73t-135 -1v41l59 105q-213 10 -340 157.5t-127 388.5q0 250 136.5 401.5t367.5 151.5q180 0 301 -97t140 -255h-134 q-25 115 -110.5 172t-202.5 57q-174 0 -269 -117.5t-95 -314.5q0 -201 98 -312.5t264 -111.5q131 0 219 69t103 181h135z" glyph-name="ccedilla" horiz-adv-x="1148" unicode="ç"/><glyph d="M580 1204l-359 207l66 115l338 -254zM592 -20q-219 0 -354.5 149.5t-135.5 396.5q0 252 134.5 402.5t355.5 150.5q217 0 338 -129t121 -346q0 -55 -7 -100h-808q-2 -195 96 -303.5t266 -108.5q131 0 218 61.5t110 159.5h131q-27 -150 -153 -241.5t-312 -91.5zM236 610 h686q0 172 -86 264.5t-244 92.5q-156 0 -253 -97.5t-103 -259.5z" glyph-name="egrave" horiz-adv-x="1159" unicode="è"/><glyph d="M575 1204l-45 68l338 254l66 -115zM592 -20q-219 0 -354.5 149.5t-135.5 396.5q0 252 134.5 402.5t355.5 150.5q217 0 338 -129t121 -346q0 -55 -7 -100h-808q-2 -195 96 -303.5t266 -108.5q131 0 218 61.5t110 159.5h131q-27 -150 -153 -241.5t-312 -91.5zM236 610h686 q0 172 -86 264.5t-244 92.5q-156 0 -253 -97.5t-103 -259.5z" glyph-name="eacute" horiz-adv-x="1159" unicode="é"/><glyph d="M305 1266l227 243h99l225 -241l-70 -64l-206 217l-209 -217zM592 -20q-219 0 -354.5 149.5t-135.5 396.5q0 252 134.5 402.5t355.5 150.5q217 0 338 -129t121 -346q0 -55 -7 -100h-808q-2 -195 96 -303.5t266 -108.5q131 0 218 61.5t110 159.5h131q-27 -150 -153 -241.5 t-312 -91.5zM236 610h686q0 172 -86 264.5t-244 92.5q-156 0 -253 -97.5t-103 -259.5z" glyph-name="ecircumflex" horiz-adv-x="1159" unicode="ê"/><glyph d="M322 1245v225h135v-225h-135zM698 1245v225h136v-225h-136zM592 -20q-219 0 -354.5 149.5t-135.5 396.5q0 252 134.5 402.5t355.5 150.5q217 0 338 -129t121 -346q0 -55 -7 -100h-808q-2 -195 96 -303.5t266 -108.5q131 0 218 61.5t110 159.5h131q-27 -150 -153 -241.5 t-312 -91.5zM236 610h686q0 172 -86 264.5t-244 92.5q-156 0 -253 -97.5t-103 -259.5z" glyph-name="edieresis" horiz-adv-x="1159" unicode="ë"/><glyph d="M264 1171l-358 207l65 115l338 -254zM197 0v1059h129v-1059h-129z" glyph-name="igrave" horiz-adv-x="522" unicode="ì"/><glyph d="M260 1171l-45 68l338 254l65 -115zM197 0v1059h129v-1059h-129z" glyph-name="iacute" horiz-adv-x="522" unicode="í"/><glyph d="M-10 1233l227 244h98l226 -242l-70 -64l-207 218l-209 -218zM197 0v1059h129v-1059h-129z" glyph-name="icircumflex" horiz-adv-x="522" unicode="î"/><glyph d="M6 1212v226h135v-226h-135zM383 1212v226h135v-226h-135zM197 0v1059h129v-1059h-129z" glyph-name="idieresis" horiz-adv-x="522" unicode="ï"/><glyph d="M119 485q0 223 139 374t356 151q70 0 138 -29l4 2l-90 98l-105 131l-242 -90v103l177 67l-197 250h172l158 -201l260 95v-101l-199 -71l232 -297q59 -76 96 -128.5t79 -159t42 -208.5q0 -209 -143.5 -350t-368.5 -141q-223 0 -365.5 140t-142.5 365zM252 496 q0 -176 103.5 -285t271.5 -109t272.5 110t104.5 284q0 170 -103.5 279.5t-271.5 109.5q-164 0 -270.5 -107.5t-106.5 -281.5z" glyph-name="eth" horiz-adv-x="1259" unicode="ð"/><glyph d="M840 1212q-72 -4 -157 37t-120 39q-55 -2 -98 -63l-62 45q41 63 78 94t92 35q43 4 133.5 -38t131.5 -40q59 4 106 68l62 -50q-74 -123 -166 -127zM197 0v1059h112l19 -199h12q49 102 145.5 160.5t214.5 58.5q170 0 269.5 -113.5t99.5 -308.5v-657h-129v645 q0 311 -270 311q-154 0 -249 -111.5t-95 -291.5v-553h-129z" glyph-name="ntilde" horiz-adv-x="1249" unicode="ñ"/><glyph d="M606 1204l-358 207l65 115l338 -254zM102 524q0 246 138.5 400.5t363.5 154.5q223 0 360.5 -153.5t137.5 -399.5q0 -244 -137.5 -395t-360.5 -151q-225 0 -363.5 150t-138.5 394zM236 528q0 -193 96 -309.5t270 -116.5q168 0 267.5 113t99.5 315q0 195 -95.5 310.5 t-269.5 115.5q-168 0 -268 -113.5t-100 -314.5z" glyph-name="ograve" horiz-adv-x="1204" unicode="ò"/><glyph d="M602 1204l-45 68l338 254l66 -115zM102 524q0 246 138.5 400.5t363.5 154.5q223 0 360.5 -153.5t137.5 -399.5q0 -244 -137.5 -395t-360.5 -151q-225 0 -363.5 150t-138.5 394zM236 528q0 -193 96 -309.5t270 -116.5q168 0 267.5 113t99.5 315q0 195 -95.5 310.5 t-269.5 115.5q-168 0 -268 -113.5t-100 -314.5z" glyph-name="oacute" horiz-adv-x="1204" unicode="ó"/><glyph d="M332 1266l227 243h98l226 -241l-70 -64l-207 217l-209 -217zM102 524q0 246 138.5 400.5t363.5 154.5q223 0 360.5 -153.5t137.5 -399.5q0 -244 -137.5 -395t-360.5 -151q-225 0 -363.5 150t-138.5 394zM236 528q0 -193 96 -309.5t270 -116.5q168 0 267.5 113t99.5 315 q0 195 -95.5 310.5t-269.5 115.5q-168 0 -268 -113.5t-100 -314.5z" glyph-name="ocircumflex" horiz-adv-x="1204" unicode="ô"/><glyph d="M739 1212q-72 -4 -156.5 37t-119.5 39q-55 -2 -98 -63l-62 45q41 63 78 94t92 35q43 4 133 -38t131 -40q59 4 107 68l61 -50q-74 -123 -166 -127zM102 524q0 246 138.5 400.5t363.5 154.5q223 0 360.5 -153.5t137.5 -399.5q0 -244 -137.5 -395t-360.5 -151 q-225 0 -363.5 150t-138.5 394zM236 528q0 -193 96 -309.5t270 -116.5q168 0 267.5 113t99.5 315q0 195 -95.5 310.5t-269.5 115.5q-168 0 -268 -113.5t-100 -314.5z" glyph-name="otilde" horiz-adv-x="1204" unicode="õ"/><glyph d="M348 1245v225h135v-225h-135zM725 1245v225h135v-225h-135zM102 524q0 246 138.5 400.5t363.5 154.5q223 0 360.5 -153.5t137.5 -399.5q0 -244 -137.5 -395t-360.5 -151q-225 0 -363.5 150t-138.5 394zM236 528q0 -193 96 -309.5t270 -116.5q168 0 267.5 113t99.5 315 q0 195 -95.5 310.5t-269.5 115.5q-168 0 -268 -113.5t-100 -314.5z" glyph-name="odieresis" horiz-adv-x="1204" unicode="ö"/><glyph d="M586 905v230h207v-230h-207zM190 539v133h1008v-133h-1008zM586 96v228h207v-228h-207z" glyph-name="divide" horiz-adv-x="1392" unicode="÷"/><glyph d="M1214 885l-124 -92q51 -121 51 -267q0 -244 -137.5 -395t-360.5 -151q-256 0 -397 192l-111 -82l-57 86l117 86q-53 117 -54 262q0 246 138.5 400.5t363.5 154.5q258 0 393 -194l119 88zM274 528q0 -100 29 -186l631 467q-92 147 -291 147q-168 0 -268.5 -113.5 t-100.5 -314.5zM1008 530q0 104 -27 183l-633 -465q96 -145 293 -146q168 0 267.5 112.5t99.5 315.5z" glyph-name="oslash" horiz-adv-x="1290" unicode="ø"/><glyph d="M612 1204l-358 207l65 115l338 -254zM1038 1059v-1059h-106l-21 197h-14q-43 -96 -142.5 -156.5t-224.5 -60.5q-160 0 -255 103t-95 296v680h129v-666q0 -293 254 -293q158 0 252 112t94 294v553h129z" glyph-name="ugrave" horiz-adv-x="1218" unicode="ù"/><glyph d="M608 1204l-45 68l338 254l66 -115zM1038 1059v-1059h-106l-21 197h-14q-43 -96 -142.5 -156.5t-224.5 -60.5q-160 0 -255 103t-95 296v680h129v-666q0 -293 254 -293q158 0 252 112t94 294v553h129z" glyph-name="uacute" horiz-adv-x="1218" unicode="ú"/><glyph d="M338 1266l227 243h99l225 -241l-70 -64l-207 217l-209 -217zM1038 1059v-1059h-106l-21 197h-14q-43 -96 -142.5 -156.5t-224.5 -60.5q-160 0 -255 103t-95 296v680h129v-666q0 -293 254 -293q158 0 252 112t94 294v553h129z" glyph-name="ucircumflex" horiz-adv-x="1218" unicode="û"/><glyph d="M354 1245v225h135v-225h-135zM731 1245v225h135v-225h-135zM1038 1059v-1059h-106l-21 197h-14q-43 -96 -142.5 -156.5t-224.5 -60.5q-160 0 -255 103t-95 296v680h129v-666q0 -293 254 -293q158 0 252 112t94 294v553h129z" glyph-name="udieresis" horiz-adv-x="1218" unicode="ü"/><glyph d="M459 1204l-45 68l338 254l65 -115zM4 1059h143l205 -553l115 -336h12l109 336l186 553h141l-380 -1073q-18 -51 -30.5 -83t-45.5 -88.5t-70 -90t-97.5 -60t-133.5 -26.5q-39 0 -78 8v116q37 -6 67 -6q162 0 236 193l27 65z" glyph-name="yacute" horiz-adv-x="919" unicode="ý"/><glyph d="M197 1493h129v-621h12q39 90 138 148.5t233 58.5q211 0 335.5 -148.5t124.5 -400.5q0 -250 -129 -400t-338 -150q-127 0 -226 58t-138 159h-12v-539h-129v1835zM326 612v-168q0 -152 103 -248t257 -96q166 0 258 116t92 314q0 209 -93 317.5t-253 108.5 q-156 0 -260 -98.5t-104 -245.5z" glyph-name="thorn" horiz-adv-x="1271" unicode="þ"/><glyph d="M205 1245v225h135v-225h-135zM582 1245v225h135v-225h-135zM4 1059h143l205 -553l115 -336h12l109 336l186 553h141l-380 -1073q-18 -51 -30.5 -83t-45.5 -88.5t-70 -90t-97.5 -60t-133.5 -26.5q-39 0 -78 8v116q37 -6 67 -6q162 0 236 193l27 65z" glyph-name="ydieresis" horiz-adv-x="919" unicode="ÿ"/><glyph d="M963 1722v-92h-598v92h598zM1171 0l-147 385h-723l-147 -385h-142l576 1493h151l576 -1493h-144zM346 502h633l-109 286l-202 574h-9l-204 -574z" glyph-name="Amacron" horiz-adv-x="1329" unicode="Ā"/><glyph d="M254 1229v92h598v-92h-598zM102 291q0 166 113 252t309 86h297v86q0 258 -274 258q-123 0 -197 -57.5t-80 -151.5h-123q10 141 123 228t283 87q193 0 294 -100t101 -279v-510q0 -29 2 -43t19.5 -29.5t50.5 -15.5q23 0 39 4v-106q-27 -10 -68 -10q-164 0 -162 190h-12 q-37 -90 -136 -145t-224 -55q-158 0 -256.5 86t-98.5 225zM236 303q0 -100 62 -154.5t171 -54.5q158 0 255 101.5t97 261.5v63h-295q-145 0 -217.5 -56.5t-72.5 -160.5z" glyph-name="amacron" horiz-adv-x="1142" unicode="ā"/><glyph d="M664 1606q-125 0 -202 75.5t-77 200.5h96q0 -86 50.5 -138t132 -52t132 52t50.5 138h98q0 -125 -76.5 -200.5t-203.5 -75.5zM1171 0l-147 385h-723l-147 -385h-142l576 1493h151l576 -1493h-144zM346 502h633l-109 286l-202 574h-9l-204 -574z" glyph-name="Abreve" horiz-adv-x="1329" unicode="Ă"/><glyph d="M834 1481q0 -125 -77 -201t-204 -76q-125 0 -202 76t-77 201h97q0 -86 50 -138.5t132 -52.5t132 52.5t50 138.5h99zM102 291q0 166 113 252t309 86h297v86q0 258 -274 258q-123 0 -197 -57.5t-80 -151.5h-123q10 141 123 228t283 87q193 0 294 -100t101 -279v-510 q0 -29 2 -43t19.5 -29.5t50.5 -15.5q23 0 39 4v-106q-27 -10 -68 -10q-164 0 -162 190h-12q-37 -90 -136 -145t-224 -55q-158 0 -256.5 86t-98.5 225zM236 303q0 -100 62 -154.5t171 -54.5q158 0 255 101.5t97 261.5v63h-295q-145 0 -217.5 -56.5t-72.5 -160.5z" glyph-name="abreve" horiz-adv-x="1142" unicode="ă"/><glyph d="M1282 -272q63 0 123 26v-90q-72 -27 -152 -22q-88 2 -142 49t-54 121q0 117 110 196l-143 377h-723l-147 -385h-142l576 1493h151l551 -1432l29 -61q-162 -55 -162 -174q0 -47 34 -72.5t91 -25.5zM346 502h633l-109 286l-202 574h-9l-204 -574z" glyph-name="Aogonek" horiz-adv-x="1329" unicode="Ą"/><glyph d="M1030 -272q63 0 123 26v-90q-72 -27 -152 -22q-88 2 -142 49t-54 121q0 115 106 194q-84 39 -82 174h-12q-37 -90 -136 -145t-224 -55q-158 0 -256.5 86t-98.5 225q0 166 113 252t309 86h297v86q0 258 -274 258q-123 0 -197 -57.5t-80 -151.5h-123q10 141 123 228t283 87 q193 0 294 -100t101 -279v-510q0 -29 2 -43t19.5 -29.5t50.5 -15.5q23 0 39 4v-88l8 -18q-162 -55 -162 -174q0 -47 34 -72.5t91 -25.5zM821 457v63h-295q-145 0 -217.5 -56t-72.5 -161q0 -100 62 -154.5t171 -54.5q158 0 255 101.5t97 261.5z" glyph-name="aogonek" horiz-adv-x="1142" unicode="ą"/><glyph d="M774 1606l-45 67l338 254l66 -115zM1421 481q-33 -229 -205 -365t-430 -136q-307 0 -496.5 211.5t-189.5 556.5q0 340 189.5 551.5t496.5 211.5q252 0 424 -134t211 -361h-137q-39 172 -173 271t-325 99q-248 0 -396 -175t-148 -463q0 -291 148.5 -467.5t395.5 -176.5 q205 0 333 100.5t165 276.5h137z" glyph-name="Cacute" horiz-adv-x="1536" unicode="Ć"/><glyph d="M573 1204l-45 68l338 254l66 -115zM1055 350q-18 -168 -143.5 -269t-313.5 -101q-225 0 -360.5 148t-135.5 398t136.5 401.5t367.5 151.5q180 0 301 -97t140 -255h-134q-25 115 -110.5 172t-202.5 57q-174 0 -269 -117.5t-95 -314.5q0 -201 98 -312.5t264 -111.5 q131 0 219 69t103 181h135z" glyph-name="cacute" horiz-adv-x="1148" unicode="ć"/><glyph d="M709 1647v225h137v-225h-137zM1421 481q-33 -229 -205 -365t-430 -136q-307 0 -496.5 211.5t-189.5 556.5q0 340 189.5 551.5t496.5 211.5q252 0 424 -134t211 -361h-137q-39 172 -173 271t-325 99q-248 0 -396 -175t-148 -463q0 -291 148.5 -467.5t395.5 -176.5 q205 0 333 100.5t165 276.5h137z" glyph-name="Cdotaccent" horiz-adv-x="1536" unicode="Ċ"/><glyph d="M508 1245v225h137v-225h-137zM1055 350q-18 -168 -143.5 -269t-313.5 -101q-225 0 -360.5 148t-135.5 398t136.5 401.5t367.5 151.5q180 0 301 -97t140 -255h-134q-25 115 -110.5 172t-202.5 57q-174 0 -269 -117.5t-95 -314.5q0 -201 98 -312.5t264 -111.5q131 0 219 69 t103 181h135z" glyph-name="cdotaccent" horiz-adv-x="1148" unicode="ċ"/><glyph d="M500 1870l69 61l205 -219l207 219l70 -61l-226 -246h-100zM1421 481q-33 -229 -205 -365t-430 -136q-307 0 -496.5 211.5t-189.5 556.5q0 340 189.5 551.5t496.5 211.5q252 0 424 -134t211 -361h-137q-39 172 -173 271t-325 99q-248 0 -396 -175t-148 -463 q0 -291 148.5 -467.5t395.5 -176.5q205 0 333 100.5t165 276.5h137z" glyph-name="Ccaron" horiz-adv-x="1536" unicode="Č"/><glyph d="M299 1468l70 62l204 -219l207 219l70 -62l-225 -245h-101zM1055 350q-18 -168 -143.5 -269t-313.5 -101q-225 0 -360.5 148t-135.5 398t136.5 401.5t367.5 151.5q180 0 301 -97t140 -255h-134q-25 115 -110.5 172t-202.5 57q-174 0 -269 -117.5t-95 -314.5 q0 -201 98 -312.5t264 -111.5q131 0 219 69t103 181h135z" glyph-name="ccaron" horiz-adv-x="1148" unicode="č"/><glyph d="M373 1870l69 61l205 -219l207 219l70 -61l-226 -246h-100zM225 0v1493h547q307 0 480 -204t173 -544q0 -338 -174 -541.5t-479 -203.5h-547zM358 129h416q240 0 375 170t135 446q0 289 -138 454t-372 165h-416v-1235z" glyph-name="Dcaron" horiz-adv-x="1525" unicode="Ď"/><glyph d="M1081 0h-120l-9 184h-10q-41 -92 -141.5 -148t-231.5 -56q-209 0 -334.5 147t-125.5 393q0 252 128 405.5t336 153.5q131 0 228.5 -63.5t140.5 -165.5h10v643h129v-1493zM1292 1083v72q45 0 75 13.5t40 37t13 37.5t3 35v14h-116v201h206v-225q0 -84 -61.5 -134.5 t-159.5 -50.5zM952 444v158q0 156 -103.5 255t-256.5 99q-168 0 -259 -117.5t-91 -320.5q0 -201 93 -309.5t253 -108.5q156 0 260 99.5t104 244.5z" glyph-name="dcaron" horiz-adv-x="1431" unicode="ď"/><glyph d="M772 1493q307 0 480 -204t173 -544q0 -338 -174 -541.5t-479 -203.5h-547v709h-172v116h172v668h547zM774 129q240 0 375 170t135 446q0 289 -138 454t-372 165h-416v-539h293v-116h-293v-580h416z" glyph-name="Dcroat" horiz-adv-x="1525" unicode="Đ"/><glyph d="M1286 1294v-98h-211v-1196h-121l-8 184h-10q-41 -92 -141.5 -148t-231.5 -56q-209 0 -335 147t-126 393q0 252 128 405.5t337 153.5q131 0 228.5 -63.5t140.5 -165.5h10v346h-328v98h328v199h129v-199h211zM946 444v158q0 156 -103.5 255t-256.5 99q-168 0 -259 -117.5 t-91 -320.5q0 -201 93 -309.5t253 -108.5q156 0 260 99.5t104 244.5z" glyph-name="dcroat" horiz-adv-x="1271" unicode="đ"/><glyph d="M375 1630v92h598v-92h-598zM225 0v1493h969v-129h-836v-535h740v-122h-740v-578h836v-129h-969z" glyph-name="Emacron" horiz-adv-x="1323" unicode="Ē"/><glyph d="M279 1229v92h598v-92h-598zM592 -20q-219 0 -354.5 149.5t-135.5 396.5q0 252 134.5 402.5t355.5 150.5q217 0 338 -129t121 -346q0 -55 -7 -100h-808q-2 -195 96 -303.5t266 -108.5q131 0 218 61.5t110 159.5h131q-27 -150 -153 -241.5t-312 -91.5zM236 610h686 q0 172 -86 264.5t-244 92.5q-156 0 -253 -97.5t-103 -259.5z" glyph-name="emacron" horiz-adv-x="1159" unicode="ē"/><glyph d="M606 1647v225h137v-225h-137zM225 0v1493h969v-129h-836v-535h740v-122h-740v-578h836v-129h-969z" glyph-name="Edotaccent" horiz-adv-x="1323" unicode="Ė"/><glyph d="M510 1245v225h137v-225h-137zM592 -20q-219 0 -354.5 149.5t-135.5 396.5q0 252 134.5 402.5t355.5 150.5q217 0 338 -129t121 -346q0 -55 -7 -100h-808q-2 -195 96 -303.5t266 -108.5q131 0 218 61.5t110 159.5h131q-27 -150 -153 -241.5t-312 -91.5zM236 610h686 q0 172 -86 264.5t-244 92.5q-156 0 -253 -97.5t-103 -259.5z" glyph-name="edotaccent" horiz-adv-x="1159" unicode="ė"/><glyph d="M1161 -272q63 0 123 26v-90q-72 -27 -151 -22q-88 2 -142.5 49t-54.5 121q0 111 100 188h-811v1493h969v-129h-836v-535h740v-122h-740v-578h836v-121l4 -8q-162 -55 -162 -174q0 -47 34 -72.5t91 -25.5z" glyph-name="Eogonek" horiz-adv-x="1323" unicode="Ę"/><glyph d="M1057 313q-20 -113 -99 -195.5t-202 -117.5q-162 -55 -162 -174q0 -47 34 -72.5t91 -25.5q63 0 123 26v-90q-72 -27 -152 -22q-88 2 -142 49t-54 121q0 96 75 168q-211 8 -339 156.5t-128 389.5q0 252 134.5 402.5t355.5 150.5q217 0 338 -129t121 -346q0 -55 -7 -100 h-808q-2 -195 96 -303.5t266 -108.5q131 0 218 61.5t110 159.5h131zM592 967q-156 0 -253 -97.5t-103 -259.5h686q0 172 -86 264.5t-244 92.5z" glyph-name="eogonek" horiz-adv-x="1159" unicode="ę"/><glyph d="M397 1870l70 61l205 -219l207 219l69 -61l-225 -246h-100zM225 0v1493h969v-129h-836v-535h740v-122h-740v-578h836v-129h-969z" glyph-name="Ecaron" horiz-adv-x="1323" unicode="Ě"/><glyph d="M301 1468l70 62l204 -219l207 219l70 -62l-225 -245h-101zM592 -20q-219 0 -354.5 149.5t-135.5 396.5q0 252 134.5 402.5t355.5 150.5q217 0 338 -129t121 -346q0 -55 -7 -100h-808q-2 -195 96 -303.5t266 -108.5q131 0 218 61.5t110 159.5h131q-27 -150 -153 -241.5 t-312 -91.5zM236 610h686q0 172 -86 264.5t-244 92.5q-156 0 -253 -97.5t-103 -259.5z" glyph-name="ecaron" horiz-adv-x="1159" unicode="ě"/><glyph d="M803 1606q-125 0 -202 75.5t-77 200.5h97q0 -86 50 -138t132 -52t132 52t50 138h98q0 -125 -76.5 -200.5t-203.5 -75.5zM727 778h737v-778h-110l-21 283h-14q-74 -143 -220.5 -223t-328.5 -80q-293 0 -481.5 201.5t-188.5 551.5q0 352 191.5 565t507.5 213 q238 0 406.5 -127t201.5 -329h-137q-37 158 -167 244.5t-312 86.5q-258 0 -403.5 -177t-145.5 -482q0 -307 144 -466t384 -159q246 0 395.5 156t155.5 397h-594v123z" glyph-name="Gbreve" horiz-adv-x="1646" unicode="Ğ"/><glyph d="M799 1481q0 -125 -77 -201t-204 -76q-125 0 -201.5 76t-76.5 201h96q0 -86 50 -138.5t132 -52.5t132 52.5t50 138.5h99zM92 -102q0 76 43 132t115 79v12q-45 16 -72.5 54t-27.5 85q0 61 36.5 106.5t94.5 61.5v12q-147 96 -148 287q0 158 107.5 255t277.5 97 q137 0 213 -51q31 78 106.5 125t176.5 47v-115q-78 0 -133.5 -32.5t-69.5 -83.5q92 -98 92 -246q0 -156 -105.5 -252t-275.5 -96q-82 0 -149 18q-104 -16 -105 -108q0 -98 148 -99h297q143 0 223 -66.5t80 -182.5q0 -147 -129 -223t-359 -76q-221 0 -328.5 69.5 t-107.5 190.5zM262 725q0 -119 69.5 -185.5t186.5 -66.5q121 0 188.5 68.5t67.5 183.5q0 119 -69.5 186.5t-186.5 67.5q-121 0 -188.5 -69.5t-67.5 -184.5zM207 -84q0 -176 325 -176q356 0 357 190q0 49 -22.5 82t-60.5 44.5t-58.5 14.5t-40.5 3h-306q-96 0 -145 -43 t-49 -115z" glyph-name="gbreve" horiz-adv-x="1081" unicode="ğ"/><glyph d="M872 1872v-225h-137v225h137zM727 778h737v-778h-110l-21 283h-14q-74 -143 -220.5 -223t-328.5 -80q-293 0 -481.5 201.5t-188.5 551.5q0 352 191.5 565t507.5 213q238 0 406.5 -127t201.5 -329h-137q-37 158 -167 244.5t-312 86.5q-258 0 -403.5 -177t-145.5 -482 q0 -307 144 -466t384 -159q246 0 395.5 156t155.5 397h-594v123z" glyph-name="Gdotaccent" horiz-adv-x="1646" unicode="Ġ"/><glyph d="M451 1245v225h137v-225h-137zM92 -102q0 76 43 132t115 79v12q-45 16 -72.5 54t-27.5 85q0 61 36.5 106.5t94.5 61.5v12q-147 96 -148 287q0 158 107.5 255t277.5 97q137 0 213 -51q31 78 106.5 125t176.5 47v-115q-78 0 -133.5 -32.5t-69.5 -83.5q92 -98 92 -246 q0 -156 -105.5 -252t-275.5 -96q-82 0 -149 18q-104 -16 -105 -108q0 -98 148 -99h297q143 0 223 -66.5t80 -182.5q0 -147 -129 -223t-359 -76q-221 0 -328.5 69.5t-107.5 190.5zM262 725q0 -119 69.5 -185.5t186.5 -66.5q121 0 188.5 68.5t67.5 183.5q0 119 -69.5 186.5 t-186.5 67.5q-121 0 -188.5 -69.5t-67.5 -184.5zM207 -84q0 -176 325 -176q356 0 357 190q0 49 -22.5 82t-60.5 44.5t-58.5 14.5t-40.5 3h-306q-96 0 -145 -43t-49 -115z" glyph-name="gdotaccent" horiz-adv-x="1081" unicode="ġ"/><glyph d="M727 778h737v-778h-110l-21 283h-14q-74 -143 -220.5 -223t-328.5 -80q-293 0 -481.5 201.5t-188.5 551.5q0 352 191.5 565t507.5 213q238 0 406.5 -127t201.5 -329h-137q-37 158 -167 244.5t-312 86.5q-258 0 -403.5 -177t-145.5 -482q0 -307 144 -466t384 -159 q246 0 395.5 156t155.5 397h-594v123zM729 -305v176h148v-162q0 -147 -148 -147v45q86 0 86 84v4h-86z" glyph-name="Gcommaaccent" horiz-adv-x="1646" unicode="Ģ"/><glyph d="M592 1585v-45q-86 0 -86 -88v-39h86v-176h-148v201q1 147 148 147zM92 -102q0 76 43 132t115 79v12q-45 16 -72.5 54t-27.5 85q0 61 36.5 106.5t94.5 61.5v12q-147 96 -148 287q0 158 107.5 255t277.5 97q137 0 213 -51q31 78 106.5 125t176.5 47v-115 q-78 0 -133.5 -32.5t-69.5 -83.5q92 -98 92 -246q0 -156 -105.5 -252t-275.5 -96q-82 0 -149 18q-104 -16 -105 -108q0 -98 148 -99h297q143 0 223 -66.5t80 -182.5q0 -147 -129 -223t-359 -76q-221 0 -328.5 69.5t-107.5 190.5zM262 725q0 -119 69.5 -185.5t186.5 -66.5 q121 0 188.5 68.5t67.5 183.5q0 119 -69.5 186.5t-186.5 67.5q-121 0 -188.5 -69.5t-67.5 -184.5zM207 -84q0 -176 325 -176q356 0 357 190q0 49 -22.5 82t-60.5 44.5t-58.5 14.5t-40.5 3h-306q-96 0 -145 -43t-49 -115z" glyph-name="gcommaaccent" horiz-adv-x="1081" unicode="ģ"/><glyph d="M1575 1270v-113h-162v-1157h-133v705h-922v-705h-133v1157h-147v113h147v223h133v-223h922v223h133v-223h162zM1280 827v330h-922v-330h922z" glyph-name="Hbar" horiz-adv-x="1638" unicode="Ħ"/><glyph d="M698 1079q168 0 268.5 -112.5t100.5 -307.5v-659h-129v647q0 309 -270 309q-154 0 -248 -109.5t-94 -287.5v-559h-129v1196h-187v98h187v199h129v-199h352v-98h-352v-332h12q49 100 145 157.5t215 57.5z" glyph-name="hbar" horiz-adv-x="1247" unicode="ħ"/><glyph d="M-6 1630v92h598v-92h-598zM358 0h-133v1493h133v-1493z" glyph-name="Imacron" horiz-adv-x="583" unicode="Ī"/><glyph d="M-37 1196v92h598v-92h-598zM197 0v1059h129v-1059h-129z" glyph-name="imacron" horiz-adv-x="522" unicode="ī"/><glyph d="M324 -272q63 0 122 26v-90q-72 -27 -151 -22q-88 2 -142.5 49t-54.5 121q0 127 127 206v1475h133v-1489l2 -4q-162 -55 -161 -174q0 -47 34 -72.5t91 -25.5z" glyph-name="Iogonek" horiz-adv-x="583" unicode="Į"/><glyph d="M332 1438v-226h-137v226h137zM291 -272q63 0 123 26v-90q-72 -27 -152 -22q-88 2 -142 49t-54 121q0 131 131 208v1039h129v-1055l2 -4q-162 -55 -162 -174q0 -47 34 -72.5t91 -25.5z" glyph-name="iogonek" horiz-adv-x="522" unicode="į"/><glyph d="M225 1647v225h137v-225h-137zM358 0h-133v1493h133v-1493z" glyph-name="Idotaccent" horiz-adv-x="583" unicode="İ"/><glyph d="M197 0v1059h129v-1059h-129z" glyph-name="dotlessi" horiz-adv-x="522" unicode="ı"/><glyph d="M229 1667l228 244h98l225 -242l-69 -63l-207 217l-209 -217zM571 385q0 -217 -106.5 -309t-269.5 -92q-111 0 -162 16v129q51 -12 166 -12q240 0 239 268v1108h133v-1108z" glyph-name="Jcircumflex" horiz-adv-x="786" unicode="Ĵ"/><glyph d="M2 1233l227 244h99l225 -242l-70 -64l-207 218l-208 -218zM72 -350q-41 0 -90 8v119q27 -8 63 -8q80 0 122 45t42 120v1125h129v-1135q0 -131 -72.5 -202.5t-193.5 -71.5z" glyph-name="jcircumflex" horiz-adv-x="534" unicode="ĵ"/><glyph d="M762 842l565 -842h-156l-495 737l-318 -381v-356h-133v1493h133v-958l795 958h154zM625 -305v176h147v-162q0 -147 -147 -147v45q86 0 86 84v4h-86z" glyph-name="Kcommaaccent" horiz-adv-x="1335" unicode="Ķ"/><glyph d="M616 645l435 -645h-150l-375 555l-200 -201v-354h-129v1493h129v-977l534 543h170zM530 -305v176h148v-162q0 -147 -148 -147v45q86 0 86 84v4h-86z" glyph-name="kcommaaccent" horiz-adv-x="1105" unicode="ķ"/><glyph d="M434 1606l-45 67l338 254l66 -115zM225 0v1493h133v-1364h736v-129h-869z" glyph-name="Lacute" horiz-adv-x="1165" unicode="Ĺ"/><glyph d="M260 1606l-45 67l338 254l65 -115zM197 0v1493h127v-1493h-127z" glyph-name="lacute" horiz-adv-x="520" unicode="ĺ"/><glyph d="M225 0v1493h133v-1364h736v-129h-869zM586 -438v45q86 0 86 84v4h-86v176h147v-162q0 -147 -147 -147z" glyph-name="Lcommaaccent" horiz-adv-x="1165" unicode="Ļ"/><glyph d="M197 0v1493h127v-1493h-127zM188 -438v45q86 0 86 84v4h-86v176h148v-162q-1 -147 -148 -147z" glyph-name="lcommaaccent" horiz-adv-x="520" unicode="ļ"/><glyph d="M238 0v1493h133v-1364h735v-129h-868zM651 991v78q131 0 131 139v60h-116v225h204v-295q0 -96 -60.5 -151.5t-158.5 -55.5z" glyph-name="Lcaron" horiz-adv-x="1198" unicode="Ľ"/><glyph d="M-14 1870l69 61l205 -219l207 219l70 -61l-226 -246h-100zM197 0v1493h127v-1493h-127z" glyph-name="lcaron" horiz-adv-x="520" unicode="ľ"/><glyph d="M225 0v1493h133v-1364h736v-129h-869zM637 770q0 57 39 98t92 41q55 0 95 -41t40 -98q0 -55 -40 -95t-95 -40q-53 0 -92 39t-39 96z" glyph-name="Ldot" horiz-adv-x="1232" unicode="Ŀ"/><glyph d="M197 0v1493h127v-1493h-127zM506 772q0 57 39 98t92 41q55 0 95 -41t40 -98q0 -55 -40 -95t-95 -40q-53 0 -92 39t-39 96z" glyph-name="ldot" horiz-adv-x="774" unicode="ŀ"/><glyph d="M346 129h735v-129h-868v737l-141 -49v123l141 49v633h133v-586l428 152v-123l-428 -152v-655z" glyph-name="Lslash" horiz-adv-x="1153" unicode="Ł"/><glyph d="M463 1059v-121l-154 -57v-881h-127v834l-151 -58v123l151 55v539h127v-492z" glyph-name="lslash" horiz-adv-x="493" unicode="ł"/><glyph d="M879 1606l-45 67l337 254l66 -115zM225 0v1493h176l863 -1341h8l-12 460v881h133v-1493h-179l-858 1346h-8l10 -445v-901h-133z" glyph-name="Nacute" horiz-adv-x="1617" unicode="Ń"/><glyph d="M702 1204l-45 68l338 254l66 -115zM197 0v1059h112l19 -199h12q49 102 145.5 160.5t214.5 58.5q170 0 269.5 -113.5t99.5 -308.5v-657h-129v645q0 311 -270 311q-154 0 -249 -111.5t-95 -291.5v-553h-129z" glyph-name="nacute" horiz-adv-x="1249" unicode="ń"/><glyph d="M225 0v1493h176l863 -1341h8l-12 460v881h133v-1493h-179l-858 1346h-8l10 -445v-901h-133zM807 -438v45q86 0 86 84v4h-86v176h147v-162q0 -147 -147 -147z" glyph-name="Ncommaaccent" horiz-adv-x="1617" unicode="Ņ"/><glyph d="M197 0v1059h112l19 -199h12q49 102 145.5 160.5t214.5 58.5q170 0 269.5 -113.5t99.5 -308.5v-657h-129v645q0 311 -270 311q-154 0 -249 -111.5t-95 -291.5v-553h-129zM559 -438v45q86 0 86 84v4h-86v176h148v-162q-1 -147 -148 -147z" glyph-name="ncommaaccent" horiz-adv-x="1249" unicode="ņ"/><glyph d="M604 1870l70 61l205 -219l206 219l70 -61l-225 -246h-101zM225 0v1493h176l863 -1341h8l-12 460v881h133v-1493h-179l-858 1346h-8l10 -445v-901h-133z" glyph-name="Ncaron" horiz-adv-x="1617" unicode="Ň"/><glyph d="M428 1468l70 62l204 -219l207 219l70 -62l-225 -245h-101zM197 0v1059h112l19 -199h12q49 102 145.5 160.5t214.5 58.5q170 0 269.5 -113.5t99.5 -308.5v-657h-129v645q0 311 -270 311q-154 0 -249 -111.5t-95 -291.5v-553h-129z" glyph-name="ncaron" horiz-adv-x="1249" unicode="ň"/><glyph d="M1260 1493h133v-1595q0 -117 -68 -176.5t-184 -59.5q-61 0 -105 12v107q35 -8 80 -8q82 0 114 40t32 119v68h-48l-858 1346h-8l10 -445v-901h-133v1493h176l863 -1341h8l-12 460v881z" glyph-name="Eng" horiz-adv-x="1617" unicode="Ŋ"/><glyph d="M700 1079q170 0 269.5 -113.5t99.5 -308.5v-759q0 -119 -69.5 -186.5t-184.5 -67.5q-59 0 -102 12v104q33 -8 84 -8t82.5 17.5t44 50.5t14.5 52t2 50v723q0 311 -270 311q-154 0 -249 -111.5t-95 -291.5v-553h-129v1059h112l19 -199h12q49 102 145 160.5t215 58.5z" glyph-name="eng" horiz-adv-x="1249" unicode="ŋ"/><glyph d="M487 1630v92h598v-92h-598zM100 745.5q0 339.5 189.5 552.5t496.5 213q309 0 499 -210.5t190 -552.5q0 -344 -189.5 -556t-499 -212t-498 213t-188.5 552.5zM242 747.5q0 -290.5 148.5 -464.5t395.5 -174q250 0 398.5 174t148.5 462.5t-149.5 464.5t-397 176t-396 -174 t-148.5 -464.5z" glyph-name="Omacron" horiz-adv-x="1574" unicode="Ō"/><glyph d="M305 1229v92h598v-92h-598zM102 524q0 246 138.5 400.5t363.5 154.5q223 0 360.5 -153.5t137.5 -399.5q0 -244 -137.5 -395t-360.5 -151q-225 0 -363.5 150t-138.5 394zM236 528q0 -193 96 -309.5t270 -116.5q168 0 267.5 113t99.5 315q0 195 -95.5 310.5t-269.5 115.5 q-168 0 -268 -113.5t-100 -314.5z" glyph-name="omacron" horiz-adv-x="1204" unicode="ō"/><glyph d="M590 1606l-45 67l338 254l67 -115zM983 1606l-43 67l336 254l70 -115zM100 745.5q0 339.5 189.5 552.5t496.5 213q309 0 499 -210.5t190 -552.5q0 -344 -189.5 -556t-499 -212t-498 213t-188.5 552.5zM242 747.5q0 -290.5 148.5 -464.5t395.5 -174q250 0 398.5 174 t148.5 462.5t-149.5 464.5t-397 176t-396 -174t-148.5 -464.5z" glyph-name="Ohungarumlaut" horiz-adv-x="1574" unicode="Ő"/><glyph d="M408 1204l-46 68l338 254l68 -115zM801 1204l-43 68l336 254l69 -115zM102 524q0 246 138.5 400.5t363.5 154.5q223 0 360.5 -153.5t137.5 -399.5q0 -244 -137.5 -395t-360.5 -151q-225 0 -363.5 150t-138.5 394zM236 528q0 -193 96 -309.5t270 -116.5q168 0 267.5 113 t99.5 315q0 195 -95.5 310.5t-269.5 115.5q-168 0 -268 -113.5t-100 -314.5z" glyph-name="ohungarumlaut" horiz-adv-x="1204" unicode="ő"/><glyph d="M100 748q0 332 203 538.5t531 206.5h1026v-129h-803v-555h600v-121h-600v-555h803v-133h-1029q-328 0 -529.5 207t-201.5 541zM242 747.5q0 -274.5 161.5 -444.5t427.5 -170h97v1231h-97q-266 0 -427.5 -171t-161.5 -445.5z" glyph-name="OE" horiz-adv-x="1988" unicode="Œ"/><glyph d="M1808 313h131q-27 -150 -152.5 -241.5t-311.5 -91.5q-150 0 -261.5 70.5t-171.5 197.5q-61 -127 -174.5 -197.5t-263.5 -70.5q-225 0 -363.5 150.5t-138.5 393.5q0 246 138.5 400.5t363.5 154.5q150 0 263.5 -71.5t174.5 -198.5q59 129 172 199.5t261 70.5 q217 0 337.5 -129t120.5 -346q0 -55 -6 -100h-809q-2 -195 96.5 -303.5t266.5 -108.5q131 0 217.5 61.5t109.5 159.5zM1475 967q-156 0 -253.5 -97.5t-103.5 -259.5h686q0 172 -85.5 264.5t-243.5 92.5zM602 102q168 0 267.5 113t99.5 315q0 195 -95.5 310.5t-269.5 115.5 q-168 0 -268 -113.5t-100 -314.5q0 -193 96 -309.5t270 -116.5z" glyph-name="oe" horiz-adv-x="2041" unicode="œ"/><glyph d="M739 1606l-45 67l338 254l66 -115zM225 0v1493h627q231 0 348 -111.5t117 -302.5q0 -268 -250 -377v-14q219 -43 219 -282v-248q0 -106 21 -158h-136q-20 43 -20 178v195q0 127 -53.5 184t-190.5 57h-549v-614h-133zM358 739h445q170 0 272.5 89.5t102.5 236.5 q0 303 -336 303h-484v-629z" glyph-name="Racute" horiz-adv-x="1449" unicode="Ŕ"/><glyph d="M426 1204l-45 68l338 254l65 -115zM197 0v1059h114l17 -219h10q47 117 139 175t211 58v-119q-362 -12 -362 -450v-504h-129z" glyph-name="racute" horiz-adv-x="718" unicode="ŕ"/><glyph d="M225 0v1493h627q231 0 348 -111.5t117 -302.5q0 -268 -250 -377v-14q219 -43 219 -282v-248q0 -106 21 -158h-136q-20 43 -20 178v195q0 127 -53.5 184t-190.5 57h-549v-614h-133zM358 739h445q170 0 272.5 89.5t102.5 236.5q0 303 -336 303h-484v-629zM717 -438v45 q86 0 86 84v4h-86v176h147v-162q0 -147 -147 -147z" glyph-name="Rcommaaccent" horiz-adv-x="1449" unicode="Ŗ"/><glyph d="M197 0v1059h114l17 -219h10q47 117 139 175t211 58v-119q-362 -12 -362 -450v-504h-129zM188 -438v45q86 0 86 84v4h-86v176h148v-162q-1 -147 -148 -147z" glyph-name="rcommaaccent" horiz-adv-x="718" unicode="ŗ"/><glyph d="M465 1870l70 61l204 -219l207 219l70 -61l-225 -246h-101zM225 0v1493h627q231 0 348 -111.5t117 -302.5q0 -268 -250 -377v-14q219 -43 219 -282v-248q0 -106 21 -158h-136q-20 43 -20 178v195q0 127 -53.5 184t-190.5 57h-549v-614h-133zM358 739h445q170 0 272.5 89.5 t102.5 236.5q0 303 -336 303h-484v-629z" glyph-name="Rcaron" horiz-adv-x="1449" unicode="Ř"/><glyph d="M152 1468l69 62l205 -219l207 219l69 -62l-225 -245h-100zM197 0v1059h114l17 -219h10q47 117 139 175t211 58v-119q-362 -12 -362 -450v-504h-129z" glyph-name="rcaron" horiz-adv-x="718" unicode="ř"/><glyph d="M680 1606l-45 67l338 254l65 -115zM250 459q16 -367 432 -367q195 0 304.5 85t109.5 226q0 211 -254 269l-287 63q-55 10 -94 21.5t-103.5 41t-104.5 66.5t-71.5 103.5t-31.5 148.5q0 180 141 288.5t373 108.5q248 0 382 -114.5t138 -313.5h-135q-10 158 -114 237 t-284 79q-172 0 -267 -73t-95 -198q0 -68 27.5 -117.5t78.5 -78.5t88 -42t92 -26l283 -59q379 -80 379 -399q0 -203 -148.5 -315.5t-400.5 -112.5q-283 0 -427 131t-148 348h137z" glyph-name="Sacute" horiz-adv-x="1376" unicode="Ś"/><glyph d="M512 1204l-45 68l338 254l65 -115zM225 317q0 -104 79 -166.5t216 -62.5q125 0 198 54.5t73 148.5q0 137 -154 164l-240 47q-272 53 -272 270q0 143 104.5 225t280.5 82q182 0 285.5 -87t105.5 -232h-123q-8 213 -266 213q-123 0 -189.5 -50.5t-66.5 -136.5 q0 -137 182 -170l219 -41q270 -51 271 -290q0 -137 -111.5 -221t-294.5 -84q-195 0 -307.5 92t-112.5 245h123z" glyph-name="sacute" horiz-adv-x="1030" unicode="ś"/><glyph d="M1237 408q0 -188 -130 -300t-355 -126l-45 -70q70 4 118.5 -36t48.5 -112q0 -84 -56 -125.5t-125.5 -36.5t-112.5 44v82q37 -53 124 -46t87 80q0 49 -43 73t-136 -1v41l60 105q-272 4 -413.5 134t-145.5 345h137q16 -367 432 -367q195 0 304.5 85t109.5 226 q0 211 -254 269l-287 63q-55 10 -94 21.5t-103.5 41t-104.5 66.5t-71.5 103.5t-31.5 148.5q0 180 141 288.5t373 108.5q248 0 382 -114.5t138 -313.5h-135q-10 158 -114 237t-284 79q-172 0 -267 -73t-95 -198q0 -68 27.5 -117.5t78.5 -78.5t88 -42t92 -26l283 -59 q379 -80 379 -399z" glyph-name="Scedilla" horiz-adv-x="1376" unicode="Ş"/><glyph d="M928 285q0 -131 -101.5 -213t-271.5 -92l-29 -46q70 4 119 -35.5t49 -111.5q0 -84 -56 -126t-126 -37t-113 44v82q37 -53 124 -46t87 81q0 49 -43 72.5t-135 -0.5v41l47 84q-176 10 -276.5 101t-100.5 234h123q0 -104 79 -166.5t216 -62.5q125 0 198 54.5t73 148.5 q0 137 -154 164l-240 47q-272 53 -272 270q0 143 104.5 225t280.5 82q182 0 285.5 -87t105.5 -232h-123q-8 213 -266 213q-123 0 -189.5 -50.5t-66.5 -136.5q0 -137 182 -170l219 -41q271 -50 271 -290z" glyph-name="scedilla" horiz-adv-x="1030" unicode="ş"/><glyph d="M406 1870l69 61l205 -219l207 219l69 -61l-225 -246h-100zM250 459q16 -367 432 -367q195 0 304.5 85t109.5 226q0 211 -254 269l-287 63q-55 10 -94 21.5t-103.5 41t-104.5 66.5t-71.5 103.5t-31.5 148.5q0 180 141 288.5t373 108.5q248 0 382 -114.5t138 -313.5h-135 q-10 158 -114 237t-284 79q-172 0 -267 -73t-95 -198q0 -68 27.5 -117.5t78.5 -78.5t88 -42t92 -26l283 -59q379 -80 379 -399q0 -203 -148.5 -315.5t-400.5 -112.5q-283 0 -427 131t-148 348h137z" glyph-name="Scaron" horiz-adv-x="1376" unicode="Š"/><glyph d="M238 1468l69 62l205 -219l207 219l69 -62l-225 -245h-100zM225 317q0 -104 79 -166.5t216 -62.5q125 0 198 54.5t73 148.5q0 137 -154 164l-240 47q-272 53 -272 270q0 143 104.5 225t280.5 82q182 0 285.5 -87t105.5 -232h-123q-8 213 -266 213q-123 0 -189.5 -50.5 t-66.5 -136.5q0 -137 182 -170l219 -41q270 -51 271 -290q0 -137 -111.5 -221t-294.5 -84q-195 0 -307.5 92t-112.5 245h123z" glyph-name="scaron" horiz-adv-x="1030" unicode="š"/><glyph d="M631 -2l-56 -86q70 4 119 -36t49 -112q0 -84 -56 -125.5t-125.5 -36.5t-112.5 44v82q37 -53 123.5 -46t86.5 80q0 49 -43 73t-135 -1v41l72 125h-55v1364h-488v129h1102v-129h-481v-1366z" glyph-name="Tcommaaccent" horiz-adv-x="1122" unicode="Ţ"/><glyph d="M436 -88q70 4 119 -36t49 -112q0 -84 -56 -125.5t-126 -36.5t-113 44v82q37 -53 124 -46t87 80q0 49 -43 73t-135 -1v41l66 117q-190 35 -191 278v678h-186v111h186v342l129 49v-391h240v-111h-240v-669q0 -35 3 -57.5t16.5 -54.5t48.5 -48.5t88 -16.5q55 0 84 13v-115 q-43 -14 -103 -14z" glyph-name="tcommaaccent" horiz-adv-x="655" unicode="ţ"/><glyph d="M612 1624h-100l-225 246l69 61l205 -219l207 219l70 -61zM1112 1493v-129h-481v-1364h-133v1364h-488v129h1102z" glyph-name="Tcaron" horiz-adv-x="1122" unicode="Ť"/><glyph d="M6 1784l70 61l205 -219l206 219l70 -61l-225 -246h-101zM31 1059h186v342l129 49v-391h240v-111h-240v-669q0 -35 3 -57.5t16.5 -54.5t48.5 -48.5t88 -16.5q55 0 84 13v-115q-45 -14 -109 -14q-260 0 -260 284v678h-186v111z" glyph-name="tcaron" horiz-adv-x="655" unicode="ť"/><glyph d="M1112 1364h-481v-496h356v-114h-356v-754h-133v754h-363v114h363v496h-488v129h1102v-129z" glyph-name="Tbar" horiz-adv-x="1122" unicode="Ŧ"/><glyph d="M592 555h-246v-276q0 -35 3 -57.5t16.5 -54.5t48.5 -48.5t88 -16.5q55 0 84 13v-115q-45 -14 -109 -14q-260 0 -260 284v285h-186v100h186v293h-186v111h186v342l129 49v-391h240v-111h-240v-293h246v-100z" glyph-name="tbar" horiz-adv-x="655" unicode="ŧ"/><glyph d="M498 1630v92h598v-92h-598zM213 547v946h133v-932q0 -213 122 -332.5t329 -119.5t328.5 119.5t121.5 332.5v932h133v-946q0 -258 -156.5 -412.5t-427 -154.5t-427 154.5t-156.5 412.5z" glyph-name="Umacron" horiz-adv-x="1593" unicode="Ū"/><glyph d="M311 1229v92h598v-92h-598zM1038 1059v-1059h-106l-21 197h-14q-43 -96 -142.5 -156.5t-224.5 -60.5q-160 0 -255 103t-95 296v680h129v-666q0 -293 254 -293q158 0 252 112t94 294v553h129z" glyph-name="umacron" horiz-adv-x="1218" unicode="ū"/><glyph d="M1010 1630q0 -94 -58.5 -152.5t-155 -58.5t-154.5 58.5t-58 152.5t58 152.5t154.5 58.5t155 -58.5t58.5 -152.5zM920 1630.5q0 59.5 -34 96t-87 36.5q-55 0 -90 -36.5t-35 -96t34.5 -96.5t90.5 -37q53 0 87 37t34 96.5zM213 547v946h133v-932q0 -213 122 -332.5 t329 -119.5t328.5 119.5t121.5 332.5v932h133v-946q0 -258 -156.5 -412.5t-427 -154.5t-427 154.5t-156.5 412.5z" glyph-name="Uring" horiz-adv-x="1593" unicode="Ů"/><glyph d="M823 1229q0 -94 -58 -152.5t-154.5 -58.5t-155 58.5t-58.5 152.5t58.5 152.5t155 58.5t154.5 -58.5t58 -152.5zM733 1228.5q0 59.5 -33.5 96.5t-87.5 37q-55 0 -90 -37t-35 -96.5t35 -96t90 -36.5q53 0 87 36.5t34 96zM1038 1059v-1059h-106l-21 197h-14 q-43 -96 -142.5 -156.5t-224.5 -60.5q-160 0 -255 103t-95 296v680h129v-666q0 -293 254 -293q158 0 252 112t94 294v553h129z" glyph-name="uring" horiz-adv-x="1218" unicode="ů"/><glyph d="M600 1606l-45 67l338 254l68 -115zM993 1606l-43 67l336 254l70 -115zM213 547v946h133v-932q0 -213 122 -332.5t329 -119.5t328.5 119.5t121.5 332.5v932h133v-946q0 -258 -156.5 -412.5t-427 -154.5t-427 154.5t-156.5 412.5z" glyph-name="Uhungarumlaut" horiz-adv-x="1593" unicode="Ű"/><glyph d="M414 1204l-45 68l338 254l67 -115zM807 1204l-43 68l336 254l69 -115zM1038 1059v-1059h-106l-21 197h-14q-43 -96 -142.5 -156.5t-224.5 -60.5q-160 0 -255 103t-95 296v680h129v-666q0 -293 254 -293q158 0 252 112t94 294v553h129z" glyph-name="uhungarumlaut" horiz-adv-x="1218" unicode="ű"/><glyph d="M1247 1493h133v-946q0 -227 -121.5 -375.5t-340.5 -183.5q-131 -55 -132 -162q0 -47 34 -72.5t91 -25.5q63 0 123 26v-90q-72 -27 -151 -22q-88 2 -142.5 49t-54.5 121q0 96 78 168q-258 10 -404.5 163.5t-146.5 403.5v946h133v-932q0 -213 122 -332.5t329 -119.5 t328.5 119.5t121.5 332.5v932z" glyph-name="Uogonek" horiz-adv-x="1593" unicode="Ų"/><glyph d="M1004 -272q63 0 122 26v-90q-72 -27 -151 -22q-88 2 -142.5 49t-54.5 121q0 141 150 221l-17 164h-14q-43 -96 -142.5 -156.5t-224.5 -60.5q-160 0 -255 103t-95 296v680h129v-666q0 -293 254 -293q158 0 252 112t94 294v553h129v-1055l2 -4q-162 -55 -161 -174 q0 -47 34 -72.5t91 -25.5z" glyph-name="uogonek" horiz-adv-x="1218" unicode="ų"/><glyph d="M616 1667l228 244h98l225 -242l-69 -63l-207 217l-209 -217zM27 1493h139l190 -938l72 -405h12l389 1343h195l389 -1343h12l72 405l191 938h139l-305 -1493h-191l-399 1374h-10l-400 -1374h-190z" glyph-name="Wcircumflex" horiz-adv-x="1853" unicode="Ŵ"/><glyph d="M745 1421l-208 -217l-66 62l227 243h99l225 -241l-70 -64zM1319 1059h145l-305 -1059h-178l-154 580l-77 325h-13l-73 -325l-146 -580h-184l-311 1059h151l168 -608l74 -324h10l236 932h167l248 -926h8l72 311z" glyph-name="wcircumflex" horiz-adv-x="1486" unicode="ŵ"/><glyph d="M371 1667l227 244h98l226 -242l-70 -63l-207 217l-209 -217zM14 1493h166l258 -414l199 -329h14l201 333l252 410h164l-561 -877v-616h-134v616z" glyph-name="Ycircumflex" horiz-adv-x="1282" unicode="Ŷ"/><glyph d="M188 1266l228 243h98l225 -241l-69 -64l-207 217l-209 -217zM4 1059h143l205 -553l115 -336h12l109 336l186 553h141l-380 -1073q-18 -51 -30.5 -83t-45.5 -88.5t-70 -90t-97.5 -60t-133.5 -26.5q-39 0 -78 8v116q37 -6 67 -6q162 0 236 193l27 65z" glyph-name="ycircumflex" horiz-adv-x="919" unicode="ŷ"/><glyph d="M387 1647v225h135v-225h-135zM764 1647v225h135v-225h-135zM14 1493h166l258 -414l199 -329h14l201 333l252 410h164l-561 -877v-616h-134v616z" glyph-name="Ydieresis" horiz-adv-x="1282" unicode="Ÿ"/><glyph d="M915 1812l-358 -206l-45 67l338 254zM1133 1493v-107l-918 -1255h909v-131h-1087v106l919 1258h-919v129h1096z" glyph-name="Zacute" horiz-adv-x="1169" unicode="Ź"/><glyph d="M827 1411l-358 -207l-45 68l338 254zM233 111h631v-111h-782v100l625 848h-625v111h776v-107z" glyph-name="zacute" horiz-adv-x="946" unicode="ź"/><glyph d="M629 1872v-225h-137v225h137zM1133 1493v-107l-918 -1255h909v-131h-1087v106l919 1258h-919v129h1096z" glyph-name="Zdotaccent" horiz-adv-x="1169" unicode="Ż"/><glyph d="M541 1470v-225h-138v225h138zM233 111h631v-111h-782v100l625 848h-625v111h776v-107z" glyph-name="zdotaccent" horiz-adv-x="946" unicode="ż"/><glyph d="M608 1624h-100l-225 246l69 61l205 -219l207 219l70 -61zM1133 1493v-107l-918 -1255h909v-131h-1087v106l919 1258h-919v129h1096z" glyph-name="Zcaron" horiz-adv-x="1169" unicode="Ž"/><glyph d="M520 1223h-100l-225 245l69 62l205 -219l207 219l69 -62zM233 111h631v-111h-782v100l625 848h-625v111h776v-107z" glyph-name="zcaron" horiz-adv-x="946" unicode="ž"/><glyph d="M713 1513q295 0 457.5 -202.5t162.5 -567.5q0 -375 -170 -569t-456 -194q-289 0 -443.5 186t-154.5 489q0 37 6 111h1083q0 311 -130 468t-366 157q-174 0 -305 -84t-164 -220h-133q39 190 210.5 308t402.5 118zM707 106q223 0 354 142.5t137 400.5h-950q0 -279 125 -411 t334 -132z" glyph-name="uni018F" horiz-adv-x="1433" unicode="Ə"/><glyph d="M666 1376l-35 -241l-35 -254h238v-115h-252l-93 -672l-32 -221q-20 -121 -140 -121h-282v115h293l34 227l91 672h-209v115h225l33 254l35 235q4 33 11 54.5t38.5 45t87.5 23.5h282v-117h-290z" glyph-name="florin" horiz-adv-x="1021" unicode="ƒ"/><glyph d="M1495 1812l-358 -206l-45 67l338 254zM1802 1364h-860v-555h739v-121h-739v-559h860v-129h-993v440h-508l-147 -440h-142l523 1493h1267v-129zM809 557v807h-197l-272 -807h469z" glyph-name="AEacute" horiz-adv-x="1931" unicode="Ǽ"/><glyph d="M1331 1812l-358 -206l-45 67l338 254zM1661 1239l-178 -131q68 -164 67 -360q0 -344 -189.5 -556t-498.5 -212q-354 0 -545 272l-127 -94l-67 94l135 100q-82 174 -82 393q0 340 189.5 553t496.5 213q182 0 327.5 -77.5t235.5 -219.5l164 121zM317 748q0 -176 56 -312 l942 697q-150 254 -453 253q-248 0 -396.5 -173.5t-148.5 -464.5zM1409 745q0 154 -43 277l-938 -690q150 -223 434 -223q250 0 398.5 173.5t148.5 462.5z" glyph-name="Oslashacute" horiz-adv-x="1806" unicode="Ǿ"/><glyph d="M999 1411l-358 -207l-45 68l338 254zM1214 885l-124 -92q51 -121 51 -267q0 -244 -137.5 -395t-360.5 -151q-256 0 -397 192l-111 -82l-57 86l117 86q-53 117 -54 262q0 246 138.5 400.5t363.5 154.5q258 0 393 -194l119 88zM274 528q0 -100 29 -186l631 467 q-92 147 -291 147q-168 0 -268.5 -113.5t-100.5 -314.5zM1008 530q0 104 -27 183l-633 -465q96 -145 293 -146q168 0 267.5 112.5t99.5 315.5z" glyph-name="oslashacute" horiz-adv-x="1290" unicode="ǿ"/><glyph d="M250 459q16 -367 432 -367q195 0 304.5 85t109.5 226q0 211 -254 269l-287 63q-55 10 -94 21.5t-103.5 41t-104.5 66.5t-71.5 103.5t-31.5 148.5q0 180 141 288.5t373 108.5q248 0 382 -114.5t138 -313.5h-135q-10 158 -114 237t-284 79q-172 0 -267 -73t-95 -198 q0 -68 27.5 -117.5t78.5 -78.5t88 -42t92 -26l283 -59q379 -80 379 -399q0 -203 -148.5 -315.5t-400.5 -112.5q-283 0 -427 131t-148 348h137zM621 -438v45q86 0 86 84v4h-86v176h147v-162q0 -147 -147 -147z" glyph-name="Scommaaccent" horiz-adv-x="1376" unicode="Ș"/><glyph d="M225 317q0 -104 79 -166.5t216 -62.5q125 0 198 54.5t73 148.5q0 137 -154 164l-240 47q-272 53 -272 270q0 143 104.5 225t280.5 82q182 0 285.5 -87t105.5 -232h-123q-8 213 -266 213q-123 0 -189.5 -50.5t-66.5 -136.5q0 -137 182 -170l219 -41q270 -51 271 -290 q0 -137 -111.5 -221t-294.5 -84q-195 0 -307.5 92t-112.5 245h123zM440 -416v45q86 0 86 84v4h-86v177h148v-162q-1 -148 -148 -148z" glyph-name="scommaaccent" horiz-adv-x="1030" unicode="ș"/><glyph d="M10 1493h1102v-129h-481v-1364h-133v1364h-488v129zM489 -305v176h148v-162q0 -147 -148 -147v45q86 0 86 84v4h-86z" glyph-name="uni021A" horiz-adv-x="1122" unicode="Ț"/><glyph d="M31 1059h186v342l129 49v-391h240v-111h-240v-669q0 -35 3 -57.5t16.5 -54.5t48.5 -48.5t88 -16.5q55 0 84 13v-115q-45 -14 -109 -14q-260 0 -260 284v678h-186v111zM350 -438v45q86 0 86 84v4h-86v176h148v-162q-1 -147 -148 -147z" glyph-name="uni021B" horiz-adv-x="655" unicode="ț"/><glyph d="M72 -350q-41 0 -90 8v119q27 -8 63 -8q80 0 122 45t42 120v1125h129v-1135q0 -131 -72.5 -202.5t-193.5 -71.5z" glyph-name="uni0237" horiz-adv-x="534" unicode="ȷ"/><glyph d="M84 1548l227 244h99l225 -242l-70 -63l-207 217l-208 -217z" glyph-name="circumflex" horiz-adv-x="714" unicode="ˆ"/><glyph d="M84 1751l70 61l204 -219l207 219l70 -61l-225 -246h-101z" glyph-name="caron" horiz-adv-x="714" unicode="ˇ"/><glyph d="M653 1763q0 -125 -76.5 -200.5t-203.5 -75.5q-125 0 -202 75.5t-77 200.5h96q0 -86 50.5 -138t132.5 -52t132 52t50 138h98z" glyph-name="breve" horiz-adv-x="745" unicode="˘"/><glyph d="M109 1520v225h137v-225h-137z" glyph-name="dotaccent" horiz-adv-x="354" unicode="˙"/><glyph d="M614 1579q0 -94 -58 -152.5t-154.5 -58.5t-155 58.5t-58.5 152.5t58.5 152.5t155 58.5t154.5 -58.5t58 -152.5zM524 1579q0 59 -33.5 96t-87.5 37q-55 0 -89.5 -37t-34.5 -96t34.5 -96t89.5 -37q53 0 87 37t34 96z" glyph-name="ring" horiz-adv-x="786" unicode="˚"/><glyph d="M289 -188q0 86 64.5 155.5t168.5 95.5l29 -63q-162 -55 -162 -174q0 -47 34 -72.5t91 -25.5q63 0 123 26v-90q-72 -27 -152 -22q-88 2 -142 49t-54 121z" glyph-name="ogonek" horiz-adv-x="854" unicode="˛"/><glyph d="M467 1495q-72 -4 -157 37t-120 39q-55 -2 -98 -64l-61 45q41 63 77.5 94t92.5 35q43 4 133 -37.5t131 -39.5q59 4 106 67l62 -49q-74 -123 -166 -127z" glyph-name="tilde" horiz-adv-x="667" unicode="˜"/><glyph d="M84 1487l-45 67l338 254l67 -114zM477 1487l-43 67l336 254l70 -114z" glyph-name="hungarumlaut" horiz-adv-x="929" unicode="˝"/><glyph d="M-311 1487l-359 207l66 114l338 -254z" glyph-name="gravecomb" unicode="̀"/><glyph d="M-596 1487l-45 67l338 254l65 -114z" glyph-name="acutecomb" unicode="́"/><glyph d="M-631 1548l228 244h98l225 -242l-70 -63l-206 217l-209 -217z" glyph-name="uni0302" unicode="̂"/><glyph d="M-201 1495q-72 -4 -156.5 37t-119.5 39q-55 -2 -98 -64l-62 45q41 63 78 94t92 35q43 4 133 -37.5t131 -39.5q59 4 107 67l61 -49q-74 -123 -166 -127z" glyph-name="tildecomb" unicode="̃"/><glyph d="M-664 1511v93h598v-93h-598z" glyph-name="uni0304" unicode="̄"/><glyph d="M-92 1763q0 -125 -77 -200.5t-204 -75.5q-125 0 -201.5 75.5t-76.5 200.5h96q0 -86 50 -138t132 -52t132.5 52t50.5 138h98z" glyph-name="uni0306" unicode="̆"/><glyph d="M-246 1520v225h137v-225h-137z" glyph-name="uni0307" unicode="̇"/><glyph d="M-645 1520v225h135v-225h-135zM-268 1520v225h135v-225h-135z" glyph-name="uni0308" unicode="̈"/><glyph d="M-172 1579q0 -94 -58.5 -152.5t-154.5 -58.5t-154.5 58.5t-58.5 152.5t58.5 152.5t154.5 58.5t154.5 -58.5t58.5 -152.5zM-262 1579q0 59 -34 96t-87 37q-55 0 -90 -37t-35 -96t35 -96t90 -37q53 0 87 37t34 96z" glyph-name="uni030A" unicode="̊"/><glyph d="M-846 1487l-45 67l338 254l68 -114zM-453 1487l-43 67l336 254l70 -114z" glyph-name="uni030B" unicode="̋"/><glyph d="M-631 1751l70 61l205 -219l206 219l70 -61l-225 -246h-101z" glyph-name="uni030C" unicode="̌"/><glyph d="M-86 1868v-45q-86 0 -86 -88v-39h86v-176h-147v200q0 148 147 148z" glyph-name="uni0312" unicode="̒"/><glyph d="M-389 -455v45q86 0 86 84v4h-86v177h147v-162q0 -148 -147 -148z" glyph-name="uni0326" unicode="̦"/><glyph d="M-569 -88q70 4 119 -36t49 -112q0 -84 -56.5 -125.5t-126 -36.5t-112.5 44v82q37 -53 124 -46t87 80q0 49 -43 73t-136 -1v41l105 184h45v-61z" glyph-name="uni0327" unicode="̧"/><glyph d="M-565 -188q0 86 64.5 155.5t168.5 95.5l29 -63q-162 -55 -162 -174q0 -47 34 -72.5t91 -25.5q63 0 123 26v-90q-72 -27 -152 -22q-88 2 -142 49t-54 121z" glyph-name="uni0328" unicode="̨"/><glyph d="M-719 627v88h594v-88h-594z" glyph-name="uni0335" unicode="̵"/><glyph glyph-name="uni0336" unicode="̶"/><glyph d="M-799 0l609 1493h114l-606 -1493h-117z" glyph-name="uni0337" unicode="̷"/><glyph d="M-799 0l609 1493h114l-606 -1493h-117z" glyph-name="uni0338" unicode="̸"/><glyph d="M182 -354v1413h129v-676q0 -141 71 -216t187 -75q137 0 212 97.5t75 265.5v604h129v-1059h-121l8 195h-10q-45 -106 -130 -160.5t-191 -54.5q-70 0 -135.5 30.5t-96.5 79.5h-12v-444h-115z" glyph-name="mu" horiz-adv-x="1169" unicode="μ"/><glyph d="M1100 -2q-31 -12 -90 -12q-219 0 -219 256v706h-420v-948h-131v948h-189v111h1051v-111h-184v-708q0 -131 106 -131q35 0 76 8v-119z" glyph-name="pi" horiz-adv-x="1163" unicode="π"/><glyph d="M899 0v332q205 37 328 182t123 356q0 231 -144.5 378t-380 147t-380 -147.5t-144.5 -379.5q0 -211 122 -354t327 -182v-332h-459v106h336v152q-211 59 -336 227t-125 398q0 276 182 453t477 177t477.5 -177t182.5 -453q0 -227 -125 -396.5t-336 -228.5v-152h336v-106 h-461z" glyph-name="omega" horiz-adv-x="1650" unicode="ω"/><glyph d="M891 1606l-359 206l66 115l338 -254zM27 1493h139l190 -938l72 -405h12l389 1343h195l389 -1343h12l72 405l191 938h139l-305 -1493h-191l-399 1374h-10l-400 -1374h-190z" glyph-name="Wgrave" horiz-adv-x="1853" unicode="Ẁ"/><glyph d="M791 1272l-46 -68l-358 207l66 115zM1319 1059h145l-305 -1059h-178l-154 580l-77 325h-13l-73 -325l-146 -580h-184l-311 1059h151l168 -608l74 -324h10l236 932h167l248 -926h8l72 311z" glyph-name="wgrave" horiz-adv-x="1486" unicode="ẁ"/><glyph d="M887 1606l-45 67l338 254l65 -115zM27 1493h139l190 -938l72 -405h12l389 1343h195l389 -1343h12l72 405l191 938h139l-305 -1493h-191l-399 1374h-10l-400 -1374h-190z" glyph-name="Wacute" horiz-adv-x="1853" unicode="Ẃ"/><glyph d="M1100 1411l-359 -207l-45 68l338 254zM1319 1059h145l-305 -1059h-178l-154 580l-77 325h-13l-73 -325l-146 -580h-184l-311 1059h151l168 -608l74 -324h10l236 932h167l248 -926h8l72 311z" glyph-name="wacute" horiz-adv-x="1486" unicode="ẃ"/><glyph d="M633 1647v225h135v-225h-135zM1010 1647v225h135v-225h-135zM27 1493h139l190 -938l72 -405h12l389 1343h195l389 -1343h12l72 405l191 938h139l-305 -1493h-191l-399 1374h-10l-400 -1374h-190z" glyph-name="Wdieresis" horiz-adv-x="1853" unicode="Ẅ"/><glyph d="M623 1470v-225h-136v225h136zM999 1470v-225h-135v225h135zM1319 1059h145l-305 -1059h-178l-154 580l-77 325h-13l-73 -325l-146 -580h-184l-311 1059h151l168 -608l74 -324h10l236 932h167l248 -926h8l72 311z" glyph-name="wdieresis" horiz-adv-x="1486" unicode="ẅ"/><glyph d="M645 1606l-358 206l65 115l338 -254zM14 1493h166l258 -414l199 -329h14l201 333l252 410h164l-561 -877v-616h-134v616z" glyph-name="Ygrave" horiz-adv-x="1282" unicode="Ỳ"/><glyph d="M463 1204l-359 207l66 115l338 -254zM4 1059h143l205 -553l115 -336h12l109 336l186 553h141l-380 -1073q-18 -51 -30.5 -83t-45.5 -88.5t-70 -90t-97.5 -60t-133.5 -26.5q-39 0 -78 8v116q37 -6 67 -6q162 0 236 193l27 65z" glyph-name="ygrave" horiz-adv-x="919" unicode="ỳ"/><glyph d="M129 565v101h1038v-101h-1038z" glyph-name="endash" horiz-adv-x="1296" unicode="–"/><glyph d="M129 565v101h1440v-101h-1440z" glyph-name="emdash" horiz-adv-x="1697" unicode="—"/><glyph d="M307 1513v-77q-80 0 -104.5 -39t-24.5 -99v-59h115v-223h-203v293q0 94 59.5 149t157.5 55z" glyph-name="quoteleft" horiz-adv-x="395" unicode="‘"/><glyph d="M96 995v78q80 0 104.5 39t24.5 98v60h-114v223h202v-293q0 -94 -59.5 -149.5t-157.5 -55.5z" glyph-name="quoteright" horiz-adv-x="387" unicode="’"/><glyph d="M88 -274v77q80 0 104.5 39t24.5 99v59h-115v223h203v-293q0 -94 -59.5 -149t-157.5 -55z" glyph-name="quotesinglbase" horiz-adv-x="395" unicode="‚"/><glyph d="M307 1513v-77q-80 0 -104.5 -39t-24.5 -99v-59h115v-223h-203v293q0 94 59.5 149t157.5 55zM682 1513v-77q-80 0 -104.5 -39t-24.5 -99v-59h115v-223h-203v293q0 94 59.5 149t157.5 55z" glyph-name="quotedblleft" horiz-adv-x="770" unicode="“"/><glyph d="M96 995v78q80 0 104.5 39t24.5 98v60h-114v223h202v-293q0 -94 -59.5 -149.5t-157.5 -55.5zM457 995v78q80 0 104.5 39t24.5 98v60h-115v223h203v-293q0 -94 -59.5 -149.5t-157.5 -55.5z" glyph-name="quotedblright" horiz-adv-x="749" unicode="”"/><glyph d="M113 -274v77q80 0 104.5 39t24.5 99v59h-115v223h203v-293q0 -94 -59.5 -149t-157.5 -55zM494 -274v77q80 0 104.5 39t24.5 99v59h-115v223h203v-293q0 -94 -59.5 -149t-157.5 -55z" glyph-name="quotedblbase" horiz-adv-x="770" unicode="„"/><glyph d="M475 758h275v-115h-275v-319h-121v319h-274v115h274v743h121v-743z" glyph-name="dagger" horiz-adv-x="831" unicode="†"/><glyph d="M754 1077h-279v-319h275v-115h-275v-319h-121v319h-274v115h274v319h-272v111h272v313h121v-313h279v-111z" glyph-name="daggerdbl" horiz-adv-x="833" unicode="‡"/><glyph d="M152 565q0 109 72.5 185.5t172.5 76.5q102 0 177 -76.5t75 -185.5q0 -102 -75.5 -178t-176.5 -76q-98 0 -171.5 77t-73.5 177z" glyph-name="bullet" horiz-adv-x="802" unicode="•"/><glyph d="M139 0v229h205v-229h-205zM535 0v229h204v-229h-204zM930 0v229h205v-229h-205z" glyph-name="ellipsis" horiz-adv-x="1273" unicode="…"/><glyph d="M127 1141q0 166 98.5 267t257.5 101q162 0 260.5 -101t98.5 -267q0 -168 -98.5 -270.5t-260.5 -102.5q-160 0 -258 102.5t-98 270.5zM391 0l944 1493h146l-944 -1493h-146zM252 1141q0 -119 64.5 -193t166.5 -74q104 0 169 74t65 193q0 117 -64.5 190.5t-169.5 73.5 q-102 0 -166.5 -73.5t-64.5 -190.5zM995 352q0 166 99.5 268.5t259 102.5t257 -102.5t97.5 -268.5q0 -168 -97.5 -270t-256.5 -102q-162 0 -260.5 102t-98.5 270zM1810 352q0 166 99.5 268.5t259.5 102.5t258 -103.5t98 -267.5q0 -168 -98 -270t-258 -102q-162 0 -260.5 102 t-98.5 270zM1120 352q0 -119 65.5 -192.5t168 -73.5t167 73.5t64.5 192.5q0 117 -64.5 191.5t-166.5 74.5q-104 0 -169 -74.5t-65 -191.5zM1935 352.5q0 -116.5 64.5 -191.5t169.5 -75q102 0 166.5 73.5t64.5 192.5q0 117 -64.5 191.5t-166.5 74.5q-104 0 -169 -74.5 t-65 -191z" glyph-name="perthousand" horiz-adv-x="2658" unicode="‰"/><glyph d="M133 561l248 418h129l-227 -418l227 -422h-129z" glyph-name="guilsinglleft" horiz-adv-x="679" unicode="‹"/><glyph d="M549 561l-246 -422h-133l227 422l-227 418h133z" glyph-name="guilsinglright" horiz-adv-x="681" unicode="›"/><glyph d="M-281 -94l834 1667h117l-834 -1667h-117z" glyph-name="fraction" horiz-adv-x="393" unicode="⁄"/><glyph d="M504 604q-178 0 -286.5 148.5t-108.5 441.5q0 291 108.5 438.5t284.5 147.5t283.5 -147.5t107.5 -438.5q0 -293 -107.5 -441.5t-281.5 -148.5zM500 721q258 0 258 471q0 473 -256 473q-258 0 -258 -469q0 -475 256 -475z" glyph-name="uni2070" horiz-adv-x="1001" unicode="⁰"/><glyph d="M754 977h145v-111h-145v-252h-127v252h-570v115l494 784h203v-788zM193 977h434v696z" glyph-name="uni2074" horiz-adv-x="970" unicode="⁴"/><glyph d="M492 1374q160 0 263 -108.5t103 -276.5q0 -172 -109.5 -281.5t-279.5 -109.5q-162 0 -265.5 101.5t-101.5 265.5h131q-4 -109 62.5 -179.5t175.5 -70.5q113 0 181.5 73.5t68.5 196.5q0 121 -68.5 199t-183.5 78q-74 0 -136.5 -34t-86.5 -87h-121l25 624h653v-114h-539 l-18 -367l6 -2q37 43 103.5 67.5t136.5 24.5z" glyph-name="uni2075" horiz-adv-x="966" unicode="⁵"/><glyph d="M506 598q-393 0 -393 592q0 590 403 590q147 0 241.5 -77t106.5 -212h-135q-12 92 -72.5 134t-142.5 42q-285 0 -264 -475h8q76 168 277 168q152 0 249 -104.5t97 -272.5q0 -172 -102.5 -278.5t-272.5 -106.5zM512 715q106 0 168.5 73.5t62.5 196.5t-63.5 192.5 t-167.5 69.5q-113 0 -175.5 -78.5t-62.5 -189.5q0 -119 66 -191.5t172 -72.5z" glyph-name="uni2076" horiz-adv-x="974" unicode="⁶"/><glyph d="M61 1438v327h750v-90q-162 -225 -288 -516t-171 -545h-141q47 246 167 527.5t275 509.5h-481v-213h-111z" glyph-name="uni2077" horiz-adv-x="870" unicode="⁷"/><glyph d="M94 909q0 188 170 275v12q-76 35 -123 108.5t-47 163.5q0 137 104.5 224.5t270.5 87.5q168 0 271.5 -87t103.5 -225q0 -88 -45 -161.5t-123 -110.5v-12q80 -39 124 -112t44 -163q0 -139 -104.5 -225t-272.5 -86t-270.5 87t-102.5 224zM229 1454q0 -98 66.5 -154.5 t173.5 -56.5q111 0 175.5 58.5t64.5 152.5q0 96 -65.5 152.5t-174.5 56.5q-113 0 -176.5 -57.5t-63.5 -151.5zM229 926q0 -98 66.5 -154.5t173.5 -56.5q113 0 176.5 58t63.5 153q0 96 -65.5 153.5t-174.5 57.5q-113 0 -176.5 -58.5t-63.5 -152.5z" glyph-name="uni2078" horiz-adv-x="937" unicode="⁸"/><glyph d="M465 598q-141 0 -236.5 79t-107.5 210h133q8 -82 66.5 -128t148.5 -46q287 0 260 475h-8q-82 -166 -279 -166q-152 0 -248 103.5t-96 271.5q0 170 101.5 276.5t273.5 106.5q393 0 393 -600q0 -309 -101 -445.5t-300 -136.5zM465 1133q113 0 176.5 78.5t63.5 191.5 q0 117 -67 189.5t-173 72.5q-104 0 -168 -73.5t-64 -196.5t65 -192.5t167 -69.5z" glyph-name="uni2079" horiz-adv-x="974" unicode="⁹"/><glyph d="M504 -215q-178 0 -286.5 148.5t-108.5 441.5q0 291 108.5 438.5t284.5 147.5t283.5 -147.5t107.5 -438.5q0 -293 -107.5 -441.5t-281.5 -148.5zM500 -98q258 0 258 471q0 473 -256 473q-258 0 -258 -469q0 -475 256 -475z" glyph-name="uni2080" horiz-adv-x="1001" unicode="₀"/><glyph d="M92 649v101h45q111 0 180.5 54t71.5 142h119v-1151h-127v854h-289z" glyph-name="uni2081" horiz-adv-x="731" unicode="₁"/><glyph d="M463 -88h352v-117h-700v39q0 100 41 185t101 140.5t131 113t131.5 104.5t101.5 114.5t41 143.5q0 98 -57.5 153.5t-155.5 55.5q-111 0 -171.5 -61.5t-58.5 -172.5h-129q-2 156 98.5 253.5t264.5 97.5q156 0 251 -90.5t95 -231.5q0 -88 -38 -166t-95.5 -131t-126 -108.5 t-128 -101.5t-103.5 -105.5t-52 -122.5z" glyph-name="uni2082" horiz-adv-x="917" unicode="₂"/><glyph d="M465 -221q-170 0 -268.5 100.5t-92.5 263.5h138q-6 -123 56 -185t167 -62q106 0 171.5 60t65.5 159q0 102 -67.5 160.5t-183.5 58.5h-76v112h74q115 0 175 58.5t60 148.5q0 92 -61.5 141.5t-153.5 49.5q-106 0 -165.5 -63.5t-57.5 -180.5h-133q-6 160 93 260.5t263 100.5 q150 0 251 -81t101 -221q0 -180 -176 -260v-8q98 -37 146.5 -111.5t48.5 -166.5q0 -147 -104.5 -240.5t-270.5 -93.5z" glyph-name="uni2083" horiz-adv-x="942" unicode="₃"/><glyph d="M754 158h145v-111h-145v-252h-127v252h-570v115l494 784h203v-788zM193 158h434v696z" glyph-name="uni2084" horiz-adv-x="970" unicode="₄"/><glyph d="M492 555q160 0 263 -108.5t103 -276.5q0 -172 -109.5 -281.5t-279.5 -109.5q-162 0 -265.5 101.5t-101.5 264.5h131q-4 -109 62.5 -179t175.5 -70q113 0 181.5 73.5t68.5 196.5q0 121 -68.5 198.5t-183.5 77.5q-74 0 -136.5 -33.5t-86.5 -86.5h-121l25 624h653v-115h-539 l-18 -366l6 -2q37 43 103.5 67.5t136.5 24.5z" glyph-name="uni2085" horiz-adv-x="966" unicode="₅"/><glyph d="M506 -221q-393 0 -393 592q0 590 403 590q147 0 241.5 -77t106.5 -212h-135q-12 92 -72.5 134t-142.5 42q-285 0 -264 -475h8q76 168 277 168q152 0 249 -104.5t97 -272.5q0 -172 -102.5 -278.5t-272.5 -106.5zM512 -104q106 0 168.5 73.5t62.5 196.5t-63.5 192.5 t-167.5 69.5q-113 0 -175.5 -79t-62.5 -189q0 -119 66 -191.5t172 -72.5z" glyph-name="uni2086" horiz-adv-x="974" unicode="₆"/><glyph d="M61 618v328h750v-90q-162 -227 -287 -515t-172 -546h-141q47 246 167 527.5t275 508.5h-481v-213h-111z" glyph-name="uni2087" horiz-adv-x="870" unicode="₇"/><glyph d="M94 90q0 188 170 275v12q-76 35 -123 108.5t-47 163.5q0 137 104.5 224.5t270.5 87.5q168 0 271.5 -87.5t103.5 -224.5q0 -88 -45 -161.5t-123 -110.5v-12q80 -39 124 -112t44 -163q0 -139 -104.5 -225t-272.5 -86t-270.5 87t-102.5 224zM229 635q0 -98 66.5 -154.5 t173.5 -56.5q111 0 175.5 58.5t64.5 152.5q0 96 -65.5 152.5t-174.5 56.5q-113 0 -176.5 -57.5t-63.5 -151.5zM229 106q0 -98 66.5 -154t173.5 -56q113 0 176.5 58t63.5 152q0 96 -65.5 153.5t-174.5 57.5q-113 0 -176.5 -58.5t-63.5 -152.5z" glyph-name="uni2088" horiz-adv-x="937" unicode="₈"/><glyph d="M465 -221q-141 0 -236.5 79t-107.5 210h133q8 -82 67.5 -128t147.5 -46q287 0 260 475h-8q-82 -166 -279 -166q-152 0 -248 103.5t-96 271.5q0 170 101.5 276.5t273.5 106.5q393 0 393 -601q0 -309 -101 -445t-300 -136zM465 313q113 0 176.5 79t63.5 192 q0 117 -67 189.5t-173 72.5q-104 0 -168 -74t-64 -196.5t65 -192.5t167 -70z" glyph-name="uni2089" horiz-adv-x="974" unicode="₉"/><glyph d="M1401 805v-119h-172v-686h-150l-403 686h-357v-686h-133v686h-172v119h172v688h152l405 -688h355v688h131v-688h172zM319 805h287l-287 487h-8l8 -393v-94zM1106 205l-8 409v72h-285l285 -481h8z" glyph-name="uni20A6" horiz-adv-x="1415" unicode="₦"/><glyph d="M1526 805v-119h-191l-123 -686h-114l-160 686h-305l-160 -686h-115l-131 686h-200v119h178l-131 688h123l120 -688h244l160 688h131l160 -688h235l113 688h119l-123 -688h170zM662 805h247l-28 125l-90 422h-9l-92 -420zM504 559l28 127h-194l22 -125l60 -364h8z M1206 559l21 127h-187l29 -127l74 -362h10z" glyph-name="uni20A9" horiz-adv-x="1552" unicode="₩"/><glyph d="M776 1372h-516v-1372h-129v1493h612q78 0 118 -34t40 -124v-1011h-125v1048zM1096 1493h129v-1493h-613q-78 0 -118.5 34t-40.5 124v1013h127v-1048h516v1370z" glyph-name="afii57636" horiz-adv-x="1357" unicode="₪"/><glyph d="M821 102q176 0 290 93.5t153 253.5h141q-43 -213 -202 -340t-390 -127q-242 0 -397.5 146t-200.5 407h-158v118h146q-4 61 -4 95q0 72 6 137h-148v119h168q53 244 209 375.5t389 131.5q227 0 385 -128t197 -336h-141q-39 166 -156 255t-289 89q-182 0 -296.5 -100.5 t-157.5 -286.5h610l-14 -119h-615q-8 -59 -8 -142q0 -61 2 -90h608l-14 -118h-580q39 -215 161 -324t306 -109z" glyph-name="Euro" horiz-adv-x="1529" unicode="€"/><glyph d="M649 770h592v-80q0 -250 -143.5 -402.5t-368.5 -170.5v-209h-115v209q-233 20 -373.5 192t-140.5 441q0 262 140.5 431t373.5 191v213h115v-211q193 -12 324 -123.5t157 -287.5h-137q-31 139 -135 215.5t-254 76.5q-213 0 -330.5 -138t-117.5 -374q0 -238 118.5 -370.5 t321.5 -132.5q186 0 305 112.5t119 294.5h-451v123z" glyph-name="uni20B2" horiz-adv-x="1423" unicode="₲"/><glyph d="M10 1493h1102v-121h-1102v121zM10 1022v121h1102v-121h-481v-1022h-133v1022h-488z" glyph-name="uni20B8" horiz-adv-x="1122" unicode="₸"/><glyph d="M1358 1493v-121h-283q111 -104 127 -285h156v-118h-158q-27 -285 -307 -369v-12q12 -2 22.5 -7.5t20.5 -13.5t17.5 -13t16.5 -18.5t14 -20.5t15.5 -25.5t15.5 -27.5t17 -31.5t17 -33.5l206 -397h-151l-199 399q-49 104 -100 139t-146 35h-358v117h422q307 0 338 279h-760 v118h762q-14 141 -104.5 211t-235.5 70h-422v125h1057z" glyph-name="uni20B9" horiz-adv-x="1607" unicode="₹"/><glyph d="M1081 653q-41 -307 -240.5 -480t-482.5 -173h-112v616l-215 -84v123l215 86v201l-215 -86v121l215 90v426h131v-377l418 170v-123l-418 -172v-200l418 172v-123l-418 -170v-547q225 0 383 144.5t194 385.5h127z" glyph-name="uni20BA" horiz-adv-x="1150" unicode="₺"/><glyph d="M104 0v750q0 233 127 359t347 136v248h120v-248q231 -8 350 -140t119 -355v-750h-120v750q0 180 -93.5 275t-255.5 101v-1126h-120v1126q-172 -8 -260.5 -108t-88.5 -268v-750h-125z" glyph-name="uni20BC" horiz-adv-x="1271" unicode="₼"/><glyph d="M768 563l-301 2v-174h477v-121h-477v-270h-131v270h-203v121h203v172h-203v119h203v811h452q242 0 374 -130t132 -347q0 -219 -142 -337t-384 -116zM1155 1022q0 160 -98.5 250t-268.5 90h-321v-674h321q172 0 269.5 91t97.5 243z" glyph-name="uni20BD" horiz-adv-x="1359" unicode="₽"/><glyph d="M1169 453q0 -141 -88 -231.5t-247 -110.5v-203h-115v198h-172v-198h-113v198h-135v1280h135v199h113v-199h172v199h115v-205q145 -20 225 -110t80 -226q0 -84 -50.5 -157.5t-127.5 -108.5v-14q100 -37 154 -121t54 -190zM432 1262v-443h311q123 0 190.5 60.5t67.5 158.5 q0 111 -69.5 167.5t-188.5 56.5h-311zM750 227q141 0 211.5 64.5t70.5 173.5q0 115 -75.5 174t-206.5 59h-318v-471h318z" glyph-name="uni20BF" horiz-adv-x="1470" unicode="₿"/><glyph d="M791 1028q-16 -131 -110.5 -207t-227.5 -76q-154 0 -252.5 102.5t-98.5 278.5q0 178 99.5 282.5t255.5 104.5q131 0 221 -72.5t106 -185.5h-125q-14 70 -72.5 110t-131.5 40q-104 0 -166 -75t-62 -204q0 -127 59.5 -199.5t164.5 -72.5q86 0 144 47t69 127h127zM424 0 l944 1493h141l-942 -1493h-143zM1128 369q0 170 98.5 277.5t260.5 107.5q160 0 258 -107.5t98 -277.5t-98 -276.5t-258 -106.5q-162 0 -260.5 106.5t-98.5 276.5zM1253 371q0 -125 62.5 -200t171.5 -75q104 0 167.5 75t63.5 202q0 123 -61.5 197.5t-169.5 74.5 q-106 0 -170 -73.5t-64 -200.5z" glyph-name="afii61248" horiz-adv-x="1945" unicode="℅"/><glyph d="M1696 1032q0 195 128 337t339 142q213 0 342 -142t129 -337q0 -199 -134.5 -334t-336.5 -135q-201 0 -334 135t-133 334zM225 0v1493h176l863 -1341h8l-12 460v881h133v-1493h-179l-858 1346h-8l10 -445v-901h-133zM1831 1036q0 -145 93 -248.5t239 -103.5 q147 0 242.5 101.5t95.5 252.5q0 143 -91.5 248t-242.5 105q-150 0 -243 -100.5t-93 -254.5zM1825 123h680v-123h-680v123z" glyph-name="afii61352" horiz-adv-x="2920" unicode="№"/><glyph d="M967 -156q-362 0 -612.5 240t-250.5 616q0 379 251 621t613.5 242t612.5 -240t250 -616q0 -381 -249.5 -622t-614.5 -241zM967 -102q336 0 568 227t232 579.5t-232 578.5t-568 226q-332 0 -565.5 -228t-233.5 -581q0 -350 233.5 -576t565.5 -226zM672 283v841h411 q139 0 222.5 -79.5t83.5 -208.5t-83 -210t-223 -81h-280v-262h-131zM799 668h291q78 0 124 46t46 122q0 70 -46.5 114.5t-123.5 44.5h-291v-327z" glyph-name="uni2117" horiz-adv-x="1943" unicode="℗"/><glyph d="M57 1411v82h478v-82h-199v-553h-88v553h-191zM1137 1493h116v-635h-88v328l9 182h-7l-227 -498l-225 498h-6l6 -182v-328h-84v635h112l195 -444h4z" glyph-name="trademark" horiz-adv-x="1435" unicode="™"/><glyph d="M1556 471q-55 -221 -245.5 -355t-454.5 -134q-332 0 -531.5 208.5t-199.5 544.5q0 338 205 548t544 210q309 0 497 -179t202 -505q2 -43 2 -117h-1229v-379q72 -121 210 -187.5t304 -66.5q219 0 384 114t218 298h94zM346 1149v-383h1010v420q-182 227 -510 221 q-324 -6 -500 -258z" glyph-name="estimated" horiz-adv-x="1699" unicode="℮"/><glyph d="M354 -94l834 1667h117l-834 -1667h-117zM66 1221v106h92q166 0 166 158v8h125v-969h-132v697h-251zM1108 256q0 72 37 134.5t106 94.5v11q-70 33 -106.5 94t-36.5 137q0 119 90 193.5t236 74.5q147 0 235 -74.5t88 -193.5q0 -74 -38 -137.5t-103 -93.5v-11 q141 -72 141 -231q0 -121 -89 -194.5t-234.5 -73.5t-235.5 74.5t-90 195.5zM1245 713q0 -78 52.5 -122t136.5 -44q86 0 135 46t49 120q0 78 -51 122t-133 44q-86 0 -137.5 -46t-51.5 -120zM1245 268q0 -78 52.5 -121t136.5 -43t134 46.5t50 117.5q0 78 -51 122t-133 44 q-86 0 -137.5 -46t-51.5 -120z" glyph-name="oneeighth" horiz-adv-x="1839" unicode="⅛"/><glyph d="M510 -94l833 1667h117l-833 -1667h-117zM389 508q-141 0 -227 84t-82 221h135q-2 -90 47 -139t127 -49t129 47t51 119q0 82 -54 126t-140 44h-68v122h62q86 0 133 44t47 114q0 72 -45 110t-113 38q-82 0 -128 -51.5t-44 -137.5h-135q-4 131 77 218t226 87 q131 0 217 -70.5t86 -191.5q0 -145 -141 -211v-10q158 -59 158 -231q0 -125 -89.5 -204t-228.5 -79zM1264 256q0 72 36.5 134.5t106.5 94.5v11q-70 33 -106.5 94t-36.5 137q0 119 90 193.5t235 74.5q147 0 235.5 -74.5t88.5 -193.5q0 -74 -38 -137.5t-103 -93.5v-11 q141 -72 141 -231q0 -121 -89 -194.5t-234.5 -73.5t-235.5 74.5t-90 195.5zM1401 713q0 -78 52 -122t136 -44q86 0 135.5 46t49.5 120q0 78 -51.5 122t-133.5 44q-86 0 -137 -46t-51 -120zM1401 268q0 -78 52 -121t136 -43t134.5 46.5t50.5 117.5q0 78 -51.5 122t-133.5 44 q-86 0 -137 -46t-51 -120z" glyph-name="threeeighths" horiz-adv-x="1994" unicode="⅜"/><glyph d="M528 -94l834 1667h117l-834 -1667h-117zM86 817h135q-2 -80 47 -134t131 -54q84 0 136.5 56t52.5 150.5t-51.5 155t-137.5 60.5q-57 0 -103 -27t-63 -72h-127v541h574v-123h-442v-166l-5 -104l3 -2q61 68 186 67q133 0 219 -91t86 -232q0 -147 -91 -240.5t-237 -93.5 q-139 0 -227 85t-86 224zM1282 256q0 72 37 134.5t106 94.5v11q-70 33 -106.5 94t-36.5 137q0 119 90 193.5t236 74.5q147 0 235 -74.5t88 -193.5q0 -74 -38 -137.5t-103 -93.5v-11q141 -72 141 -231q0 -121 -89 -194.5t-234.5 -73.5t-235.5 74.5t-90 195.5zM1419 713 q0 -78 52.5 -122t136.5 -44q86 0 135 46t49 120q0 78 -51 122t-133 44q-86 0 -137.5 -46t-51.5 -120zM1419 268q0 -78 52.5 -121t136.5 -43t134 46.5t50 117.5q0 78 -51 122t-133 44q-86 0 -137.5 -46t-51.5 -120z" glyph-name="fiveeighths" horiz-adv-x="2013" unicode="⅝"/><glyph d="M1163 1573h117l-834 -1667h-116zM696 1493v-96q-172 -215 -262 -421t-131 -452h-131q84 481 363 846h-359v-123h-100v246h620zM1591 485q141 -72 142 -231q0 -121 -89.5 -194.5t-234.5 -73.5t-235.5 74.5t-90.5 195.5q0 72 37 134.5t107 94.5v11q-70 33 -107 94t-37 137 q0 119 90.5 193.5t235.5 74.5q147 0 235.5 -74.5t88.5 -193.5q0 -74 -38 -137.5t-104 -93.5v-11zM1221 713q0 -78 52 -122t136 -44q86 0 135 46t49 120q0 78 -51 122t-133 44q-86 0 -137 -46t-51 -120zM1409 104q84 0 134 46.5t50 117.5q0 78 -51 122t-133 44 q-86 0 -137 -46t-51 -120q0 -78 52 -121t136 -43z" glyph-name="seveneighths" horiz-adv-x="1814" unicode="⅞"/><glyph d="M1536 477h-1278l346 -477h-121l-395 528l395 531h121l-346 -479h1278v-103z" glyph-name="arrowleft" horiz-adv-x="1734" unicode="←"/><glyph d="M1169 629l-413 362v-882h413v-103h-923v103h411v882l-411 -362v131l459 403l464 -403v-131z" glyph-name="arrowup" horiz-adv-x="1415" unicode="↑"/><glyph d="M199 477v103h1278l-347 479h121l396 -531l-396 -528h-121l347 477h-1278z" glyph-name="arrowright" horiz-adv-x="1775" unicode="→"/><glyph d="M1169 956h-413v-882l413 362v-131l-464 -403l-459 403v131l411 -362v882h-411v103h923v-103z" glyph-name="arrowdown" horiz-adv-x="1415" unicode="↓"/><glyph d="M207 715l397 477h119l-344 -426h1458l-342 426h117l399 -477l-399 -473h-117l342 424h-1458l344 -424h-119z" glyph-name="arrowboth" horiz-adv-x="2217" unicode="↔"/><glyph d="M229 227v140l531 -473v1480l-531 -471v137l580 516l575 -516v-137l-528 471v-1480l528 473v-140l-575 -516z" glyph-name="arrowupdn" horiz-adv-x="1617" unicode="↕"/><glyph d="M1192 0l-854 889v-737h-98v905h872v-107h-709l857 -880z" glyph-name="uni2196" horiz-adv-x="1388" unicode="↖"/><glyph d="M258 0l-68 70l865 886h-713v103h872v-903h-94v735z" glyph-name="uni2197" horiz-adv-x="1458" unicode="↗"/><glyph d="M279 -4v108h706l-856 889l68 66l860 -887l2 735h98l-2 -907z" glyph-name="uni2198" horiz-adv-x="1396" unicode="↘"/><glyph d="M240 0v907h98v-735l854 887l72 -70l-854 -885h708v-104h-878z" glyph-name="uni2199" horiz-adv-x="1392" unicode="↙"/><glyph d="M1763 1020q0 -201 -125 -318.5t-364 -117.5h-735v-254l-334 303l334 305v-254h735q176 0 281.5 86t105.5 250q0 152 -99.5 243t-267.5 91h-26v96h26q207 0 338 -120t131 -310z" glyph-name="uni21A9" horiz-adv-x="2017" unicode="↩"/><glyph d="M256 1020q0 190 130 310t339 120h27v-96h-27q-170 0 -266.5 -91.5t-96.5 -242.5q0 -166 102.5 -251t280.5 -85h736v254l334 -305l-334 -303v254h-736q-240 0 -364.5 117.5t-124.5 318.5z" glyph-name="uni21AA" horiz-adv-x="2017" unicode="↪"/><glyph d="M1350 1493h100v-909h-856v-254l-336 303l336 305v-254h756v809z" glyph-name="uni21B2" horiz-adv-x="1703" unicode="↲"/><glyph d="M1450 633l-338 -303v254h-854v909h98v-809h756v254z" glyph-name="uni21B3" horiz-adv-x="1703" unicode="↳"/><glyph d="M848 -25q-291 0 -485.5 193.5t-194.5 474.5q0 190 96 356t260 265l56 -88q-305 -184 -306 -533q0 -242 164 -402.5t408 -160.5q242 0 401.5 159.5t159.5 391.5q0 182 -81 297.5t-392 392.5l-6 -4l10 -146v-315h-102v637h618v-109h-309l-137 11l-2 -6q324 -272 419 -411.5 t95 -346.5q0 -268 -192.5 -462t-479.5 -194z" glyph-name="uni21BA" horiz-adv-x="1685" unicode="↺"/><glyph d="M838 -25q-285 0 -477.5 192.5t-192.5 463.5q0 211 96 350t414 408v6l-141 -11h-312v109h625v-637h-109v315l11 146l-7 4q-311 -279 -391 -394.5t-80 -295.5q0 -229 162 -390t402 -161q244 0 406.5 160.5t162.5 402.5q0 178 -81 313.5t-222 219.5l57 88 q160 -92 259.5 -261t99.5 -360q0 -281 -195.5 -474.5t-486.5 -193.5z" glyph-name="uni21BB" horiz-adv-x="1685" unicode="↻"/><glyph d="M1298 1280q174 -207 175 -532q0 -344 -189.5 -556t-499 -212t-498 213t-188.5 552.5t189.5 552.5t496.5 213q293 0 484 -194l4 4zM784 1386q-248 0 -396 -174t-148 -464q0 -236 102 -402l834 873q-152 167 -392 167zM784 109q250 0 398.5 174t148.5 462q0 209 -84 371 l-829 -866q145 -141 366 -141z" glyph-name="emptyset" horiz-adv-x="1603" unicode="∅"/><glyph d="M1231 1493v-109h-213v-1384h-123v1384h-320v-1384h-124v1384h-220v109h1000z" glyph-name="product" horiz-adv-x="1460" unicode="∏"/><glyph d="M109 -330v76l520 834v12l-520 825v76h974v-107l-524 -2l-307 11v-11l514 -796l-514 -809v-12l307 12h524v-109h-974z" glyph-name="summation" horiz-adv-x="1179" unicode="∑"/><glyph d="M190 678h963v-143h-963v143z" glyph-name="minus" horiz-adv-x="1335" unicode="−"/><glyph d="M1143 1493h137l-594 -1616h-188l-289 776h-119v97h211l96 -246l189 -529h12l178 519z" glyph-name="radical" horiz-adv-x="1404" unicode="√"/><glyph d="M487 160q-166 0 -264 114.5t-98 284.5q0 168 98.5 286t261.5 118q78 0 142.5 -26t124 -83t89 -94t87.5 -117q121 164 186 219q117 100 258 101q164 0 260.5 -119t96.5 -285q0 -162 -96.5 -280.5t-260.5 -118.5q-63 0 -121.5 20.5t-97.5 46t-87 77.5t-70.5 82t-67.5 93 q-51 -74 -86 -117t-92.5 -97t-122 -79.5t-140.5 -25.5zM483 256q90 0 173 64.5t208 238.5q-125 174 -205.5 238.5t-175.5 64.5q-113 0 -186.5 -84t-73.5 -219t74.5 -219t185.5 -84zM1372 256q113 0 187.5 83t74.5 220q0 135 -75.5 219t-186.5 84q-96 0 -176 -65.5 t-203 -237.5q127 -176 205 -239.5t174 -63.5z" glyph-name="infinity" horiz-adv-x="1855" unicode="∞"/><glyph d="M610 1542h283v-117h-275v-1581q0 -119 -122 -118h-283v114h274v1579q0 123 123 123z" glyph-name="integral" horiz-adv-x="1120" unicode="∫"/><glyph d="M217 715q-10 133 38 185t116 52q55 0 158.5 -48t148.5 -48q94 0 86 127h86q10 -135 -43 -187.5t-129 -52.5q-66 0 -169 46.5t-136 46.5q-86 0 -70 -121h-86zM217 315q-10 133 39 186.5t117 53.5q55 0 157.5 -48t147.5 -48q94 0 86 127h86q10 -137 -43 -191.5t-129 -54.5 q-66 0 -169 49t-136 49q-39 0 -58.5 -33.5t-11.5 -89.5h-86z" glyph-name="approxequal" horiz-adv-x="1079" unicode="≈"/><glyph d="M1040 752h-278l-150 -289h428v-133h-497l-129 -250h-152l129 250h-201v133h271l151 289h-422v137h492l139 266h150l-137 -266h206v-137z" glyph-name="notequal" horiz-adv-x="1228" unicode="≠"/><glyph d="M958 256l-772 412v108l772 414v-170l-378 -180l-269 -115v-12l262 -109l385 -176v-172zM958 0h-772v109h772v-109z" glyph-name="lessequal" horiz-adv-x="1153" unicode="≤"/><glyph d="M195 256v172l383 176l264 109v12l-271 115l-376 180v170l772 -414v-108zM195 0v109h772v-109h-772z" glyph-name="greaterequal" horiz-adv-x="1153" unicode="≥"/><glyph d="M233 1493h1393v-1491h-1393v1491z" glyph-name="filledbox" horiz-adv-x="1859" unicode="■"/><glyph d="M256 1493h1393v-1493h-1393v1493zM360 1386v-1280h1180v1280h-1180z" glyph-name="H22073" horiz-adv-x="1900" unicode="□"/><glyph d="M176 0l891 1509l895 -1509h-1786z" glyph-name="triagup" horiz-adv-x="2138" unicode="▲"/><glyph d="M176 0l893 1511l899 -1511h-1792zM358 109h1424l-713 1200z" glyph-name="uni25B3" horiz-adv-x="2142" unicode="△"/><glyph d="M2013 -20q-276 0 -438 205.5t-162 547.5q0 197 57.5 349.5t156.5 244.5t224 139t271 47q248 0 414.5 -126.5t203.5 -335.5h-319q-74 176 -301 176q-186 0 -281.5 -128t-95.5 -358q0 -238 96 -359.5t264 -121.5q137 0 223.5 67.5t106.5 188.5h-332v293h664v-809h-228 l-32 244h-72q-35 -129 -148.5 -196.5t-271.5 -67.5zM3041 1180q-70 0 -116 47t-46 121q0 72 46.5 118.5t115.5 46.5q72 0 114 -47t42 -118q0 -76 -42 -122t-114 -46zM3447 1180q-70 0 -113 47t-43 121q0 72 44 118.5t112 46.5q74 0 120 -47t46 -118q0 -74 -45 -121t-121 -47 zM78 0v1493h555q324 0 506 -186.5t182 -556.5q0 -369 -183.5 -559.5t-504.5 -190.5h-555zM3787 1171v259h-78v63h242v-63h-91v-259h-73zM3992 1171v322h129l34 -260l47 260h125v-322h-81v277l-35 -277h-107l-43 277v-277h-69zM348 170q55 55 105.5 80.5t126.5 25.5h53 q27 0 53.5 3.5t89 28t106.5 68.5t80.5 140t36.5 227q0 127 -33.5 221.5t-77.5 140.5t-101.5 73.5t-91 33t-62.5 5.5h-53q-57 0 -105.5 20t-66 34.5t-60.5 55.5l-53 -61q2 -4 14.5 -17.5t15.5 -16.5t14 -16.5t14 -19.5t11.5 -19.5t10.5 -22.5t8 -24.5t7 -29t3 -31.5t2 -39 v-565q0 -33 -5 -62.5t-9 -47t-18.5 -41t-19.5 -32t-24.5 -32t-23.5 -27.5zM2933 0v1006h289l14 -119h55q25 76 101.5 115.5t183.5 39.5v-301q-338 33 -338 -303v-438h-305z" glyph-name="lozenge" horiz-adv-x="4403" unicode="◊"/><glyph d="M878.5 -20q-315.5 0 -534.5 215t-219 553q0 334 219 548.5t535 214.5q313 0 533 -215t220 -548q0 -338 -219 -553t-534.5 -215zM879 61q272 0 466.5 194t194.5 493q0 297 -194.5 489.5t-466.5 192.5q-270 0 -465 -193t-195 -489q0 -299 195 -493t465 -194z" glyph-name="circle" horiz-adv-x="1757" unicode="○"/><glyph d="M930 -20q-322 0 -537 220t-215 550q0 326 215 543.5t537 217.5q319 0 531 -218t212 -543q0 -330 -212 -550t-531 -220z" glyph-name="H18533" horiz-adv-x="1851" unicode="●"/><glyph d="M929.5 1509q327.5 0 540.5 -214t213 -554q0 -344 -213 -558t-540.5 -214t-540.5 214t-213 558q0 340 213 554t540.5 214zM1589 741q0 291 -174 479.5t-442 204.5v-643l557 -344q59 137 59 303zM885 1425q-266 -16 -441.5 -204.5t-175.5 -479.5q0 -166 60 -301l557 342 v643zM371 356q82 -135 216 -215t298 -88v621zM973 53q164 8 299 88t217 215l-516 318v-621z" glyph-name="uni262E" horiz-adv-x="1859" unicode="☮"/><glyph d="M176 748q0 330 220 546.5t536 216.5q317 0 538.5 -217t221.5 -546q0 -334 -220.5 -551t-539.5 -217q-315 0 -535.5 217t-220.5 551zM268 748q0 -279 174 -469q72 111 205 175t285 64q158 0 292 -65.5t203 -173.5q174 203 175 469q0 291 -197 485t-471.5 194t-470 -194 t-195.5 -485zM670 895q0 106 28.5 160.5t75.5 54.5q102 0 103 -215q0 -217 -103 -217q-51 0 -77.5 59.5t-26.5 157.5zM997 895q0 106 29 160.5t76 54.5q102 0 102 -215q0 -217 -102 -217q-51 0 -78 60.5t-27 156.5zM510 219q190 -156 424 -156q236 0 426 154 q-55 96 -172 154.5t-254 58.5q-135 0 -251 -57.5t-173 -153.5z" glyph-name="uni2639" horiz-adv-x="1867" unicode="☹"/><glyph d="M932 1511q317 0 538.5 -217t221.5 -546q0 -334 -220.5 -551t-539.5 -217q-315 0 -535.5 217t-220.5 551q0 330 220.5 546.5t535.5 216.5zM934 63q281 0 474.5 198t193.5 487q0 291 -197 485t-471.5 194t-470 -194.5t-195.5 -484.5q0 -293 196 -489t470 -196zM774 678 q-51 0 -77.5 59.5t-26.5 157.5q0 106 28.5 160.5t75.5 54.5q102 0 103 -215q-1 -217 -103 -217zM1102 678q-51 0 -78 60.5t-27 156.5q0 106 29 160.5t76 54.5q102 0 102 -215q0 -217 -102 -217zM1264 670h223v-35h-64q-29 -174 -165 -281.5t-326 -107.5q-188 0 -323.5 107.5 t-164.5 281.5h-55v35h223v-35h-73q25 -135 134 -219t261 -84q154 0 263.5 84t133.5 219h-67v35z" glyph-name="smileface" horiz-adv-x="1867" unicode="☺"/><glyph d="M240 424l71 326l-71 325h102l141 -221l430 25l-202 565h184l295 -488q18 -29 38.5 -40t59.5 -13l121 8q123 8 223.5 -43t100.5 -118q0 -72 -99.5 -122t-224.5 -42l-121 8q-41 0 -60.5 -10.5t-37.5 -38.5l-295 -492h-184l202 565l-430 29l-141 -223h-102z" glyph-name="uni2708" horiz-adv-x="1972" unicode="✈"/><glyph d="M1548 1118l80 -86l-844 -850l-417 475l82 76l335 -387z" glyph-name="uni2713" horiz-adv-x="1994" unicode="✓"/><glyph d="M2292 1452l207 -324q-539 -301 -921 -598t-732 -657q-291 408 -707 737l223 254q303 -240 517 -569q289 348 629 620.5t784 536.5z" glyph-name="uni2714" horiz-adv-x="2637" unicode="✔"/><glyph d="M922 -18q-336 0 -564.5 227t-228.5 561q0 332 228.5 559t564.5 227q332 0 559 -227t227 -559q0 -334 -227 -561t-559 -227zM907 324h127v847h-125v-10q0 -147 -141 -147h-84v-99h223v-591z" glyph-name="uni2776" horiz-adv-x="1837" unicode="❶"/><glyph d="M922 -18q-338 0 -565.5 228t-227.5 562q0 332 227.5 558t565.5 226q334 0 561 -226t227 -558q0 -334 -227 -562t-561 -228zM666 324h522v114h-242l-139 -6q16 55 81.5 114.5t130 104.5t118 120t53.5 165q0 109 -70.5 177.5t-193.5 68.5t-201 -72t-78 -188l125 -11 q-2 72 40 117t108 45q63 0 101 -39t38 -100.5t-41 -114.5t-98.5 -95t-114.5 -89t-98 -120t-41 -163v-28z" glyph-name="uni2777" horiz-adv-x="1839" unicode="❷"/><glyph d="M922 -18q-338 0 -565.5 228t-227.5 562q0 332 227.5 558t565.5 226q334 0 561 -226t227 -558q0 -334 -227 -562t-561 -228zM917.5 311q124.5 0 202.5 70t78 178q0 152 -141 205v6q127 53 127 182q0 106 -75 169t-191 63q-123 0 -200 -75t-71 -191h129q-2 70 35 112.5 t107 42.5q59 0 96 -33.5t37 -93.5q0 -57 -40 -94t-114 -37h-51v-110h61q70 0 114 -38t44 -104q0 -61 -41 -100t-106.5 -39t-105.5 42t-38 114h-131q-2 -123 74 -196t200.5 -73z" glyph-name="uni2778" horiz-adv-x="1839" unicode="❸"/><glyph d="M922 -18q-336 0 -564.5 228t-228.5 562q0 332 228.5 558t564.5 226q334 0 561 -227t227 -557q0 -334 -227 -562t-561 -228zM973 324h125v186h98v111h-98v550h-201l-311 -555v-106h387v-186zM725 621l248 442v-442h-248z" glyph-name="uni2779" horiz-adv-x="1839" unicode="❹"/><glyph d="M924 -18q-338 0 -566.5 228t-228.5 562q0 332 228.5 558t566.5 226q334 0 562 -226t228 -558q0 -334 -228 -562t-562 -228zM936 311q129 0 210 82t81 209t-75 207t-194 80q-111 0 -159 -62l-4 7l4 88v137h383v112h-508v-475h121q14 35 55 57.5t86 22.5q72 0 115 -50 t43 -128t-43 -126t-113 -48q-74 0 -114 47t-38 113h-131q-2 -121 77 -197t204 -76z" glyph-name="uni277A" horiz-adv-x="1843" unicode="❺"/><glyph d="M920 -16q-336 0 -563.5 228t-227.5 562q0 332 227.5 557t563.5 225q334 0 561 -226t227 -556q0 -334 -227 -562t-561 -228zM930 311q127 0 208 81t81 208q0 125 -72 204t-189 79q-55 0 -110 -27t-84 -84h-6q0 299 180 299q53 0 91 -29.5t46 -80.5h127 q-10 100 -79.5 161.5t-180.5 61.5q-156 0 -234.5 -123t-78.5 -326q0 -197 75.5 -310.5t225.5 -113.5zM934 424q-72 0 -114 51t-42 125q0 70 41 121t115 51q70 0 111.5 -47t41.5 -125t-41.5 -127t-111.5 -49z" glyph-name="uni277B" horiz-adv-x="1837" unicode="❻"/><glyph d="M922 -18q-338 0 -565.5 228t-227.5 562q0 332 227.5 558t565.5 226q334 0 561 -226t227 -558q0 -334 -227 -562t-561 -228zM758 324h133q74 420 332 757v90h-549v-256h90v144h299q-239 -327 -305 -735z" glyph-name="uni277C" horiz-adv-x="1839" unicode="❼"/><glyph d="M922 -18q-338 0 -565.5 228t-227.5 562q0 332 227.5 558t565.5 226q334 0 561 -226t227 -558q0 -334 -227 -562t-561 -228zM920 311q129 0 208.5 64.5t79.5 171.5q0 63 -33.5 116.5t-89.5 81.5v9q123 57 123 196q0 102 -77.5 168t-210.5 66q-129 0 -208 -64.5t-79 -169.5 q0 -141 123 -196v-9q-57 -27 -90 -81t-33 -117q0 -104 78 -170t209 -66zM920 801q-70 0 -114 36.5t-44 98t43 99.5t115 38q70 0 113.5 -38t43.5 -99q0 -59 -42.5 -97t-114.5 -38zM920 424q-68 0 -113 37t-45 100q0 59 43 98t115 39q70 0 113.5 -37.5t43.5 -99t-42.5 -99.5 t-114.5 -38z" glyph-name="uni277D" horiz-adv-x="1839" unicode="❽"/><glyph d="M922 -18q-336 0 -564.5 228t-228.5 560t228.5 559t564.5 227q334 0 561 -227t227 -559t-227 -560t-561 -228zM918 311q156 0 233.5 122t77.5 325q0 197 -75 311.5t-224 114.5q-129 0 -210 -80t-81 -207t72.5 -207t187.5 -80q63 0 117.5 32t79.5 81h6q0 -299 -180 -299 q-53 0 -92 28.5t-48 82.5h-129q10 -100 81 -162t184 -62zM926 723q-70 0 -113 47t-43 127q0 76 44 124t112 48q72 0 114.5 -50t42.5 -122t-41.5 -123t-115.5 -51z" glyph-name="uni277E" horiz-adv-x="1839" unicode="❾"/><glyph d="M922 -18q-336 0 -564.5 227t-228.5 561q0 332 228.5 559t564.5 227q332 0 559 -227t227 -559q0 -334 -227 -561t-559 -227zM922 51q301 0 508.5 209t207.5 510t-207.5 509t-508.5 208q-305 0 -514 -208t-209 -509q0 -303 208 -511t515 -208zM907 324v591h-223v99h84 q141 0 141 147v10h125v-847h-127z" glyph-name="uni2780" horiz-adv-x="1837" unicode="➀"/><glyph d="M922 1556q334 0 561 -226t227 -558q0 -334 -227.5 -562t-560.5 -228q-338 0 -565.5 228t-227.5 562q0 332 227.5 558t565.5 226zM922 51q303 0 510.5 209t207.5 512q0 299 -207.5 507t-510.5 208q-305 0 -513 -207t-208 -508q0 -303 208 -512t513 -209zM1190 936 q0 -90 -53.5 -165t-118 -120t-130 -104.5t-81.5 -114.5l139 6h242v-114h-522v28q0 90 41 163t98 120t114.5 89t98.5 95t41 114.5t-38 100.5t-101 39q-66 0 -108 -45t-40 -117l-125 11q0 117 78 188.5t201 71.5t193.5 -68.5t70.5 -177.5z" glyph-name="uni2781" horiz-adv-x="1839" unicode="➁"/><glyph d="M922 -18q-338 0 -565.5 228t-227.5 562q0 332 227.5 558t565.5 226q334 0 561 -226t227 -558q0 -334 -227 -562t-561 -228zM922 51q303 0 510.5 209t207.5 512q0 299 -207.5 507t-510.5 208q-305 0 -513 -207t-208 -508q0 -303 208 -512t513 -209zM917.5 311 q-124.5 0 -200.5 73t-74 196h131q-2 -72 38 -114t105.5 -42t106.5 39t41 100q0 66 -44 104t-114 38h-61v110h51q74 0 114 37t40 94q0 59 -37 93t-96 34q-70 0 -107 -43t-35 -112h-129q-6 117 71 191.5t200 74.5q117 0 191.5 -62.5t74.5 -169.5q0 -129 -127 -182v-6 q141 -53 141 -205q0 -109 -78 -178.5t-202.5 -69.5z" glyph-name="uni2782" horiz-adv-x="1839" unicode="➂"/><glyph d="M129 772q0 332 228.5 558t564.5 226q334 0 561 -227t227 -557q0 -334 -227.5 -562t-560.5 -228q-336 0 -564.5 228t-228.5 562zM199 772q0 -303 208.5 -512t514.5 -209q303 0 509.5 209t206.5 512q0 301 -206.5 508t-509.5 207q-305 0 -514 -207t-209 -508zM586 510v106 l311 555h201v-550h98v-111h-98v-186h-125v186h-387zM725 621h248v442z" glyph-name="uni2783" horiz-adv-x="1839" unicode="➃"/><glyph d="M924 -18q-338 0 -566.5 228t-228.5 562q0 332 228.5 558t566.5 226q334 0 562 -226t228 -558q0 -334 -228 -562t-562 -228zM924 51q303 0 512 210t209 511t-209 509t-512 208q-307 0 -515 -208t-208 -509q0 -303 209 -512t514 -209zM936 311q-125 0 -204 76t-77 197h131 q-2 -66 38 -113t114 -47q70 0 113 48t43 126t-43 128t-115 50q-45 0 -86 -22.5t-55 -57.5h-121v475h508v-112h-383v-137l-4 -88l4 -7q49 61 159 62q119 0 194 -80t75 -207t-81 -209t-210 -82z" glyph-name="uni2784" horiz-adv-x="1843" unicode="➄"/><glyph d="M129 774q0 332 227.5 557t563.5 225q334 0 561 -226t227 -556q0 -334 -227.5 -562t-560.5 -228q-336 0 -563.5 228t-227.5 562zM199 774q0 -303 207.5 -511t513.5 -208q303 0 510.5 208t207.5 511q0 299 -207.5 506t-510.5 207q-305 0 -513 -206t-208 -507zM629 735 q0 203 78.5 326t234.5 123q111 0 180.5 -61.5t79.5 -161.5h-127q-8 51 -46 80.5t-91 29.5q-180 0 -180 -299h6q29 57 84 84t110 27q117 0 189 -79t72 -204q0 -127 -81 -208t-208 -81q-150 0 -225.5 113.5t-75.5 310.5zM778 600q0 -74 42 -125t114 -51q70 0 111.5 49 t41.5 127t-41.5 125t-111.5 47q-74 0 -115 -51t-41 -121z" glyph-name="uni2785" horiz-adv-x="1837" unicode="➅"/><glyph d="M922 -18q-338 0 -565.5 228t-227.5 562q0 332 227.5 558t565.5 226q334 0 561 -226t227 -558q0 -334 -227 -562t-561 -228zM922 51q303 0 509.5 209t206.5 512q0 301 -206.5 508t-509.5 207q-305 0 -514 -207t-209 -508q0 -303 209 -512t514 -209zM758 324 q66 408 305 735h-299v-144h-90v256h549v-90q-258 -338 -332 -757h-133z" glyph-name="uni2786" horiz-adv-x="1839" unicode="➆"/><glyph d="M922 -18q-338 0 -565.5 228t-227.5 562q0 332 227.5 558t565.5 226q334 0 561 -226t227 -558q0 -334 -227 -562t-561 -228zM922 51q303 0 510.5 209t207.5 512q0 299 -207.5 507t-510.5 208q-305 0 -514 -207t-209 -508q0 -303 209 -512t514 -209zM920 311 q-131 0 -209 65.5t-78 170.5q0 63 32.5 117.5t90.5 80.5v9q-123 55 -123 196q0 104 79 169t208 65q133 0 210.5 -65.5t77.5 -168.5q0 -139 -123 -196v-9q55 -29 89 -82t34 -116q0 -106 -79.5 -171t-208.5 -65zM920 801q72 0 114.5 38t42.5 97q0 61 -44 99t-113 38 q-72 0 -115 -38t-43 -99.5t44 -98t114 -36.5zM920 424q72 0 114.5 38t42.5 99.5t-44 99t-113 37.5q-72 0 -115 -38.5t-43 -98.5q0 -63 45 -100t113 -37z" glyph-name="uni2787" horiz-adv-x="1839" unicode="➇"/><glyph d="M922 -18q-336 0 -564.5 228t-228.5 560t228.5 559t564.5 227q334 0 561 -227t227 -559t-227 -560t-561 -228zM922 51q301 0 508.5 209t207.5 510t-206.5 509t-509.5 208q-305 0 -514 -208t-209 -509t209 -510t514 -209zM918 311q-113 0 -183.5 61.5t-81.5 162.5h129 q8 -53 47 -82t93 -29q180 0 180 299h-6q-25 -49 -79 -81t-118 -32q-115 0 -187.5 80t-72.5 207t81 207t210 80q150 0 224.5 -115t74.5 -311q0 -203 -77.5 -325t-233.5 -122zM926 723q74 0 115.5 51t41.5 123t-43 122t-114 50q-68 0 -112 -48t-44 -124q0 -80 43 -127t113 -47 z" glyph-name="uni2788" horiz-adv-x="1839" unicode="➈"/><glyph d="M274 117l-149 -111v1487h690l-125 -160h-416v-510h347q29 291 241.5 488.5t503.5 197.5q182 0 338 -84t262 -231l-129 -96q-78 113 -205 184.5t-270 71.5q-231 0 -408.5 -173t-177.5 -433q0 -262 176 -435.5t410 -173.5q145 0 272 72t203 182l129 -94 q-106 -150 -263 -233.5t-337 -83.5q-287 0 -501 195.5t-244 490.5h-347v-551zM1092 748q0 -119 77.5 -202t190.5 -83q68 0 127 34.5t96 90.5l127 -94q-59 -88 -152.5 -137.5t-193.5 -49.5q-178 0 -304 129t-126 312q0 180 126 308t304 128q104 0 195.5 -49.5t150.5 -135.5 l-127 -94q-35 53 -95.5 88t-127.5 35q-113 0 -190.5 -81.5t-77.5 -198.5z" glyph-name="uniECE0" horiz-adv-x="2152" unicode=""/><glyph d="M252 739q0 342 205 553t536 211q49 0 78 -4v-192q-37 6 -76 6q-252 0 -404.5 -158t-152.5 -416q0 -256 152.5 -414.5t404.5 -158.5q25 0 76 6v-192q-37 -4 -78 -5q-334 0 -537.5 211t-203.5 553zM1532 750q0 342 197.5 547.5t531.5 205.5q53 0 90 -4v-192q-33 6 -82 6 q-141 0 -257 -46t-195.5 -157t-85.5 -272h464v-176h-464q6 -164 86.5 -275t195.5 -157t256 -46q41 0 82 6v-192q-41 -4 -90 -4q-334 0 -531.5 206t-197.5 550z" glyph-name="uniEFCC" horiz-adv-x="2473" unicode=""/><glyph d="M879 1294q-37 -47 -93.5 -76.5t-93.5 -37.5l-37 -6l-2 20q-2 20 -1 39.5t6.5 48.5t19.5 61.5t39 63.5q47 63 107.5 98t97.5 37l34 2q-2 -10 2.5 -38.5t-16 -93.5t-63.5 -118zM432 0q-90 0 -181 109.5t-149.5 274.5t-58.5 318q0 213 109.5 340t253.5 127q61 0 143 -34.5 t115 -34.5q31 0 115.5 37t162.5 37q55 0 106.5 -16.5t83 -39t55 -45t34.5 -39.5l10 -16q-6 -4 -17.5 -11.5t-40 -33t-50 -56t-39 -82t-17.5 -108.5q0 -63 20.5 -119.5t50 -91.5t60.5 -59.5t51 -34.5l21 -10q-4 -16 -14.5 -44t-42 -98.5t-68.5 -125t-94.5 -98.5t-116.5 -44 q-41 0 -120 29.5t-128 29.5q-51 0 -135 -30.5t-119 -30.5z" glyph-name="uniF8FF" horiz-adv-x="1312" unicode=""/><glyph d="M500 1606l-45 67l338 254l65 -115zM571 385q0 -217 -106.5 -309t-269.5 -92q-111 0 -162 16v129q51 -12 166 -12q240 0 239 268v1108h133v-1108z" glyph-name="J.aalt" horiz-adv-x="786"/><glyph d="M799 -20q-317 0 -508 209.5t-191 553.5q0 346 193.5 557t507.5 211q256 0 433 -139t210 -366h-146q-33 176 -169 276t-330 100q-256 0 -407.5 -173t-151.5 -461.5t150.5 -465t408.5 -176.5q233 0 383.5 144.5t156.5 384.5h-469v137h613v-86q0 -317 -189.5 -511.5 t-494.5 -194.5z" glyph-name="G.aalt" horiz-adv-x="1583"/><glyph d="M1073 1882q0 -125 -76.5 -200.5t-203.5 -75.5q-125 0 -202 75.5t-77 200.5h96q0 -86 50.5 -138t132 -52t132 52t50.5 138h98zM799 -20q-317 0 -508 209.5t-191 553.5q0 346 193.5 557t507.5 211q256 0 433 -139t210 -366h-146q-33 176 -169 276t-330 100 q-256 0 -407.5 -173t-151.5 -461.5t150.5 -465t408.5 -176.5q233 0 383.5 144.5t156.5 384.5h-469v137h613v-86q0 -317 -189.5 -511.5t-494.5 -194.5z" glyph-name="Gbreve.aalt" horiz-adv-x="1583"/><glyph d="M799 -20q-317 0 -508 209.5t-191 553.5q0 346 193.5 557t507.5 211q256 0 433 -139t210 -366h-146q-33 176 -169 276t-330 100q-256 0 -407.5 -173t-151.5 -461.5t150.5 -465t408.5 -176.5q233 0 383.5 144.5t156.5 384.5h-469v137h613v-86q0 -317 -189.5 -511.5 t-494.5 -194.5zM719 -438v45q86 0 86 84v4h-86v176h147v-162q0 -147 -147 -147z" glyph-name="Gcommaaccent.aalt" horiz-adv-x="1583"/><glyph d="M725 1647v225h137v-225h-137zM799 -20q-317 0 -508 209.5t-191 553.5q0 346 193.5 557t507.5 211q256 0 433 -139t210 -366h-146q-33 176 -169 276t-330 100q-256 0 -407.5 -173t-151.5 -461.5t150.5 -465t408.5 -176.5q233 0 383.5 144.5t156.5 384.5h-469v137h613v-86 q0 -317 -189.5 -511.5t-494.5 -194.5z" glyph-name="Gdotaccent.aalt" horiz-adv-x="1583"/><glyph d="M225 0v1493h594q227 0 355.5 -120t128.5 -320q0 -154 -78 -259.5t-215 -152.5v-16q41 -14 71.5 -57.5t65.5 -129.5l178 -438h-151l-168 442q-43 111 -95.5 140.5t-150.5 29.5h-406v-612h-129zM354 729h469q172 0 255 89t83 235q0 156 -91 235.5t-247 79.5h-469v-639z" glyph-name="R.aalt" horiz-adv-x="1425"/><glyph d="M762 1606l-45 67l338 254l65 -115zM225 0v1493h594q227 0 355.5 -120t128.5 -320q0 -154 -78 -259.5t-215 -152.5v-16q41 -14 71.5 -57.5t65.5 -129.5l178 -438h-151l-168 442q-43 111 -95.5 140.5t-150.5 29.5h-406v-612h-129zM354 729h469q172 0 255 89t83 235 q0 156 -91 235.5t-247 79.5h-469v-639z" glyph-name="Racute.aalt" horiz-adv-x="1425"/><glyph d="M487 1870l70 61l205 -219l207 219l69 -61l-225 -246h-100zM225 0v1493h594q227 0 355.5 -120t128.5 -320q0 -154 -78 -259.5t-215 -152.5v-16q41 -14 71.5 -57.5t65.5 -129.5l178 -438h-151l-168 442q-43 111 -95.5 140.5t-150.5 29.5h-406v-612h-129zM354 729h469 q172 0 255 89t83 235q0 156 -91 235.5t-247 79.5h-469v-639z" glyph-name="Rcaron.aalt" horiz-adv-x="1425"/><glyph d="M225 0v1493h594q227 0 355.5 -120t128.5 -320q0 -154 -78 -259.5t-215 -152.5v-16q41 -14 71.5 -57.5t65.5 -129.5l178 -438h-151l-168 442q-43 111 -95.5 140.5t-150.5 29.5h-406v-612h-129zM354 729h469q172 0 255 89t83 235q0 156 -91 235.5t-247 79.5h-469v-639z M690 -438v45q86 0 86 84v4h-86v176h148v-162q-1 -147 -148 -147z" glyph-name="Rcommaaccent.aalt" horiz-adv-x="1425"/><glyph d="M195 1212v226h137v-226h-137zM197 0v1059h129v-1059h-129z" glyph-name="i.locl" horiz-adv-x="522"/><glyph d="M272 1171l-45 68l338 254l66 -115zM72 -350q-41 0 -90 8v119q27 -8 63 -8q80 0 122 45t42 120v1125h129v-1135q0 -131 -72.5 -202.5t-193.5 -71.5z" glyph-name="glyph470" horiz-adv-x="534"/><glyph d="M225 0v1092q0 203 123 311t340 108q182 0 305 -86t137 -225l-274 -350q170 -25 276.5 -138.5t106.5 -279.5q0 -197 -141.5 -314.5t-378.5 -117.5h-230v123h216q188 0 291.5 85t103.5 232q0 160 -121 240t-336 84l342 455q-18 78 -103 125t-200 47q-162 0 -245 -81 t-83 -227v-1083h-129z" glyph-name="glyph471" horiz-adv-x="1359"/><glyph d="M1077 1059v-1059h-131v199h-10q-41 -98 -144.5 -158.5t-230.5 -60.5q-205 0 -332 151.5t-127 397t129 398t338 152.5q131 0 228.5 -56t138.5 -153h10l8 189h123zM946 608q0 147 -104.5 247.5t-255.5 100.5q-147 0 -247.5 -105.5t-100.5 -322.5t100 -322.5t248 -105.5 q154 0 257 97.5t103 251.5v159z" glyph-name="a.salt" horiz-adv-x="1273"/><glyph d="M573 1204l-45 68l338 254l66 -115zM1077 1059v-1059h-131v199h-10q-41 -98 -144.5 -158.5t-230.5 -60.5q-205 0 -332 151.5t-127 397t129 398t338 152.5q131 0 228.5 -56t138.5 -153h10l8 189h123zM946 608q0 147 -104.5 247.5t-255.5 100.5q-147 0 -247.5 -105.5 t-100.5 -322.5t100 -322.5t248 -105.5q154 0 257 97.5t103 251.5v159z" glyph-name="aacute.salt" horiz-adv-x="1273"/><glyph d="M856 1481q0 -125 -77 -201t-204 -76q-125 0 -201.5 76t-76.5 201h96q0 -86 50.5 -138.5t132 -52.5t132 52.5t50.5 138.5h98zM1077 1059v-1059h-131v199h-10q-41 -98 -144.5 -158.5t-230.5 -60.5q-205 0 -332 151.5t-127 397t129 398t338 152.5q131 0 228.5 -56 t138.5 -153h10l8 189h123zM946 608q0 147 -104.5 247.5t-255.5 100.5q-147 0 -247.5 -105.5t-100.5 -322.5t100 -322.5t248 -105.5q154 0 257 97.5t103 251.5v159z" glyph-name="abreve.salt" horiz-adv-x="1273"/><glyph d="M303 1266l227 243h99l225 -241l-70 -64l-206 217l-209 -217zM1077 1059v-1059h-131v199h-10q-41 -98 -144.5 -158.5t-230.5 -60.5q-205 0 -332 151.5t-127 397t129 398t338 152.5q131 0 228.5 -56t138.5 -153h10l8 189h123zM946 608q0 147 -104.5 247.5t-255.5 100.5 q-147 0 -247.5 -105.5t-100.5 -322.5t100 -322.5t248 -105.5q154 0 257 97.5t103 251.5v159z" glyph-name="acircumflex.salt" horiz-adv-x="1273"/><glyph d="M319 1245v225h136v-225h-136zM696 1245v225h135v-225h-135zM1077 1059v-1059h-131v199h-10q-41 -98 -144.5 -158.5t-230.5 -60.5q-205 0 -332 151.5t-127 397t129 398t338 152.5q131 0 228.5 -56t138.5 -153h10l8 189h123zM946 608q0 147 -104.5 247.5t-255.5 100.5 q-147 0 -247.5 -105.5t-100.5 -322.5t100 -322.5t248 -105.5q154 0 257 97.5t103 251.5v159z" glyph-name="adieresis.salt" horiz-adv-x="1273"/><glyph d="M578 1204l-359 207l66 115l338 -254zM1077 1059v-1059h-131v199h-10q-41 -98 -144.5 -158.5t-230.5 -60.5q-205 0 -332 151.5t-127 397t129 398t338 152.5q131 0 228.5 -56t138.5 -153h10l8 189h123zM946 608q0 147 -104.5 247.5t-255.5 100.5q-147 0 -247.5 -105.5 t-100.5 -322.5t100 -322.5t248 -105.5q154 0 257 97.5t103 251.5v159z" glyph-name="agrave.salt" horiz-adv-x="1273"/><glyph d="M276 1229v92h598v-92h-598zM1077 1059v-1059h-131v199h-10q-41 -98 -144.5 -158.5t-230.5 -60.5q-205 0 -332 151.5t-127 397t129 398t338 152.5q131 0 228.5 -56t138.5 -153h10l8 189h123zM946 608q0 147 -104.5 247.5t-255.5 100.5q-147 0 -247.5 -105.5t-100.5 -322.5 t100 -322.5t248 -105.5q154 0 257 97.5t103 251.5v159z" glyph-name="amacron.salt" horiz-adv-x="1273"/><glyph d="M1044 -272q63 0 123 26v-90q-72 -27 -151 -22q-88 2 -142.5 49t-54.5 121q0 127 127 206v181h-10q-41 -98 -144.5 -158.5t-230.5 -60.5q-205 0 -332 151.5t-127 397t129 398t338 152.5q131 0 228.5 -56t138.5 -153h10l8 189h123v-1051l4 -8q-162 -55 -161 -174 q0 -47 33.5 -72.5t90.5 -25.5zM586 100q154 0 257 97.5t103 251.5v159q0 147 -104.5 247.5t-255.5 100.5q-147 0 -247.5 -105.5t-100.5 -322.5t100.5 -322.5t247.5 -105.5z" glyph-name="aogonek.salt" horiz-adv-x="1273"/><glyph d="M954 1059h123v-1059h-131v199h-10q-41 -98 -144.5 -158.5t-230.5 -60.5q-205 0 -332 151.5t-127 396.5q0 211 97.5 356.5t263.5 182.5q-80 59 -80 172q0 94 58.5 152.5t154.5 58.5t154.5 -58.5t58.5 -152.5q0 -125 -94 -180q164 -51 221 -189h10zM598 1372q-55 0 -90 -37 t-35 -96t35 -96t90 -37q53 0 87 37t34 96t-34 96t-87 37zM946 449v159q0 147 -104.5 247.5t-255.5 100.5q-147 0 -247.5 -105.5t-100.5 -322.5t100 -322.5t248 -105.5q154 0 257 97.5t103 251.5z" glyph-name="aring.salt" horiz-adv-x="1273"/><glyph d="M711 1212q-72 -4 -157 37t-120 39q-55 -2 -98 -63l-62 45q41 63 78 94t92 35q43 4 133.5 -38t131.5 -40q59 4 106 68l62 -50q-74 -123 -166 -127zM1077 1059v-1059h-131v199h-10q-41 -98 -144.5 -158.5t-230.5 -60.5q-205 0 -332 151.5t-127 397t129 398t338 152.5 q131 0 228.5 -56t138.5 -153h10l8 189h123zM946 608q0 147 -104.5 247.5t-255.5 100.5q-147 0 -247.5 -105.5t-100.5 -322.5t100 -322.5t248 -105.5q154 0 257 97.5t103 251.5v159z" glyph-name="atilde.salt" horiz-adv-x="1273"/><glyph d="M283 -63q6 -92 90 -144.5t221 -52.5q170 0 256 86t86 233v183h-12q-41 -100 -142.5 -162t-224.5 -62q-199 0 -327 148.5t-128 382.5q0 229 129 379.5t334 150.5q125 0 221.5 -57t137.5 -152h12l6 189h121v-993q0 -203 -126 -315.5t-343 -112.5q-190 0 -306 82.5 t-128 216.5h123zM580 139q152 0 254 98.5t102 254.5v114q0 150 -104.5 251t-249.5 101q-141 0 -241.5 -103t-100.5 -306t99.5 -306.5t240.5 -103.5z" glyph-name="g.aalt" horiz-adv-x="1259"/><glyph d="M846 1485q0 -125 -77 -201t-204 -76q-125 0 -201.5 76t-76.5 201h96q0 -86 50 -138.5t132 -52.5t132.5 52.5t50.5 138.5h98zM283 -63q6 -92 90 -144.5t221 -52.5q170 0 256 86t86 233v183h-12q-41 -100 -142.5 -162t-224.5 -62q-199 0 -327 148.5t-128 382.5 q0 229 129 379.5t334 150.5q125 0 221.5 -57t137.5 -152h12l6 189h121v-993q0 -203 -126 -315.5t-343 -112.5q-190 0 -306 82.5t-128 216.5h123zM580 139q152 0 254 98.5t102 254.5v114q0 150 -104.5 251t-249.5 101q-141 0 -241.5 -103t-100.5 -306t99.5 -306.5 t240.5 -103.5z" glyph-name="gbreve.aalt" horiz-adv-x="1259"/><glyph d="M639 1589v-45q-86 0 -86 -88v-39h86v-176h-147v201q0 147 147 147zM283 -63q6 -92 90 -144.5t221 -52.5q170 0 256 86t86 233v183h-12q-41 -100 -142.5 -162t-224.5 -62q-199 0 -327 148.5t-128 382.5q0 229 129 379.5t334 150.5q125 0 221.5 -57t137.5 -152h12l6 189 h121v-993q0 -203 -126 -315.5t-343 -112.5q-190 0 -306 82.5t-128 216.5h123zM580 139q152 0 254 98.5t102 254.5v114q0 150 -104.5 251t-249.5 101q-141 0 -241.5 -103t-100.5 -306t99.5 -306.5t240.5 -103.5z" glyph-name="gcommaaccent.aalt" horiz-adv-x="1259"/><glyph d="M498 1249v226h137v-226h-137zM283 -63q6 -92 90 -144.5t221 -52.5q170 0 256 86t86 233v183h-12q-41 -100 -142.5 -162t-224.5 -62q-199 0 -327 148.5t-128 382.5q0 229 129 379.5t334 150.5q125 0 221.5 -57t137.5 -152h12l6 189h121v-993q0 -203 -126 -315.5 t-343 -112.5q-190 0 -306 82.5t-128 216.5h123zM580 139q152 0 254 98.5t102 254.5v114q0 150 -104.5 251t-249.5 101q-141 0 -241.5 -103t-100.5 -306t99.5 -306.5t240.5 -103.5z" glyph-name="gdotaccent.aalt" horiz-adv-x="1259"/><glyph d="M113 303q0 158 114.5 242t313.5 84h305v88q0 256 -283 256q-131 0 -203.5 -60.5t-74.5 -162.5h-129q8 152 120.5 240.5t298.5 88.5q190 0 294 -96t104 -276v-707h-121l-6 180h-12q-39 -94 -132.5 -147t-220.5 -53q-170 0 -269 86.5t-99 236.5zM246 303 q0 -102 63.5 -155.5t177.5 -53.5q158 0 258.5 100.5t100.5 262.5v63h-303q-297 0 -297 -217z" glyph-name="a.ss02" horiz-adv-x="1153"/><glyph d="M571 1204l-45 68l338 254l66 -115zM113 303q0 158 114.5 242t313.5 84h305v88q0 256 -283 256q-131 0 -203.5 -60.5t-74.5 -162.5h-129q8 152 120.5 240.5t298.5 88.5q190 0 294 -96t104 -276v-707h-121l-6 180h-12q-39 -94 -132.5 -147t-220.5 -53q-170 0 -269 86.5 t-99 236.5zM246 303q0 -102 63.5 -155.5t177.5 -53.5q158 0 258.5 100.5t100.5 262.5v63h-303q-297 0 -297 -217z" glyph-name="aacute.ss02" horiz-adv-x="1153"/><glyph d="M854 1481q0 -125 -77 -201t-204 -76q-125 0 -201.5 76t-76.5 201h96q0 -86 50.5 -138.5t132 -52.5t132 52.5t50.5 138.5h98zM113 303q0 158 114.5 242t313.5 84h305v88q0 256 -283 256q-131 0 -203.5 -60.5t-74.5 -162.5h-129q8 152 120.5 240.5t298.5 88.5 q190 0 294 -96t104 -276v-707h-121l-6 180h-12q-39 -94 -132.5 -147t-220.5 -53q-170 0 -269 86.5t-99 236.5zM246 303q0 -102 63.5 -155.5t177.5 -53.5q158 0 258.5 100.5t100.5 262.5v63h-303q-297 0 -297 -217z" glyph-name="abreve.ss02" horiz-adv-x="1153"/><glyph d="M301 1266l227 243h99l225 -241l-70 -64l-207 217l-208 -217zM113 303q0 158 114.5 242t313.5 84h305v88q0 256 -283 256q-131 0 -203.5 -60.5t-74.5 -162.5h-129q8 152 120.5 240.5t298.5 88.5q190 0 294 -96t104 -276v-707h-121l-6 180h-12q-39 -94 -132.5 -147 t-220.5 -53q-170 0 -269 86.5t-99 236.5zM246 303q0 -102 63.5 -155.5t177.5 -53.5q158 0 258.5 100.5t100.5 262.5v63h-303q-297 0 -297 -217z" glyph-name="acircumflex.ss02" horiz-adv-x="1153"/><glyph d="M317 1245v225h136v-225h-136zM694 1245v225h135v-225h-135zM113 303q0 158 114.5 242t313.5 84h305v88q0 256 -283 256q-131 0 -203.5 -60.5t-74.5 -162.5h-129q8 152 120.5 240.5t298.5 88.5q190 0 294 -96t104 -276v-707h-121l-6 180h-12q-39 -94 -132.5 -147 t-220.5 -53q-170 0 -269 86.5t-99 236.5zM246 303q0 -102 63.5 -155.5t177.5 -53.5q158 0 258.5 100.5t100.5 262.5v63h-303q-297 0 -297 -217z" glyph-name="adieresis.ss02" horiz-adv-x="1153"/><glyph d="M575 1204l-358 207l66 115l338 -254zM113 303q0 158 114.5 242t313.5 84h305v88q0 256 -283 256q-131 0 -203.5 -60.5t-74.5 -162.5h-129q8 152 120.5 240.5t298.5 88.5q190 0 294 -96t104 -276v-707h-121l-6 180h-12q-39 -94 -132.5 -147t-220.5 -53q-170 0 -269 86.5 t-99 236.5zM246 303q0 -102 63.5 -155.5t177.5 -53.5q158 0 258.5 100.5t100.5 262.5v63h-303q-297 0 -297 -217z" glyph-name="agrave.ss02" horiz-adv-x="1153"/><glyph d="M274 1229v92h598v-92h-598zM113 303q0 158 114.5 242t313.5 84h305v88q0 256 -283 256q-131 0 -203.5 -60.5t-74.5 -162.5h-129q8 152 120.5 240.5t298.5 88.5q190 0 294 -96t104 -276v-707h-121l-6 180h-12q-39 -94 -132.5 -147t-220.5 -53q-170 0 -269 86.5t-99 236.5z M246 303q0 -102 63.5 -155.5t177.5 -53.5q158 0 258.5 100.5t100.5 262.5v63h-303q-297 0 -297 -217z" glyph-name="amacron.ss02" horiz-adv-x="1153"/><glyph d="M936 -272q63 0 123 26v-90q-72 -27 -152 -22q-88 2 -142 49t-54 121q0 135 141 215l-6 153h-12q-39 -94 -132.5 -147t-220.5 -53q-170 0 -269 87t-99 236q0 158 114.5 242t313.5 84h305v88q0 256 -283 256q-131 0 -203.5 -60.5t-74.5 -162.5h-129q8 152 120.5 240.5 t298.5 88.5q190 0 294 -96t104 -276v-707q-162 -55 -162 -174q0 -47 34 -72.5t91 -25.5zM846 457v63h-303q-297 0 -297 -217q0 -102 63.5 -155.5t177.5 -53.5q158 0 258.5 100.5t100.5 262.5z" glyph-name="aogonek.ss02" horiz-adv-x="1153"/><glyph d="M715 1063q258 -63 258 -356v-707h-121l-6 180h-12q-39 -94 -132.5 -147t-220.5 -53q-170 0 -269 87t-99 236q0 158 114.5 242t313.5 84h305v88q0 256 -283 256q-131 0 -203.5 -60.5t-74.5 -162.5h-129q6 119 78.5 200.5t199.5 112.5q-74 57 -74 166q0 94 58.5 152.5 t155 58.5t154.5 -58.5t58 -152.5q1 -107 -71 -166zM575 1362q-55 0 -89.5 -37t-34.5 -96.5t34.5 -96t89.5 -36.5q53 0 87 36.5t34 96t-34 96.5t-87 37zM846 457v63h-303q-297 0 -297 -217q0 -102 63.5 -155.5t177.5 -53.5q158 0 258.5 100.5t100.5 262.5z" glyph-name="aring.ss02" horiz-adv-x="1153"/><glyph d="M709 1212q-72 -4 -157 37t-120 39q-55 -2 -98 -63l-62 45q41 63 78 94t92 35q43 4 133.5 -38t131.5 -40q59 4 106 68l61 -50q-73 -123 -165 -127zM113 303q0 158 114.5 242t313.5 84h305v88q0 256 -283 256q-131 0 -203.5 -60.5t-74.5 -162.5h-129q8 152 120.5 240.5 t298.5 88.5q190 0 294 -96t104 -276v-707h-121l-6 180h-12q-39 -94 -132.5 -147t-220.5 -53q-170 0 -269 86.5t-99 236.5zM246 303q0 -102 63.5 -155.5t177.5 -53.5q158 0 258.5 100.5t100.5 262.5v63h-303q-297 0 -297 -217z" glyph-name="atilde.ss02" horiz-adv-x="1153"/><glyph d="M3994 1536v-1878h-1293v1194h-452v-735h256v-117h-264q-123 0 -123 123v729h-461v-735h256v-117h-264q-123 0 -123 123v729h-217v113h217v286h131v-286h461v286h131v-286h575l6 -187h13q39 92 138 149.5t232 57.5q209 0 335 -139t126 -357q0 -223 -130 -366t-337 -143 q-127 0 -226 58t-138 159h-13v-426h1047v1650h-3445v-651h14q47 100 143.5 157.5t215.5 57.5q168 0 267 -111.5t99 -306.5v-567h-127v557q0 152 -72.5 230.5t-197.5 78.5q-152 0 -247 -111.5t-95 -291.5v-692h2073v-113h-2190v1878h3679zM2830 563v-160q0 -125 104.5 -214 t256.5 -89q164 0 257 109.5t93 279.5q0 172 -95 274.5t-251 102.5q-152 0 -258.5 -93t-106.5 -210z" glyph-name="h_t_t_p.dlig" horiz-adv-x="4308"/><glyph d="M332 0l-309 1059h151l168 -608l80 -322h12l232 930h161l244 -924h10l240 924h152l247 -930h13l231 930h162l244 -924h10l239 924h152l248 -930h12l231 930h162l244 -924h10l80 309l160 615h145l-303 -1059h-178l-234 926h-12l-219 -926h-188l-236 885l-231 -885h-178 l-234 926h-12l-219 -926h-189l-235 885l-232 -885h-178l-233 926h-13l-219 -926h-188z" glyph-name="w_w_w.dlig" horiz-adv-x="4085"/><glyph d="M283 -63q6 -92 90 -144.5t221 -52.5q170 0 256 86t86 233v183h-12q-41 -100 -142.5 -162t-224.5 -62q-199 0 -327 148.5t-128 382.5q0 229 129 379.5t334 150.5q125 0 221.5 -57t137.5 -152h12l6 189h121v-993q0 -203 -126 -315.5t-343 -112.5q-190 0 -306 82.5 t-128 216.5h123zM1542 -63q6 -92 90 -144.5t221 -52.5q170 0 256 86t86 233v183h-12q-41 -100 -142.5 -162t-223.5 -62q-199 0 -327 148.5t-128 382.5q0 229 129 379.5t334 150.5q125 0 221 -57t137 -152h12l7 189h120v-993q0 -203 -125.5 -315.5t-343.5 -112.5 q-190 0 -305.5 82.5t-128.5 216.5h123zM580 139q152 0 254 98.5t102 254.5v114q0 150 -104.5 251t-249.5 101q-141 0 -241.5 -103t-100.5 -306t99.5 -306.5t240.5 -103.5zM1839 139q152 0 254 98.5t102 254.5v114q0 150 -104 251t-250 101q-141 0 -241.5 -103t-100.5 -306 t99.5 -306.5t240.5 -103.5z" glyph-name="glyph503" horiz-adv-x="2519"/><glyph d="M641 -12q-219 0 -356.5 187t-137.5 568q0 377 136.5 564.5t355.5 187.5q217 0 353 -187.5t136 -564t-135 -566t-352 -189.5zM637 106q174 0 264 165t90 472q0 303 -89 468t-265 165q-174 0 -263 -162.5t-89 -470.5q0 -303 88 -470t264 -167zM549 666v151h166v-151h-166z " glyph-name="zero.salt" horiz-adv-x="1275"/><glyph d="M635 1495q217 0 353 -187.5t136 -564t-135 -566t-352 -189.5q-219 0 -356.5 187t-137.5 568q0 377 136.5 564.5t355.5 187.5zM633 1376q-174 0 -263 -162.5t-89 -470.5q0 -49 4 -131l680 400q-68 364 -332 364zM633 106q174 0 264 165t90 472q0 49 -4 136l-682 -396 q66 -377 332 -377z" glyph-name="zero.tnum" horiz-adv-x="1269"/><glyph d="M721 106h360v-106h-895v106h408v1018h-379v99h33q152 0 244 66.5t110 187.5h119v-1371z" glyph-name="one.tnum" horiz-adv-x="1269"/><glyph d="M588 119h506v-119h-920v51q0 57 13.5 112.5t29.5 96.5t54 88t61.5 75t78 72t79 62t88 63.5t81.5 57.5q135 98 206 188t71 217q0 137 -82 214t-219 77q-154 0 -236 -87t-73 -230h-131q-8 195 117.5 316.5t328.5 121.5q195 0 313.5 -113.5t118.5 -291.5q0 -158 -85 -270.5 t-245 -231.5q-23 -16 -85 -61.5t-87.5 -65t-76 -59.5t-73 -67.5t-52 -66.5t-42 -77.5t-14.5 -79.5q156 8 275 8z" glyph-name="two.tnum" horiz-adv-x="1269"/><glyph d="M623 -20q-213 0 -335 128t-112 338h141q-8 -174 77 -261t229 -87q147 0 237 83t90 220q0 139 -93 221.5t-255 82.5h-82v120h86q156 0 239 81t83 204q0 127 -84 195.5t-213 68.5q-145 0 -225 -89t-80 -253h-138q-8 207 118 335t325 128q182 0 309 -102.5t127 -282.5 q0 -233 -229 -336v-12q129 -47 191.5 -143.5t62.5 -212.5q0 -190 -131 -308t-338 -118z" glyph-name="three.tnum" horiz-adv-x="1269"/><glyph d="M975 446h188v-114h-188v-332h-129v332h-742v125l658 1020h213v-1031zM244 446h602v947z" glyph-name="four.tnum" horiz-adv-x="1269"/><glyph d="M639 969q201 0 333 -138.5t132 -353.5q0 -219 -137.5 -358t-348.5 -139q-201 0 -329.5 129t-124.5 337h133q-4 -150 85 -249t239 -99q154 0 248 101.5t94 271.5q0 168 -94.5 274.5t-250.5 106.5q-100 0 -185 -45t-118 -115h-120l28 785h819v-117h-704l-25 -516l6 -2 q47 57 136.5 92t183.5 35z" glyph-name="five.tnum" horiz-adv-x="1269"/><glyph d="M645 -20q-489 0 -489 757.5t503 757.5q188 0 304 -98.5t131 -268.5h-138q-14 127 -96 187.5t-201 60.5q-391 0 -360 -661h8q100 231 367 231q195 0 317.5 -132t122.5 -349t-127 -351t-342 -134zM655 98q143 0 229.5 100.5t86.5 270.5t-87 265t-229 95 q-156 0 -240.5 -108.5t-84.5 -259.5q0 -162 90 -262.5t235 -100.5z" glyph-name="six.tnum" horiz-adv-x="1269"/><glyph d="M125 1079v398h1038v-91q-231 -291 -412.5 -672.5t-244.5 -713.5h-141q59 313 232 688t394 672h-749v-281h-117z" glyph-name="seven.tnum" horiz-adv-x="1269"/><glyph d="M168 375q0 115 57.5 209t161.5 145v16q-100 45 -159.5 142.5t-59.5 210.5q0 172 130 283.5t335 111.5q207 0 337 -110.5t130 -284.5q0 -113 -58.5 -209t-158.5 -144v-16q102 -51 159.5 -146.5t57.5 -207.5q0 -174 -129 -284.5t-338 -110.5q-207 0 -336 110.5t-129 284.5z M305 1083q0 -135 91 -213.5t237 -78.5q154 0 242 80.5t88 211.5q0 135 -90.5 213t-239.5 78q-154 0 -241 -80t-87 -211zM305 391q0 -137 91 -215t237 -78q156 0 243 81t87 212q0 133 -90.5 212t-239.5 79q-154 0 -241 -81t-87 -210z" glyph-name="eight.tnum" horiz-adv-x="1269"/><glyph d="M612 -20q-178 0 -295.5 100t-132.5 264h135q12 -117 92.5 -181.5t204.5 -64.5q393 0 355 662h-8q-109 -229 -371 -230q-193 0 -314.5 132.5t-121.5 347.5q0 217 127 351t340 134q492 0 491 -772q0 -401 -126 -572t-376 -171zM612 647q156 0 242 107.5t86 261.5 q0 160 -90 260t-238 100q-145 0 -230 -100t-85 -270t87 -264.5t228 -94.5z" glyph-name="nine.tnum" horiz-adv-x="1269"/><glyph d="M635 1495q217 0 353 -187.5t136 -564t-135 -566t-352 -189.5q-219 0 -356.5 187t-137.5 568q0 377 136.5 564.5t355.5 187.5zM633 1376q-166 0 -255 -149.5t-97 -431.5h706q-8 281 -97 431t-257 150zM633 106q166 0 255 150t99 432h-706q8 -279 96 -430.5t256 -151.5z " glyph-name="zero.tnum.salt" horiz-adv-x="1269"/><glyph d="M430 -8q-158 0 -249 130t-91 372q0 248 93 374.5t247 126.5q156 0 248 -129t92 -372q0 -250 -94 -376t-246 -126zM428 113q203 0 203 380.5t-201 380.5q-203 0 -203 -376q0 -385 201 -385z" glyph-name="zero.dnom" horiz-adv-x="860"/><glyph d="M66 707v108h92q88 0 127 45t39 115v8h125v-983h-132v707h-251z" glyph-name="one.dnom" horiz-adv-x="634"/><glyph d="M248 117l164 8h280v-125h-592v33q0 102 47.5 186t114 138.5t133 104.5t113.5 113.5t47 137t-45 120t-123 46.5q-82 0 -130 -54.5t-46 -136.5l-131 10q2 133 89 215t226 82q135 0 216 -78.5t81 -201.5q0 -86 -41 -159t-101.5 -125t-122.5 -99t-113.5 -102.5t-65.5 -112.5z " glyph-name="two.dnom" horiz-adv-x="774"/><glyph d="M389 -14q-143 0 -228 86t-81 223h135q-2 -92 47 -141.5t127 -49.5t129 48.5t51 119.5q0 82 -54 127t-140 45h-68v125h62q86 0 133 45t47 113q0 72 -45 112t-113 40q-82 0 -128 -52.5t-44 -138.5h-135q-4 133 78 220t225 87q131 0 217 -71.5t86 -194.5q0 -66 -36 -123 t-105 -90v-10q158 -57 158 -234q0 -127 -90.5 -206.5t-227.5 -79.5z" glyph-name="three.dnom" horiz-adv-x="790"/><glyph d="M623 317h114v-120h-114v-197h-134v197h-444v114l358 672h220v-666zM190 317h299v555z" glyph-name="four.dnom" horiz-adv-x="817"/><glyph d="M86 299h135q-2 -82 48 -136t130 -54q84 0 136.5 57t52.5 151.5t-51.5 154.5t-137.5 60q-57 0 -103 -26.5t-63 -69.5h-127v547h574v-123h-442v-168l-5 -106l3 -2q29 29 81 49t105 20q133 0 219 -92t86 -237q0 -150 -92 -244t-236 -94q-137 0 -226 87t-87 226z" glyph-name="five.dnom" horiz-adv-x="808"/><glyph d="M88 477q0 236 87 377t265 141q123 0 202 -68.5t91 -185.5h-133q-8 63 -52 98t-112 35q-213 0 -213 -364h6q29 61 92.5 97t133.5 36q131 0 214 -91t83 -233q0 -147 -91.5 -239t-238.5 -92q-168 0 -251 131t-83 358zM244 319q0 -88 49 -149t135 -61q84 0 135 58t51 155 q0 94 -50 149t-136 55q-88 0 -136 -61.5t-48 -145.5z" glyph-name="six.dnom" horiz-adv-x="831"/><glyph d="M696 983v-96q-170 -219 -260 -426t-133 -461h-131q78 494 365 860h-361v-151h-100v274h620z" glyph-name="seven.dnom" horiz-adv-x="753"/><glyph d="M80 256q0 72 37 134.5t106 94.5v11q-70 33 -106.5 94t-36.5 137q0 119 90 193.5t236 74.5q147 0 235 -74.5t88 -193.5q0 -74 -38 -137.5t-103 -93.5v-11q141 -72 141 -231q0 -121 -89 -194.5t-234.5 -73.5t-235.5 74.5t-90 195.5zM217 713q0 -78 52.5 -122t136.5 -44 q86 0 135 46t49 120q0 78 -51.5 122t-132.5 44q-86 0 -137.5 -46t-51.5 -120zM217 268q0 -78 52.5 -121t136 -43t134 46.5t50.5 117.5q0 78 -51.5 122t-132.5 44q-86 0 -137.5 -46t-51.5 -120z" glyph-name="eight.dnom" horiz-adv-x="811"/><glyph d="M743 506q0 -233 -88 -375.5t-264 -142.5q-123 0 -204 68.5t-91 185.5h133q8 -66 53.5 -99.5t112.5 -33.5q213 0 213 366h-8q-31 -66 -92.5 -102.5t-134.5 -36.5q-129 0 -211 94t-82 238q0 141 91 234t235 93q170 0 253.5 -131t83.5 -358zM588 664q0 86 -50.5 148 t-136.5 62q-84 0 -134 -59t-50 -151q0 -96 50 -150.5t134 -54.5q88 0 137.5 60.5t49.5 144.5z" glyph-name="nine.dnom" horiz-adv-x="831"/><glyph d="M430 514q-158 0 -249 128t-91 368q0 246 93 370.5t247 124.5q156 0 248 -127t92 -368q0 -246 -94 -371t-246 -125zM428 633q203 0 203 377q0 375 -201 374q-203 0 -203 -370q0 -381 201 -381z" glyph-name="zero.numr" horiz-adv-x="860"/><glyph d="M66 1221v106h92q166 0 166 158v8h125v-969h-132v697h-251z" glyph-name="one.numr" horiz-adv-x="634"/><glyph d="M248 637l164 8h280v-123h-592v35q0 100 47.5 182t114 136.5t133 103.5t113.5 111.5t47 136t-45 118t-123 44.5q-80 0 -129 -53.5t-47 -135.5l-131 10q2 131 88 213t227 82q135 0 216 -76.5t81 -199.5q0 -84 -41 -156t-101.5 -124t-122.5 -98t-114.5 -101.5t-64.5 -112.5z " glyph-name="two.numr" horiz-adv-x="774"/><glyph d="M389 508q-141 0 -227 84t-82 221h135q-2 -90 47 -139t127 -49t129 47t51 119q0 82 -54 126t-140 44h-68v122h62q86 0 133 44t47 114q0 72 -45 110t-113 38q-82 0 -128 -51.5t-44 -137.5h-135q-4 131 77 218t226 87q131 0 217 -70.5t86 -191.5q0 -145 -141 -211v-10 q158 -59 158 -231q0 -125 -89.5 -204t-228.5 -79z" glyph-name="three.numr" horiz-adv-x="790"/><glyph d="M623 836h114v-119h-114v-193h-134v193h-444v112l358 664h220v-657zM190 836h299v548z" glyph-name="four.numr" horiz-adv-x="817"/><glyph d="M86 817h135q-2 -80 47 -134t131 -54q84 0 136.5 56t52.5 150.5t-51.5 155t-137.5 60.5q-57 0 -103 -27t-63 -72h-127v541h574v-123h-442v-166l-5 -104l3 -2q61 68 186 67q133 0 219 -91t86 -232q0 -147 -91 -240.5t-237 -93.5q-139 0 -227 85t-86 224z" glyph-name="five.numr" horiz-adv-x="808"/><glyph d="M88 993q0 231 87 371.5t265 140.5q121 0 201 -67.5t92 -182.5h-133q-8 61 -52 95t-112 34q-213 0 -213 -358h6q29 61 92.5 97t133.5 36q131 0 214 -91t83 -230q0 -143 -91.5 -235.5t-238.5 -92.5q-168 0 -251 129t-83 354zM244 838q0 -88 49 -148.5t135 -60.5 q84 0 135 58t51 152.5t-50 149.5t-136 55q-88 0 -136 -61t-48 -145z" glyph-name="six.numr" horiz-adv-x="831"/><glyph d="M696 1493v-96q-172 -215 -262 -421t-131 -452h-131q84 481 363 846h-359v-123h-100v246h620z" glyph-name="seven.numr" horiz-adv-x="753"/><glyph d="M80 774q0 162 143 230v10q-70 33 -106.5 94t-36.5 133q0 117 89 190.5t236.5 73.5t235.5 -73.5t88 -190.5q0 -158 -141 -227v-10q141 -70 141 -230q0 -117 -90 -190.5t-233 -73.5q-145 0 -235.5 73.5t-90.5 190.5zM217 1229q0 -76 51 -120t137.5 -44t135.5 46t49 118 q0 76 -51.5 119t-132.5 43q-88 0 -138.5 -45t-50.5 -117zM217 791q0 -78 51 -121t138 -43q84 0 134 46t50 118q0 74 -51.5 118.5t-132.5 44.5q-86 0 -137.5 -45.5t-51.5 -117.5z" glyph-name="eight.numr" horiz-adv-x="811"/><glyph d="M743 1022q0 -233 -88 -372.5t-264 -139.5q-121 0 -203 68.5t-92 183.5h133q10 -66 56.5 -99.5t109.5 -33.5q213 0 213 360h-8q-31 -63 -92.5 -97t-134.5 -34q-129 0 -211 90t-82 230q0 145 91 236t235 91q170 0 253.5 -130t83.5 -353zM588 1178q0 84 -50.5 145t-136.5 61 q-84 0 -134 -58t-50 -148q0 -96 50 -151.5t134 -55.5q88 0 137.5 62.5t49.5 144.5z" glyph-name="nine.numr" horiz-adv-x="831"/><glyph d="M113 1083q0 193 122.5 310.5t327.5 117.5q193 0 308.5 -103t115.5 -275q0 -106 -45 -184.5t-145 -178.5q-18 -18 -61.5 -60t-57.5 -57.5t-42 -49.5t-37 -57.5t-17.5 -60t-8.5 -79.5v-44h-131v44q0 63 13.5 117.5t51.5 107.5t54.5 73.5t76.5 77t62 58.5q156 154 156 295 q0 123 -81 191.5t-218 68.5q-152 0 -235.5 -85t-83.5 -227h-125zM410 0v197h202v-197h-202z" glyph-name="question.aalt" horiz-adv-x="1126"/><glyph d="M690 1262v-197h-203v197h203zM987 178q0 -193 -123 -310.5t-321.5 -117.5t-314 103.5t-115.5 275.5q0 106 45 184t145 179q18 18 61.5 60t57.5 57.5t42 49t37 57t17 60.5t8 80v43h131v-43q0 -63 -13 -117.5t-51 -107.5t-54.5 -73.5t-77 -77t-62.5 -58.5 q-156 -154 -155 -295q0 -123 81 -191.5t218 -68.5q152 0 235.5 85t83.5 226h125z" glyph-name="questiondown.aalt" horiz-adv-x="1126"/><glyph d="M1133 983h-197l-96 -418h243l-28 -106h-240l-106 -459h-127l106 459h-334l-106 -459h-127l106 459h-196l30 106h189l96 418h-235l30 107h230l102 442h127l-102 -442h336l102 442h127l-102 -442h202zM713 565l96 418h-336l-96 -418h336z" glyph-name="numbersign.aalt" horiz-adv-x="1196"/><glyph d="M141 739q0 244 89 458t239 337h113q-322 -264 -322 -789q0 -516 322 -786h-113q-150 121 -239 329.5t-89 450.5z" glyph-name="parenleft.aalt" horiz-adv-x="614"/><glyph d="M475 739q0 -240 -89 -448.5t-239 -331.5h-112q322 272 321 786q0 524 -321 789h112q147 -121 237.5 -336t90.5 -459z" glyph-name="parenright.aalt" horiz-adv-x="614"/><glyph d="M121 635v121q131 0 131 149v457q0 131 125 131h223v-104h-231v-480q0 -94 -43 -149t-103 -60v-6q59 -6 102.5 -63.5t43.5 -147.5v-503h231v-105h-223q-125 0 -125 131v481q0 78 -38 113t-93 35z" glyph-name="braceleft.aalt" horiz-adv-x="698"/><glyph d="M580 635q-57 0 -95.5 -35t-38.5 -113v-481q0 -131 -124 -131h-222v105h230v503q0 90 43 147.5t104 63.5v6q-61 4 -104 59.5t-43 149.5v480h-230v104h222q125 0 124 -131v-457q0 -150 134 -149v-121z" glyph-name="braceright.aalt" horiz-adv-x="698"/><glyph d="M246 -125v1614h348v-103h-234v-1406h234v-105h-348z" glyph-name="bracketleft.aalt" horiz-adv-x="694"/><glyph d="M100 -125v105h236v1406h-236v103h351v-1614h-351z" glyph-name="bracketright.aalt" horiz-adv-x="694"/><glyph d="M121 707v98h676v-98h-676z" glyph-name="hyphen.aalt" horiz-adv-x="919"/><glyph d="M121 707v98h1036v-98h-1036z" glyph-name="endash.aalt" horiz-adv-x="1280"/><glyph d="M121 707v98h1438v-98h-1438z" glyph-name="emdash.aalt" horiz-adv-x="1681"/><glyph d="M227 227v156l299 172l334 180v13l-336 159l-297 152v155l777 -421v-107z" glyph-name="greater.aalt" horiz-adv-x="1112"/><glyph d="M885 227l-776 459v107l776 421v-155l-299 -152l-334 -159v-13l334 -180l299 -172v-156z" glyph-name="less.aalt" horiz-adv-x="1112"/><glyph d="M78 1181.5q0 147.5 87 237.5t230.5 90t231.5 -90t88 -237.5t-88 -237.5t-231.5 -90t-230.5 90t-87 237.5zM201 1182q0 -100 53 -163t141 -63t142.5 62.5t54.5 163.5q0 96 -54.5 158.5t-142.5 62.5q-86 0 -140 -61.5t-54 -159.5zM86 481v111l1122 448v-114zM549 309 q0 145 88 235.5t231.5 90.5t231.5 -89t88 -236.5t-88 -238.5t-231.5 -91t-231.5 91t-88 238zM672 309q0 -100 54 -162.5t142 -62.5t142.5 62.5t54.5 162.5q0 98 -55.5 163t-141.5 65t-141 -65t-55 -163z" glyph-name="percent.aalt" horiz-adv-x="1286"/><glyph d="M413.5 895q-141.5 0 -230.5 86t-89 223t89 223t230.5 86t230.5 -86t89 -223t-89 -223t-230.5 -86zM414 1409q-88 0 -142.5 -56.5t-54.5 -148.5q0 -90 54.5 -147.5t142.5 -57.5t142 57.5t54 147.5q0 92 -54 148.5t-142 56.5zM1270 1122v-112l-1123 -445v113zM1012 600 q137 0 224 -86t87 -223q0 -139 -87 -225t-224 -86q-178 0 -267 126q-88 -127 -264 -126q-137 0 -224 86t-87 225q0 137 87 222t224 85q176 0 264 -125q89 127 267 127zM489.5 84q88.5 0 141.5 57.5t53 149.5t-53 149.5t-141.5 57.5t-142.5 -57.5t-54 -149.5t54 -149.5 t142.5 -57.5zM1003.5 84q88.5 0 142.5 57.5t54 149.5t-54 149.5t-142.5 57.5t-142.5 -57.5t-54 -149.5t54 -149.5t142.5 -57.5z" glyph-name="perthousand.aalt" horiz-adv-x="1404"/><glyph d="M1942 772v-55h-5q-12 -326 -265 -531.5t-642 -205.5q-401 0 -656 215t-255 552.5t253 550.5t658 213q393 0 645 -205.5t262 -533.5h5zM1245 1169q-35 135 -91 211t-124 76q-70 0 -127 -75.5t-92 -211.5h434zM1174 1440q80 -88 122 -271h232q-125 216 -354 271zM760 1169 q43 180 125 271q-229 -55 -355 -271h230zM1739 1169q-131 160 -357 234q123 -84 203 -234h154zM674 1403q-225 -74 -357 -234h154q80 150 203 234zM373 772q6 193 69 338h-170q-98 -150 -104 -338h205zM748 1110h-248q-68 -143 -74 -338h289q4 197 33 338zM764 772h528 q-2 182 -32 338h-463q-29 -141 -33 -338zM1341 772h289q-6 190 -71 338h-248q26 -148 30 -338zM1681 772h205q-6 188 -104 338h-168q65 -156 67 -338zM168 717q8 -184 106 -332h168q-63 154 -69 332h-205zM426 717q6 -188 74 -332h245q-29 147 -30 332h-289zM1292 717h-528 q2 -176 33 -332h463q30 156 32 332zM1311 385h245q68 143 74 332h-289q-1 -185 -30 -332zM1782 385q96 150 104 332h-205q-6 -184 -67 -332h168zM315 330q133 -162 353 -236q-123 88 -201 236h-152zM758 330h-230q125 -219 355 -275q-82 91 -125 275zM811 330 q35 -137 92.5 -215t126.5 -78q68 0 124 78t91 215h-434zM1298 330q-43 -182 -122 -275q229 55 352 275h-230zM1389 92q219 76 352 238h-154q-75 -150 -198 -238z" glyph-name="glyph554" horiz-adv-x="2060"/><glyph d="M176 741q0 340 213 554t540.5 214t540.5 -214t213 -554q0 -344 -213 -558t-540.5 -214t-540.5 214t-213 558zM268 741q0 -307 188.5 -499.5t473 -192.5t473 192.5t188.5 499.5q0 305 -188.5 497t-473 192t-473 -192t-188.5 -497zM602 743q0 143 95.5 236.5t232.5 93.5 t232 -93t95 -237q0 -150 -94 -242.5t-233 -92.5t-233.5 92.5t-94.5 242.5zM629 721l282 12l-182 -166l31 -32l164 186l-13 -291h39l-12 291l164 -186l31 32l-183 166l283 -12v41l-283 -12l183 165l-31 33l-164 -186l12 289h-39l13 -289l-164 186l-31 -33l182 -165l-282 12 v-41z" glyph-name="glyph555" horiz-adv-x="1859"/></font>
</defs>
</svg>
